<svg xmlns="http://www.w3.org/2000/svg" viewBox="0 0 100 100"><defs><style>.a{fill:#465881;}</style></defs><title>maquetadoyestructurado-01</title><path class="a" d="M79.37,35.07c-.06.48-.11,1-.16,1.44q.07-1.52.13-3V33a24.35,24.35,0,0,1,.07-5.41,22.92,22.92,0,0,0-.72-4.87c-.06-.27-.13-.55-.21-.82a.08.08,0,0,0-.06-.06,9.51,9.51,0,0,0-3.86-5.19,17.82,17.82,0,0,0-2.74-1,.42.42,0,0,1-.32-.28l-.3-.07H71a.43.43,0,0,1-.33-.11,3.73,3.73,0,0,1-.56-.12,1.27,1.27,0,0,0,0-1.24c-.28-.53-1.22-.47-1.71-.46h-.09a4.93,4.93,0,0,0-1.44-.2,6.74,6.74,0,0,0-1.41.16,1.84,1.84,0,0,0-.51.15h0c-.57.12-.66.71-.61,1.2-1.35,0-2.7.07-4,.13A.46.46,0,0,1,60,15Q42.41,15,24.86,16h-.22a.11.11,0,0,0-.14.12l-.65.29a2,2,0,0,0-1.24,1.39.33.33,0,0,0,.12.29,19.17,19.17,0,0,0-.53,6c0,2.77.19,5.56,0,8.33-.54,8.7-.36,17.46-.39,26.17v.82c-.1-1.94-.2-3.88-.24-5.82V49.08c0-.21-.08-2.65-.65-2.39h0c.53-.08.36,7.5.38,8.27.06,2.9.26,5.79.38,8.69v.74a.14.14,0,0,0-.09.13c0,2.23-.09,4.48-.09,6.7q-.24-2.87-.3-5.77c-.11-4.94.23-9.88.08-14.81,0-.18-.26-.16-.27,0-.16,4.93-.31,9.88-.23,14.82a65.6,65.6,0,0,0,.44,7c.12,1.14.26,2.27.39,3.4a28.49,28.49,0,0,0,.46,3.43c0,.1.14.09.19,0a7.94,7.94,0,0,0,1.8,4.25.4.4,0,0,1,.41-.2h0a6.07,6.07,0,0,1-1.58-3,5.38,5.38,0,0,0,2.05,3h.24c1.6,2,6.1,1.52,8.09,1.38,5.83-.4,11.5-1.3,17.39-1.1,6.55.22,13.1.15,19.65.27,3.45.07,6.29-1.41,6.75-5.14a.27.27,0,0,0-.5-.18c-.16.32-.3.63-.44.94.37-3.05.65-6.11.86-9.18a28.26,28.26,0,0,1,.35-6c.17-3.51.31-7,.48-10.52C78,49.51,78.38,45.28,79,41a39.1,39.1,0,0,0,.43-6.27ZM50.68,83.34c-4.8.19-9.66,0-14.44.5-3.34.34-6.57.92-9.56-.3,2.24.17,4.47.34,6.7.48,6.71-1.11,13.69-1,20.51-.81ZM63,82.28a4.19,4.19,0,0,1,.39-.45,15.13,15.13,0,0,1,1.75-1.51c.57-.43,1.15-.83,1.75-1.23l-.83.65a7.1,7.1,0,0,0-2.27,2.57ZM78.5,31.75c-.2,7.6-.83,15.2-1.27,22.78-.32,5.52-.39,11-.51,16.53a61.68,61.68,0,0,1-.56,7.82c-.06.38-.12.82-.2,1.28a6,6,0,0,1-1.14,1.75l-.7.5v.07a4.16,4.16,0,0,1-.48.22H71.83l.23-.33a8.79,8.79,0,0,1,.76-.83c.51-.51,1.06-1,1.6-1.49.12-.11-.06-.32-.19-.22-.57.48-1.16.94-1.71,1.44a4.27,4.27,0,0,0-1.19,1.41H70.19a11.39,11.39,0,0,1,1.23-1.18c.8-.65,1.64-1.26,2.45-1.9.15-.12,0-.38-.17-.26-1.31,1-3.08,1.95-4.15,3.31h-.93a3.25,3.25,0,0,1,.31-.44A8.17,8.17,0,0,1,70.42,81c1-.69,2-1.27,2.93-2,.15-.13,0-.39-.17-.26-1,.84-2.22,1.43-3.29,2.19A6.28,6.28,0,0,0,68,82.68h-.85a5.85,5.85,0,0,1,.34-.49,11.78,11.78,0,0,1,1.64-1.66,16.34,16.34,0,0,1,3.27-2.15c.16-.08,0-.35-.13-.28a13.93,13.93,0,0,0-3.54,2.22,9.23,9.23,0,0,0-2.25,2.12h-.82a5.88,5.88,0,0,1,.38-.62,11.3,11.3,0,0,1,1.53-1.65,10.82,10.82,0,0,1,3.79-2.42.15.15,0,1,0-.09-.29h0a9.1,9.1,0,0,0-3.85,2.29,12.34,12.34,0,0,0-1.69,1.78,5.39,5.39,0,0,0-.59.9h-.9a10.07,10.07,0,0,1,2.24-2.58,15,15,0,0,1,3.61-2.3c.18-.08.09-.36-.09-.29a11.28,11.28,0,0,0-1.39.66.15.15,0,0,0,0-.21l0,0a5,5,0,0,0,2.42-2c1.14-1.76,1.25-4.16,1.37-6.19.27-4.4.39-8.81.71-13.21.27-3.69.56-7.37.79-11.06.1,1.24.19,2.47.31,3.71,0,.14.25.18.26,0a32.32,32.32,0,0,0-.32-6.34l-.08-.67a129.75,129.75,0,0,0,0-13c-.12-2.32-.11-5.09-1.64-7-1.18-1.47-3.18-1.85-4.94-2.1-7.93-1-15.91-1-23.91-1.5A98.11,98.11,0,0,0,33,18.11c-2.14.11-4.78.29-6.68,1.49-.08-.2-.44-.14-.45.12v.19h0a.52.52,0,0,0-.06.73l.06.06c-.1,1.57-.18,3.13-.26,4.7a43.49,43.49,0,0,0-.22,5.23c-.18,5.33-.27,10.66-.39,16-.06,2.78-.19,5.55-.37,8.31,0-2.08-.15-4.19-.15-6.25,0-3-.07-5.91,0-8.87S24.75,34,25,31a50,50,0,0,0,.32-7.47.09.09,0,0,0-.18,0h0c-.19,2.63-.28,5.26-.53,7.88-.26,2.79-.44,5.57-.51,8.37-.07,3-.05,5.92,0,8.87s-.06,6,.17,8.89a.13.13,0,0,0,.13.13h0c-.06.73-.11,1.47-.18,2.2a41.89,41.89,0,0,0,.24,11.79c.48,2.45,1.63,4.64,4,5.67s4.88.69,7.22.53c3.73-.26,7.45-.23,11.19-.22,4.52,0,9.06,0,13.57.33,2.31.16,5.36.61,7.76-.17-1.24.78-2.5,1.52-3.67,2.41a11.62,11.62,0,0,0-2.22,2h-.73v-.06a10,10,0,0,1,1.62-1.43c1-.73,2-1.37,3-2.11.16-.12,0-.38-.17-.26-1.09.81-2.29,1.45-3.39,2.26A9,9,0,0,0,61,82.2H60A9.21,9.21,0,0,1,61.37,81a19.55,19.55,0,0,1,3.13-1.82c.15-.07,0-.34-.13-.27A19,19,0,0,0,61,80.82a9,9,0,0,0-1.58,1.41h-1l.08-.08a9,9,0,0,1,2-1.52c.16-.09,0-.33-.16-.24a10.46,10.46,0,0,0-2,1.38c-.16.14-.33.3-.49.47h-.5c.56-.48,1.07-1,1.65-1.46.09-.07,0-.21-.09-.14-.65.5-1.24,1.06-1.84,1.62-2.62.08-5.23.25-7.86.41-3.83.23-7.66.25-11.49.4-2.87.11-5.73.34-8.6.21-2.26-.11-4.13-.44-5.05-2.66a22.46,22.46,0,0,1-1.23-6.87c-.36-4.86-.1-9.74,0-14.6.13-8.29,0-16.58.21-24.87.08-2.91.07-5.78,0-8.69-.1-2.45-.55-5.6.45-7.84a.27.27,0,0,0,0-.24,4.86,4.86,0,0,1,2.21-.92,32,32,0,0,1,5.53-.75c4.75-.35,9.52-.33,14.27-.27,3.57,0,7.14.19,10.72.26,5.22.11,10.55-.89,15.66.62C78.44,18.34,78.6,26.11,78.5,31.75ZM25.58,47.9c.07-3.3,0-6.6,0-9.9a75.71,75.71,0,0,1,.22-9.5c.26-2.35-.05-4.84.51-7.14v-.57h.08c1.71-1.35,4.27-1.49,6.35-1.64a76.46,76.46,0,0,1,8.8,0c6.79.31,13.65.31,20.42,1,2.69.28,5.93.26,8.44,1.38a4.19,4.19,0,0,1,2.27,3c0,.32.06.63.09,1a12.26,12.26,0,0,1,.2,5.34c0,1.68,0,3.37,0,5,0,1,.14,2,.25,3-.11,5.36-.51,10.65-.91,15.93-.34,4.56-.65,9.12-.76,13.7-.06,2.27-.09,5.15-1.46,7.1-1,1.5-3,1.71-4.7,1.76-3.24.1-6.51-.29-9.75-.39-4.58-.17-9.13-.17-13.74-.17-3.08,0-6.15.34-9.23.37-2.86,0-5.48-.73-6.75-3.5-1.65-3.61-1.3-8.29-1-12.13.19-2.85.53-5.68.66-8.53A40.5,40.5,0,0,1,25.58,47.9Z"/><path class="a" d="M52,79.5a19.44,19.44,0,0,0-4.08-.25h-.08c-.76.09-1.1-.22-1.75.28a.35.35,0,0,0-.16.31c.06.43.25.83.32,1.26a.36.36,0,0,0,.37.33h5a.34.34,0,0,0,.31-.26,6.1,6.1,0,0,0,.3-1.26.32.32,0,0,0-.21-.4Zm-4.92.38a1.52,1.52,0,0,0,.81-.13,33.61,33.61,0,0,1,3.68.32,6.36,6.36,0,0,1-.18.66H46.87C46.75,80.35,46.63,79.87,47.09,79.88Z"/><path class="a" d="M69.74,16.54A1.85,1.85,0,0,0,68.31,16,1.27,1.27,0,0,0,67,16.7a1.65,1.65,0,0,0,.5,2.22c.92.54,2.4.43,2.74-.74A1.86,1.86,0,0,0,69.74,16.54ZM67.8,18.36c-.94-.43-.52-1.76.31-2h0c.26.2.6.21.89.38a1.38,1.38,0,0,1,.62,1.14c.06.87-1.33.7-1.81.48Z"/><path class="a" d="M68.4,17.13h-.14a.31.31,0,0,0-.28.24.27.27,0,0,0,0,.11h0A.35.35,0,0,0,68,18l.1.06h0a.36.36,0,0,0,.51,0l0-.06a.87.87,0,0,0,.12-.49.32.32,0,0,0-.35-.29Z"/><path class="a" d="M57.14,33.34a257.64,257.64,0,0,0-16.29,22c-.08.11.11.24.2.13,5.75-7.07,10.57-14.85,16.3-21.94C57.5,33.39,57.26,33.2,57.14,33.34Z"/><path class="a" d="M59,38.5c-5.49,6.25-11.05,12.73-15.3,19.9-.06.11.11.23.19.13,4.93-6.78,9.86-13.47,15.39-19.78A.19.19,0,0,0,59,38.5Z"/><path class="a" d="M58.36,44.94c-4.1,5-8.36,9.91-11.83,15.35-.06.09.09.2.16.11C50.5,55.2,54.5,50.11,58.5,45,58.55,45,58.43,44.86,58.36,44.94Z"/><path class="a" d="M51.08,37.59c-2,.44-3.41,2.35-4.56,3.84a65.67,65.67,0,0,0-4,6.11c-.07.12.12.25.2.13C44,45.9,45.08,44,46.34,42.26s2.73-3.8,4.82-4.49a.1.1,0,0,0-.08-.18Z"/><path class="a" d="M56.91,53.58c-2.41,1.94-3.75,4.8-5.68,7.17a.15.15,0,0,0,.22.19c2.27-2,3.37-5,5.69-7.06C57.29,53.75,57.07,53.46,56.91,53.58Z"/></svg>