<svg xmlns="http://www.w3.org/2000/svg" viewBox="0 0 100 100"><defs><style>.a{fill:#4e4e4e;}</style></defs><title>img-perfil</title><path class="a" d="M49.75,1A49.25,49.25,0,1,0,99,50.25,49.31,49.31,0,0,0,49.75,1Zm-12,72.74c.45-.3.88-.6,1.29-.93a3.38,3.38,0,0,0,1.61-3.24c0-1.77.14-3.52.16-5.29.45.38.9.76,1.34,1.11,1.94,1.55,3.85,3.32,6.19,4.16,0,0,1,.31,1,.31s1-.28,1-.31c2.34-.83,4.25-2.61,6.19-4.16.45-.36.89-.74,1.34-1.11,0,1.76.13,3.52.16,5.29a3.38,3.38,0,0,0,1.61,3.24c.41.33.85.64,1.29.93A38.67,38.67,0,0,1,61.24,80c.07,2.49-1.7,4-3.79,5-2.59,1.2-5.38,1-8.12,1.14-2.74-.1-5.53.06-8.12-1.14-2.08-1-3.86-2.52-3.79-5A38.67,38.67,0,0,1,37.7,73.74ZM36.47,58.3c-2.83-2.46-3.3-5.6-3.33-9.18A89.49,89.49,0,0,1,33.51,38a.6.6,0,0,0,.09-.18c1.16-4.29,5.93-8,10.06-4.55,1.81,1.53,2.84,2.42,4.85,2.72a.57.57,0,0,0,.36.12h.07l.44,0,.44,0h.07a.57.57,0,0,0,.36-.12c2-.3,3-1.19,4.85-2.72,4.1-3.47,8.84.21,10,4.47a87.5,87.5,0,0,1,.39,11.37c0,3.58-.5,6.72-3.33,9.18-3.83,3.32-7.67,9-12.86,10.29C44.14,67.29,40.3,61.62,36.47,58.3ZM71.33,91c-.29-4.26-.59-8.52-.7-12.79a7,7,0,0,1,3.23,1.68c1.39,1.66,2.7,3.4,4.13,5,.44.5.88,1,1.31,1.54a47,47,0,0,1-7.93,5.23Zm-44,0,0,.27a47,47,0,0,1-7.6-5.21c.32-.39.63-.78,1-1.15,1.43-1.63,2.74-3.37,4.13-5A7,7,0,0,1,28,78.24C27.93,82.51,27.63,86.77,27.34,91Zm52.91-5.34-.16-.2C78,83.06,76,79.28,73,78c-3.31-1.45-6.53-2.87-9.75-4.47-2.27-1.13-3.95-2.11-3.91-5,0-1.66-.19-3.3-.19-5a.63.63,0,0,0-.05-.26,45.93,45.93,0,0,0,4.46-4.49,11.4,11.4,0,0,0,2.8-5.5c.85.47,2-.17,2.63-.85a2.89,2.89,0,0,0,.51-2.05c-.06-1.26.54-2.11.91-3.25.71-2.14.4-4.78-1-5.68a14.59,14.59,0,0,0,.43-4.77c0-2.76-.12-5.46-.4-8.2a14.46,14.46,0,0,0-2.51-6.63c-1.72-2.71-1.95-6.06-2-9.22a.62.62,0,0,0-1.05-.43,27.52,27.52,0,0,1-5.91,5.6,8.51,8.51,0,0,0,0-1.79c-.17-1.7-.43-4.58-1.83-5.76a.62.62,0,0,0-.87,0,27,27,0,0,1-4,4.4c-.83.68-1.73,1.27-2.62,1.87A8.31,8.31,0,0,0,48,11.73a.62.62,0,0,0-1.06,0c-3.71,6.57-11.39,8.16-15.77,13.93a14.9,14.9,0,0,0-2.48,7.25c-.1,1-.07,8.07.76,8.44-1.52.78-1.88,3.55-1.15,5.78.38,1.14,1,2,.91,3.25a2.89,2.89,0,0,0,.51,2.05c.6.68,1.78,1.32,2.63.85a11.4,11.4,0,0,0,2.81,5.5,45.92,45.92,0,0,0,4.46,4.49.63.63,0,0,0-.05.26c0,1.66-.21,3.3-.19,5,0,2.88-1.64,3.87-3.91,5-3.22,1.6-6.44,3-9.75,4.47-2.92,1.28-5,4.87-6.94,7.31a46.79,46.79,0,1,1,61.48.43ZM66.81,43c3.06-2,3.1,2.77,2,4.55a6.59,6.59,0,0,0-.55,1.66c0,.13-.08,1.13-.23,2a1.2,1.2,0,0,1-.41.66,2.83,2.83,0,0,1-.67.31.69.69,0,0,0-.41-.19c.05-.41.1-.84.14-1.3A56.12,56.12,0,0,0,66.81,43ZM32,50.68c0,.46.09.89.14,1.3a.69.69,0,0,0-.41.19,2.83,2.83,0,0,1-.67-.31,1.2,1.2,0,0,1-.41-.66c-.15-.88-.19-1.87-.23-2a6.58,6.58,0,0,0-.55-1.66c-1.08-1.78-1-6.56,2-4.55A56.11,56.11,0,0,0,32,50.68Z"/></svg>