<svg xmlns="http://www.w3.org/2000/svg" xmlns:xlink="http://www.w3.org/1999/xlink" viewBox="0 0 3006 1670"><defs><style>.a{isolation:isolate;}.b,.g{fill:#465881;}.b,.c{opacity:0.9;mix-blend-mode:darken;}.c{fill:#c9d1d3;}.d{fill:#98a246;}.e{fill:#bfce75;}.f{fill:#587440;}.h{fill:#1b2a49;}.i{fill:#bfdcfd;}.j{fill:#fff;}.k{fill:url(#a);}.l{fill:#f5dd71;}.m{fill:#f3f8ff;}.n{fill:#d2b844;}.o{fill:#efefef;}.p{fill:#c7c7c7;}.q{fill:#a1a1a1;}.r{fill:#f2d05f;}.s{fill:#f2cf7d;}.t{fill:#323b73;}.u{fill:#dba585;}.v{fill:#6e8ac5;}.w{fill:#334e8b;}.x{fill:#3e4148;}.y{fill:#997761;}.z{fill:#ad9546;}.aa{fill:#5d5954;}.ab{fill:#8c867e;}.ac{fill:#6c6760;}.ad{fill:#7b6f66;}.ae{fill:#c99a7d;}.af{fill:#414d99;}.ag{fill:#70a5ee;}.ah{fill:#dca787;}.ai{fill:#454971;}.aj{fill:#2e3048;}.ak{fill:#eecaa2;}.al{fill:#dcd0c8;}.am{fill:#dedfe6;}.an{fill:#6684a9;}.ao{fill:#363957;}.ap{fill:#2a2c41;}.aq{fill:#bdb2ad;}.ar{fill:#cb4949;}.as{fill:#6f7fe6;}.at{fill:#5364db;}.au{fill:#5160ca;}.av{fill:#e6d8d1;}.aw{fill:#d7cac4;}.ax{fill:#dccfc8;}.ay{fill:#a99494;}.az{fill:#d0b6b6;}.ba{fill:#e6c9c9;}.bb{fill:#36373b;}.bc{fill:#c7c5ce;}.bd{fill:#232536;}.be{fill:#dba686;}.bf{fill:#9d9ca3;}.bg{fill:#e7e4f0;}.bh{fill:#3e4265;}.bi{fill:#cd7250;}.bj{fill:#c8bdb6;}.bk{fill:#2e384d;}.bl{fill:#394762;}.bm{fill:#c2c2c2;}.bn{fill:#f0c85e;}.bo{fill:#282f58;}</style><linearGradient id="a" x1="2770" y1="538.8" x2="2067.19" y2="538.8" gradientUnits="userSpaceOnUse"><stop offset="0" stop-color="#81d3e4"/><stop offset="1" stop-color="#6076fa"/></linearGradient></defs><title>header_nuestroequipo</title><g class="a"><path class="b" d="M3006,403.51V1670H1148c18.07-21.48,31.06-44.42,43.55-65.6,35.2-59.72,151.5-168.34,350.9-113.36,194.85,53.74,286-58.55,285.84-152a133.06,133.06,0,0,0-2.64-26.75c-19.64-96.59-127.69-185.54-204.64-258s-94.66-171.68-67.67-256.24c37.41-117.13,241.82-246.43,490-147.83,263.73,104.74,506.71,178.52,755.54,11.56C2919.22,581.09,2977.71,483.13,3006,403.51Z"/><path class="c" d="M3006,0V1670h-60.76c-272.51-426.15-713.62-419.94-950.46-361.39a1396,1396,0,0,1-166.46,30.46c-285.1,34.44-576.79-20.77-604.47-234.53-22.64-175,162.52-255.95,156.91-471.81-3.17-122-103.51-181.13-214.26-110.85S1006.68,475,961.82,334.43,839.58,150.7,694.05,176.79C558.11,201.2,442.88,134.27,419.27,0Z"/><rect class="d" x="2587.87" y="653.99" width="83.93" height="1.56" transform="translate(642.71 2497.62) rotate(-56.82)"/><path class="d" d="M2737.61,657.16c-19.17,11.5-52.55,26-102.67,29.66-48.18,3.54-85.3,8.24-116.84,14.78-39.08,8.11-69.14,19-91.89,33.35l.83,1.32c51.93-32.72,138.45-42.78,208-47.9,50.48-3.71,84.12-18.32,103.45-29.93,21-12.61,30.16-24.53,30.25-24.65l-1.24-.94C2767.42,633,2758.38,644.7,2737.61,657.16Z"/><path class="d" d="M2768.31,632.57c-43.07-10.6-83.64-15.05-121.25-13.34a305.06,305.06,0,0,0-55.59,7.51q-2.14.5-4.26,1a268.39,268.39,0,0,0-25.94,7.89,254.34,254.34,0,0,0-68.69,37.42q-5.53,4.21-10.86,8.78c-2.25,1.91-4.46,3.88-6.65,5.88-5.15,4.71-10,9.51-14.46,14.31-1,1.12-2.08,2.24-3.1,3.35a280,280,0,0,0-17.91,21.92c-.72,1-1.41,1.91-2.09,2.86-1.28,1.79-2.52,3.55-3.71,5.29-4.15,6.06-7.78,11.84-10.88,17.16q-1.39,2.35-2.63,4.58c-.79,1.39-1.52,2.74-2.23,4-11.24,20.85-15.85,35.78-15.9,35.93l-1.29,4.25,2.67-3.55c.1-.14,9.77-12.74,37.58-25.42l.8-.36q3.63-1.63,7.82-3.31c5.6-2.25,12-4.51,19.18-6.71q6.27-1.92,13.4-3.72a375.26,375.26,0,0,1,43.51-8.21,552.1,552.1,0,0,1,69.33-4.43,270,270,0,0,0,45.3-3.84q9.75-1.69,18.9-4.14a185.35,185.35,0,0,0,28-9.85,149.55,149.55,0,0,0,52.53-38.54c23.91-27.65,29-55.62,29.07-55.9l.12-.72Zm-29.66,55.77a142.72,142.72,0,0,1-33.92,28.52l-1.42.85a175.47,175.47,0,0,1-46,18.88q-8.1,2.14-17,3.72a266.35,266.35,0,0,1-45.12,3.87,559.08,559.08,0,0,0-69.34,4.39q-13.32,1.74-25.65,4.16-9.23,1.81-17.87,4-6.8,1.71-13.21,3.67-10.59,3.21-20.09,7-4,1.62-7.88,3.35l-1.49.68c-19.91,9.18-30.33,18.14-34.73,22.6a241.81,241.81,0,0,1,14.56-32c.66-1.23,1.36-2.5,2.09-3.81q1.5-2.68,3.18-5.53c2.85-4.84,6.12-10,9.82-15.48,1.9-2.81,3.93-5.69,6.08-8.61.68-.93,1.38-1.87,2.1-2.82a274.17,274.17,0,0,1,17.94-21.48c.64-.7,1.29-1.4,2-2.08,4.21-4.47,8.72-8.92,13.5-13.3q2.73-2.5,5.62-5,4.61-4,9.67-7.93a251.07,251.07,0,0,1,33.7-22.12,256.36,256.36,0,0,1,35.18-15.93,268.54,268.54,0,0,1,32.29-9.58,304.44,304.44,0,0,1,53-7.33q2.75-.16,5.52-.25l1.9-.06q5.29-.18,10.72-.17a390.83,390.83,0,0,1,46.53,2.87l1.57.19a483,483,0,0,1,54.92,10.18l.48.12c-.11.52-.29,1.3-.55,2.32C2764.66,644.13,2757.71,666.31,2738.64,688.34Z"/><path class="e" d="M2338.25,357s34.8,80.95,4,149.6c-65.32,145.65-15.8,126.87-15.8,126.87s41.92,97.34,108.8-21.75S2338.25,357,2338.25,357Z"/><path class="d" d="M2482.37,811.86S2451,712.53,2594.76,510.52s16.73-331.87,16.73-331.87C2240.75,494.77,2482.37,811.86,2482.37,811.86Z"/><path class="f" d="M2520.36,487.54c-105.06,72.38-154.23,285.75-82.2,265.9,354.73-97.74,341.89-418,341.89-418C2723,402.05,2625.43,415.16,2520.36,487.54Z"/><rect class="d" x="2677.47" y="648.4" width="54.53" height="1.56" transform="translate(1429.76 3121.32) rotate(-76.21)"/><rect class="d" x="2683.48" y="674.75" width="1.56" height="52.85" transform="translate(443.91 2337.54) rotate(-50.78)"/><path class="g" d="M1949,509.62a158.66,158.66,0,0,0-17-40.92l17.28-26-24-24-24-24-26,17.28a158.72,158.72,0,0,0-40.91-17l-6.15-30.56h-67.79l-6.15,30.56a158.74,158.74,0,0,0-40.91,17l-26-17.28-24,24-24,24,17.28,26a158.66,158.66,0,0,0-17,40.92l-30.57,6.15v67.79l30.57,6.15a158.69,158.69,0,0,0,17,40.92l-17.28,26,24,24,24,24,26-17.28a158.67,158.67,0,0,0,40.91,17l6.15,30.56h67.79l6.15-30.56a158.65,158.65,0,0,0,40.91-17l26,17.28,24-24,24-24-17.28-26a158.69,158.69,0,0,0,17-40.92l30.57-6.15V515.77ZM1794.42,668.45A118.78,118.78,0,1,1,1913.2,549.67,118.78,118.78,0,0,1,1794.42,668.45Z"/><path class="h" d="M1658.38,325.45a72.68,72.68,0,0,0-7.78-18.76l7.92-11.91-11-11-11-11-11.91,7.92a72.69,72.69,0,0,0-18.75-7.78l-2.82-14H1572l-2.82,14a72.66,72.66,0,0,0-18.76,7.78l-11.92-7.92-11,11-11,11,7.92,11.91a72.61,72.61,0,0,0-7.78,18.76l-14,2.82v31.08l14,2.82a72.6,72.6,0,0,0,7.78,18.76l-7.92,11.91,11,11,11,11,11.92-7.92a72.66,72.66,0,0,0,18.76,7.78l2.82,14h31.08l2.82-14a72.69,72.69,0,0,0,18.75-7.78l11.91,7.92,11-11,11-11-7.92-11.91a72.68,72.68,0,0,0,7.78-18.76l14-2.82V328.27Zm-70.87,72.81A54.45,54.45,0,1,1,1642,343.81,54.45,54.45,0,0,1,1587.51,398.26Z"/><path class="i" d="M1881.74,627.4h586.73a145.38,145.38,0,0,1,145.38,145.38v493.11a145.37,145.37,0,0,1-145.37,145.37H1881.74a145.37,145.37,0,0,1-145.37-145.37V772.78A145.37,145.37,0,0,1,1881.74,627.4Z" transform="translate(4350.21 2038.67) rotate(180)"/><rect class="j" x="1798.67" y="577.91" width="766.66" height="765.8" transform="translate(4364 1921.63) rotate(180)"/><path class="k" d="M1798.67,577.91h766.66a78.22,78.22,0,0,0-78.22-78.22H1876.9a78.22,78.22,0,0,0-78.23,78.22Z"/><path class="l" d="M2160.63,400.19a3.79,3.79,0,0,1-3.79-3.79V344a3.79,3.79,0,1,1,7.58,0v52.39A3.79,3.79,0,0,1,2160.63,400.19Z"/><path class="l" d="M2186.82,374h-52.39a3.79,3.79,0,0,1,0-7.58h52.39a3.79,3.79,0,1,1,0,7.58Z"/><rect class="m" x="1979.99" y="577.91" width="13.79" height="765.8"/><rect class="m" x="2175.11" y="772.17" width="13.79" height="766.66" transform="translate(1026.5 3337.5) rotate(-90)"/><rect class="m" x="2175.1" y="577.06" width="13.79" height="766.66" transform="translate(1221.61 3142.39) rotate(-90)"/><rect class="m" x="2175.11" y="382.8" width="13.79" height="766.66" transform="translate(1415.87 2948.13) rotate(-90)"/><rect class="m" x="2175.11" y="577.91" width="13.79" height="765.8"/><rect class="m" x="2370.22" y="577.91" width="13.79" height="765.8"/><path class="l" d="M2565.33,1162.39s-.13,83.93-19.8,155.08l-41.94,26.24H2355.74c28.09-74.75,28.26-181.33,28.26-181.33Z"/><polygon class="n" points="2503.59 1343.72 2503.59 1316.87 2545.53 1316.87 2503.59 1343.72"/><path class="l" d="M2370.22,967.27s-.13,83.93-19.8,155.08l-41.93,26.25H2160.63c28.09-74.76,28.26-181.33,28.26-181.33Z"/><polygon class="n" points="2308.48 1148.6 2308.48 1121.75 2350.41 1121.75 2308.48 1148.6"/><path class="l" d="M2370.22,577.91s-.13,83.93-19.8,155.08l-41.93,26.25H2160.63c28.09-74.75,28.26-181.33,28.26-181.33Z"/><polygon class="n" points="2308.48 759.24 2308.48 732.39 2350.41 732.39 2308.48 759.24"/><path class="o" d="M1980,1162.39s-.13,83.93-19.8,155.08l-41.94,26.24H1770.41c28.09-74.75,28.26-181.33,28.26-181.33Z"/><polygon class="p" points="1918.26 1343.72 1918.26 1316.87 1960.19 1316.87 1918.26 1343.72"/><path class="q" d="M1883.15,1286.42a4.22,4.22,0,0,1-4.21-4.21v-58.29a4.21,4.21,0,0,1,8.43,0v58.29A4.21,4.21,0,0,1,1883.15,1286.42Z"/><path class="q" d="M1912.29,1257.27H1854a4.21,4.21,0,1,1,0-8.43h58.29a4.21,4.21,0,1,1,0,8.43Z"/><path class="o" d="M2175.11,773S2175,857,2155.3,928.11l-41.94,26.25H1965.51C1993.61,879.6,1993.77,773,1993.77,773Z"/><polygon class="p" points="2113.37 954.35 2113.37 927.5 2155.3 927.5 2113.37 954.35"/><path class="q" d="M2078.26,897a4.22,4.22,0,0,1-4.22-4.22V834.54a4.22,4.22,0,1,1,8.43,0v58.29A4.22,4.22,0,0,1,2078.26,897Z"/><path class="q" d="M2107.41,867.9h-58.29a4.22,4.22,0,0,1,0-8.43h58.29a4.22,4.22,0,0,1,0,8.43Z"/><path class="o" d="M2565.33,967.27s-.13,83.93-19.8,155.08l-41.94,26.25H2355.74c28.09-74.76,28.26-181.33,28.26-181.33Z"/><polygon class="p" points="2503.59 1148.6 2503.59 1121.75 2545.53 1121.75 2503.59 1148.6"/><path class="q" d="M2464.91,1080.89l-26.34-23a5.19,5.19,0,0,1,6.82-7.82l18.62,16.24,26.56-29.63a5.19,5.19,0,0,1,7.73,6.93Z"/><path class="l" d="M1630.89,848.8l-21.2-18.48a4.18,4.18,0,1,1,5.49-6.3l15,13.07,21.38-23.85a4.18,4.18,0,0,1,6.22,5.58Z"/><path class="r" d="M2699.34,1052.19a12.81,12.81,0,0,1-7.65-2.31,9.61,9.61,0,0,1-4.17-7,58.36,58.36,0,0,0-4.82-14.61,25.78,25.78,0,1,1,30.85-1.86,55.52,55.52,0,0,0-2.15,14.49c.44,5.66-4.52,10.7-11.09,11.24C2700,1052.17,2699.66,1052.19,2699.34,1052.19Zm-2.78-69.1a23.67,23.67,0,0,0-12.46,43.58l.25.17.13.27a60.71,60.71,0,0,1,5.13,15.48v.08a7.53,7.53,0,0,0,3.29,5.5,10.87,10.87,0,0,0,7.23,1.88c5.43-.45,9.54-4.49,9.16-9V1041a58.06,58.06,0,0,1,2.31-15.41l.09-.32.26-.21a23.67,23.67,0,0,0-15.39-41.92Z"/><polygon class="r" points="2693.79 1043.87 2687.91 1016.19 2694.18 1020.49 2697.44 1016.15 2700.91 1019.64 2705.94 1014.53 2705.14 1042.85 2703.03 1042.79 2703.68 1019.82 2700.91 1022.63 2697.66 1019.37 2694.66 1023.37 2691.07 1020.91 2695.85 1043.43 2693.79 1043.87"/><rect class="r" x="2691.25" y="1049.57" width="18.28" height="7.37" transform="translate(-77.89 227.04) rotate(-4.75)"/><rect class="r" x="2687.87" y="1042.06" width="24.16" height="11.86" transform="translate(-77.58 227.41) rotate(-4.75)"/><polygon class="s" points="2376.79 304.09 2404.24 304.09 2395.84 286.66 2368.39 286.66 2376.79 304.09"/><polygon class="s" points="2363.95 304.09 2370.49 304.09 2362.08 286.66 2355.55 286.66 2363.95 304.09"/><polygon class="s" points="2269.11 283.34 2380.26 283.34 2376.57 274.62 2265.42 274.62 2269.11 283.34"/><polygon class="s" points="1551.74 664.15 1587.51 664.15 1576.56 641.44 1540.78 641.44 1551.74 664.15"/><polygon class="s" points="1534.99 664.15 1543.52 664.15 1532.57 641.44 1524.04 641.44 1534.99 664.15"/><path class="t" d="M1961.22,620.31a56.61,56.61,0,0,0-8.66,10.15c-4.1,6.15-15,6.47-15.44,14.87s14.79,8.65,22.8,5.92,9.22-10.93,14.07-13,7.36-3.71,7-7.71-3.05-10.5-3.05-10.5a32.92,32.92,0,0,1-4.78,1.16A39.61,39.61,0,0,1,1961.22,620.31Z"/><path class="r" d="M2016.14,392.93s-3.07,18.26-5.54,30.32h0a72.33,72.33,0,0,1-2.47,10c-.71,1.53-6.47,7.72-13.53,15C1982.22,461,1965.87,477,1965.87,477l-6.39-12.13s14.52-17,24.37-28.39c4.56-5.26,8.11-9.3,8.76-9.88,2.06-1.84,4.45-20,7.81-34.94s10.09-23.21,10.09-23.21Z"/><path class="u" d="M1994.59,448.22C1982.22,461,1965.87,477,1965.87,477l-6.39-12.13s14.52-17,24.37-28.39C1986.86,438,1992.4,441.49,1994.59,448.22Z"/><path class="t" d="M2074,615.31s4.2,4.65,6.69,7.47,12,7.85,12.06,16.22c.06,9.07-7,8.28-13.32,7.95s-11.42-4.68-14.07-9.82-9.71-6.49-10.21-10.63,3.27-11.6,3.27-11.6Z"/><path class="v" d="M2059.2,607.17l-.81,7.72s13.15,5.73,15.58.42l-.56-6.88Z"/><path class="v" d="M1961.94,614.72l-.72,5.59a27.56,27.56,0,0,0,16.7-.25l.18-5Z"/><path class="r" d="M2074.71,474.53c.46,1.62-84.14,0-84.14,0s23.4-17,24.92-21.58-6-31.85-6.93-40.74c-.78-7.11-2.74-38.91,2-43.77,4.9-5.08,22.53-10.4,22.53-10.4l25.71,1a40.37,40.37,0,0,1,7.27,2.3c3,1.41,20.38,7.59,23.2,16.25s-17.31,36.53-17.31,36.53,0,1.25-.1,3.3h0c-.08,2.74-.19,6.9-.3,11.41-.13,5.84-.25,12.28-.25,17C2071.26,456.82,2074.25,472.91,2074.71,474.53Z"/><path class="w" d="M2074.71,474.53s11.51,16.9,11.67,28.44-4.26,43.53-4.59,49.87-6.28,59.15-6.28,59.15-4.61,4.28-18.42-1.08c0,0-3-50.09-3.37-55.45s-.33-30.06-3.41-33.64-21.77-14.79-24.21-16.9-44.9,8-49.35,9.18c-11.52,3-6.27,23-3.72,32,4.26,15,8,69.34,8,69.34s-8.21,3.5-22,.54c0,0-27-98-27.86-107.8s-1.29-25.83,65.22-38Z"/><path class="u" d="M2040.09,302.18s-22.32-5-17.22,23.05,10.46,30.3,23.93,24.48,12.26-23.81,12.94-32.63S2047.21,302.49,2040.09,302.18Z"/><path class="u" d="M2034.19,365.26s9.88,10.48,25.51,1c0,0-3.49-22.71-1.65-33.77s-20.39,17.14-20.39,17.14c.29.15.49,1.21.53,2.71a30.23,30.23,0,0,1-.23,4.5C2037.49,360.47,2036.35,364.35,2034.19,365.26Z"/><path class="u" d="M2052.06,321.51c.29-2.48,5.19-3.39,5.58.33s-2.22,10.24-4.08,9.59S2051.66,324.93,2052.06,321.51Z"/><path class="x" d="M2058.65,331.5s-.58-8.85-3.81-9.13-3.73,3.29-3.73,3.29l-3.26.62s1-7.76-2.2-9.11-20.91,4.27-23.5,2-1.37-18,3.31-20.17,17.63-7,27.11-.56c0,0,7.39-.84,8.49,5.12S2060.66,327.06,2058.65,331.5Z"/><path class="y" d="M2038,356.79c16.12-5,17.33-14.67,17.35-14.83-5.31,9.12-17.12,10.33-17.12,10.33A30.23,30.23,0,0,1,2038,356.79Z"/><path class="u" d="M2066.29,361.42s-11.8,23.5-30.87,22-3.25-25.13-2.38-25.35S2052.59,353.17,2066.29,361.42Z"/><path class="r" d="M1980.89,473.34s58.42,7.2,93.82,1.19l-67.63-8.45S2006.68,467.81,1980.89,473.34Z"/><path class="u" d="M2024.59,463.42l-4.35,2.21s1,6.91,3.37,9l4.88-1.25S2027.47,465.81,2024.59,463.42Z"/><path class="r" d="M2092.19,449.27c-.87,1-12.36,5.63-25.33,10.62h0c-17.73,6.83-37.72,13.29-37.72,13.29l-4.55-9.76s20.94-11.38,35.09-19.36c6.68-3.77,11.85-6.78,12.58-7.48,2.28-2.17,2.87-5.64,1.19-11.7s-5.53-33.91-6-37.16,1.08-11.92,9.21-12.35,12.26,1.86,12.26,1.86,2,.85,3.56,20.57S2094.25,446.88,2092.19,449.27Z"/><path class="z" d="M2071.81,417.39h0c-.08,2.74-.19,6.9-.3,11.41-7.93-19.44-3.35-35-3.27-35.21C2067.39,398.86,2071.75,417.13,2071.81,417.39Z"/><path class="z" d="M2010.59,423.25h0a72.33,72.33,0,0,1-2.47,10c-2.71-13.11-.27-29.89-.27-29.89C2008.22,411.36,2010.59,423.25,2010.59,423.25Z"/><path class="u" d="M2066.86,459.89h0c-17.73,6.83-38.37,13.5-38.37,13.5l-3.9-10s20.94-11.38,35.09-19.36C2059.67,444.07,2064.82,446.57,2066.86,459.89Z"/><polygon class="aa" points="2023.33 473.97 1940.29 472.75 1982.21 494.04 2023.33 473.97"/><polygon class="ab" points="1982.21 494.04 2023.33 478.11 2023.33 473.97 1978.96 489.97 1982.21 494.04"/><path class="u" d="M2021.18,465.78s-5.19-.81-8.77-1.64c-2.77-.65-9.67.24-11.43,2s-7.34,14.19-8.4,14.94.54,2.51,2.4,1.63c0,0,1.71,5.43,5.91,3.4s7.06-6.47,9.26-7.25,15-4.72,15-4.72S2024.48,464.46,2021.18,465.78Z"/><path class="u" d="M2002.24,465.35a36.35,36.35,0,0,0-4.2,2.33c-.87.72-4.4,3.36-5.25,4s1.29,2.39,7.59-.34S2002.24,465.35,2002.24,465.35Z"/><polygon class="ac" points="1982.21 494.04 1957.51 426.6 1877.89 427.9 1901.43 490.04 1982.21 494.04"/><ellipse class="ad" cx="1926" cy="459.45" rx="6.75" ry="9.83" transform="translate(-2.1 910.02) rotate(-26.57)"/><path class="u" d="M1892.38,1129.55a13.51,13.51,0,0,1,1.75,4.63c.16,1.65,1.54,4.11,2.14,5.47s2.53,7.51,2.6,9.11c0,.65-1.43,4.78-1.23,6.1s1,3.93-.22,4.11-2.53-2-2.53-2a1.74,1.74,0,0,1-.89,1.68c-2,.9-3,.11-3,.11s-.72,1.34-1.62,1.52a3.66,3.66,0,0,1-3-.41,3.57,3.57,0,0,1-2.25.72,3,3,0,0,1-2.5-1.55s-2.23.45-2.87-.59-.54-2.15-.8-3.09-.06-9.45,2.83-15.57-.73-12.1-.73-12.1Z"/><path class="ae" d="M1895.21,1156.19s.2-7.63-1.81-9.26-2.24,1.13-2.24,1.13.27-2.72-1.92-3.09-2.29,2.86-2.29,2.86a2.12,2.12,0,0,0-2.67-1.67c-2.3.43-1.75,3.11-1.75,3.11s-2.2-2.63-3.63-.1c-2.41,4.26-.22,9.33-.22,9.33s.76,1.25,3,.68c0,0,1.49,3,4.78.86,0,0,3.45,1.87,4.68-1.1C1891.09,1159,1895,1160.53,1895.21,1156.19Z"/><path class="af" d="M1918.27,1019.61s-13.07,43.54-17.48,59.6c-1.38,5-4.74,53.14-5.33,55.08s-17.16,4.59-17.16,4.59,2-60.18,2.2-63.46,18.29-70.49,23.55-72.89c3.94-1.79,6-.31,11,3.38C1922,1011.09,1918.27,1019.61,1918.27,1019.61Z"/><rect class="ag" x="2043.49" y="948.61" width="35.74" height="2.65" transform="translate(-183.94 1281.92) rotate(-33.15)"/><path class="ah" d="M2080.23,950.29a7.79,7.79,0,0,1-.77,2.37s-1,1.17-1.62,2a8,8,0,0,0-.47.7,14.28,14.28,0,0,1-2.47,3.84c-1.43,1.44-7,6-7,6l-4.75-4-4.93-2.21s2.76-12,3.93-13.51a4.34,4.34,0,0,1,.36-.41,18.07,18.07,0,0,1,3.09-2.13c.24-.2,2.78-2,3.69-1.79a3.05,3.05,0,0,1,2.28,1.91,7.28,7.28,0,0,1,3.38,2.17,4.55,4.55,0,0,1,2.94,2.73S2080.13,948.88,2080.23,950.29Z"/><path class="ai" d="M1907.67,1316.92s-1.19,8.26-1.34,9.51-13.25-.73-13.25-.73l-1.06-9.84S1906,1315.75,1907.67,1316.92Z"/><path class="aj" d="M1906.47,1325.37s4.15,5,8.16,7.15,10.32,3,12.69,5.28c1.72,1.62,6.24,8.6-10.43,8.46s-24.71,1-26.5-1.69,2.58-19.77,2.58-19.77S1896.94,1326.23,1906.47,1325.37Z"/><path class="ai" d="M2001.53,1316.92s-1.19,8.26-1.34,9.51-13.25-.73-13.25-.73l-1.06-9.84S1999.89,1315.75,2001.53,1316.92Z"/><path class="aj" d="M2000.33,1325.37s4.15,5,8.16,7.15,18.79,4,21.16,6.2c1.71,1.62,4.56,8.15-18.89,7.54-16.67-.43-24.71,1-26.5-1.69s2.59-19.77,2.59-19.77S1990.56,1326.33,2000.33,1325.37Z"/><path class="aj" d="M1918.52,1104.51s-12.31,19.55-11.39,37.23-4.46,37-6.31,55.44c-2.06,20.59-10.5,69.32-10.8,80.33s1.31,46.17,1.31,46.17l16.89.39s14.18-85.2,17.85-93.89,21.89-70.67,22.5-77.63S1918.52,1104.51,1918.52,1104.51Z"/><path class="aj" d="M1983.31,1107.16s9.28,48.45,10.5,59.27,2,52.36,2.65,59.12,5.72,88.28,7.35,98.53h-21.59s-16.57-59.41-16.57-87.52-12.8-61.11-21.07-79.65-27.18-19-32.26-53.39C1912.32,1103.51,1976.43,1096.25,1983.31,1107.16Z"/><path class="u" d="M1939.06,940.1s16.52-6.17,24.14,6.41,6.88,37.75-1.44,40.85-20.84,1.48-25.1-6.39-8.12-19.25-7.93-26.85S1934.72,942.3,1939.06,940.1Z"/><path class="u" d="M1960,987.93s-.69,4.46.45,6.66-21.4,2.25-21.4,2.25a148.4,148.4,0,0,0-5.3-22C1930.24,964.7,1960,987.93,1960,987.93Z"/><path class="ak" d="M1933.7,974.79s1.56,2.57,7.91,1.57,14.1-9.44,16.75-10.37,2.68-2.49,2.68-2.49l1.66,2.42,2.82.18s-2.57-7.56,1.3-10.64-4-24.46-24.38-17.34c0,0-15.64,4.31-15.08,13.21S1930.2,970.36,1933.7,974.79Z"/><path class="al" d="M1961.74,994.33s-.07-4.2-2-4.6-21-2.24-23.34-1.32v4.89S1940.93,996.06,1961.74,994.33Z"/><path class="u" d="M1960.62,960.27c-.36-1.49-4.15-5.75-5.6-1.19s2.2,10.71,4.23,10.18S1961.52,964.06,1960.62,960.27Z"/><path class="af" d="M1993.34,1000.68c-13.1-1.72-31.6-6.36-31.6-6.36l-25.31-1s-23.23,5.11-32.38,9.24c-.87.39-.87,20.73-3.25,26.06l7.59,16s4.38,31.7,5.29,45.8c.42,6.47-9,60.69-9,60.69s10.13,3,27.41,4.89,60.45-.69,60.72-2.73-8.36-76-8.74-79.81c-.59-5.88,2-37.11,2-37.11,4-3.09,39-19.35,48.57-27.82,2.56-2.27,13.35-12.78,16.42-16.4,10.87-12.85,19.77-23.87,20.86-26.24,1.23-1.35-12.13-8.54-13.31-8.94s-15.4,18.79-21.05,24.91c-2.52,2.73-13,10.35-13,10.35S2001.53,1001.15,1993.34,1000.68Z"/><path class="ak" d="M1934.35,941.59s-21.07,1.65-.65,33.21Z"/><polygon class="am" points="2077.04 941.26 2078.77 938.63 2075.59 939.04 2077.04 941.26"/><polygon class="an" points="1885.32 1348.57 2031.39 1348.57 1985.36 1489.95 1989.66 1491.35 2037.63 1344.04 1882.03 1344.04 1834.52 1489.95 1838.82 1491.35 1885.32 1348.57"/><polygon class="an" points="1935.03 1489.95 1888.99 1348.57 2035.07 1348.57 2081.57 1491.35 2085.87 1489.95 2038.36 1344.04 1882.76 1344.04 1930.73 1491.35 1935.03 1489.95"/><rect class="an" x="1871.72" y="1388.56" width="178.79" height="4.53"/><rect class="an" x="1853.31" y="1437.72" width="213.91" height="4.53"/><path class="ao" d="M1729.59,1118.58s2,36.19-4.64,41.49c-3.07,2.45-10.31,3.22-18.12,3.23-2.58,0-5.21-.08-7.79-.21h0c-10.27-.51-19.5-1.82-19.5-1.82s-26.63,1.35-25.33-15.18c0,0,3.1-5,7.08-6.14,3.67-1.05,20.45,1.84,23.36,2,3.21.14,25.94,5.19,26.92,4.83s3.59-9.27,3.75-15.25c.23-8.63.2-16.58.2-16.58Z"/><path class="ap" d="M1588.43,1462.22s-2.24,5.39-4.12,7.53-9.1,6-9.14,12.3c0,6.88,12.17,5,16.94,4.72s5.14-3.93,7.15-7.82,4-3.24,4.42-6.38-1.54-10.18-1.54-10.18Z"/><path class="ap" d="M1684,1463.46s6.65,7,13.41,8.45,11.48,3.33,11.53,7.34-19.44,6.65-27.17,2.61c-11.53-6-12.71-4.21-14-7.23s1.54-11.08,1.46-12C1669.17,1461.4,1684,1463.46,1684,1463.46Z"/><path class="aj" d="M1683.25,1261.71s7,50.76,9.84,67.92c3.34,20.07,4.47,36.64,5.4,47,1.17,13.06-11.08,83.33-10.25,87.14s-22.05-1.58-22.05-1.58,7.19-83.61,3.7-97.52c-3.25-13-15-69.89-17.92-66.35s-21.56,66-23.76,76.23-23.35,90.19-23.35,90.19-15.81,3.4-19.83.2c0,0,13.8-73.48,15.19-92.63.54-7.3,4.86-87,17.2-119.31C1623.94,1236,1683.25,1261.71,1683.25,1261.71Z"/><path class="aq" d="M1500.72,1121.25l1.28-19.06a7.12,7.12,0,0,1,7.58-6.62l40.9,2.75a7.12,7.12,0,0,1,6.62,7.57l-1.28,19.07a7.11,7.11,0,0,1-7.57,6.62l-40.9-2.75A7.11,7.11,0,0,1,1500.72,1121.25Z"/><rect class="ar" x="1645.76" y="988.59" width="35.73" height="268.07" transform="translate(2895.35 -461.91) rotate(93.85)"/><rect class="as" x="1658.46" y="976.71" width="11.91" height="268.06" transform="translate(444.53 2696.9) rotate(-86.15)"/><rect class="at" x="1657.66" y="988.59" width="11.91" height="268.07" transform="translate(2895.29 -461.95) rotate(93.85)"/><rect class="au" x="1656.87" y="1000.47" width="11.91" height="268.07" transform="matrix(-0.07, 1, -1, -0.07, 2906.33, -448.45)"/><polygon class="av" points="1796.15 1149.43 1798.55 1113.79 1837.27 1130.64 1847.22 1134.97 1836.78 1137.93 1796.15 1149.43"/><path class="aw" d="M1797.75,1125.67a6,6,0,0,1,.8-11.88Z"/><path class="ax" d="M1797,1137.55a6,6,0,0,1,.8-11.88Z"/><path class="av" d="M1796.15,1149.44a6,6,0,0,1,.8-11.88Z"/><rect class="ay" x="1523.75" y="1093.45" width="11.91" height="16.47" transform="translate(327.83 2553.99) rotate(-86.15)"/><rect class="az" x="1522.95" y="1105.33" width="11.91" height="16.47" transform="translate(2742.66 -337.08) rotate(93.85)"/><rect class="ba" x="1522.15" y="1117.21" width="11.91" height="16.47" transform="translate(2753.51 -323.74) rotate(93.85)"/><polygon class="aw" points="1797.75 1125.67 1847.22 1134.97 1798.55 1113.79 1797.75 1125.67"/><polygon class="ax" points="1796.95 1137.55 1847.22 1134.97 1797.75 1125.67 1796.95 1137.55"/><polygon class="av" points="1796.95 1137.55 1847.22 1134.97 1796.15 1149.44 1796.95 1137.55"/><polygon class="bb" points="1836.78 1137.93 1837.27 1130.64 1847.22 1134.97 1836.78 1137.93"/><path class="ah" d="M1718.22,1106.67s-1.39,6.16-.05,7.86,2-.48,2-.48-.66,2.16,1,2.88,2.28-1.88,2.28-1.88a1.83,1.83,0,0,0,1.85,1.87c1.9.09,1.9-2.19,1.9-2.19s1.32,2.56,2.87.79c2.6-3,1.57-7.53,1.57-7.53s-.36-1.07-2.19-1c0,0-.69-2.68-3.64-1.59,0,0-2.37-2.15-3.82,0C1722,1105.39,1719.3,1103.24,1718.22,1106.67Z"/><path class="bc" d="M1591.33,1260.87s8.68,2.63,12.31,2,1.79-45.25,1.94-54.52c.11-7.53,4.23-27.39,4.23-27.39v0a0,0,0,0,1,0,0s0,0,0,0c.41,1.49,6,22.1,6.16,32,.2,10.28-1.34,49.6-1.34,49.6l15.32,1.49,44,1.08,9.18-1.08s-1.1-16.81-1.51-24.8c-.25-5.08-1.24-14.16-1-23,0,0-.16-9.33.77-13.35.1-17.74,1.17-35.3,1.17-35.3q.89-12.06,1.25-22.58c-1.94-1-4.27-2.23-6.14-3.12-5.78-2.75-13.82-6.45-19-8.82-3-1.39-6-2.4-6-2.4s-20.64-2-22.32-1.87a53.3,53.3,0,0,0-6.49,2.22c-7.32,2.78-21.43,8.43-23.68,10-3.3,2.36-10.26,58.42-10.58,62.35C1589.09,1210.54,1591.33,1260.87,1591.33,1260.87Z"/><path class="bd" d="M1681.82,1257.09s-30.21,2.57-56.66,0v8.68s39.73,5.74,58-1.65Z"/><path class="ao" d="M1656.05,1132s4.92,11.54,8.6,37.34c1.42,9.91,4,26.59,5.95,43.62h0c1.51,13.42,4.94,27.19,6,37.47,1.13,10.64,4.54,42,4.54,42l8.26-5.21c1.18-1.09,2.83-2.51,2.35-4-2.27-7.34-6.62-31.59-9.19-52.73,0,0,0,0,0,0-.12-1-.25-2-.36-3l0-.16c-.49-4.23-.89-8.28-1.17-12a37.65,37.65,0,0,1,.37-8.34c1.15-19,1.72-39,1.72-39,.61-8.19,2.11-18.78,2.34-25.92a44.74,44.74,0,0,1-7.32-1.46S1661.87,1134.44,1656.05,1132Z"/><path class="be" d="M1652.6,1131c.45,2.31-12.3,8.95-20.52,1.21,0,0,1.55-13.73,1-17.55s19.08,4.33,19.08,4.33,0,4.54.13,8.12c0,1.08.09,2.08.15,2.84C1652.51,1130.36,1652.56,1130.72,1652.6,1131Z"/><path class="be" d="M1651.64,1132.09a67.21,67.21,0,0,1-4.17,10.63s-6-5.26-7.89-7.13S1651.64,1132.09,1651.64,1132.09Z"/><path class="bf" d="M1641.2,1136.84l6.28,5.88s-7.42-.5-8.81-1.73Z"/><path class="bg" d="M1632.87,1126s5,8.17,8.33,10.83l-5.57,9.25-8.93-16.23Z"/><path class="ao" d="M1606.21,1208.74c-.64,8.61,3,56.25-.63,56.91s-17-2.27-17-2.27-1.67-51.37-1.14-56.75c.39-3.92,6.63-62.71,9.93-65.07,1.9-1.36,16-6.36,22.92-9.09,1.27-.5,5.27-2.18,6.4-2.61,1.47,1.64,14.25,31.64,15.47,55,.37,7.12-1.3,22.16-2.57,34.45-1.35,13.11-2.85,23.34-4,34.3-2.17,21.6-3.68,38.78-3.68,38.78l-21.49-9.57c-3.48-1.74-8.29-8.88-7-12.54,5-13.92,11.23-37.7,11.23-49.91,0,0-2.4-29.91-4.29-36.48C1610.41,1183.93,1607,1197.8,1606.21,1208.74Z"/><path class="ah" d="M1588.53,1287.85a8.7,8.7,0,0,1-.67-2.71s.24-1.69.34-2.9a7.28,7.28,0,0,0,0-.94,16,16,0,0,1,.08-5.11c.5-2.21,3.06-9.86,3.06-9.86l6.9,1,6-.81s4.47,13.05,4.24,15.17a5.51,5.51,0,0,1-.1.6c-.37,1.77-1.39,2.94-1.68,3.85-.11.33-1.44,3.57-2.44,3.88a3.41,3.41,0,0,1-3.29-.46s-2.75.73-4.5-.07a5.08,5.08,0,0,1-4.4-.85S1589.46,1289.14,1588.53,1287.85Z"/><path class="ao" d="M1606.77,1232.82l-.22,37.86a65.86,65.86,0,0,1-18-4.18l-.72-53.38Z"/><rect class="bh" x="1646.08" y="1257.62" width="14.24" height="10.58"/><path class="u" d="M1665,1091.34s4.74,8.8,2.39,10.16c-1.94,1.13,2.27,9.76,2.83,11.17s-3.52,2.43-4.39,3.34-3.43,12.08-6.78,12.41-18.46-4.92-22.57-9.2-7.49-23.6-4.75-31.75S1656.6,1076,1665,1091.34Z"/><path class="bi" d="M1665.92,1093.25s4.84-9.5-4-16.54-25,5.32-26.85,5.79-12.2,1.18-7,19.4c4.5,15.64,5,16.3,5,16.3s3.45-9.06,5.35-10.44c3-2.16,9.48-1.64,9.48-1.64s-3.1-8.24,1.75-9.41S1661,1091.43,1665.92,1093.25Z"/><path class="u" d="M1642.86,1101.39c-.43-1.13-1.81-6-6-3.13s2.6,12,3.32,12.12S1646.46,1110.91,1642.86,1101.39Z"/><path class="y" d="M1652.47,1129.92l-.27-.06a22,22,0,0,1-14.14-9.27c6,4,14.27,6.49,14.27,6.49C1652.37,1128.16,1652.41,1129.15,1652.47,1129.92Z"/><path class="bf" d="M1653.2,1138.49l-5.72,4.23s4.8-10.19,4.91-14.26Z"/><polygon class="bg" points="1652.38 1128.45 1656.27 1132.07 1660.36 1144.28 1653.19 1138.49 1652.38 1128.45"/><path class="bj" d="M2787,1415.1s2.91-4.41,3.39-7a8.32,8.32,0,0,1,1.93-4.07s11-1.6,15.27-5.54,13.22-14.66,17.47-11.45-3.07,16.74-7.4,20.82-10.19,11.24-15.52,10.71S2789.54,1415.52,2787,1415.1Z"/><path class="bk" d="M2787,1414.43l5.32-10.4s-25.48-4.67-32.93-9.16c-1.87-1.12-3.72-2.25-5.46-3.32a96.79,96.79,0,0,1-8.35-5.51c-3.68-3.12-18.43-13.58-22.41-17.41s-8.69-1.5-14.9-1.43-28.71,6.29-35.44,7.19-31,5.41-31,5.41C2646.05,1391.48,2787,1414.43,2787,1414.43Z"/><path class="bl" d="M2640.35,1379.41s13.71,2,17.24,2.24,24,1.92,33.87,2.86,29.19.38,33,2.07,26,9.2,33.27,11.54,54.43,11,54.43,11,.81,6.39-3.37,11.3c0,0-20.79-1.86-31.76-.24s-30.13-.84-41.77-6.12-30.07-.46-40.37,3.16-49.7,6.53-54.61,5.42-14.72-5.83-21.82-13.56S2640.35,1379.41,2640.35,1379.41Z"/><path class="av" d="M2808.82,1420.41s1.75-5,1.59-7.61a6.85,6.85,0,0,1,.64-3.89s10.57-4.75,13.73-9.6,9.29-17.42,14.18-15.33,1.07,17-2.15,22-5.2,18.34-10.49,19.12S2811.42,1420.19,2808.82,1420.41Z"/><path class="bl" d="M2609.53,1370.63s-17.33,39.33,9.57,48.86c21.45,7.61,61,.61,61,.61l-24.33-38.35Z"/><path class="ao" d="M2654.14,1222.23c-6.6,1.46-2.66,18-7.09,41.2s-18.38,26.78-18.38,26.78,6.2-10.27,5.52-21c-.53-8.39-10.69-31.29-.65-46.25,7.76-11.56,21.44-1.07,21.44-1.07Z"/><path class="u" d="M2644.21,1270.46l12.83,13.2a28.67,28.67,0,0,1,1.92-7.83c.45-1.21.91-2.3,1.27-3.13.49-1.11.83-1.8.83-1.8l-11.45-12.1Z"/><path class="r" d="M2659.48,1282.36a31.8,31.8,0,0,0,4,12.21c3.46,5.86,9.17,15.58,8.36,21.9s-3.5,8.62-5.93,10.89-9.1,18.71-9.91,25-1.32,19.46.21,29.12c0,0-45,5.22-49.52-2.64,0,0,5.58-25.28,8.22-31.62s8.15-44.23,10.51-50.67,7.94-12.67,11.35-17.14c3-4,8.59-11.42,8.59-11.42Z"/><path class="u" d="M2665.1,1223.58c5.94.4,18.69,4.88,18.9,20.76a49.15,49.15,0,0,1-2.37,7.36c-1.41,3.2.43,13.31-.39,13.71a21.73,21.73,0,0,1-4.11.64s-4.68,10.28-8.41,9.76-17.59-5.09-22.74-19.15S2641.13,1222,2665.1,1223.58Z"/><path class="ao" d="M2684,1244.34s-10.34,5.43-20,5.65-17.59,15.71-17.59,15.71-11.71-26.25,1.7-39.58S2688.18,1226.35,2684,1244.34Z"/><path class="u" d="M2661.74,1249.89c.16-1.85-1.57-4.85-4.88-2.68s-.26,11.39,2.31,10.82S2661.57,1251.8,2661.74,1249.89Z"/><path class="y" d="M2651.06,1265.35c.18.3,4.89,8,7.9,10.48.45-1.21.91-2.3,1.27-3.13C2660.23,1272.7,2653.51,1268.69,2651.06,1265.35Z"/><rect class="bm" x="2683.97" y="1382.93" width="63.98" height="5.57" transform="translate(304.28 -479.88) rotate(10.69)"/><rect class="bm" x="2730.71" y="1363.65" width="63.99" height="5.57" transform="translate(73.45 2872.28) rotate(-55.56)"/><path class="u" d="M2734.86,1386.45c.31-1.4,0-3.73-4.4-6.09s-13.9-7.72-17.25-7.85-9.93.4-11.28.39,2.12,8,2.12,8Z"/><path class="u" d="M2703.49,1373.52s-18.34-7.22-21.32-8.66-16.87-6.11-18.1-6.73-7-35.29-7.55-44-1-27.22-10.88-26.39-12.22,7.29-11,20,8.53,58.34,11.61,59.88,38.45,9.45,57.1,13.17C2721.19,1384.36,2703.49,1373.52,2703.49,1373.52Z"/><path class="av" d="M2657.52,1316.82s-14.21,2.65-22.4,3.47c0,0-10.19-29,3.68-33.68C2655.25,1281.12,2658.92,1303.63,2657.52,1316.82Z"/><path class="bn" d="M2705.41,858l-17.75-7.71A2.88,2.88,0,0,1,2690,845l12.55,5.46,9.06-20.09a2.87,2.87,0,0,1,5.24,2.36Z"/><path class="bn" d="M2725.59,874.89a36.28,36.28,0,1,1,8.83-50.54A36.32,36.32,0,0,1,2725.59,874.89Zm-38.74-55.13a31.1,31.1,0,1,0,43.33,7.57A31.13,31.13,0,0,0,2686.85,819.76Z"/><polygon class="aj" points="2276.42 1177.88 2238.33 1198.82 2200.08 1138.63 2246.34 1122.56 2276.42 1177.88"/><polygon class="al" points="2274 1176.08 2238.38 1195.66 2202.61 1139.36 2245.88 1124.33 2274 1176.08"/><path class="u" d="M2287,1165.55s-6.63-3.17-9.54-4.83-10.39-3.93-11-4.47-22.19-1.87-23.5-3-2.58,2.65,3,3.88,13.38,4.22,13.8,6.41-5.74,2.7-6.37,4.5.18,1.4,1.06,1.78,7.34-3.19,10.18-2.17,7.18-.39,9.35.35,12.76,4.31,12.76,4.31Z"/><path class="u" d="M2236.47,1191.27s-5.57-5-8.27-7.11-7.75-8.26-8.5-8.63-10.41-20.18-12-21,1.49-3.46,4.82,1.33,9.19,11,11.41,10.52.31-6.47,1.76-7.76,1.39-.38,2.09.31-.15,8.16,1.91,10.44,2.43,6.92,4,8.68,9,10.35,9,10.35Z"/><path class="ai" d="M2356.42,1459.2s1.2,8.36,1.35,9.62,13.4-.74,13.4-.74l1.07-10S2358.08,1458,2356.42,1459.2Z"/><path class="aj" d="M2357.63,1467.75s-4.2,5-8.26,7.23-10.44,3.07-12.84,5.34c-1.73,1.64-6.31,8.71,10.55,8.57s25,1,26.8-1.71-2.61-20-2.61-20S2367.28,1468.62,2357.63,1467.75Z"/><path class="ai" d="M2261.47,1459.2s1.21,8.36,1.36,9.62,13.4-.74,13.4-.74l1.07-10S2263.12,1458,2261.47,1459.2Z"/><path class="aj" d="M2262.68,1467.75s-4.2,5-8.26,7.23-19,4-21.41,6.27c-1.74,1.64-4.62,8.25,19.11,7.63,16.86-.44,25,1,26.8-1.71s-2.62-20-2.62-20S2272.56,1468.72,2262.68,1467.75Z"/><path class="aj" d="M2345.44,1244.32S2357.9,1264.1,2357,1282s4.51,37.41,6.39,56.09c2.08,20.83,10.62,70.13,10.93,81.27s-1.32,46.71-1.32,46.71l-17.08.39s-14.35-86.19-18.06-95-22.14-71.49-22.76-78.53S2345.44,1244.32,2345.44,1244.32Z"/><path class="aj" d="M2279.9,1247s-9.38,49-10.62,60-2.06,53-2.68,59.8-4.13,89.51-7.43,99.68H2281s16.77-60.1,16.77-88.54,13-61.82,21.31-80.58,27.5-19.21,32.64-54C2351.71,1243.31,2286.86,1236,2279.9,1247Z"/><path class="u" d="M2324.67,1078s-16.71-6.24-24.42,6.48-7,38.19,1.46,41.32,21.08,1.5,25.39-6.46,8.21-19.47,8-27.16S2329.06,1080.22,2324.67,1078Z"/><path class="u" d="M2303.52,1126.38s.7,4.51-.45,6.74,21.65,2.28,21.65,2.28a150,150,0,0,1,5.36-22.31C2333.59,1102.88,2303.52,1126.38,2303.52,1126.38Z"/><path class="x" d="M2330.08,1113.09s-1.57,2.6-8,1.59-14.26-9.55-16.94-10.49-2.71-2.51-2.71-2.51l-1.68,2.45-2.85.18s2.6-7.64-1.32-10.76,4.07-24.75,24.67-17.54c0,0,15.82,4.36,15.25,13.36S2333.62,1108.61,2330.08,1113.09Z"/><path class="al" d="M2301.72,1132.85s.07-4.25,2-4.66,21.25-2.26,23.61-1.33v4.95S2322.77,1134.61,2301.72,1132.85Z"/><path class="u" d="M2302.86,1098.4c.36-1.51,4.2-5.83,5.67-1.21s-2.22,10.83-4.28,10.3S2301.95,1102.23,2302.86,1098.4Z"/><path class="ao" d="M2225,1183h0C2224.92,1183.08,2224.9,1183.09,2225,1183Z"/><path class="af" d="M2359.49,1291.45s-10.25,3-27.73,4.94-61.15-.69-61.42-2.76,9.39-76.89,8.84-80.74-.84-17.58-.84-17.58c-.21,3.76-4,19.13-8.68,27.51-1.67,3-7.28,12.51-10,10.35-13.08-10.44-33.34-49.81-34.63-50.14,1.08-.47,9.6-4.39,10.8-4.79s10.49,9.64,16.2,15.84c2.55,2.76,4.36,4.77,4.36,4.77,1.65-3.72,7.66-27.12,9.53-35.22,4.22-18.27,3.57-19,3.57-19,12.79-3.87,32.2-11.74,32.2-11.74l25.61-1s23.5,5.17,32.76,9.35c.88.4.88,21,3.29,26.36l-7.67,16.19s-4.43,32.07-5.35,46.33C2349.92,1236.6,2359.49,1291.45,2359.49,1291.45Z"/><path class="af" d="M2364.44,1194.23c-.67,2.16-3.71,4-5.68,4.78a7.36,7.36,0,0,1-4.1.41l-1-.19h0l-17.55-3.26s-3.84-44.23,24-54.82C2360.82,1141.4,2370.58,1174.43,2364.44,1194.23Z"/><path class="bo" d="M2358.76,1199h0a7.36,7.36,0,0,1-4.1.41l-1-.19h0l1.73-22.6Z"/><path class="bo" d="M2256.42,1198.84l-2.15,9.08s-2.33-9.11-2.21-13.85C2254.61,1196.84,2256.42,1198.84,2256.42,1198.84Z"/><path class="x" d="M2329.43,1079.5s21.9-2.75.37,33.84Z"/><polygon class="aj" points="2217.69 1135.4 2215.46 1131.57 2233 1125.52 2235.22 1129.33 2217.69 1135.4"/></g></svg>