<svg xmlns="http://www.w3.org/2000/svg" viewBox="0 0 425 404"><defs><style>.a{fill:#8e716c;}.b,.k,.l,.m,.n,.q,.s,.t{fill:none;}.b,.k,.l,.n,.q,.s{stroke:#282828;stroke-linecap:round;stroke-linejoin:round;}.b{stroke-width:1.23px;}.c{fill:#ffb1a5;}.d{fill:#f3978e;}.e{fill:#372f5f;}.f{fill:#261b43;}.g{fill:#e6e6e6;}.h{fill:#fff;}.i{fill:#56dfed;}.j{fill:#282828;}.k{stroke-width:0.99px;}.l{stroke-width:1.23px;}.m{stroke:#c98bd2;stroke-width:1.34px;}.m,.t{stroke-miterlimit:10;}.n{stroke-width:1.23px;}.o{fill:#00857b;}.p{fill:#005683;}.q{stroke-width:1.4px;}.r{fill:#c98bd2;}.s{stroke-width:1.53px;}.t{stroke:#fff;stroke-width:1.95px;}</style></defs><title>sobre_nosotros</title><path class="a" d="M340.3,216.74l-36.5-4.86.29,3.62-31.21,4.16s-20.12,50.47-2.39,161.46h25.39L305,268.58h3.24l8.85,112.55h25.39C360.22,270.13,340.3,216.74,340.3,216.74Z"/><line class="b" x1="293.4" y1="268.58" x2="319.89" y2="268.58"/><path class="c" d="M361.61,163.5c-3.12-5-20.66-4.81-21.59-4.92-4.74-.56,3,37.18,12.91,70.17a11.08,11.08,0,0,0,14.93,7l.2-.08a11.09,11.09,0,0,0,6.58-12.27C369.94,198.55,365.22,169.26,361.61,163.5Z"/><polygon class="d" points="365.79 177.15 343.4 185.84 341.3 175.21 364.49 169.42 365.79 177.15"/><path class="d" d="M370,198.4s-10.61,14.25-10.1,13.59,8.32-23,8.32-23Z"/><path class="c" d="M385.19,179.25l-30.41,39.4a11.18,11.18,0,0,0,2.76,16.21h0a11.18,11.18,0,0,0,15.92-4.05l25.31-46.7Z"/><circle class="c" cx="396.92" cy="177.43" r="12.54" transform="translate(106.06 500.59) rotate(-72.1)"/><path class="c" d="M406.07,169.89s3.43-3.56-2.66-6.06-13.62-1.93-18.43,9.75Z"/><path class="e" d="M412.38,145l12.73,5.52a1.31,1.31,0,0,1,.58,1.88l-16.75,31.29a1.6,1.6,0,0,1-2,.76l-12.73-5.52a1.31,1.31,0,0,1-.58-1.88l16.75-31.29A1.6,1.6,0,0,1,412.38,145Z"/><path class="f" d="M411.16,144.44,423.89,150a1.31,1.31,0,0,1,.58,1.88l-16.75,31.29a1.6,1.6,0,0,1-2,.76L393,178.37a1.31,1.31,0,0,1-.58-1.88l16.75-31.29A1.6,1.6,0,0,1,411.16,144.44Z"/><polygon class="g" points="409.72 147.62 420.91 152.47 407.26 177.97 396.07 173.12 409.72 147.62"/><polygon class="h" points="420.91 152.47 396.07 173.12 409.72 147.62 420.91 152.47"/><path class="c" d="M399.75,162.79a20.31,20.31,0,0,1,5.39,2,2.88,2.88,0,0,1,1.39,3.2h0a2.86,2.86,0,0,1-2.42,2.15l-6.62.83s-3.45,6-8,6.62l4.14-10.45Z"/><path class="i" d="M315.21,113.88c-.73,0,46.95,6.6,54.81,61l-24.74,3.79-5,41h-69l-13.7-75.82s15.29-21.91,43.68-30Z"/><line class="b" x1="345.28" y1="178.62" x2="347.43" y2="154.89"/><path class="c" d="M319.74,114.66V95.78H297.62v19.1a43,43,0,0,0-5.94,2.41l17.26,10.28,17.64-10.28A28.78,28.78,0,0,0,319.74,114.66Z"/><path class="j" d="M297.41,98.08s4,10.55,14.58,9.64c9.75-.84,8.2-15.46,8.2-15.46Z"/><path class="d" d="M287.76,84c-3.47,3.15-11.22-8.79-7.87-12.14s5.91,1.91,5.91,1.91l1.5,3.56,1.13,4.82.27,1.26Z"/><path class="k" d="M281.51,76.14s2.63-1.18,5,2.62"/><path class="d" d="M328.77,83.69c3.19,3.43,11.93-7.81,8.87-11.43s-6,1.4-6,1.4l-1.79,3.42-1.53,4.71L327.9,83Z"/><path class="k" d="M335.67,76.34s-2.52-1.4-5.16,2.2"/><path class="j" d="M281.68,60.53c0,15.79,12,23.28,26.9,23.28s26.9-7.49,26.9-23.28S323.43,34,308.57,34,281.68,44.74,281.68,60.53Z"/><path class="c" d="M285.33,61.63a108,108,0,0,0,2.74,24c1.34,5.81,5.11,9.88,10.43,13.15l1,.6a18.3,18.3,0,0,0,18.63.21h0c5.77-3.36,9.81-7.8,11.05-14a157.87,157.87,0,0,0,2.51-23.91s2.15-24.48-22.83-24S285.33,61.63,285.33,61.63Z"/><path class="l" d="M307,75.6V79a1.53,1.53,0,0,0,.11.57,1.51,1.51,0,0,0,1.8.83l1.55-.41"/><path class="j" d="M303,62.46l-12.42,2.91s.56-3.16,5.64-4.31S303,62.46,303,62.46Z"/><path class="j" d="M314,62.46l12,2.91s-.54-3.16-5.45-4.31S314,62.46,314,62.46Z"/><ellipse class="j" cx="298.29" cy="71.59" rx="2.09" ry="2.09"/><ellipse class="j" cx="318.14" cy="71.59" rx="2.09" ry="2.09"/><path class="h" d="M300.39,84.33h16.15S309.38,93,300.39,84.33Z"/><circle class="m" cx="297.41" cy="72.4" r="8.9"/><circle class="m" cx="319.29" cy="72.4" r="8.9"/><path class="m" d="M306.31,72.4s2.11-2,4.07,0"/><line class="m" x1="288.51" y1="72.4" x2="285.7" y2="72.33"/><line class="m" x1="328.19" y1="72.4" x2="331.01" y2="72.33"/><path class="j" d="M331.34,69.75s-10-13.5-7.69-27.19A19.68,19.68,0,0,1,333,55.92C334.93,65.55,331.34,69.75,331.34,69.75Z"/><path class="j" d="M285.32,70.66s11.6-15.34,9.3-29a22.85,22.85,0,0,0-10,14.28C282.71,65.55,285.32,70.66,285.32,70.66Z"/><path class="j" d="M330.5,47.95s-12.83,14-47.92,11.64c0,0,5.37-20.61,22.38-22.8C305,36.79,324.6,34.44,330.5,47.95Z"/><circle class="j" cx="329.6" cy="31.53" r="16.76"/><path class="j" d="M125.06,216.7l-31.21-4.16.28-3.62-36.5,4.86s-19.92,53.39-2.19,164.38H80.83l8.85-112.55h3.24l9.14,112.55h25.39C145.17,267.17,125.06,216.7,125.06,216.7Z"/><path class="j" d="M122.57,64.86A57.55,57.55,0,0,1,112.09,46C109,37.22,98.9,40.77,98.9,40.77s-8.42-10.83-21.09-7.06S60.74,46.5,60.48,57.22,51.79,69.62,45.3,82c-11.46,21.89,7.83,40.33,43,35.21l0-.34a36.85,36.85,0,0,0,12.87,1.2C143.38,115.58,139.3,84.55,122.57,64.86Z"/><path class="d" d="M108.75,81.09c3.47,3.15,11.22-8.79,7.87-12.14s-5.91,1.91-5.91,1.91l-1.5,3.56-1.13,4.82-.27,1.26Z"/><path class="k" d="M115,73.18s-2.63-1.18-5,2.62"/><path class="d" d="M67.74,80.73c-3.19,3.43-11.93-7.81-8.87-11.43s6,1.4,6,1.4l1.79,3.42,1.53,4.71.37,1.24Z"/><path class="k" d="M60.84,73.38S63.36,72,66,75.57"/><path class="j" d="M114.84,57.57c0,15.79-12,23.28-26.9,23.28S61,73.37,61,57.57,73.09,31,87.94,31,114.84,41.78,114.84,57.57Z"/><rect class="c" x="76.77" y="92.82" width="22.13" height="28.65"/><path class="j" d="M73.54,91s6.16,12.29,13.74,14.21a10.67,10.67,0,0,0,6.14-.35c2.85-1,6.47-5.26,7.08-10l.29-2.69S87.3,99.57,73.54,91Z"/><path class="c" d="M111.18,58.67a108,108,0,0,1-2.74,24c-1.34,5.81-5.11,9.88-10.43,13.15l-1,.6a18.3,18.3,0,0,1-18.63.21h0c-5.77-3.36-9.81-7.8-11.05-14a157.88,157.88,0,0,1-2.51-23.91s-2.15-24.48,22.83-24S111.18,58.67,111.18,58.67Z"/><path class="n" d="M86.27,74v2a1.46,1.46,0,0,0,1.91,1.4L89.73,77"/><path class="j" d="M91.48,60.7l13.29,3.15s-.6-3.42-6-4.66S91.48,60.7,91.48,60.7Z"/><path class="j" d="M84.5,60.7,71,63.84s.61-3.42,6.12-4.66S84.5,60.7,84.5,60.7Z"/><ellipse class="j" cx="77.58" cy="68.95" rx="2.09" ry="2.08"/><ellipse class="j" cx="97.43" cy="68.95" rx="2.09" ry="2.08"/><path class="h" d="M78.29,80.86H96.67s-1.3,5.05-9.63,5.05A9.75,9.75,0,0,1,78.29,80.86Z"/><path class="j" d="M65.17,66.79s10-13.5,7.69-27.19A19.68,19.68,0,0,0,63.51,53C61.58,62.59,65.17,66.79,65.17,66.79Z"/><path class="j" d="M111.2,66.34s-11.6-14-9.3-27.65a22.85,22.85,0,0,1,10,14.28C113.81,62.59,111.2,66.34,111.2,66.34Z"/><path class="j" d="M66,45S77.47,60.4,112.57,58c0,0-4-22-21-24.16C91.55,33.83,71.91,31.48,66,45Z"/><path class="c" d="M34,284.47c-.51.8,29.21-129.3,20.39-127.34-.81.18-16.26,1.61-18.55,6.28C29.2,177,24.42,283.48,24.42,283.48Z"/><path class="c" d="M24.42,283.48s-4.79,22.22,13.32,24.65a2.54,2.54,0,0,0,2.74-1.68l.05-.15a2.54,2.54,0,0,0-1.41-3.14c-3-1.32-7.53-4.66-5.26-12.23,0,0,2.62-.32,4.06,4.56a2.1,2.1,0,0,0,3,1.3h0A2.1,2.1,0,0,0,42,294.64c-.43-3.42-2.15-11.65-8.75-13.86Z"/><path class="d" d="M30.51,194.68s17.12,24.11,17.21,23.65,6-33.86,6-33.86l-20.78-9Z"/><path class="o" d="M78.09,116.75c.73,0-42.32.77-50.19,55.12l24.74,3.79,5,41h69l13.7-75.82s-9.74-16.43-38.13-24.47Z"/><path class="c" d="M57,123.32s6.08,8.08,31,8.08c24.7,0,31-8.5,31-8.5s-14.56-8.13-31.45-10.77A111.93,111.93,0,0,0,57,123.32Z"/><polygon class="p" points="141.75 295.52 141.81 403.93 195.44 403.93 199.56 295.52 141.75 295.52"/><polygon class="p" points="258.19 295.52 258.13 403.93 204.5 403.93 200.38 295.52 258.19 295.52"/><rect class="p" x="173.45" y="295.53" width="55.45" height="37.66"/><line class="q" x1="181.2" y1="333.19" x2="219.44" y2="333.19"/><path class="c" d="M292.07,200.92c3.33,36.73-.18,63.5.79,131.09l-32,1.34-4.77-126.52Z"/><path class="d" d="M260,229.59s19.82-1.81,33.37-10.75L293,211l-33,4.5Z"/><path class="r" d="M228.23,116.35s63,15.83,74.37,95.75c0,0-30.81,13.36-61.69,7.61L247.85,193Z"/><path class="c" d="M40.17,149.58,87,204.94,72.7,245.33S37.07,195.8,21.06,157.51Z"/><path class="c" d="M41.71,151.57s-16.46,9.3-20.65,5.94c-7.32-5.88-13.36-27.4-13.36-27.4S38.48,118.51,38.19,119,41.71,151.57,41.71,151.57Z"/><path class="c" d="M41.71,151.57c-.29-1.66,6.1-19.53,8.3-26.24a3,3,0,0,0-2.34-3.73h0a3.42,3.42,0,0,0-3.81,1.56l-7.72,13.2Z"/><path class="c" d="M41.14,132.25l-5.3-26.37A3.32,3.32,0,0,0,32,103.24h0a2.86,2.86,0,0,0-2.35,3.17L32,126.05Z"/><path class="c" d="M30.6,122.52l-7.2-18.83a3.3,3.3,0,0,0-4.09-2h0a2.85,2.85,0,0,0-1.88,3.38l5.34,21.76Z"/><path class="c" d="M22.87,128.07l-9.11-18.5a3.62,3.62,0,0,0-4.62-1.77h0A3.15,3.15,0,0,0,7.51,112l7.26,17.47Z"/><path class="c" d="M7.7,130.11.55,118.77a2.56,2.56,0,0,1,1.25-3.42h0a2.92,2.92,0,0,1,3.57,1l9.4,13Z"/><path class="s" d="M39.7,130.27S29,129.14,27.87,143.44"/><path class="c" d="M63.19,226.44S72,257,89.58,252.9s45-41.58,45-41.58l-6.13-64.07L79.09,207.93Z"/><path class="d" d="M94.38,189.08s16.65,25.11,30.85,34l9.3-11.73L98.67,183.57Z"/><path class="r" d="M167.23,115s-48.88,11-74.93,67.83c0,0,15.74,23.71,41,34.25l16.89-20.69Z"/><path class="r" d="M167.23,114.79a122.41,122.41,0,0,0-31.1,22.78l3.77,166.06H260.22l-.39-165.2s-15.17-14.84-31.61-22.08C214.26,110.2,180.8,107.82,167.23,114.79Z"/><path class="q" d="M207.43,162.23H240.9a0,0,0,0,1,0,0V179a16.74,16.74,0,0,1-16.74,16.74h0A16.74,16.74,0,0,1,207.43,179V162.23A0,0,0,0,1,207.43,162.23Z"/><line class="q" x1="260.03" y1="220.32" x2="261.59" y2="166"/><line class="q" x1="137.98" y1="211.27" x2="135.38" y2="164.18"/><path class="j" d="M168.64,54.13l-5-24.81c-.28-2-1.07-5.14-.11-8.07,1.59-4.85,7.43-14.16,17.41-9.9l2.16,9.82s-10.36,2.09-14.52,15.65Z"/><path class="j" d="M180.19,16.47C180,19.73,177.13,34,167,39.2,167,39.2,158.15,20.19,180.19,16.47Z"/><path class="c" d="M215.68,110.22h0V68.08H176.84v42.14l-11.56,5.27S168,133,196.66,133.34s31.56-17,31.56-17Z"/><path class="j" d="M180.92,11.35S188.05-7.46,210,2.54c13.31,6.05,17,14.16,18.62,19.91a23.11,23.11,0,0,1,.59,6.71l-5.32,25L203.17,19.58l-20.09,1.59Z"/><path class="d" d="M223.93,54.13s2.62-4.17,8-2.12,3,15.17-5.14,16.84a6.41,6.41,0,0,1-5.18-1.36S223.61,57.81,223.93,54.13Z"/><path class="q" d="M230.88,56.64s-4.52-1.51-7.74,5.15"/><path class="d" d="M168.64,54.13S166,50,160.62,52s-3,15.17,5.14,16.84a6.41,6.41,0,0,0,5.18-1.36S168.95,57.81,168.64,54.13Z"/><path class="q" d="M161.69,56.64s4.52-1.51,7.74,5.15"/><path class="c" d="M224.47,41.68c0,7.91-.77,24.45-5.64,34.27-4.56,9.22-12.11,14.18-22,14.48s-17.27-3.52-23.18-15.49S168,41.83,168,41.83s0-28.25,27.92-28.25C225.34,13.58,224.47,41.68,224.47,41.68Z"/><path class="j" d="M177.13,80.85s3.25,16.51,17.62,18.4c16.53,2.18,20.93-18,20.93-18s-7.3,9.15-18.86,9.17A25.28,25.28,0,0,1,177.13,80.85Z"/><path class="q" d="M194.25,53.41V60a2.14,2.14,0,0,0,.15.8,2.1,2.1,0,0,0,2.51,1.16l2.17-.58"/><circle class="j" cx="183.46" cy="50.29" r="2.54"/><circle class="j" cx="207.29" cy="50.29" r="2.54"/><path class="j" d="M200.79,37.65l17.09,4.41s-.78-4.79-7.77-6.54S200.79,37.65,200.79,37.65Z"/><path class="j" d="M190.17,37.65l-17.09,4.41s.78-4.79,7.77-6.54S190.17,37.65,190.17,37.65Z"/><path class="q" d="M186.77,66.54s2.52,1.93,9.15,1.93a23.17,23.17,0,0,0,9.79-1.93"/><circle class="t" cx="182.78" cy="51.03" r="10.8"/><circle class="t" cx="209.31" cy="51.03" r="10.8"/><path class="t" d="M193.58,51s2.56-2.39,4.93,0"/><line class="t" x1="171.98" y1="51.03" x2="168.36" y2="50.94"/><line class="t" x1="220.11" y1="51.03" x2="224.15" y2="50.97"/><path class="j" d="M177.13,17.12s5.19,14.74,28.59,14.28c15.9-.31,19.7,11.2,19.7,11.2s-2.77-25.73-3.5-25.48-24.2-6.26-24.2-6.26Z"/></svg>