<?xml version="1.0" encoding="utf-8"?>
<!-- Generator: Adobe Illustrator 21.0.0, SVG Export Plug-In . SVG Version: 6.00 Build 0)  -->
<svg version="1.1" id="Capa_1" xmlns="http://www.w3.org/2000/svg" xmlns:xlink="http://www.w3.org/1999/xlink" x="0px" y="0px"
	 viewBox="0 0 1440 810" style="enable-background:new 0 0 1440 810;" xml:space="preserve">
<style type="text/css">
	.st0{clip-path:url(#SVGID_2_);}
	.st1{opacity:0.5;fill:#308284;}
	.st2{fill:#00818A;}
	.st3{fill:#84A2A3;}
	.st4{opacity:0.5;clip-path:url(#SVGID_2_);fill:#308284;}
	.st5{opacity:0.21;clip-path:url(#SVGID_2_);fill:#308284;}
</style>
<title>dsadsadsada</title>
<g>
	<defs>
		<rect id="SVGID_1_" x="1.5" y="1.1" width="1440" height="810"/>
	</defs>
	<clipPath id="SVGID_2_">
		<use xlink:href="#SVGID_1_"  style="overflow:visible;"/>
	</clipPath>
	<g class="st0">
		<path class="st1" d="M-2.6,228c-34.7,0.1-62.9,28.3-63,63c0.1,34.7,28.3,62.9,63,63c34.7-0.1,62.9-28.3,63-63
			C60.4,256.2,32.2,228-2.6,228z M-2.6,431.4c-77.2,0-140.2-63-140.2-140.4c0-77.2,63-140.2,140.2-140.2
			c77.4,0,140.2,63,140.2,140.2C137.8,368.4,74.8,431.4-2.6,431.4L-2.6,431.4z"/>
		<path class="st2" d="M1426.9,280.2c-34.8,0-63,28.2-63,63c0,34.8,28.2,63,63,63s63-28.2,63-63
			C1489.8,308.4,1461.7,280.3,1426.9,280.2z M1426.9,483.5c-77.6,0-140.8-63.6-140.2-141.6c0.6-76.3,63.1-138.5,139.4-139
			c77.7-0.4,141,62.7,141,140.2C1567.3,420.5,1504.3,483.5,1426.9,483.5L1426.9,483.5z"/>
		<path class="st3" d="M823.4-100.8c-34.7,0.1-62.9,28.3-63,63c0.1,34.7,28.3,62.9,63,63c34.7-0.1,62.9-28.3,63-63
			C886.4-72.6,858.2-100.8,823.4-100.8z M823.4,102.5c-77.2,0-140.2-63-140.2-140.4c0-77.2,63-140.2,140.2-140.2
			c77.4,0,140.2,63,140.2,140.2C963.8,39.5,900.8,102.5,823.4,102.5L823.4,102.5z"/>
	</g>
	<path class="st4" d="M92.5,416.4c-10.3,0-18.7,8.4-18.7,18.7c0,10.3,8.4,18.7,18.7,18.7c10.3,0,18.7-8.4,18.7-18.7
		C111.2,424.8,102.9,416.5,92.5,416.4z M92.5,476.8c-22.9,0-41.6-18.7-41.6-41.6c0-22.9,18.7-41.6,41.6-41.6
		c23,0,41.6,18.7,41.6,41.6C134.2,458.1,115.5,476.8,92.5,476.8L92.5,476.8z"/>
	<path class="st5" d="M412.2,16.2c-72,0.2-130.3,58.5-130.5,130.5c0.2,72,58.5,130.3,130.5,130.5c72-0.2,130.3-58.5,130.5-130.5
		C542.6,74.7,484.2,16.3,412.2,16.2z M412.2,437.6c-159.9,0-290.4-130.5-290.4-290.8c0-159.9,130.5-290.4,290.4-290.4
		c160.3,0,290.4,130.5,290.4,290.4C703,307.1,572.5,437.6,412.2,437.6L412.2,437.6z"/>
</g>
</svg>
