<svg xmlns="http://www.w3.org/2000/svg" viewBox="0 0 1440 810"><defs><style>.a{fill:#e8e8e8;stroke:#e5e5e5;stroke-linecap:round;stroke-linejoin:round;stroke-dasharray:0.4 20;opacity:0.36;}</style></defs><title>background_planes</title><path class="a" d="M-745.44,318.36,27.46-887.14"/><path class="a" d="M-717.17,336.49,55.74-869"/><path class="a" d="M-688.9,354.62,84-850.89"/><path class="a" d="M-660.62,372.74,112.28-832.76"/><path class="a" d="M-632.35,390.87,140.55-814.64"/><path class="a" d="M-604.08,409,168.82-796.51"/><path class="a" d="M-575.81,427.12,197.09-778.38"/><path class="a" d="M-547.54,445.25,225.37-760.26"/><path class="a" d="M-519.27,463.37,253.64-742.13"/><path class="a" d="M-491,481.5,281.91-724"/><path class="a" d="M-462.72,499.63,310.18-705.88"/><path class="a" d="M-434.45,517.75,338.45-687.75"/><path class="a" d="M-406.18,535.88,366.72-669.63"/><path class="a" d="M-377.91,554,395-651.5"/><path class="a" d="M-349.64,572.13,423.27-633.37"/><path class="a" d="M-321.37,590.26,451.54-615.25"/><path class="a" d="M-293.09,608.38,479.81-597.12"/><path class="a" d="M-264.82,626.51,508.08-579"/><path class="a" d="M-236.55,644.64,536.35-560.87"/><path class="a" d="M-208.28,662.76,564.62-542.74"/><path class="a" d="M-180,680.89,592.9-524.62"/><path class="a" d="M-151.74,699,621.17-506.49"/><path class="a" d="M-123.46,717.14,649.44-488.36"/><path class="a" d="M-95.19,735.27,677.71-470.24"/><path class="a" d="M822.29,1112.24,1595.19-93.27"/><path class="a" d="M850.56,1130.36,1623.46-75.14"/><path class="a" d="M878.83,1148.49,1651.74-57"/><path class="a" d="M907.1,1166.62,1680-38.89"/><path class="a" d="M935.38,1184.74,1708.28-20.76"/><path class="a" d="M963.65,1202.87,1736.55-2.64"/><path class="a" d="M991.92,1221,1764.82,15.49"/><path class="a" d="M1020.19,1239.12,1793.09,33.62"/><path class="a" d="M1048.46,1257.25,1821.37,51.74"/><path class="a" d="M1076.73,1275.37,1849.64,69.87"/><path class="a" d="M1105,1293.5,1877.91,88"/><path class="a" d="M1133.28,1311.63l772.9-1205.51"/><path class="a" d="M1161.55,1329.75l772.9-1205.51"/><path class="a" d="M1189.82,1347.88l772.9-1205.51"/><path class="a" d="M1218.09,1366,1991,160.5"/><path class="a" d="M1246.36,1384.13l772.9-1205.51"/><path class="a" d="M1274.63,1402.26l772.9-1205.51"/><path class="a" d="M1302.91,1420.38l772.9-1205.51"/><path class="a" d="M1331.18,1438.51,2104.08,233"/><path class="a" d="M1359.45,1456.64l772.9-1205.51"/><path class="a" d="M1387.72,1474.76l772.9-1205.51"/><path class="a" d="M1416,1492.89,2188.9,287.38"/></svg>