<svg xmlns="http://www.w3.org/2000/svg" xmlns:xlink="http://www.w3.org/1999/xlink" viewBox="0 0 603 475.5"><defs><style>.a{isolation:isolate;}.b{fill:url(#a);}.c{fill:#cc8736;}.d{fill:url(#b);}.e{fill:#fff;}.f{fill:#7094fb;}.g{fill:#f4f6ff;}.h{fill:#363957;}.i{fill:#d4d4d4;}.j{fill:#e6e6e6;}.k{fill:silver;}.l{fill:#dedede;}.m{fill:#efefef;}.n{fill:#4772b0;}.o{fill:#74acfb;}.p{fill:#d7d7d7;}.q{fill:#385988;}.r{fill:#6d9ff0;}.s{fill:#2a2c41;}.t{fill:#eebd5d;}.u{fill:#dba585;}.v{fill:#6e8ac5;}.w{fill:#3e4148;}.x{fill:#997761;}.y{fill:#a28241;}.z{fill:#5d5954;}.aa{fill:#8c867e;}.ab{fill:#6c6760;}.ac{fill:#7b6f66;}.ad{fill:#695bda;}.ae{fill:url(#c);}.af{fill:#32333a;}.ag{fill:#2e3048;}.ah{fill:#20212e;}.ai{fill:#c5c7ca;}.aj{fill:#23354f;}.ak{fill:#c54444;}.al{fill:#2c3d54;}.am{fill:#424650;}.an{fill:#b6b6b6;opacity:0.1;}.ao{fill:#8a98be;opacity:0.3;}.ap{fill:#dcd0c8;}.aq{fill:#454971;}.ar{fill:#dba686;}.as{fill:#cd7250;}.at{fill:#3a3d5d;}.au{fill:#e6d8d1;}.av{fill:#c8bcb6;}.aw{fill:#4c507d;}.ax{fill:#6f6f6f;}.ay{fill:#9f9f9f;}.az{fill:#f3e4dc;}.ba{fill:#cfc3bc;}.bb{fill:gray;}.bc{mix-blend-mode:hard-light;}.bd{fill:#f4f4f4;}.be{fill:#72acfb;}.bf{fill:#5886c7;}.bg{fill:#e5f2fd;}.bh{fill:#c5cacf;}.bi{fill:url(#d);}</style><linearGradient id="a" x1="378.86" y1="46.67" x2="209.14" y2="260.4" gradientUnits="userSpaceOnUse"><stop offset="0" stop-color="#e79d5a"/><stop offset="1" stop-color="#f2d05f"/></linearGradient><linearGradient id="b" x1="275.59" y1="396.47" x2="275.59" y2="134.52" xlink:href="#a"/><linearGradient id="c" x1="328.16" y1="247.15" x2="347.02" y2="298.84" gradientTransform="translate(-44.63 62.49) rotate(-9.72)" gradientUnits="userSpaceOnUse"><stop offset="0" stop-color="#81d3e4"/><stop offset="1" stop-color="#6076fa"/></linearGradient><linearGradient id="d" x1="479.33" y1="54.14" x2="522.26" y2="54.14" xlink:href="#a"/></defs><title>image_header</title><g class="a"><polygon class="b" points="537.27 97.65 294.33 340.59 282.37 352.55 256.85 378.07 197.66 437.25 14.93 254.51 59.38 210.07 113.79 264.48 166.08 316.77 197.66 348.36 229.25 316.77 421.74 124.27 492.81 53.2 537.27 97.65"/><polygon class="c" points="294.33 297.71 294.33 340.59 282.37 352.55 256.85 378.07 256.85 297.71 294.33 297.71"/><path class="d" d="M437.39,140.71v56.82l-155,155H130.25a16.46,16.46,0,0,1-16.46-16.46V140.71a16.45,16.45,0,0,1,16.46-16.46H420.93l.81,0A16.46,16.46,0,0,1,437.39,140.71Z"/><polygon class="e" points="424.72 99.96 424.72 210.19 318.15 316.77 126.45 316.77 126.45 99.96 424.72 99.96"/><rect class="f" x="126.46" y="99.95" width="298.26" height="26.19" transform="translate(551.18 226.09) rotate(180)"/><rect class="g" x="138.91" y="108.1" width="42.54" height="9.9" rx="4.95" ry="4.95"/><path class="h" d="M437.63,332h0C437.58,332,437.57,332,437.63,332Z"/><polygon class="i" points="468.2 264.19 497.97 247.54 487.74 246.86 468.2 264.19"/><polygon class="j" points="468.2 264.19 477.36 249.45 485.05 249.25 468.2 264.19"/><polygon class="k" points="491.13 251.37 491.72 255.12 468.2 264.19 491.13 251.37"/><path class="l" d="M77.79,240.58c-.1-1.17-.19-2.35-.27-3.51l.81-.06c.08,1.16.17,2.34.27,3.5Zm421.57-3.71-.46-.67a33.91,33.91,0,0,0,3.35-2.78l.56.6A34,34,0,0,1,499.36,236.88Zm-422.12-4.2c-.08-1.47-.15-2.95-.21-4.4l.81,0c.06,1.45.13,2.93.21,4.39Zm428.66-1.84-.61-.54a37.76,37.76,0,0,0,2.67-3.44l.67.46A38.63,38.63,0,0,1,505.9,230.83Zm-429-7c0-1.47-.06-3-.07-4.41h.81c0,1.45,0,2.93.07,4.39Zm434-.38-.73-.37a26.75,26.75,0,0,0,1.63-4l.78.24A27.58,27.58,0,0,1,510.91,223.49ZM77.64,215.06h-.81c0-1.47,0-3,.08-4.41l.81,0C77.68,212.12,77.65,213.6,77.64,215.06ZM513.52,215l-.81-.09a21.84,21.84,0,0,0,.15-2.51c0-.6,0-1.21-.08-1.8l.81-.07c.05.62.08,1.25.08,1.87A22.65,22.65,0,0,1,513.52,215ZM512,206.33a25.68,25.68,0,0,0-1.54-4l.74-.35a26.54,26.54,0,0,1,1.58,4.17Zm-434.12-.06-.81,0c.07-1.47.15-2.95.24-4.4l.81.05C78,203.34,78,204.81,77.88,206.28Zm430.44-7.76a38.76,38.76,0,0,0-2.61-3.48l.62-.52a39.59,39.59,0,0,1,2.67,3.55Zm-429.87-1-.81-.07c.12-1.46.26-2.94.41-4.39l.81.08C78.71,194.58,78.58,196.05,78.45,197.51Zm424.3-5.68-.35-.35a32.11,32.11,0,0,0-2.9-2.51l.5-.65a32.93,32.93,0,0,1,3,2.57l.36.35ZM79.37,188.78l-.81-.1c.18-1.46.38-2.93.59-4.37l.81.12C79.75,185.86,79.55,187.33,79.37,188.78Zm416.54-2.21a39.62,39.62,0,0,0-3.87-2l.33-.75a40.5,40.5,0,0,1,4,2ZM488,183c-1.32-.45-2.69-.86-4.18-1.26L484,181c1.52.41,2.9.82,4.24,1.28Zm-8.44-2.29c-1.3-.28-2.7-.57-4.3-.88l.15-.8c1.61.31,3,.6,4.32.88Zm-398.88-.65-.8-.14c.24-1.45.51-2.91.78-4.34l.8.15C81.15,177.2,80.88,178.65,80.64,180.09Zm390.25-1-1.31-.23-3-.54.15-.8,3,.54,1.31.24Zm-8.67-1.6c-1.56-.31-3-.61-4.32-.92l.18-.79c1.34.31,2.75.6,4.29.91Zm-8.6-2c-1.46-.4-2.89-.82-4.24-1.26l.25-.78c1.33.43,2.75.85,4.2,1.24Zm-8.4-2.74c-1.39-.55-2.76-1.14-4.06-1.76l.35-.74c1.28.61,2.63,1.19,4,1.73ZM82.29,171.47l-.8-.17c.31-1.44.64-2.88,1-4.3l.79.19C82.93,168.6,82.6,170,82.29,171.47Zm355-2.53c-1.28-.73-2.54-1.52-3.75-2.34l.46-.67c1.19.81,2.43,1.59,3.7,2.31Zm-7.3-5c-1.14-.92-2.25-1.89-3.33-2.91l.56-.59c1.06,1,2.16,2,3.28,2.86Zm-345.6-1-.79-.21c.38-1.42.78-2.85,1.18-4.25l.78.23C85.12,160.11,84.72,161.53,84.35,162.94Zm339.18-5c-1-1.07-1.93-2.21-2.85-3.37l.64-.5c.91,1.15,1.85,2.27,2.81,3.33ZM86.81,154.52l-.78-.25c.45-1.4.92-2.8,1.4-4.18l.77.27C87.72,151.73,87.25,153.13,86.81,154.52ZM418.06,151c-.82-1.19-1.62-2.43-2.39-3.71l.7-.42c.76,1.26,1.56,2.5,2.36,3.67ZM89.7,146.23l-.76-.29c.52-1.37,1.06-2.75,1.61-4.1l.75.31C90.75,143.49,90.21,144.87,89.7,146.23Zm323.8-2.79c-.68-1.27-1.34-2.59-2-3.94l.74-.35c.63,1.33,1.29,2.65,2,3.9ZM93,138.11l-.75-.33c.59-1.34,1.21-2.69,1.84-4l.74.35C94.22,135.43,93.61,136.78,93,138.11Zm316.69-2.64c-.56-1.32-1.11-2.7-1.64-4.09l.76-.29c.52,1.38,1.07,2.75,1.63,4.06ZM96.78,130.19l-.73-.37c.66-1.31,1.36-2.62,2.06-3.9l.72.39C98.13,127.58,97.44,128.89,96.78,130.19Zm309.8-3c-.46-1.36-.92-2.77-1.35-4.19l.78-.24c.43,1.41.88,2.82,1.34,4.17ZM101,122.49l-.7-.41c.74-1.27,1.51-2.54,2.28-3.78l.69.43C102.48,120,101.72,121.23,101,122.49Zm303-3.68c-.38-1.39-.76-2.82-1.12-4.27l.79-.2c.36,1.44.73,2.87,1.11,4.25ZM105.62,115l-.68-.45c.81-1.22,1.65-2.44,2.49-3.64l.67.47C107.26,112.61,106.43,113.83,105.62,115Zm296.2-4.76c-.39-1.39-.84-2.78-1.33-4.15l.77-.28c.51,1.38,1,2.8,1.35,4.21Zm-291.14-2.4-.65-.49c.88-1.17,1.79-2.34,2.7-3.49l.64.51C112.47,105.55,111.56,106.72,110.69,107.88Zm288.15-5.78c-.59-1.31-1.25-2.62-1.94-3.91l.72-.39c.71,1.3,1.37,2.64,2,4ZM116.16,101l-.62-.53c.95-1.12,1.92-2.23,2.9-3.32l.61.55C118.08,98.81,117.11,99.92,116.16,101ZM122,94.51l-.59-.56c1-1.06,2.05-2.12,3.09-3.14l.57.58C124.07,92.41,123,93.46,122,94.51Zm272.65-.09c-.77-1.21-1.59-2.43-2.46-3.62l.66-.48c.87,1.2,1.71,2.43,2.48,3.66ZM128.28,88.34l-.56-.6c1.07-1,2.17-2,3.27-3l.54.61C130.43,86.36,129.34,87.35,128.28,88.34Zm261.28-1c-.91-1.11-1.88-2.22-2.87-3.3l.6-.55c1,1.09,2,2.22,2.9,3.34Zm-254.7-4.8-.52-.63c1.12-.93,2.28-1.87,3.43-2.77l.5.64C137.13,80.69,136,81.62,134.86,82.55Zm248.78-1.65c-1-1-2.1-2-3.2-3l.54-.61c1.11,1,2.19,2,3.23,3ZM141.75,77.14l-.49-.65c1.17-.87,2.37-1.73,3.57-2.57l.47.67C144.11,75.41,142.91,76.27,141.75,77.14Zm235.36-2.08c-1.12-.91-2.28-1.82-3.45-2.7l.49-.65c1.19.89,2.36,1.8,3.48,2.72ZM148.92,72.11l-.45-.68c1.22-.8,2.46-1.6,3.7-2.38l.43.69C151.37,70.52,150.13,71.31,148.92,72.11ZM370.1,69.79c-1.18-.82-2.41-1.63-3.66-2.42l.44-.69c1.25.8,2.49,1.62,3.68,2.44ZM156.36,67.48l-.41-.7c1.25-.74,2.54-1.47,3.83-2.19l.4.71C158.89,66,157.61,66.74,156.36,67.48Zm206.35-2.4c-1.24-.73-2.52-1.46-3.81-2.17l.39-.71c1.3.71,2.59,1.44,3.84,2.18ZM164,63.22l-.38-.72c1.29-.68,2.62-1.35,3.93-2l.36.73C166.63,61.88,165.32,62.55,164,63.22Zm191-2.36c-1.29-.65-2.61-1.3-3.94-1.93l.35-.74c1.34.63,2.67,1.28,4,1.94Zm-183.1-1.51-.34-.74c1.32-.61,2.68-1.22,4-1.8l.32.75C174.58,58.14,173.23,58.74,171.91,59.35Zm175.16-2.24c-1.32-.58-2.68-1.16-4-1.71l.31-.75c1.37.56,2.73,1.14,4.06,1.72ZM180,55.86l-.31-.76c1.35-.55,2.73-1.09,4.11-1.61l.29.76C182.69,54.78,181.31,55.32,180,55.86Zm159-2.07c-1.36-.51-2.74-1-4.13-1.5l.27-.77c1.39.49,2.78,1,4.15,1.51Zm-150.76-1-.27-.77c1.38-.49,2.78-1,4.18-1.42l.25.77C191,51.78,189.55,52.26,188.18,52.75Zm142.47-1.86c-1.38-.45-2.79-.89-4.19-1.31l.23-.78c1.41.42,2.82.86,4.21,1.31ZM196.53,50l-.24-.78c1.4-.43,2.82-.84,4.23-1.24l.22.78C199.34,49.16,197.92,49.58,196.53,50Zm125.71-1.63c-1.4-.39-2.83-.76-4.25-1.12l.2-.79c1.42.36,2.86.74,4.27,1.12ZM205,47.62l-.2-.79c1.41-.37,2.85-.72,4.28-1.06l.19.79C207.83,46.9,206.39,47.25,205,47.62Zm108.73-1.4c-1.42-.33-2.86-.64-4.29-.94l.17-.8c1.44.3,2.88.62,4.31.94Zm-100.18-.63-.17-.8c1.43-.31,2.88-.61,4.32-.89l.16.8C216.41,45,215,45.28,213.53,45.59Zm91.58-1.16c-1.43-.27-2.88-.53-4.33-.77l.13-.8c1.45.24,2.91.5,4.34.77Zm-83-.52-.14-.8c1.43-.25,2.9-.49,4.35-.71l.12.81C225,43.42,223.58,43.66,222.16,43.91ZM296.45,43c-1.44-.21-2.9-.41-4.35-.6l.1-.81c1.45.19,2.92.39,4.37.6Zm-65.62-.41-.11-.81c1.45-.19,2.92-.38,4.37-.55l.09.81C233.74,42.19,232.27,42.38,230.83,42.57Zm56.9-.71c-1.45-.16-2.92-.3-4.37-.43l.07-.81c1.46.13,2.93.28,4.39.43Zm-48.18-.3-.08-.81c1.45-.14,2.93-.27,4.38-.38l.06.81C242.47,41.3,241,41.43,239.55,41.57ZM279,41.08c-1.45-.1-2.93-.19-4.39-.27l0-.81c1.46.08,2.95.17,4.4.27Zm-30.69-.19,0-.81c1.46-.08,2.93-.16,4.39-.22l0,.81C251.21,40.73,249.74,40.81,248.29,40.89Zm21.91-.27c-1.45,0-2.93-.09-4.39-.11V39.7c1.46,0,2.94.06,4.4.11ZM257,40.54l0-.81c1.45,0,2.93,0,4.39-.05v.82C260,40.49,258.5,40.51,257,40.54Z"/><path class="m" d="M560,122.53a25.37,25.37,0,1,0-21.7,45.86c.52.24,1,.47,1.56.68A25.37,25.37,0,0,0,560,122.53Zm6.34,31.07a19,19,0,0,1-24.16,9.56q-.59-.23-1.17-.51a19,19,0,1,1,25.33-9.06Z"/><path class="n" d="M532.3,154.29l-5.62,2.95a25.4,25.4,0,0,1,4-29.18l4.62,4.35a19,19,0,0,0-3,21.87Z"/><path class="o" d="M542.18,163.16l-2.33,5.91c-.52-.21-1-.43-1.56-.68a25.25,25.25,0,0,1-11.62-11.15l5.62-2.95a18.94,18.94,0,0,0,8.71,8.36Q541.59,162.92,542.18,163.16Z"/><path class="o" d="M547.1,170.75a25.24,25.24,0,0,1-7.25-1.68l2.33-5.91a18.91,18.91,0,0,0,5.43,1.26Z"/><polygon class="o" points="541.35 187.47 493.98 187.47 493.98 186.53 540.41 186.53 540.41 166.46 541.35 166.46 541.35 187.47"/><rect class="l" x="493.98" y="176.73" width="24.94" height="5.65"/><rect class="l" x="4.99" y="94.31" width="4.95" height="32.82"/><rect class="l" x="17.28" y="100.98" width="4.95" height="26.15"/><rect class="l" x="29.57" y="96.07" width="4.95" height="31.06"/><rect class="l" x="41.86" y="105.76" width="4.95" height="21.37"/><rect class="l" x="54.14" y="97.08" width="4.95" height="30.05"/><rect class="l" x="66.43" y="92.55" width="4.95" height="34.58"/><rect class="l" x="78.72" y="90.66" width="4.95" height="36.47"/><rect class="f" x="4.99" y="106.54" width="4.95" height="20.59"/><rect class="f" x="17.28" y="110.72" width="4.95" height="16.41"/><rect class="f" x="29.57" y="107.64" width="4.95" height="19.48"/><rect class="f" x="41.86" y="113.72" width="4.95" height="13.41"/><rect class="f" x="54.14" y="108.27" width="4.95" height="18.85"/><rect class="f" x="66.43" y="105.43" width="4.95" height="21.69"/><rect class="f" x="78.72" y="104.25" width="4.95" height="22.88"/><rect class="p" x="87.82" y="43.11" width="28.6" height="4.13"/><rect class="p" x="87.82" y="50.74" width="40.57" height="4.13"/><path class="m" d="M601.87,97.17a19.23,19.23,0,1,0-36.21,13c.15.41.3.81.47,1.2a19.23,19.23,0,0,0,35.74-14.15Zm-13.25,20.05a14.4,14.4,0,0,1-18.07-7.82q-.19-.44-.36-.9a14.42,14.42,0,1,1,18.43,8.72Z"/><path class="q" d="M570,99.35l-4.59-1.43a19.26,19.26,0,0,1,17.78-13.49l.14,4.81A14.44,14.44,0,0,0,570,99.35Z"/><path class="n" d="M570.55,109.4l-4.41,1.92c-.17-.39-.33-.79-.47-1.2a19.14,19.14,0,0,1-.25-12.21L570,99.35a14.35,14.35,0,0,0,.19,9.15Q570.36,109,570.55,109.4Z"/><path class="o" d="M569.11,116.11a19.12,19.12,0,0,1-3-4.79l4.41-1.92a14.33,14.33,0,0,0,2.23,3.59Z"/><rect class="j" x="181.86" y="161.51" width="150.33" height="5.24"/><rect class="j" x="181.86" y="178.58" width="150.33" height="5.24"/><rect class="j" x="181.86" y="195.04" width="150.33" height="5.24"/><rect class="j" x="181.86" y="212.1" width="150.33" height="5.24"/><rect class="j" x="181.86" y="231.27" width="150.33" height="5.24"/><rect class="j" x="181.86" y="248.33" width="150.33" height="5.24"/><rect class="j" x="181.86" y="264.79" width="150.33" height="5.24"/><rect class="j" x="181.86" y="281.85" width="150.33" height="5.24"/><rect class="r" x="147.39" y="157.02" width="21.33" height="21.33" rx="10.67" ry="10.67"/><rect class="r" x="147.39" y="223.89" width="21.33" height="21.33" rx="10.67" ry="10.67"/><path class="e" d="M157.33,239.71l-5.92-5.14a1.16,1.16,0,0,1,1.53-1.76l4.19,3.64,6-6.66a1.16,1.16,0,1,1,1.74,1.55Z"/><rect class="r" x="147.39" y="190.33" width="21.33" height="21.33" rx="10.67" ry="10.67"/><path class="e" d="M157.33,206.15,151.41,201a1.16,1.16,0,0,1,1.53-1.76l4.19,3.64,6-6.66a1.16,1.16,0,1,1,1.74,1.55Z"/><rect class="r" x="147.39" y="257.46" width="21.33" height="21.33" rx="10.67" ry="10.67"/><path class="e" d="M157.33,273.28l-5.92-5.14a1.16,1.16,0,0,1,1.53-1.76l4.19,3.64,6-6.66a1.16,1.16,0,0,1,1.74,1.55Z"/><path class="e" d="M155.56,169.32a5.61,5.61,0,0,1,.05-.79,2.82,2.82,0,0,1,.21-.73,2.3,2.3,0,0,1,.44-.66,2.94,2.94,0,0,1,.76-.56l.62-.33a6.36,6.36,0,0,0,.76-.48,3.15,3.15,0,0,0,.64-.62,1.26,1.26,0,0,0,.27-.79,1.11,1.11,0,0,0-.43-.93,1.58,1.58,0,0,0-1-.33,1.45,1.45,0,0,0-.64.14,2.41,2.41,0,0,0-.51.32,2.14,2.14,0,0,0-.39.42l-.29.41-1.86-1.3a3.6,3.6,0,0,1,1.49-1.71,4.38,4.38,0,0,1,2.3-.61,4.91,4.91,0,0,1,1.37.2,3.5,3.5,0,0,1,1.23.63,3.29,3.29,0,0,1,.88,1.12,3.68,3.68,0,0,1,.34,1.66,3.25,3.25,0,0,1-.42,1.72,3.81,3.81,0,0,1-1.25,1.22,7.75,7.75,0,0,1-.77.45,7.18,7.18,0,0,0-.71.41,2,2,0,0,0-.52.49,1.07,1.07,0,0,0-.2.65Zm.05,4.42V171H158v2.71Z"/><path class="s" d="M215.89,152.73a24.4,24.4,0,0,0-3.74,4.38c-1.77,2.65-6.46,2.79-6.66,6.41s6.38,3.73,9.84,2.55,4-4.71,6.07-5.6,3.17-1.6,3-3.33a21,21,0,0,0-1.32-4.53,14.25,14.25,0,0,1-2.06.5A17.09,17.09,0,0,1,215.89,152.73Z"/><path class="t" d="M239.58,54.65s-1.32,7.88-2.39,13.08h0A31.17,31.17,0,0,1,236.12,72a60.54,60.54,0,0,1-5.83,6.46c-5.34,5.5-12.39,12.42-12.39,12.42l-2.76-5.23s6.27-7.34,10.51-12.25c2-2.27,3.5-4,3.78-4.26.89-.79,1.92-8.62,3.37-15.07a26,26,0,0,1,4.35-10Z"/><path class="u" d="M230.28,78.5c-5.34,5.5-12.39,12.42-12.39,12.42l-2.76-5.23s6.27-7.34,10.51-12.25A8.91,8.91,0,0,1,230.28,78.5Z"/><path class="s" d="M264.52,150.58s1.81,2,2.89,3.22,5.18,3.39,5.2,7c0,3.91-3,3.57-5.75,3.43a7.51,7.51,0,0,1-6.07-4.24c-1.14-2.22-4.19-2.8-4.4-4.59s1.41-5,1.41-5Z"/><path class="v" d="M258.15,147.07l-.35,3.33s5.67,2.47,6.72.18l-.24-3Z"/><path class="v" d="M216.2,150.32l-.31,2.41a11.89,11.89,0,0,0,7.2-.11l.08-2.14Z"/><path class="t" d="M264.84,89.85c.2.7-36.29,0-36.29,0s10.09-7.35,10.75-9.31-2.57-13.74-3-17.57c-.34-3.07-1.18-16.78.84-18.88s9.72-4.49,9.72-4.49L258,40a17.42,17.42,0,0,1,3.14,1c1.31.61,8.79,3.27,10,7s-7.47,15.76-7.47,15.76,0,.54,0,1.43h0c0,1.18-.08,3-.13,4.92-.06,2.52-.11,5.3-.11,7.32A72.37,72.37,0,0,0,264.84,89.85Z"/><path class="h" d="M264.84,89.85s5,7.29,5,12.27-1.84,18.78-2,21.51-2.71,25.52-2.71,25.52-2,1.85-7.94-.47l-1.46-23.92c-.14-2.31-.14-13-1.47-14.51s-9.39-6.38-10.44-7.29-19.37,3.46-21.29,4c-5,1.29-2.7,9.94-1.61,13.81,1.84,6.49,3.45,29.91,3.45,29.91s-3.54,1.51-9.47.23c0,0-11.64-42.29-12-46.5S202.38,93.24,231.07,88Z"/><path class="u" d="M249.91,15.51s-9.63-2.17-7.43,9.94S247,38.52,252.8,36s5.29-10.27,5.58-14.08S253,15.64,249.91,15.51Z"/><path class="u" d="M247.36,42.72s4.26,4.52,11,.41c0,0-1.51-9.8-.71-14.57S248.86,36,248.86,36s.21.52.23,1.17a13.05,13.05,0,0,1-.1,1.94C248.79,40.65,248.3,42.33,247.36,42.72Z"/><path class="u" d="M255.07,23.85a1.23,1.23,0,0,1,2.41.14c.17,1.6-1,4.42-1.76,4.14S254.9,25.32,255.07,23.85Z"/><path class="w" d="M257.92,28.15s-.25-3.82-1.64-3.94-1.61,1.42-1.61,1.42l-1.41.27s.44-3.35-.95-3.93-9,1.84-10.14.86-.59-7.77,1.43-8.7,7.6-3,11.69-.24c0,0,3.19-.36,3.66,2.21S258.78,26.24,257.92,28.15Z"/><path class="x" d="M249,39.06c7-2.14,7.48-6.33,7.48-6.4-2.29,3.93-7.38,4.45-7.38,4.45A13.05,13.05,0,0,1,249,39.06Z"/><path class="u" d="M261.21,41.06s-5.09,10.13-13.32,9.48-1.4-10.84-1-10.94S255.3,37.5,261.21,41.06Z"/><path class="t" d="M224.37,89.34s25.2,3.11,40.47.51l-29.17-3.64S235.5,87,224.37,89.34Z"/><path class="u" d="M243.22,85.06l-1.88,1s.43,3,1.46,3.89l2.11-.54S244.47,86.09,243.22,85.06Z"/><path class="t" d="M272.38,79c-.38.43-5.33,2.43-10.93,4.58h0c-7.65,2.95-16.27,5.73-16.27,5.73l-2-4.21s9-4.91,15.14-8.35c2.88-1.63,5.11-2.92,5.43-3.22,1-.93,1.24-2.43.51-5s-2.38-14.63-2.57-16,.47-5.14,4-5.33a10.52,10.52,0,0,1,5.29.8s.88.37,1.53,8.87S273.27,77.93,272.38,79Z"/><path class="y" d="M263.59,65.2h0c0,1.18-.08,3-.13,4.92a24.58,24.58,0,0,1-1.41-15.19C261.68,57.21,263.57,65.09,263.59,65.2Z"/><path class="y" d="M237.18,67.73h0A31.17,31.17,0,0,1,236.12,72C235,66.38,236,59.14,236,59.14A72.77,72.77,0,0,0,237.18,67.73Z"/><path class="u" d="M261.46,83.54h0c-7.65,2.95-16.55,5.82-16.55,5.82l-1.69-4.3s9-4.91,15.14-8.35C258.36,76.71,260.58,77.79,261.46,83.54Z"/><polygon class="z" points="242.68 89.61 206.86 89.08 224.94 98.26 242.68 89.61"/><polygon class="aa" points="224.94 98.26 242.68 91.39 242.68 89.61 223.54 96.51 224.94 98.26"/><path class="u" d="M241.75,86.08s-2.24-.35-3.78-.71c-1.2-.28-4.17.11-4.93.87s-3.17,6.12-3.62,6.45.23,1.08,1,.7c0,0,.73,2.34,2.55,1.46s3-2.79,4-3.13,6.48-2,6.48-2S243.18,85.51,241.75,86.08Z"/><path class="u" d="M233.58,85.89a15.64,15.64,0,0,0-1.81,1c-.38.31-1.9,1.45-2.26,1.72s.56,1,3.27-.15S233.58,85.89,233.58,85.89Z"/><polygon class="ab" points="224.94 98.26 214.29 69.17 179.94 69.74 190.1 96.54 224.94 98.26"/><ellipse class="ac" cx="200.7" cy="83.35" rx="2.91" ry="4.24" transform="translate(-16.08 98.59) rotate(-26.58)"/><rect class="l" x="341.91" y="207.94" width="15.65" height="4.72" rx="0.85" ry="0.85"/><rect class="l" x="341.91" y="219.25" width="15.65" height="4.72" rx="0.85" ry="0.85"/><rect class="l" x="341.91" y="230.55" width="15.65" height="4.72" rx="0.85" ry="0.85"/><rect class="l" x="341.91" y="241.86" width="15.65" height="4.72" rx="0.85" ry="0.85"/><rect class="l" x="341.91" y="253.17" width="15.65" height="4.72" rx="0.85" ry="0.85"/><rect class="l" x="341.91" y="264.48" width="15.65" height="4.72" rx="0.85" ry="0.85"/><rect class="l" x="364.02" y="207.94" width="4.45" height="4.72" rx="0.85" ry="0.85"/><rect class="l" x="364.02" y="219.25" width="4.45" height="4.72" rx="0.85" ry="0.85"/><rect class="l" x="364.02" y="230.55" width="4.45" height="4.72" rx="0.85" ry="0.85"/><rect class="l" x="364.02" y="241.86" width="4.45" height="4.72" rx="0.85" ry="0.85"/><rect class="l" x="364.02" y="253.17" width="4.45" height="4.72" rx="0.85" ry="0.85"/><rect class="l" x="364.02" y="264.48" width="4.45" height="4.72" rx="0.85" ry="0.85"/><path class="ad" d="M365.37,270s-6.69-15.15,1.07-13.9a28.26,28.26,0,0,1,5.35,6.63c2.05,3.37,6.32,12.29,6.16,15.3s-2.3,5.26-4.62,10.11c0,0-4.81,9-5,10.07l-5.09-2.64s4.31-8.59,7.35-16.15Z"/><rect class="ae" x="299.94" y="286.8" width="90.42" height="13.83" transform="translate(54.54 -54.06) rotate(9.72)"/><rect class="af" x="296.27" y="280.47" width="4.34" height="10.5" transform="translate(52.18 -46.03) rotate(9.66)"/><path class="u" d="M326.66,398.37H325.4s.42-4.77-.75-4.81-4.06,3.88-5.79,4.49-10.6,1.12-10.65-.51,3.41-2.29,4.48-2.76,6.31-5.56,7.24-6.17,2.53-4.83,2.53-4.83l5-.22s.28,3.95.58,6a18.37,18.37,0,0,1,.2,2C328.25,393.32,326.66,398.37,326.66,398.37Z"/><path class="u" d="M358.59,397.43h-1.05V393c-.88.07-3.82,2.86-4.73,3.67s-2.16.77-6,1-4.2-2.05-3.59-2.84,2.57-1.12,3.59-1.61,5.05-5,6.13-6.11,1.73-4.15,1.73-4.15l4.48.39a27.44,27.44,0,0,0,.48,5.18h0v0q.07.3.14.59C360.44,391.6,358.59,397.43,358.59,397.43Z"/><path class="ag" d="M342,296.88a44.82,44.82,0,0,0-1.84,5c-.15,1-4.12,10.6-5.27,17.07-.69,3.87-2.58,16-2.74,17.53-.26,2.64-1.5,8.46-1.7,11.15-.11,1.51-7.52,24.62-9.32,36.68a22.25,22.25,0,0,0,7.47-.22A126.42,126.42,0,0,0,338.74,354a121.54,121.54,0,0,1,5.79-20.72c1.69-4.39,11.24-16.81,12.24-18.21s7.24-9.11,1.33-17.47S342,296.88,342,296.88Z"/><path class="ag" d="M363.36,332.39c-.54,3.6,0,8.33,1.16,21.48s-2,29.09-2,29.09a15.79,15.79,0,0,1-8.4,0c.1-.93,0-32.07,0-34.84s-.8-5.93-1-9.11a64.94,64.94,0,0,0-2.29-10.26c-.34-1.22-.69-2.45-1-3.65h0l-.56-2c-1.6-5.55-3.75-27-3.75-27s11.93-9.61,17.74-.56,2.83,15.62,2.62,16.75S363.9,328.79,363.36,332.39Z"/><path class="ah" d="M358.41,313.06c-.09.2-6,13.4-7.57,15.69-.34-1.22-.69-2.45-1-3.65h0S358.21,313.35,358.41,313.06Z"/><path class="ai" d="M358.59,397.43h-1.05V393c-.88.07-3.82,2.86-4.73,3.67s-2.16.77-6,1-4.2-2.05-3.59-2.84,2.57-1.12,3.59-1.61c4.11.22,9.11-5.55,11.52-5.54,1.28,0,1.27.71,1.3.85h0v0q.07.3.14.59C360.44,391.6,358.59,397.43,358.59,397.43Z"/><path class="ai" d="M326.66,398.37H325.4s.42-4.77-.75-4.81-4.06,3.88-5.79,4.49-10.6,1.12-10.65-.51,3.41-2.29,4.48-2.76c3.66,0,9.62-4,11.46-4.86a6.66,6.66,0,0,1,3.84-.33,18.37,18.37,0,0,1,.2,2C328.25,393.32,326.66,398.37,326.66,398.37Z"/><path class="u" d="M352.53,246.57s1.9,5,.42,8.93c0,0,7-.45,7.24-1.27s-.28-8.36.68-10.59S352.53,246.57,352.53,246.57Z"/><path class="ad" d="M351.86,253.8s-4.12,1.47-6,1.87-5.76,2.25-5.45,9.21a145.27,145.27,0,0,0,1.9,16,63,63,0,0,1-.53,14.29,52.27,52.27,0,0,0,21.52,0s-2.06-6.3-2-7.93,6.87-15,7.19-17.17,1.69-11.46-1.43-13.53-5.66-1.79-7-2.72S353.79,253.13,351.86,253.8Z"/><path class="ad" d="M367.77,306.06a57.81,57.81,0,0,1-30.34,0,41.81,41.81,0,0,0,2.78-7.47h0a44.69,44.69,0,0,0,1-5h0a45.38,45.38,0,0,0-.42-16.25c1.95-16,26.23-20.84,28.18-15.75s-3.77,26.95-4.06,28.82S367.77,306.06,367.77,306.06Z"/><path class="u" d="M358.62,226.37c-2.81-1-10.39-2-12.33,9.65s2.29,11.84,6.64,11.51,11.15-8.19,11.67-10.58S366.62,229.11,358.62,226.37Z"/><path class="aj" d="M347.85,230.84s2.32,5,5.36,6.68c0,0,1.9,5.27,6,7.4,0,0,10.94-7.25,4.59-15.86S348.56,227.3,347.85,230.84Z"/><path class="u" d="M352.93,235.8a1.43,1.43,0,0,1,2.62.07c.74,1.66-1.91,4.59-2.63,4.43S352,238.1,352.93,235.8Z"/><path class="aj" d="M363.45,230.39c.24-.37,7.48-3.73,9,3.28s-5.83,15.16-7.12,18.66.58,11.72.58,11.72-4.42-4.18-5.75-8.55C358.68,250.7,358.19,238.6,363.45,230.39Z"/><path class="ak" d="M363.82,230.15a7.31,7.31,0,0,0-2.5,4.52,5.44,5.44,0,0,1,.48-3.48A2,2,0,0,1,363.82,230.15Z"/><path class="al" d="M340.22,298.61c.46-1.72,1.06-5.48,1.3-7.1h0a4.08,4.08,0,0,0,1.23-1.42c.36-1.14,3.17-15,3.17-15S348.88,288.12,340.22,298.61Z"/><path class="u" d="M328.07,295.23s-3,1.4-3.72,1.62-2.06-1-7.06-1.35c-.44,0-1.21.36-1,.94a7.82,7.82,0,0,0,3.29,2.4c.93.24,5.33,2,7.47,1.13s3.6-3.58,3.6-3.58Z"/><path class="ad" d="M344.71,256.05s-5.78,2.29-6.13,10.33-.66,12.24-1,13.48-.91,6.23-2.37,9.23-10.72,7.51-10.72,7.51l2.83,3.6s14.61-7.74,15.4-10.11,4-18.87,4.27-21.65C347.23,266.21,350.19,256.22,344.71,256.05Z"/><path class="am" d="M290.12,276.82c0,.22,0,.43,0,.65h8.28c0-.22,0-.43,0-.65Zm-92.33-2.29c0,.25,0,.5,0,.75,0,1,.06,2.09.15,3.12a49.12,49.12,0,0,0,1.4,8.6,50.08,50.08,0,0,0,13.22,23.15l.73.73c1,1,2,1.86,3.09,2.72a50.08,50.08,0,0,0,31.73,11.26h.6a50,50,0,0,0,25-7,50.5,50.5,0,0,0,22.1-27.27q.59-1.77,1.06-3.59a50.62,50.62,0,0,0,1.23-6.66h0c.05-.48.1-1,.14-1.46s.08-.94.1-1.41c0-.22,0-.43,0-.65,0-.48,0-.94,0-1.42,0-.29,0-.58,0-.87a50.33,50.33,0,0,0-42.68-49.75l-1.41-.2-1.56-.16-1.41-.11c-1.08-.07-2.18-.1-3.27-.1-.93,0-1.85,0-2.76.07-1.57.08-3.11.25-4.64.47a50.46,50.46,0,0,0-38.85,29.9c-.07.16-.14.33-.21.5s-.13.32-.19.48c-.39.93-.73,1.87-1.05,2.82a49.38,49.38,0,0,0-1.92,7.64c-.13.69-.22,1.39-.32,2.09,0,.12,0,.24,0,.36s0,0,0,0a1.38,1.38,0,0,0,0,.18,1.73,1.73,0,0,0,0,.21V269a.43.43,0,0,0,0,.1,1.13,1.13,0,0,0,0,.16c0,.13,0,.25,0,.38-.07.77-.13,1.55-.17,2.33,0,.1,0,.22,0,.32l0,.51C197.79,273.38,197.79,274,197.79,274.53Zm11.28,15.66-.19-.49c-.14-.36-.27-.73-.41-1.1l-.3-.89c-.07-.22-.15-.45-.22-.67v0a.8.8,0,0,1,0-.13c-.12-.37-.22-.75-.33-1.13l-.12-.44c-.11-.4-.21-.81-.3-1.22,0,0,0-.08,0-.13-.08-.38-.16-.76-.24-1.14,0-.16-.07-.31-.1-.47-.09-.48-.17-1-.25-1.44-.13-.85-.23-1.7-.31-2.56,0-.29-.05-.59-.07-.88,0,0,0,0,0,0s0-.19,0-.28c0-.4,0-.8-.06-1.2v-.12c0-.09,0-.19,0-.28,0-.35,0-.7,0-1s0-.65,0-1a36.71,36.71,0,0,1,.27-3.86,3.64,3.64,0,0,1,0-.4,0,0,0,0,1,0,0s0,0,0,0a0,0,0,0,1,0,0,.28.28,0,0,1,0-.08h0s0,0,0,0a41.76,41.76,0,0,1,6.24-17.2,42.23,42.23,0,0,1,15.27-14.28,40.9,40.9,0,0,1,5.11-2.38c.56-.22,1.13-.42,1.7-.61a41.15,41.15,0,0,1,10-2c1.11-.1,2.23-.14,3.37-.14h1l1.17,0,.85.06h.23c.47,0,.94.07,1.41.13l.36,0,.56.07.64.09c.48.07.94.15,1.41.23l.13,0,1.09.22H257l.45.1,1,.25.44.11,1.16.33c.37.1.73.22,1.1.34l.5.17c.73.24,1.45.51,2.15.8l.58.24.88.39c.24.1.48.21.71.33s.69.33,1,.5.76.39,1.14.6.85.47,1.26.71c.86.51,1.69,1,2.51,1.6.35.24.69.48,1,.74s.85.62,1.25,1,.73.59,1.08.89.73.62,1.08,1a42,42,0,0,1,13.75,31.11c0,.29,0,.58,0,.87,0,.48,0,.94-.05,1.42,0,.22,0,.43,0,.65,0,.48-.07.94-.13,1.41q-.2,2-.59,3.95A40.89,40.89,0,0,1,288.3,287c-.33,1.08-.71,2.15-1.14,3.19a42.05,42.05,0,0,1-38.44,26.4h-.6A42.06,42.06,0,0,1,211,294.26l-.55-1.07-.33-.68c-.13-.27-.25-.53-.38-.81l-.12-.27c-.1-.24-.21-.48-.3-.72Z"/><circle class="an" cx="248.12" cy="274.53" r="41.92"/><path class="ao" d="M276.42,243.42s-54.59-6.77-65.47,50.85h0a42.07,42.07,0,0,1,65.47-50.85Z"/><polygon class="ag" points="94.29 321.75 112.53 331.77 130.85 302.95 108.69 295.25 94.29 321.75"/><polygon class="ap" points="95.45 320.88 112.5 330.26 129.63 303.3 108.92 296.1 95.45 320.88"/><path class="u" d="M89.2,315.84s3.17-1.52,4.57-2.31,5-1.88,5.27-2.14,10.63-.9,11.25-1.44,1.24,1.27-1.44,1.85-6.41,2-6.61,3.07,2.75,1.29,3.05,2.16-.08.67-.51.85-3.52-1.53-4.87-1-3.44-.19-4.48.17l-6.11,2.06Z"/><path class="u" d="M113.42,328.16s2.67-2.4,4-3.4,3.71-4,4.07-4.13,5-9.66,5.74-10-.71-1.66-2.31.64-4.4,5.25-5.47,5-.15-3.1-.85-3.72-.66-.18-1,.15.07,3.91-.92,5-1.16,3.31-1.9,4.16l-4.32,5Z"/><path class="aq" d="M56,456.46s-.58,4-.65,4.61-6.42-.35-6.42-.35l-.51-4.77S55.19,455.89,56,456.46Z"/><path class="ag" d="M55.4,460.56a17.13,17.13,0,0,0,4,3.46c1.94,1.05,5,1.47,6.15,2.56.83.79,3,4.17-5.05,4.1s-12,.48-12.84-.82,1.25-9.57,1.25-9.57S50.78,461,55.4,460.56Z"/><path class="aq" d="M101.45,456.46s-.58,4-.65,4.61-6.42-.35-6.42-.35l-.51-4.77S100.66,455.89,101.45,456.46Z"/><path class="ag" d="M100.87,460.56a17.14,17.14,0,0,0,4,3.46c1.94,1.05,9.1,1.92,10.25,3,.83.79,2.21,3.95-9.15,3.65-8.07-.21-12,.48-12.84-.82s1.25-9.57,1.25-9.57S96.14,461,100.87,460.56Z"/><path class="ag" d="M61.23,353.56s-6,9.47-5.52,18-2.16,17.91-3.06,26.86c-1,10-5.09,33.58-5.23,38.92s.63,22.37.63,22.37l8.18.19s6.87-41.28,8.65-45.49,10.6-34.24,10.9-37.61S61.23,353.56,61.23,353.56Z"/><path class="ag" d="M92.62,354.84s4.49,23.47,5.09,28.71,1,25.36,1.29,28.64,2,42.87,3.56,47.73H92.1s-8-28.78-8-42.4-6.2-29.6-10.21-38.59-13.17-9.2-15.63-25.87C58.23,353.08,89.29,349.56,92.62,354.84Z"/><path class="u" d="M71.18,273.91s8-3,11.69,3.1,3.33,18.29-.7,19.79-10.09.72-12.16-3.1-3.93-9.32-3.84-13S69.08,275,71.18,273.91Z"/><path class="u" d="M81.31,297.08a6.92,6.92,0,0,0,.22,3.23c.55,1.06-10.37,1.09-10.37,1.09a72,72,0,0,0-2.57-10.68C66.91,285.83,81.31,297.08,81.31,297.08Z"/><path class="w" d="M68.59,290.72s.75,1.24,3.83.76,6.83-4.58,8.11-5,1.3-1.2,1.3-1.2l.8,1.17,1.36.09s-1.24-3.66.63-5.15-1.95-11.85-11.81-8.4c0,0-7.58,2.09-7.3,6.4S66.9,288.57,68.59,290.72Z"/><path class="ap" d="M82.18,300.18s0-2-1-2.23-10.18-1.08-11.31-.64v2.37S72.09,301,82.18,300.18Z"/><path class="u" d="M81.63,283.68c-.17-.72-2-2.79-2.71-.58S80,288.29,81,288,82.07,285.52,81.63,283.68Z"/><path class="h" d="M118.9,324.21h0C118.95,324.24,119,324.24,118.9,324.21Z"/><path class="h" d="M54.51,376.13a84.64,84.64,0,0,0,13.28,2.37c8.37.92,29.28-.33,29.41-1.32S92.7,340.35,93,338.51s.4-8.42.4-8.42a46.33,46.33,0,0,0,4.15,13.17c.8,1.45,3.49,6,4.78,5,6.27-5,16-23.85,16.58-24-.52-.22-4.6-2.1-5.17-2.29s-5,4.62-7.76,7.58c-1.22,1.32-2.09,2.28-2.09,2.28-.79-1.78-3.67-13-4.57-16.87-2-8.75-1.71-9.11-1.71-9.11-6.12-1.85-15.42-5.62-15.42-5.62l-12.26-.5s-11.26,2.48-15.69,4.48c-.42.19-.42,10-1.58,12.62l3.68,7.75s2.12,15.36,2.56,22.19C59.09,349.86,54.51,376.13,54.51,376.13Z"/><path class="h" d="M52.14,329.57c.32,1,1.77,1.91,2.72,2.29a3.52,3.52,0,0,0,2,.2l.48-.09h0l8.4-1.56s1.84-21.18-11.48-26.25C53.87,304.27,49.2,320.09,52.14,329.57Z"/><path class="s" d="M54.86,331.86h0a3.52,3.52,0,0,0,2,.2l.48-.09h0l-.83-10.82Z"/><path class="s" d="M103.87,331.78l1,4.35A34.38,34.38,0,0,0,106,329.5C104.73,330.82,103.87,331.78,103.87,331.78Z"/><path class="w" d="M68.91,274.63s-10.49-1.21-.18,16.31Z"/><polygon class="ag" points="122.42 301.4 123.48 299.57 115.08 296.67 114.02 298.49 122.42 301.4"/><path class="ar" d="M228.72,318s1.66-1.54,1.33-2.7a5,5,0,0,1,.25-2.54c.14-.61.2-2.57.65-2.46.76.18.59,3.32.68,4s2.12-1.57,2.81-1.69,4.2,3.44,2.64,4.81-3.72,1.93-3.95,2.23a12.25,12.25,0,0,1-1.3,1.11Z"/><path class="ar" d="M234,312.82s5.07-3.89,5.62-3.86.75.31.29.69l-4.79,3.9s6.77-3.59,7.23-3.67c.27,0,.47.47.24.69s-6.53,4.19-6.53,4.19,6.33-3.34,6.73-3.29a.49.49,0,0,1,.15.91l-6.15,3.71s4.76-2.14,5.08-1.9.47.47-.78,1a44.54,44.54,0,0,0-4,2.16Z"/><path class="as" d="M193.5,271.12s12.13-1,11.79,11.75-2.35,14.68,0,23.69-11.82-5.12-11.82-5.12Z"/><path class="at" d="M156.56,462s-4.5,6.33-3.89,7.33,5.35,1.15,8.24,0,3-8.56,4.25-11.74c.55-1.33-.62-5.27-2.26-5.56a6.67,6.67,0,0,0-3.43.55S161.18,457.11,156.56,462Z"/><path class="u" d="M159.44,452.57a30.92,30.92,0,0,0-1.29,5.27c-.29,2.13-3.21,6.66-3.07,7.24s3.84,1.09,5.35-.39,2.48-5.77,2.81-8.34a21.42,21.42,0,0,1,.7-3.57S160.89,451,159.44,452.57Z"/><path class="at" d="M195.76,462.14s-4.34,6.22-3.72,7.22,5.35,1.15,8.24,0,3-8.56,4.25-11.74c.55-1.33-.62-5.27-2.26-5.56a7.11,7.11,0,0,0-3.57.61S200.37,457.21,195.76,462.14Z"/><path class="u" d="M198.69,452.68a44,44,0,0,1-.89,5c-.55,2.08-3.5,6.8-3.36,7.38s3.84,1.09,5.35-.39,2.68-5.75,2.81-8.34a14.34,14.34,0,0,0-.34-4.28A3.24,3.24,0,0,0,198.69,452.68Z"/><path class="h" d="M177,349.7s-3.86,18.76-4.75,23.48-3.37,27.6-3.64,31.48-4,18.54-3.85,19.93-6.12,28.92-6.12,28.92,4.46.48,6.24-.26c1.22-.51,11-25.34,11-32.28,0-9.6,5.36-22.13,6.14-24.32,7.65-21.51,9.05-26.61,10.12-27.91,0,0,.16,1.75.52,4.67.42,3.35,2.24,27.29,3,30.44s.18,13.8.62,19.17,1.27,29.87,1.27,29.87,4,.17,5.77-.88c.59-.35,2.63-26.33,2.72-32.71s.18-15.2.36-18c1.64-26.48,5.68-30.26-.68-49C193.82,317.24,177,349.7,177,349.7Z"/><polygon class="at" points="165.29 457.06 165.29 463.69 164.47 463.69 164.47 458.57 165.29 457.06"/><polygon class="at" points="204.65 457.06 204.65 463.69 203.82 463.69 203.82 458.57 204.65 457.06"/><path class="u" d="M188.46,305.06a50.37,50.37,0,0,0,1.86-5.32l.11-.4c.09-.37.18-.74.26-1.1,0-.21.09-.42.12-.62a8.75,8.75,0,0,0,0-4.09c-1.18-3.47,7.37-1.07,7.37-1.07s-1.66,9.19,0,12.29S188.46,305.06,188.46,305.06Z"/><path class="au" d="M203,304.91c1-1.19-5.74-1.61-5.74-1.61l-7.81-.67a69.7,69.7,0,0,0-9.54,2.34c-4.17,1.44-9.63,9.34-9.63,9.34s7.53,17.68,9,22.76-1.64,18-1.64,18c9,4.91,26.86.52,26.86.52S197.33,312,203,304.91Z"/><path class="av" d="M206.14,326.22s-.35.74-1.31,3.66a58.44,58.44,0,0,1-.47-12.46A30.8,30.8,0,0,0,206.14,326.22Z"/><path class="u" d="M197.65,303l-9.19,7.49.95-7.89S194.76,301.47,197.65,303Z"/><path class="aw" d="M203.71,334.6c-1.26,5.24,5.13,21.65,5.13,21.65L198,359.91a2.3,2.3,0,0,1-3-1.78c-1.22-6.83-4.37-25.13-4.73-33.24-.44-10.08,6.9-22,6.9-22,13,2.24,9.47,22,9.47,22s-.47,1.24-1.11,3.19h0c-.16.49-.33,1-.5,1.59C204.62,331.13,204.14,332.82,203.71,334.6Z"/><path class="aw" d="M188.48,303.06l.16-.43s-6.68,1-10.08,2.71-9.9,10.46-9.9,10.46l8.5,11.22c0,8.63-3,28.86-3,28.86l5.91,2.42A1.41,1.41,0,0,0,182,357c.1-6.16.38-24.41.53-31.53.18-8.63,6.33-22.58,6.33-22.58Z"/><path class="u" d="M176.37,343.51a72.68,72.68,0,0,0,7.41,0c1-.25,7.65-3.13,8-6s-15.46,2.55-15.46,2.55Z"/><polygon class="ax" points="196.26 334.6 170.24 331.56 181.99 341.12 196.26 334.6"/><polygon class="ay" points="181.99 341.12 196.26 336.26 196.26 334.6 181.51 339.33 181.99 341.12"/><polygon class="az" points="189.88 301.17 184.94 309.01 182.55 310.52 188.12 302.71 189.88 301.17"/><polygon class="ba" points="184.94 309.01 188.46 310.52 189.4 302.63 189.88 301.17 184.94 309.01"/><path class="aw" d="M177.15,339.84a19.76,19.76,0,0,0,0,4s-16-1.6-17.54-3.85a9.67,9.67,0,0,1-1.44-5Z"/><polygon class="ay" points="181.99 341.12 174.41 312.91 145.56 309.87 153.47 335.83 181.99 341.12"/><path class="aw" d="M219.38,325c1.45-1.19,2.3-1.63,4-3.13,2.71-2.34,6.18-5.29,6.18-5.29l3.3,4.84s-8,7-12.21,11.17h0s-5.36,5.76-6.56,5.25-5.47-6.71-8.89-12.67-4.94-9.76-5.11-12.36,8.42-3.84,8.42-3.84l6.73,14.69a21.73,21.73,0,0,0,1.81,2.74S218.59,325.53,219.38,325Z"/><path class="u" d="M194.69,272.41a10.31,10.31,0,0,0-11.83,8.15,25.1,25.1,0,0,0,.32,3.94c.33,1.76-1.76,6.59-1.39,6.88a11.06,11.06,0,0,0,2,.79s1.14,5.67,3.06,5.84,9.36-.5,13.56-6.9S206.83,274.4,194.69,272.41Z"/><path class="as" d="M182.86,280.57s4.52,3.91,9.32,5.14,7.33,6.61,7.33,6.61,8.48-8.46,3.36-16.66S182.87,271.11,182.86,280.57Z"/><path class="as" d="M193.05,286s5,13.16,4.43,16.34c0,0,2.48-.43,7.1,1C204.58,303.3,202.35,279.79,193.05,286Z"/><polygon class="ba" points="191.11 309.25 188.46 310.52 197.48 301.57 191.11 309.25"/><polygon class="az" points="197.48 301.57 191.11 309.25 194.6 312.36 198.36 303.17 197.48 301.57"/><path class="x" d="M195.74,295.61c0,.07-1.42,2.21-5.31,3.73.09-.37.18-.74.26-1.1,0-.21.09-.42.12-.62A18,18,0,0,0,195.74,295.61Z"/><ellipse class="bb" cx="163.21" cy="325.5" rx="1.68" ry="3.1" transform="translate(-133.67 114.67) rotate(-27.99)"/><path class="aw" d="M198.36,303.17a10,10,0,0,1,10.85,7.66S198.53,309.68,198.36,303.17Z"/><g class="bc"><rect class="bd" x="338.95" y="60.39" width="131.68" height="152.93" rx="37.89" ry="37.89"/></g><path class="be" d="M418.89,123.82a33.65,33.65,0,1,0-63.37,22.66c.25.71.53,1.41.83,2.1a33.65,33.65,0,0,0,62.54-24.76ZM395.7,158.91a25.2,25.2,0,0,1-31.63-13.69q-.33-.77-.62-1.57a25.23,25.23,0,1,1,32.25,15.26Z"/><path class="q" d="M363.12,127.63l-8-2.51a33.7,33.7,0,0,1,31.12-23.61l.25,8.42a25.27,25.27,0,0,0-23.33,17.71Z"/><path class="n" d="M364.07,145.22l-7.72,3.36c-.3-.68-.57-1.39-.83-2.1a33.5,33.5,0,0,1-.44-21.36l8,2.51a25.12,25.12,0,0,0,.33,16Q363.74,144.45,364.07,145.22Z"/><path class="bf" d="M361.56,157a33.47,33.47,0,0,1-5.22-8.38l7.72-3.36A25.09,25.09,0,0,0,368,151.5Z"/><path class="be" d="M448.07,144.38a13.92,13.92,0,1,0-11.91,25.16c.28.13.57.26.86.37a13.92,13.92,0,0,0,11.05-25.54Zm3.48,17a10.43,10.43,0,0,1-13.26,5.25l-.64-.28a10.44,10.44,0,1,1,13.9-5Z"/><path class="q" d="M432.87,161.8l-3.09,1.62a13.94,13.94,0,0,1,2.19-16l2.54,2.39a10.45,10.45,0,0,0-1.64,12Z"/><path class="n" d="M438.29,166.67,437,169.91c-.29-.11-.57-.24-.86-.37a13.86,13.86,0,0,1-6.38-6.12l3.09-1.62a10.39,10.39,0,0,0,4.78,4.59Z"/><polygon class="bg" points="437.84 180.01 411.84 180.01 411.84 179.49 437.32 179.49 437.32 169.67 437.84 169.67 437.84 180.01"/><rect class="be" x="355.08" y="174.12" width="23.26" height="3.1"/><rect class="be" x="411.84" y="174.12" width="13.68" height="3.1"/><rect class="be" x="349.81" y="73.52" width="11.13" height="2.38"/><rect class="be" x="396.22" y="82.47" width="17.27" height="2.38"/><rect class="be" x="373.89" y="82.47" width="10.54" height="2.38"/><rect class="be" x="349.81" y="82.47" width="20.89" height="2.38"/><rect class="be" x="364.33" y="73.52" width="16.5" height="2.38"/><rect class="be" x="387.73" y="82.47" width="4.53" height="2.38"/><rect class="be" x="401.17" y="73.65" width="12.32" height="2.38"/><rect class="be" x="417.89" y="82.47" width="10.51" height="2.38"/><rect class="be" x="384.89" y="73.65" width="13.06" height="2.38"/><rect class="e" x="388.15" y="194.41" width="33.27" height="33.27" rx="16.64" ry="16.64"/><rect class="bh" x="403.22" y="204.43" width="3.15" height="13.24"/><rect class="bh" x="403.22" y="204.43" width="3.15" height="13.24" transform="translate(615.84 -193.74) rotate(90)"/><polygon class="bi" points="521.52 68.93 493.41 40.82 480.07 54.17 479.33 53.43 493.41 39.34 522.26 68.19 521.52 68.93"/></g></svg>