<svg xmlns="http://www.w3.org/2000/svg" viewBox="0 0 387.21 210.22"><defs><style>.a{fill:#6ba7f2;}.b{fill:#191647;}.c{fill:#c949fa;}.d{fill:#774429;}.e{fill:#8e5030;}.f{fill:#1f1b62;}.g{fill:#dea276;}.h{fill:#e4bb9c;}.i{fill:#dc3256;}.j{fill:#73b94e;}.k{fill:#2c286e;}.l{fill:#61a43a;}.m{fill:#141233;}.n{fill:#e9a45d;}.o{fill:#efc275;}.p{fill:#df5962;}.q{fill:#f1f1f1;}.r{fill:#c2ddfe;}.s{fill:#31175d;}</style></defs><title>img-background-services</title><polygon class="a" points="151.32 178.01 42.22 178.01 9.8 89.68 123.56 89.68 151.32 178.01"/><polygon class="b" points="123.56 89.72 151.32 178.01 145.22 173.29 119.95 94.44 18.34 94.44 46.94 175.51 42.22 178.01 9.73 89.72 123.56 89.72"/><polygon class="c" points="234.8 178.59 343.91 178.59 376.33 90.25 262.56 90.25 234.8 178.59"/><polygon class="b" points="262.56 90.31 234.8 178.59 240.91 173.87 266.17 95.03 367.79 95.03 339.19 176.09 343.91 178.59 376.39 90.31 262.56 90.31"/><polygon class="d" points="129.39 89.2 127.78 95.52 137.15 100.23 124.18 108.11 111.74 103.38 114.3 95.65 117.96 94.21 116.77 82.91 125.84 84.11 129.39 89.2"/><path class="e" d="M120,92c2.4-1.17,6,.94,8.14,2.17l-.35,1.37,3.89,2-4.1,8.58-3.27,2-11.12-5.43a36.58,36.58,0,0,1,4.13-8.15l.64-.25-.05-.48A6.87,6.87,0,0,1,120,92Z"/><path class="e" d="M135.62,80.61c-.58-8.87-7-12.86-11.5-10.82-3.67,1.67-8.44,7.39-6.87,13.25a1.84,1.84,0,0,0-1.78,1.86c-.39,2.93,1.89,3.24,3,2.72a2.86,2.86,0,0,0,.88-.7A19.92,19.92,0,0,0,126.47,92C133.21,95.1,136.05,87.3,135.62,80.61Z"/><path class="f" d="M132,71.69a6.68,6.68,0,0,1-1.6.92,14,14,0,0,1-10.17.22c-2.31,2.62-4,6.39-3,10.21a1.84,1.84,0,0,0-1.78,1.86c-.39,2.93,1.89,3.24,3,2.72a2.82,2.82,0,0,0,.88-.7c.27.33.57.65.9,1h0a1.57,1.57,0,0,1-1.31,1.55,19.21,19.21,0,0,1-2.4.24c-2,.07-2.92-3.39-4.28-6-.95-1.84-4.52-2.39-3-11.65,1.47-9,15.61-7.84,21.51-7.31C132.23,64.82,136.25,68.38,132,71.69Z"/><polygon class="g" points="267.45 89.2 269.06 95.52 259.69 100.23 272.66 108.11 285.11 103.38 282.54 95.65 278.89 94.21 280.07 82.91 271.01 84.11 267.45 89.2"/><path class="h" d="M276.86,92c-2.4-1.17-6,.94-8.14,2.17l.35,1.37-3.89,2,4.1,8.58,3.27,2,11.12-5.43a36.58,36.58,0,0,0-4.13-8.15l-.64-.25.05-.48A6.86,6.86,0,0,0,276.86,92Z"/><path class="h" d="M262.9,81.18c-1.84-10.82,5.33-13.43,9.82-11.39,3.67,1.67,8.44,7.39,6.87,13.25a1.7,1.7,0,0,1,1.78,1.86c0,1.35-1.89,3.24-3,2.72a2.86,2.86,0,0,1-.88-.7c-1.51,1.81-1.84,2.63-5.19,4.17C265.6,94.18,264,87.79,262.9,81.18Z"/><path class="i" d="M264.87,71.69a6.68,6.68,0,0,0,1.6.92,14,14,0,0,0,10.17.22c2.31,2.62,4,6.39,3,10.21.79.05.87,0,.81,1.36,0,1.12-.93,3.73-2,3.21a2.82,2.82,0,0,1-.88-.7c-.27.33-.57.65-.9,1h0a1.57,1.57,0,0,0,1.31,1.55,19.21,19.21,0,0,0,2.4.24c2,.07,2.92-3.39,4.28-6,.95-1.84,4.52-2.39,3-11.65-1.47-9-17.91-16.45-23.81-15.92C262.31,56.21,260.59,68.38,264.87,71.69Z"/><path class="j" d="M114.46,95.59c1,1.09,7.75,8.6,11.17,8.39,3.69-.23,4-7.54,4-7.54,24.7,7.88,32.41,45.54,67.53,36.44a26.58,26.58,0,0,1-.81,9.56c-11.91,12.94-31.44,16.47-48,5-10.93,18.4-6.16,34.2-15.37,38.12-8.64,7.49-32.3-4.26-38.87-9.67L92.81,196c-2.53,1.15-8.06.46-9-2.53,0,0-12.1-14.4-12.21-42.84C71.39,90.73,114.39,95.5,114.46,95.59Z"/><polygon class="b" points="45.83 173.29 145.22 173.29 151.32 178.01 42.22 178.01 45.83 173.29"/><path class="k" d="M123.21,106.63s-6.91,26.26-6.22,29.94,6.91,18,9.44,18,6.22-12.44,5.53-19.35-6.45-28.56-6.45-28.56Z"/><path class="f" d="M263.23,102.59a1.22,1.22,0,0,0-1.08,1.3c.09,1.33.56,3.36,2.54,3.66s2.91-2.09,3.35-3.82a1.22,1.22,0,0,0-1.32-1.52Z"/><path class="l" d="M94,175.72c.22-17.59,2.74-38.27,9.9-65.18,0,0-.46,31.09,5.07,48.37,4.1,12.82,24.79,25.3,36.06,25.31a11.48,11.48,0,0,1-5.48,5.33c-8.64,7.49-38.87-8.29-45.43-13.71v.1Z"/><path class="m" d="M42.22,178v2.07a5.66,5.66,0,0,0,4.5,5.54l63.57,13.33a5.66,5.66,0,0,0,1.6.1l72.55-5.64a5.66,5.66,0,0,0,5.22-5.64v-1.71L151.32,178Z"/><polygon class="n" points="94.08 146.09 137.28 161.97 111.01 210.22 91.3 151.08 94.08 146.09"/><polygon class="o" points="88.52 146.09 129.61 165.24 111.01 210.22 71.59 196.61 88.52 146.09"/><path class="e" d="M92.08,195.18s3.52,3.41,2.66,4.36a2.76,2.76,0,0,1-2.13.82s.23,5.66-3.76,4.51-6-1.85-6.5-4.47S83.85,193,83.85,193A9.64,9.64,0,0,0,92.08,195.18Z"/><path class="j" d="M109.11,95.59a35.85,35.85,0,0,0-.87,3.51A34.88,34.88,0,0,0,106,110.92c-.25,1.43-.54,2.86-.83,4.29a63.18,63.18,0,0,0-1,7c-5.82,13.94-5.26,26.56-10.08,53.65L92.81,196c-2.53,1.15-8.06.46-9-2.53,0,0-12.1-14.4-12.21-42.84C71.44,103.89,97.58,96.53,109.11,95.59Z"/><path class="h" d="M221.67,132.79s-12.27-5.41-12.82-1.24c-.28,2.15-.6,4.33-.6,4.33l-4.44,5.53s-1,1.3.65,2.6,7.76,2.72,13.06-1.48a14.07,14.07,0,0,0,2.9-3.13C221.8,138,221.91,135.51,221.67,132.79Z"/><path class="e" d="M196.22,133.34s16.77-5.51,18.77.9c.86,2.76-5.6,1.08-5.6,1.08-1.39,2.3-2.52,6.08-5.53,7.64l-7.65-2.58Z"/><path class="l" d="M133.89,98.17c21.44,10.51,30.24,43.26,63.26,34.71a26.58,26.58,0,0,1-.81,9.56c-11.91,12.94-31.44,16.47-48,5,8.5-21-6.22-40.77-14.43-49.22Z"/><path class="h" d="M250.23,159s4.36.77,4.19,1.9a2.49,2.49,0,0,1-1.17,1.69s3,4.11-.52,5.28-5.4,1.64-7.11,0-2.65-6.31-2.65-6.31A8.7,8.7,0,0,0,250.23,159Z"/><path class="n" d="M258.11,101.58c-22,14-31.94,40.52-15.13,60.33,2.94-.26,6-.34,7.14-2.76-3.69-19.12,3.4-39.95,12.44-51.13Z"/><path class="o" d="M281.37,95.19S273,105.36,270,103.29s-3.42-6.54-3.42-6.54-14.31.78-16.39,27.5,1.84,45.37,1.84,45.37c7.6,8.75,34.66,13,51.25,8.64,9.42-5.85,8.85-22.66,2.07-52.05C299.12,99,281.37,95.19,281.37,95.19Z"/><path class="n" d="M252.08,169.62S249,155,249.74,133.07c12.69.81,24.63-3.44,35.36-15.77l8.77-1.46s6.91,34.09-8.75,48.14c-8.24,7.4-20.7,8.54-30.65,8A19.39,19.39,0,0,1,252.08,169.62Z"/><polygon class="b" points="340.3 173.87 240.91 173.87 234.8 178.59 343.91 178.59 340.3 173.87"/><path class="m" d="M343.91,178.59v2.07a5.66,5.66,0,0,1-4.49,5.54l-63.57,13.33a5.66,5.66,0,0,1-1.6.1L201.71,194a5.66,5.66,0,0,1-5.22-5.64v-1.71l38.31-8.05Z"/><path class="o" d="M296,110.54c8.52,60.8-55.51,56.66-76.46,30.1,1.78-1.73,2.19-6.49,0-8.73,33.59,12.09,59.19,7.38,70.94-26.44Z"/><path class="i" d="M339.29,152c1.45-11.3-24.15-17.16-26.65-.74.27,3,4.06-.15,5.73,2.54-1.45-6,10.93-14.42,16-1.71Z"/><path class="i" d="M358.21,152.78c-1.84-3.6-62.31-.83-64.53,2.21s-6.55,50-3.57,51.53,71.61,1.42,74.5-2S363.86,163.82,358.21,152.78Z"/><path class="p" d="M365.3,176.33l-76.88,3.31s1.48-23.25,5.17-25.71,62.71-6.67,65.2-2.63S365.3,176.33,365.3,176.33Z"/><path class="o" d="M330.51,175.82s-.89,10.72-4.61,10.59-5.53-10.15-5.53-10.15Z"/><path class="q" d="M131.66,89.74l-5.57-1.94s-.2,2.67,1.89,3.45S131.66,89.74,131.66,89.74Z"/><path class="q" d="M267.51,88.61l5.57-1.94s.2,2.67-1.89,3.45S267.51,88.61,267.51,88.61Z"/><path class="r" d="M93.93,37s-1.49-.69-4.37-2.06a17.44,17.44,0,0,0-7.05-2.06q-5.38,0-5.38,5,0,2.83,5,5.9,8,4.85,9.26,6a13.45,13.45,0,0,1,5,10.46q0,13-16,17.28.38,7.63.38,8.45,0,.48-1.06.58a10.91,10.91,0,0,1-2.06,0l-1.49-.14a14.19,14.19,0,0,0-1.82.17,14.25,14.25,0,0,1-1.78.17,1.8,1.8,0,0,1-.72-.14,5.53,5.53,0,0,1-.29-2.35q0-1.54.19-4.75-12.86,0-13.05-1.78a3.11,3.11,0,0,1,0-.91q0-.77,0-1a38.08,38.08,0,0,0-.34-4.61,24.08,24.08,0,0,0-.72-3,12.21,12.21,0,0,1-.58-3q0-1,1.1-1a22.77,22.77,0,0,1,4.25.7,22.84,22.84,0,0,0,4.73.7q8.45,0,8.45-5.23,0-2.74-4.85-6.14-7.92-5.52-9.07-6.67-4.85-4.61-4.85-10.32a15.89,15.89,0,0,1,4.66-11.28A19.77,19.77,0,0,1,72.38,20q0,.43-.14-2.3a20,20,0,0,1,0-3.22q.19-1.63.91-1.63h8.25q.58,0,.72,1.44a16.65,16.65,0,0,1,0,2.93q-.1,2.54-.1,2.21a44.65,44.65,0,0,1,9.07,2.16q7.15,2.26,7.15,3.89a5.12,5.12,0,0,1-.29,1.25q-.67,1.44-1.78,4.42-.34,1.63-1.2,4.8Q94.74,37,93.93,37Z"/><path class="o" d="M126.58,18l-2.51-1.19A10,10,0,0,0,120,15.59q-3.09,0-3.09,2.87,0,1.63,2.87,3.39,4.58,2.78,5.32,3.42a7.73,7.73,0,0,1,2.87,6q0,7.44-9.21,9.92.22,4.38.22,4.85,0,.28-.61.33a6.26,6.26,0,0,1-1.19,0l-.85-.08a8.14,8.14,0,0,0-1,.1,8.19,8.19,0,0,1-1,.1,1,1,0,0,1-.41-.08,3.18,3.18,0,0,1-.17-1.35q0-.88.11-2.73-7.39,0-7.5-1a1.79,1.79,0,0,1,0-.52q0-.44,0-.55a21.87,21.87,0,0,0-.19-2.65,13.84,13.84,0,0,0-.41-1.74,7,7,0,0,1-.33-1.74q0-.58.63-.58a13.09,13.09,0,0,1,2.44.4,13.12,13.12,0,0,0,2.72.4q4.85,0,4.85-3,0-1.57-2.78-3.53A64.67,64.67,0,0,1,108.08,24,8,8,0,0,1,105.29,18,9.13,9.13,0,0,1,108,11.57a11.36,11.36,0,0,1,6.23-3.39q0,.25-.08-1.32a11.45,11.45,0,0,1,0-1.85q.11-.94.52-.94h4.74q.33,0,.41.83a9.57,9.57,0,0,1,0,1.68q-.06,1.46-.06,1.27A25.65,25.65,0,0,1,125,9.09q4.11,1.3,4.11,2.23a2.94,2.94,0,0,1-.17.72q-.39.83-1,2.54-.19.94-.69,2.76Q127,18,126.58,18Z"/><path class="s" d="M75.47,141.1a24.7,24.7,0,0,1,3.25,6.49c.19.58.34,1.17.5,1.76s.24,1.2.36,1.8.14,1.22.21,1.83,0,1.23.06,1.84,0,1.23-.1,1.84l-.11.91c0,.3-.06.61-.13.91l-.18.9c-.06.3-.11.6-.2.89-.17.59-.31,1.18-.52,1.76a27.19,27.19,0,0,1-3.21,6.51,43.34,43.34,0,0,0,2.53-6.72c.09-.28.15-.57.22-.86l.2-.87c.08-.29.12-.58.17-.87l.15-.88c.06-.29.07-.59.11-.88l.1-.88c0-.59.05-1.18.08-1.77s0-1.18,0-1.77l-.17-1.76c-.1-.58-.17-1.17-.28-1.75l-.2-.87-.09-.43a4,4,0,0,0-.11-.43A37,37,0,0,0,75.47,141.1Z"/></svg>