<svg xmlns="http://www.w3.org/2000/svg" viewBox="0 0 2913.32 325.42"><defs><style>.a,.b{fill:#fff;}.b,.c{isolation:isolate;font-size:379.28px;font-family:NegroniChaos, Negroni Chaos;letter-spacing:0.05em;}.c{fill:#1b2a49;stroke:#fff;stroke-miterlimit:10;stroke-width:14px;}</style></defs><title>logo_oficial</title><path class="a" d="M2577.2,154.63,2472,175.79c23.32-34.09,30.91-65.66,6.61-100.38-7,21-13.53,40.56-20.08,60.06-3.83,11.4-7,23.11-11.81,34.06-5.95,13.42-.23,20.21,11.18,25.87,13.1,6.51,25.7,14,38.68,20.79,7.67,4,10.45,9.39,7.85,17.92-4.07,13.34-7.65,26.84-11.53,40.62-15.13-4.23-19.06-11.28-11.65-23.26a35.31,35.31,0,0,0,1.73-4.37c11-24.74,10.72-24-14.69-33-11.35-4-15.58-.46-20.1,9.33-11.84,25.64-26.08,50.25-36.72,76.35-7,17.23-16.8,23.3-35.19,18,11.23-34.2,22.54-68.69,33.91-103.17,2.68-8.12,8.16-16-2.63-23.25-2.45-1.65-1.38-8.55-2.12-14.65-14.55,0-28.63-.45-42.64.31-3.63.2-9.24,3.5-10.22,6.56-10.74,33.51-32.88,54-70.09,60.69,13.1,23.53,24.8,46,38.26,67.42,2.58,4.1,12,4.45,18.4,5.44,5.61.86,11.46.18,17.2,1.24H2069c6-8.84,10.29-15.53,14.94-22,7.36-10.18,15.77-19.69,22.27-30.38,14.34-23.54,33.34-39.85,59.59-50.23,33.75-13.35,50.41-45.06,46.66-81.19-.34-3.26-4.32-6.42-7.11-9.1-13-12.45-11.62-20.14-2.89-36.1,6.18-11.3,8.26-24.5,23.42-30.75-.87,4.3-1.77,7.49-2.14,10.74-2,17.37,12.8,29.15,29.44,24.13,31-9.35,63-16.19,93.08-27.83C2385.66,50.54,2424,32.35,2462.07,14c13.84-6.69,26.13-5.89,40.49-3.6,46.92,7.46,85,27.64,114.12,66.44,17.77,23.65,40.21,43.79,59.28,64.14,3.62-2.56,6.66-6.26,10.35-7.08,36.25-8.11,72.52-16.14,109-23.06,5.56-1.06,13.37,2.27,18.14,6.08,9.19,7.32,17.9,8.45,29,5.15,16.14-4.8,32.77-7.93,49.19-11.77l1.61,5-48.13,19.41c16.64,24.18,39.28,19.78,62.95,17-3.72,1.4-7.42,2.86-11.17,4.19-4.35,1.55-8.73,3-16.17,5.51l48.6,36.57-1.7,4c-5.61-2.12-11.72-3.41-16.74-6.49-27.64-16.95-56.05-32.9-82.15-52C2807,127.44,2787.21,133,2765,141.23c3.14,32.77,32.88,47.69,48.67,77.39-7.56-3.75-12.92-4.83-15.8-8.1-16.84-19.11-32.88-38.91-49.75-58-2.78-3.15-8.5-5.59-12.61-5.26-7.56.6-14.93,3.5-24.13,5.89l27.85,54c-25.47-10.73-30.71-34.9-50.4-50.79-23.7,17.74-48.67,36.22-73.38,55-12.9,9.83-25.87,19.69-37.85,30.57-11.56,10.5-16.58-1.58-23.57-5.81-6.7-4.05-12.81-8.58-7.34-18.87C2556.9,198.07,2565.87,178.11,2577.2,154.63ZM2097.35,299.1h190.09c-17.71-23.85-33.49-45.54-49.94-66.72-2-2.58-7.78-3.9-11.37-3.28-21.55,3.7-43.05,7.78-64.4,12.53-6.46,1.44-13.73,4-18.26,8.44C2128.57,264.68,2114.76,280.39,2097.35,299.1Z"/><text class="b" transform="translate(3 312.39) scale(1.21 1)">renoindev</text><text class="c" transform="translate(3 312.39) scale(1.21 1)">renoindev</text></svg>