<svg xmlns="http://www.w3.org/2000/svg" xmlns:xlink="http://www.w3.org/1999/xlink" viewBox="0 0 102.4 100.03"><defs><style>.a,.b,.c{fill:none;}.b{clip-path:url(#a);}.at,.c{clip-path:url(#b);}.d{fill:url(#l);}.e{fill:#585c7a;}.f{opacity:0.75;}.g{fill:url(#m);}.h{fill:url(#n);}.i{fill:url(#o);}.da,.j,.r,.v{fill:#231f20;}.j{opacity:0.74;}.af,.ay,.bx,.cc,.cz,.da,.dd,.de,.dn,.j,.r,.s,.v{isolation:isolate;}.k{fill:url(#p);}.af,.l{fill:#111c21;}.m{fill:url(#q);}.n{fill:url(#r);}.o{fill:url(#s);}.p{fill:url(#t);}.q{fill:url(#u);}.r{opacity:0.64;}.s{fill:#f79a6b;opacity:0.63;}.t{fill:url(#v);}.u{fill:url(#w);}.v{opacity:0.62;}.w{fill:#1e2e36;}.x{fill:url(#x);}.y{fill:url(#y);}.z{fill:url(#z);}.aa{fill:url(#aa);}.ab{fill:url(#ab);}.ac{fill:url(#ac);}.ad{fill:url(#ad);}.ae{fill:url(#ae);}.af{opacity:0.44;}.ag{fill:#a6a8ac;}.ah{fill:url(#af);}.ai{fill:url(#ag);}.aj{fill:url(#ah);}.ak{clip-path:url(#ai);}.al{opacity:0.1;}.am,.dn{fill:#fff;}.an{opacity:0.25;}.ao{fill:url(#aj);}.ap{fill:url(#al);}.aq{fill:url(#am);}.ar{fill:url(#an);}.as{fill:url(#ao);}.au{fill:url(#aq);}.av{fill:url(#ar);}.aw{fill:url(#as);}.ax{fill:url(#at);}.ay,.bo{fill:#293a42;}.ay{opacity:0.61;}.az{fill:url(#au);}.ba{fill:url(#av);}.bb{fill:url(#aw);}.bc{fill:url(#ax);}.bd{fill:url(#ay);}.be{fill:url(#az);}.bf{fill:url(#ba);}.bg{fill:url(#bb);}.bh{fill:url(#bc);}.bi{fill:url(#bd);}.bj{fill:url(#be);}.bk{fill:url(#bf);}.bl{fill:url(#bg);}.bm{fill:url(#bh);}.bn{fill:url(#bi);}.bp{fill:url(#bj);}.bq{fill:url(#bk);}.br{fill:url(#bl);}.bs{fill:#7b818e;}.bt{fill:url(#bm);}.bu{fill:url(#bn);}.bv{fill:url(#bo);}.bw{fill:url(#bp);}.bx{opacity:0.55;fill:url(#bq);}.by{fill:url(#br);}.bz{fill:url(#bs);}.ca{fill:url(#bt);}.cb{fill:url(#bu);}.cc{fill:#f0efef;opacity:0.17;}.cd{fill:url(#bv);}.ce{fill:url(#bw);}.cf{fill:url(#bx);}.cg{fill:url(#by);}.ch{fill:url(#bz);}.ci{fill:url(#ca);}.cj{fill:#283e45;}.ck{fill:url(#cb);}.cl{fill:url(#cc);}.cm{fill:url(#cd);}.cn{fill:url(#ce);}.co{fill:url(#cf);}.cp{fill:url(#cg);}.cq{opacity:0.9;}.cr{fill:#929497;}.cs{fill:url(#ch);}.ct{opacity:0.8;}.cu{clip-path:url(#ci);}.cv{fill:url(#cj);}.cw{clip-path:url(#ck);}.cx{fill:url(#cl);}.cy{fill:url(#cm);}.cz{fill:#4f4e51;opacity:0.6;}.da{opacity:0.21;}.db{fill:url(#cn);}.dc{fill:url(#co);}.dd,.de{opacity:0.39;}.dd{fill:url(#cp);}.de{fill:url(#cq);}.df{fill:url(#cr);}.dg{fill:url(#cs);}.dh{fill:url(#ct);}.di{fill:url(#cu);}.dj{fill:url(#cv);}.dk{fill:url(#cw);}.dl{fill:url(#cx);}.dm{fill:url(#cy);}.dn{opacity:0.45;}.do{fill:url(#cz);}.dp{fill:url(#da);}.dq{fill:url(#db);}.dr{fill:url(#dc);}.ds{fill:url(#dd);}.dt{fill:url(#de);}.du{fill:url(#df);}.dv{fill:url(#dg);}.dw{fill:#a7a9ac;}.dx{fill:url(#dh);}.dy{fill:url(#di);}.dz{fill:url(#dj);}.ea{fill:url(#dk);}.eb{fill:url(#dl);}.ec{clip-path:url(#dm);}.ed{fill:url(#dn);}</style><clipPath id="a"><polygon class="c" points="92.57 93.17 93.12 93.96 93.87 94.58 94.12 94.84 95.94 94.32 98.02 92.46 99.05 90.56 98.46 88.99 97.23 87.93 95.13 87.61 94.82 87.91 94.47 89.15 92.71 90.87 91.91 91.56 92.57 93.17"/></clipPath><clipPath id="b"><polygon class="b" points="92.57 93.17 93.12 93.96 93.87 94.58 94.12 94.84 95.94 94.32 98.02 92.46 99.05 90.56 98.46 88.99 97.23 87.93 95.13 87.61 94.82 87.91 94.47 89.15 92.71 90.87 91.91 91.56 92.57 93.17"/></clipPath><linearGradient id="l" x1="52.29" y1="-220.38" x2="51.99" y2="-180.56" gradientTransform="translate(0 220)" gradientUnits="userSpaceOnUse"><stop offset="0" stop-color="#f2c086"/><stop offset="0.05" stop-color="#f3aa8c"/><stop offset="0.13" stop-color="#d37a6e"/><stop offset="0.32" stop-color="#4f5764"/><stop offset="0.59" stop-color="#0c3c4c"/><stop offset="1" stop-color="#1c292e"/></linearGradient><linearGradient id="m" x1="544.61" y1="2490.64" x2="541.69" y2="2488.08" gradientTransform="translate(715.12 -2438.35) rotate(27.19)" gradientUnits="userSpaceOnUse"><stop offset="0" stop-color="#4f5764"/><stop offset="0.67" stop-color="#293942"/><stop offset="1" stop-color="#0f1c21"/></linearGradient><linearGradient id="n" x1="63.19" y1="-205.6" x2="64.22" y2="-196.46" gradientTransform="translate(0 220)" gradientUnits="userSpaceOnUse"><stop offset="0" stop-color="#f2c086"/><stop offset="0.08" stop-color="#f3aa8c"/><stop offset="0.18" stop-color="#d37a6e"/><stop offset="0.67" stop-color="#d0d1d3"/><stop offset="1" stop-color="#cdd2d1"/></linearGradient><linearGradient id="o" x1="544.47" y1="2483.42" x2="548.44" y2="2482.13" gradientTransform="translate(715.12 -2438.35) rotate(27.19)" gradientUnits="userSpaceOnUse"><stop offset="0" stop-color="#111c21"/><stop offset="1" stop-color="#201c1d"/></linearGradient><linearGradient id="p" x1="44.13" y1="-198.9" x2="46.36" y2="-197.1" gradientTransform="translate(0 220)" gradientUnits="userSpaceOnUse"><stop offset="0" stop-color="#f2c086"/><stop offset="0.08" stop-color="#f3aa8c"/><stop offset="0.18" stop-color="#d37a6e"/><stop offset="0.51" stop-color="#4f5764"/><stop offset="0.73" stop-color="#293942"/><stop offset="1" stop-color="#0f1c21"/></linearGradient><linearGradient id="q" x1="528.99" y1="2489.98" x2="542.24" y2="2489.98" gradientTransform="translate(715.12 -2438.35) rotate(27.19)" xlink:href="#n"/><linearGradient id="r" x1="45.99" y1="-199.86" x2="48.23" y2="-196.9" gradientTransform="translate(0 220)" gradientUnits="userSpaceOnUse"><stop offset="0" stop-color="#f2c086"/><stop offset="0.08" stop-color="#f3aa8c"/><stop offset="0.14" stop-color="#e08e7a"/><stop offset="0.18" stop-color="#d37a6e"/><stop offset="0.42" stop-color="#4f5764"/><stop offset="0.67" stop-color="#293942"/><stop offset="1" stop-color="#0f1c21"/></linearGradient><linearGradient id="s" x1="534.09" y1="2493.18" x2="537.39" y2="2493.18" xlink:href="#m"/><linearGradient id="t" x1="527.58" y1="2488.51" x2="533.18" y2="2488.51" gradientTransform="translate(715.12 -2438.35) rotate(27.19)" xlink:href="#n"/><linearGradient id="u" x1="540.28" y1="2483.85" x2="545.17" y2="2483.85" gradientTransform="translate(715.12 -2438.35) rotate(27.19)" gradientUnits="userSpaceOnUse"><stop offset="0.34" stop-color="#0f1e24"/><stop offset="1" stop-color="#332f2f"/></linearGradient><linearGradient id="v" x1="528.76" y1="2489.27" x2="529.89" y2="2487.54" gradientTransform="translate(715.12 -2438.35) rotate(27.19)" gradientUnits="userSpaceOnUse"><stop offset="0" stop-color="#f2c086"/><stop offset="0.31" stop-color="#f3aa8c"/><stop offset="0.58" stop-color="#d37a6e"/><stop offset="1" stop-color="#a28884"/></linearGradient><linearGradient id="w" x1="527.77" y1="2491.12" x2="537.87" y2="2491.12" gradientTransform="translate(715.12 -2438.35) rotate(27.19)" gradientUnits="userSpaceOnUse"><stop offset="0" stop-color="#f2c086"/><stop offset="0.08" stop-color="#f3aa8c"/><stop offset="0.18" stop-color="#d37a6e"/><stop offset="0.42" stop-color="#4f5764"/><stop offset="0.67" stop-color="#293942"/><stop offset="1" stop-color="#0f1c21"/></linearGradient><linearGradient id="x" x1="510.32" y1="2486.19" x2="512.21" y2="2483.75" gradientTransform="matrix(0.89, 0.45, -0.45, 0.89, 711.95, -2431.41)" xlink:href="#n"/><linearGradient id="y" x1="536.56" y1="2487.54" x2="542.32" y2="2487.54" gradientTransform="translate(715.12 -2438.35) rotate(27.19)" gradientUnits="userSpaceOnUse"><stop offset="0" stop-color="#929497"/><stop offset="1" stop-color="#a6a8ac"/></linearGradient><linearGradient id="z" x1="533.99" y1="2489.65" x2="534" y2="2488.81" gradientTransform="translate(715.12 -2438.35) rotate(27.19)" gradientUnits="userSpaceOnUse"><stop offset="0.26" stop-color="#293942"/><stop offset="1" stop-color="#0f1c21"/></linearGradient><linearGradient id="aa" x1="531.17" y1="2493.17" x2="531.76" y2="2489.86" gradientTransform="translate(715.12 -2438.35) rotate(27.19)" gradientUnits="userSpaceOnUse"><stop offset="0" stop-color="#808285"/><stop offset="1" stop-color="#4d5051"/></linearGradient><linearGradient id="ab" x1="526.35" y1="2491.08" x2="536.67" y2="2491.08" xlink:href="#w"/><linearGradient id="ac" x1="510.59" y1="2486.33" x2="512.45" y2="2483.94" gradientTransform="matrix(0.89, 0.45, -0.45, 0.89, 711.95, -2431.41)" gradientUnits="userSpaceOnUse"><stop offset="0" stop-color="#f3aa8c"/><stop offset="0.23" stop-color="#d37a6e"/><stop offset="0.57" stop-color="#4f5764"/><stop offset="1" stop-color="#808184"/></linearGradient><linearGradient id="ad" x1="593.66" y1="2492.97" x2="595.51" y2="2490.59" gradientTransform="matrix(0.88, 0.48, -0.48, 0.88, 722.46, -2454.77)" xlink:href="#n"/><linearGradient id="ae" x1="593.81" y1="2493.09" x2="595.66" y2="2490.7" gradientTransform="matrix(0.88, 0.48, -0.48, 0.88, 722.46, -2454.77)" xlink:href="#ac"/><linearGradient id="af" x1="543.18" y1="2487.02" x2="544.54" y2="2487.02" xlink:href="#u"/><linearGradient id="ag" x1="59.32" y1="-203.6" x2="61.71" y2="-197.93" gradientTransform="translate(0 220)" gradientUnits="userSpaceOnUse"><stop offset="0" stop-color="#854c43"/><stop offset="0.67" stop-color="#abadaf"/><stop offset="1" stop-color="#cdd2d1"/></linearGradient><linearGradient id="ah" x1="538.99" y1="2486.43" x2="541.58" y2="2486.43" gradientTransform="translate(715.12 -2438.35) rotate(27.19)" gradientUnits="userSpaceOnUse"><stop offset="0.42" stop-color="#4f5764"/><stop offset="0.67" stop-color="#293942"/><stop offset="1" stop-color="#0f1c21"/></linearGradient><clipPath id="ai"><ellipse class="a" cx="51.9" cy="50.85" rx="50.5" ry="48.84"/></clipPath><linearGradient id="aj" x1="55.02" y1="-158.68" x2="20.31" y2="-179.58" gradientTransform="translate(0 220)" gradientUnits="userSpaceOnUse"><stop offset="0" stop-color="#fff"/><stop offset="1" stop-color="#d1d3d4"/></linearGradient><linearGradient id="al" x1="413.99" y1="-504.22" x2="395.89" y2="-512.87" gradientTransform="translate(74.32 736.86) rotate(-38.08)" gradientUnits="userSpaceOnUse"><stop offset="0" stop-color="#8f9294"/><stop offset="0.54" stop-color="#535659"/></linearGradient><linearGradient id="am" x1="417.47" y1="-516.72" x2="432.53" y2="-516.87" gradientTransform="matrix(0.78, -0.63, 0.63, 0.78, 85.05, 760.59)" gradientUnits="userSpaceOnUse"><stop offset="0" stop-color="#775950"/><stop offset="0.14" stop-color="#4e5763"/><stop offset="1" stop-color="#0e1c22"/></linearGradient><linearGradient id="an" x1="422.54" y1="-518.59" x2="428.9" y2="-518.59" gradientTransform="matrix(0.78, -0.63, 0.63, 0.78, 85.05, 760.59)" xlink:href="#z"/><linearGradient id="ao" x1="574.87" y1="-607.85" x2="582.2" y2="-607.85" gradientTransform="matrix(0.67, -0.73, 0.7, 0.65, 133.24, 906.35)" xlink:href="#z"/><linearGradient id="aq" x1="577.91" y1="-443.11" x2="576.95" y2="-443.11" gradientTransform="matrix(0.67, -0.73, 0.84, 0.77, 77.24, 854.86)" gradientUnits="userSpaceOnUse"><stop offset="0" stop-color="#202f38"/><stop offset="1" stop-color="#0f1c21"/></linearGradient><linearGradient id="ar" x1="660.16" y1="-457.18" x2="659.14" y2="-457.18" gradientTransform="matrix(0.61, -0.78, 0.9, 0.7, 107.61, 928.94)" xlink:href="#aq"/><linearGradient id="as" x1="797.15" y1="-480.07" x2="796.14" y2="-480.07" gradientTransform="matrix(0.5, -0.86, 0.99, 0.57, 177.01, 1049)" xlink:href="#aq"/><linearGradient id="at" x1="377" y1="-509.99" x2="400.28" y2="-509.99" gradientTransform="translate(74.32 736.86) rotate(-38.08)" gradientUnits="userSpaceOnUse"><stop offset="0" stop-color="#8f9294"/><stop offset="0.54" stop-color="#65686b"/></linearGradient><linearGradient id="au" x1="371.59" y1="-585.09" x2="402.92" y2="-585.09" gradientTransform="translate(131.06 786.91) rotate(-38.93)" gradientUnits="userSpaceOnUse"><stop offset="0" stop-color="#58595b"/><stop offset="0.32" stop-color="#d0d1d3"/><stop offset="1" stop-color="#a6a8ac"/></linearGradient><linearGradient id="av" x1="386.14" y1="-583.96" x2="386.5" y2="-588.33" gradientTransform="translate(131.06 786.91) rotate(-38.93)" gradientUnits="userSpaceOnUse"><stop offset="0.26" stop-color="#293a42"/><stop offset="1" stop-color="#111c21"/></linearGradient><linearGradient id="aw" x1="385.44" y1="-583.19" x2="386.92" y2="-594.88" gradientTransform="translate(131.06 786.91) rotate(-38.93)" gradientUnits="userSpaceOnUse"><stop offset="0" stop-color="#4f5764"/><stop offset="1" stop-color="#5d6062"/></linearGradient><linearGradient id="ax" x1="1785.64" y1="-188.81" x2="1781.85" y2="-186.49" gradientTransform="matrix(-1, 0.1, 0.1, 1, 1859.14, 76.69)" gradientUnits="userSpaceOnUse"><stop offset="0" stop-color="#929497"/><stop offset="1" stop-color="#293a42"/></linearGradient><linearGradient id="ay" x1="1791.84" y1="-162.17" x2="1787.35" y2="-157.03" gradientTransform="matrix(-1, 0.07, 0.07, 1, 1866.06, 99.93)" gradientUnits="userSpaceOnUse"><stop offset="0" stop-color="#5b3629"/><stop offset="0.17" stop-color="#5b3528"/><stop offset="0.17" stop-color="#5e3628"/><stop offset="0.22" stop-color="#793f29"/><stop offset="0.26" stop-color="#914528"/><stop offset="0.31" stop-color="#a34926"/><stop offset="0.35" stop-color="#ad4a26"/><stop offset="0.4" stop-color="#b14b26"/><stop offset="0.57" stop-color="#5b3629"/></linearGradient><linearGradient id="az" x1="1832.46" y1="-83.79" x2="1827.66" y2="-78.4" gradientTransform="matrix(-1, -0.02, -0.02, 1, 1895.81, 179)" gradientUnits="userSpaceOnUse"><stop offset="0" stop-color="#d0d1d3"/><stop offset="1" stop-color="#293a42"/></linearGradient><linearGradient id="ba" x1="1830.6" y1="-81.42" x2="1829.34" y2="-82.75" gradientTransform="matrix(-1, -0.02, -0.02, 1, 1895.81, 179)" gradientUnits="userSpaceOnUse"><stop offset="0.26" stop-color="#465b66"/><stop offset="1" stop-color="#111c21"/></linearGradient><linearGradient id="bb" x1="1831.5" y1="-82.66" x2="1830.26" y2="-83.95" xlink:href="#ba"/><linearGradient id="bc" x1="1882.51" y1="116.85" x2="1881.18" y2="115.45" gradientTransform="matrix(-0.98, -0.22, -0.22, 0.98, 1930.49, 362.11)" xlink:href="#ba"/><linearGradient id="bd" x1="1791.02" y1="-162.18" x2="1787.68" y2="-158.35" gradientTransform="matrix(-1, 0.07, 0.07, 1, 1866.06, 99.93)" gradientUnits="userSpaceOnUse"><stop offset="0" stop-color="#293941"/><stop offset="1" stop-color="#111c21"/></linearGradient><linearGradient id="be" x1="380.77" y1="-594.05" x2="387.83" y2="-594.05" gradientTransform="translate(131.06 786.91) rotate(-38.93)" gradientUnits="userSpaceOnUse"><stop offset="0" stop-color="#3b2416"/><stop offset="1" stop-color="#754d29"/></linearGradient><linearGradient id="bf" x1="368.48" y1="-599.88" x2="383.7" y2="-599.88" gradientTransform="translate(131.06 786.91) rotate(-38.93)" xlink:href="#ax"/><linearGradient id="bg" x1="384.84" y1="-591.44" x2="383.97" y2="-598.02" gradientTransform="translate(131.06 786.91) rotate(-38.93)" gradientUnits="userSpaceOnUse"><stop offset="0" stop-color="#5b3528"/><stop offset="0.03" stop-color="#663a2a"/><stop offset="0.11" stop-color="#87482f"/><stop offset="0.19" stop-color="#a45431"/><stop offset="0.27" stop-color="#ba5d33"/><stop offset="0.36" stop-color="#c86233"/><stop offset="0.45" stop-color="#ce6433"/><stop offset="0.78" stop-color="#414142"/></linearGradient><linearGradient id="bh" x1="369.03" y1="-599.56" x2="385.02" y2="-599.56" gradientTransform="translate(131.06 786.91) rotate(-38.93)" gradientUnits="userSpaceOnUse"><stop offset="0" stop-color="#fff"/><stop offset="1" stop-color="#293a42"/></linearGradient><linearGradient id="bi" x1="386.12" y1="-593.88" x2="383.16" y2="-596.98" gradientTransform="translate(131.06 786.91) rotate(-38.93)" xlink:href="#ba"/><linearGradient id="bj" x1="512.64" y1="-646.79" x2="497.61" y2="-637.6" gradientTransform="translate(172.33 883.63) rotate(-45.28)" gradientUnits="userSpaceOnUse"><stop offset="0" stop-color="#f2c086"/><stop offset="0.09" stop-color="#bcb4ae"/><stop offset="0.32" stop-color="#cacccd"/><stop offset="0.75" stop-color="#9d9fa2"/></linearGradient><linearGradient id="bk" x1="328.1" y1="-543.6" x2="334.72" y2="-543.6" gradientTransform="translate(100.88 710.35) rotate(-34.32)" gradientUnits="userSpaceOnUse"><stop offset="0" stop-color="#7a4e3b"/><stop offset="1" stop-color="#36454d"/></linearGradient><linearGradient id="bl" x1="330.98" y1="-544.88" x2="334.32" y2="-542.23" gradientTransform="translate(100.88 710.35) rotate(-34.32)" gradientUnits="userSpaceOnUse"><stop offset="0" stop-color="#5b3528"/><stop offset="0.07" stop-color="#653929"/><stop offset="0.19" stop-color="#82452c"/><stop offset="0.35" stop-color="#b6562b"/><stop offset="0.47" stop-color="#f16724"/><stop offset="0.67" stop-color="#f29040"/><stop offset="0.89" stop-color="#ed693c"/><stop offset="1" stop-color="#e83f39"/></linearGradient><linearGradient id="bm" x1="322.02" y1="-484.8" x2="317.29" y2="-483" gradientTransform="matrix(0.66, -0.54, 0.74, 0.91, 218.26, 676.95)" gradientUnits="userSpaceOnUse"><stop offset="0" stop-color="#ce9179"/><stop offset="0.64" stop-color="#929497"/><stop offset="1" stop-color="#293a42"/></linearGradient><linearGradient id="bn" x1="229.21" y1="-484.8" x2="224.2" y2="-482.9" gradientTransform="matrix(0.57, -0.47, 0.74, 0.91, 299.94, 610.26)" gradientUnits="userSpaceOnUse"><stop offset="0" stop-color="#f2c086"/><stop offset="0.08" stop-color="#f3aa8c"/><stop offset="0.18" stop-color="#d37a6e"/><stop offset="0.47" stop-color="#d0d1d3"/><stop offset="0.78" stop-color="#cdd2d1"/></linearGradient><linearGradient id="bo" x1="396.23" y1="-590.15" x2="406.38" y2="-583.16" gradientTransform="translate(131.06 786.91) rotate(-38.93)" gradientUnits="userSpaceOnUse"><stop offset="0" stop-color="#4f5764"/><stop offset="1" stop-color="#a6a8ac"/></linearGradient><linearGradient id="bp" x1="404.44" y1="-603.59" x2="370.39" y2="-601.9" gradientTransform="translate(131.06 786.91) rotate(-38.93)" gradientUnits="userSpaceOnUse"><stop offset="0.26" stop-color="#293a42"/><stop offset="1" stop-color="#2a383f"/></linearGradient><linearGradient id="bq" x1="403.1" y1="-602.66" x2="404.89" y2="-602.66" gradientTransform="translate(131.06 786.91) rotate(-38.93)" gradientUnits="userSpaceOnUse"><stop offset="0" stop-color="#f2c086"/><stop offset="1" stop-color="#f2f2f2"/></linearGradient><linearGradient id="br" x1="384.6" y1="-602.37" x2="396.88" y2="-602.37" gradientTransform="translate(131.06 786.91) rotate(-38.93)" gradientUnits="userSpaceOnUse"><stop offset="0" stop-color="#293a42"/><stop offset="1" stop-color="#111c21"/></linearGradient><linearGradient id="bs" x1="376.13" y1="-601.47" x2="390.29" y2="-601.47" gradientTransform="translate(131.06 786.91) rotate(-38.93)" gradientUnits="userSpaceOnUse"><stop offset="0" stop-color="#293a42"/><stop offset="1" stop-color="#172329"/></linearGradient><linearGradient id="bt" x1="382.92" y1="-598.7" x2="396.68" y2="-598.7" xlink:href="#br"/><linearGradient id="bu" x1="396.64" y1="-601.72" x2="402.79" y2="-601.72" xlink:href="#br"/><linearGradient id="bv" x1="3613.13" y1="-619.36" x2="3615.1" y2="-619.36" gradientTransform="translate(-2367.59 2805.24) rotate(-38.93)" gradientUnits="userSpaceOnUse"><stop offset="0.34" stop-color="#0f1e24"/><stop offset="0.76" stop-color="#332f2f"/></linearGradient><linearGradient id="bw" x1="-2261.26" y1="-612.04" x2="-2253.79" y2="-612.04" gradientTransform="matrix(-0.77, 0.64, 0.64, 0.77, -1311.41, 1945.29)" gradientUnits="userSpaceOnUse"><stop offset="0" stop-color="#a87b5e"/><stop offset="0.29" stop-color="#4f5764"/><stop offset="0.58" stop-color="#0f1c21"/></linearGradient><linearGradient id="bx" x1="3588.58" y1="-576.98" x2="3624.76" y2="-576.98" gradientTransform="translate(-2363.78 2812.63) rotate(-39.49)" gradientUnits="userSpaceOnUse"><stop offset="0.1" stop-color="#58595b"/><stop offset="0.36" stop-color="#283e45"/><stop offset="0.5" stop-color="#3d4a50"/><stop offset="0.66" stop-color="#4f5559"/><stop offset="0.82" stop-color="#5a5c5f"/><stop offset="1" stop-color="#5d5e61"/></linearGradient><linearGradient id="by" x1="3625.94" y1="-578.6" x2="3588.06" y2="-578.6" gradientTransform="translate(-2363.78 2812.63) rotate(-39.49)" gradientUnits="userSpaceOnUse"><stop offset="0" stop-color="#929592"/><stop offset="0.39" stop-color="#7c7a7b"/><stop offset="1" stop-color="#283e45"/></linearGradient><linearGradient id="bz" x1="3618.01" y1="-596.11" x2="3627.6" y2="-594.39" gradientTransform="translate(-2363.78 2812.63) rotate(-39.49)" gradientUnits="userSpaceOnUse"><stop offset="0" stop-color="#111c21"/><stop offset="1" stop-color="#293a42"/></linearGradient><linearGradient id="ca" x1="3589.03" y1="-579.28" x2="3623.28" y2="-579.28" gradientTransform="translate(-2363.78 2812.63) rotate(-39.49)" gradientUnits="userSpaceOnUse"><stop offset="0" stop-color="#f2c086"/><stop offset="0.09" stop-color="#d37a6e"/><stop offset="0.32" stop-color="#d0d1d3"/><stop offset="0.96" stop-color="#a6a8ac"/><stop offset="0.97" stop-color="#bcafa2"/><stop offset="0.97" stop-color="#d4b695"/><stop offset="0.98" stop-color="#e5bb8c"/><stop offset="0.99" stop-color="#eebf86"/><stop offset="1" stop-color="#f2c084"/></linearGradient><linearGradient id="cb" x1="3588.33" y1="-584.07" x2="3623.28" y2="-584.07" gradientTransform="translate(-2363.78 2812.63) rotate(-39.49)" gradientUnits="userSpaceOnUse"><stop offset="0.09" stop-color="#808285"/><stop offset="0.32" stop-color="#d0d1d3"/><stop offset="0.97" stop-color="#a6a8ac"/></linearGradient><linearGradient id="cc" x1="3586.7" y1="-617.64" x2="3603.97" y2="-605.29" gradientTransform="translate(-2363.78 2812.63) rotate(-39.49)" gradientUnits="userSpaceOnUse"><stop offset="0"/><stop offset="0.67" stop-color="#bebfc1"/><stop offset="0.85" stop-color="#cdd2d1"/><stop offset="1" stop-color="#a6a8ac"/></linearGradient><linearGradient id="cd" x1="3585.01" y1="-612.9" x2="3593.1" y2="-612.9" gradientTransform="translate(-2363.78 2812.63) rotate(-39.49)" gradientUnits="userSpaceOnUse"><stop offset="0" stop-color="#585c65"/><stop offset="0.43" stop-color="#4f5764"/><stop offset="1" stop-color="#0f1c21"/></linearGradient><linearGradient id="ce" x1="3589.41" y1="-583.18" x2="3597.37" y2="-583.18" gradientTransform="translate(-2363.78 2812.63) rotate(-39.49)" gradientUnits="userSpaceOnUse"><stop offset="0" stop-color="#6d6e71"/><stop offset="0.42" stop-color="#4f5764"/><stop offset="0.67" stop-color="#283e45"/><stop offset="1" stop-color="#283e45"/></linearGradient><linearGradient id="cf" x1="3613.91" y1="-634.4" x2="3603.62" y2="-617.75" gradientTransform="translate(-2367.59 2805.24) rotate(-38.93)" gradientUnits="userSpaceOnUse"><stop offset="0" stop-color="#283e45"/><stop offset="0.2" stop-color="#be918a"/><stop offset="0.37" stop-color="#b4b6b8"/><stop offset="0.69" stop-color="#c1c6c5"/></linearGradient><radialGradient id="cg" cx="3611.1" cy="-595.7" r="14.16" gradientTransform="matrix(0.79, -0.63, 0.65, 0.76, -2423.38, 2788.7)" gradientUnits="userSpaceOnUse"><stop offset="0" stop-color="#111c21" stop-opacity="0"/><stop offset="0.68" stop-color="#111c21" stop-opacity="0.65"/><stop offset="0.75" stop-color="#1a272d" stop-opacity="0.73"/><stop offset="0.84" stop-color="#233138" stop-opacity="0.82"/><stop offset="0.92" stop-color="#27373f" stop-opacity="0.92"/><stop offset="1" stop-color="#293941"/></radialGradient><linearGradient id="ch" x1="3603.89" y1="-623.9" x2="3615.46" y2="-615.62" gradientTransform="translate(-2363.78 2812.63) rotate(-39.49)" xlink:href="#bq"/><clipPath id="ci"><path class="a" d="M53.4,56.53a3.19,3.19,0,0,1,1.12-.6l0,0a2.48,2.48,0,0,0-.65-2c-.81-1-2-1.32-2.67-.8s-.57,1.73.23,2.7a2.77,2.77,0,0,0,1.59,1Z"/></clipPath><linearGradient id="cj" x1="3610.26" y1="-617.52" x2="3611.96" y2="-617.52" gradientTransform="translate(-2367.59 2805.24) rotate(-38.93)" xlink:href="#br"/><clipPath id="ck"><path class="a" d="M46.38,62.37a4.7,4.7,0,0,1,.65-.44,3.24,3.24,0,0,0-.79-2c-1-1.19-2.51-1.59-3.41-.89S42,61.27,43,62.46a3.28,3.28,0,0,0,2.16,1.22A4.91,4.91,0,0,1,46.38,62.37Z"/></clipPath><linearGradient id="cl" x1="3599.96" y1="-617.51" x2="3602.17" y2="-617.51" gradientTransform="translate(-2367.59 2805.24) rotate(-38.93)" xlink:href="#br"/><linearGradient id="cm" x1="3609.44" y1="-622.66" x2="3612.82" y2="-622.66" gradientTransform="translate(-2367.59 2805.24) rotate(-38.93)" gradientUnits="userSpaceOnUse"><stop offset="0" stop-color="#a0a1a3"/><stop offset="1" stop-color="#9e867b"/></linearGradient><radialGradient id="cn" cx="3601.35" cy="-398.74" r="11.97" gradientTransform="matrix(0.8, -0.62, 0.91, 1.09, -2462.63, 2739.06)" gradientUnits="userSpaceOnUse"><stop offset="0" stop-color="#e7e7e7"/><stop offset="0.17" stop-color="#e0e1e2"/><stop offset="0.32" stop-color="#d1d2d4"/><stop offset="0.46" stop-color="#bbbdc0"/><stop offset="0.59" stop-color="#9ea2a6"/><stop offset="0.72" stop-color="#7d8389"/><stop offset="0.84" stop-color="#5a646a"/><stop offset="0.96" stop-color="#34464d"/><stop offset="1" stop-color="#283e45"/></radialGradient><linearGradient id="co" x1="3620.81" y1="-605.26" x2="3611.52" y2="-603.5" gradientTransform="translate(-2363.78 2812.63) rotate(-39.49)" gradientUnits="userSpaceOnUse"><stop offset="0" stop-color="#e1d9d5"/><stop offset="0.46" stop-color="#b3b5b7"/></linearGradient><linearGradient id="cp" x1="6.06" y1="-61.62" x2="-9.06" y2="-61.62" gradientTransform="translate(39.96 120.47) rotate(6.92)" gradientUnits="userSpaceOnUse"><stop offset="0" stop-color="#e7968b"/><stop offset="0.47" stop-color="#a4a7a9"/><stop offset="0.71" stop-color="#a9acad"/><stop offset="0.98" stop-color="#293a42"/></linearGradient><linearGradient id="cq" x1="3614.43" y1="-615.13" x2="3605.81" y2="-617.82" gradientTransform="translate(-2367.59 2805.24) rotate(-38.93)" xlink:href="#cp"/><linearGradient id="cr" x1="-9.74" y1="-62.28" x2="8.51" y2="-62.28" gradientTransform="translate(39.96 120.47) rotate(6.92)" xlink:href="#bv"/><linearGradient id="cs" x1="3625.29" y1="-585.53" x2="3595.16" y2="-585.01" gradientTransform="translate(-2363.78 2812.63) rotate(-39.49)" gradientUnits="userSpaceOnUse"><stop offset="0" stop-color="#f2c084"/><stop offset="0.38" stop-color="#293a42"/><stop offset="1" stop-color="#1f2c32"/></linearGradient><linearGradient id="ct" x1="3734.1" y1="-338.05" x2="3745.44" y2="-338.05" gradientTransform="matrix(0.69, -0.68, 0.71, 0.73, -2311.81, 2844.09)" gradientUnits="userSpaceOnUse"><stop offset="0.26" stop-color="#465b66"/><stop offset="1" stop-color="#19262c"/></linearGradient><linearGradient id="cu" x1="3956.86" y1="-383.46" x2="3969.53" y2="-374.38" gradientTransform="matrix(0.65, -0.62, 0.69, 0.72, -2280.08, 2804.94)" gradientUnits="userSpaceOnUse"><stop offset="0.29" stop-color="#77787b"/><stop offset="0.35" stop-color="#828486"/><stop offset="0.5" stop-color="#9b9c9f"/><stop offset="0.61" stop-color="#a8aaac"/><stop offset="0.67" stop-color="#adaeb1"/><stop offset="0.72" stop-color="#a7a9ac"/><stop offset="0.8" stop-color="#969ba0"/><stop offset="0.91" stop-color="#7a858c"/><stop offset="0.96" stop-color="#6b7a83"/></linearGradient><linearGradient id="cv" x1="3583.83" y1="-622.58" x2="3578.18" y2="-621.71" gradientTransform="translate(-2367.59 2805.24) rotate(-38.93)" gradientUnits="userSpaceOnUse"><stop offset="0" stop-color="#4e6471"/><stop offset="1" stop-color="#212f35"/></linearGradient><linearGradient id="cw" x1="3570.47" y1="-608.89" x2="3535.96" y2="-608.89" gradientTransform="matrix(0.79, -0.65, 0.64, 0.77, -2379.28, 2825.43)" gradientUnits="userSpaceOnUse"><stop offset="0" stop-color="#5b3629"/><stop offset="1" stop-color="#19262c"/></linearGradient><linearGradient id="cx" x1="3541.13" y1="-595.92" x2="3563.92" y2="-616.13" gradientTransform="matrix(0.79, -0.65, 0.64, 0.77, -2379.28, 2825.43)" gradientUnits="userSpaceOnUse"><stop offset="0" stop-color="#283e45"/><stop offset="0.49" stop-color="#f16724"/><stop offset="0.67" stop-color="#f29040"/><stop offset="0.89" stop-color="#ed693c"/><stop offset="1" stop-color="#e83f39"/></linearGradient><linearGradient id="cy" x1="3613.68" y1="-611.68" x2="3628.26" y2="-611.68" gradientTransform="translate(-2363.78 2812.63) rotate(-39.49)" gradientUnits="userSpaceOnUse"><stop offset="0.06" stop-color="#f16724"/><stop offset="1" stop-color="#f3ddbd"/></linearGradient><linearGradient id="cz" x1="397.42" y1="-589.76" x2="412.01" y2="-589.76" gradientTransform="translate(138.43 801.44) rotate(-40.32)" gradientUnits="userSpaceOnUse"><stop offset="0" stop-color="#7d7f82"/><stop offset="1" stop-color="#4a4c4f"/></linearGradient><linearGradient id="da" x1="392.49" y1="-582.07" x2="385.18" y2="-586.01" gradientTransform="translate(131.06 786.91) rotate(-38.93)" xlink:href="#cz"/><linearGradient id="db" x1="369.13" y1="-597.22" x2="387.02" y2="-588.31" gradientTransform="translate(131.06 786.91) rotate(-38.93)" gradientUnits="userSpaceOnUse"><stop offset="0" stop-color="#f2c086"/><stop offset="0.09" stop-color="#95807f"/><stop offset="0.72" stop-color="#a6a8ac"/><stop offset="0.73" stop-color="#a0a3a5"/><stop offset="0.78" stop-color="#949699"/><stop offset="0.84" stop-color="#898b8e"/><stop offset="0.89" stop-color="#808285"/><stop offset="0.94" stop-color="#7a7d7f"/><stop offset="1" stop-color="#797b7d"/></linearGradient><linearGradient id="dc" x1="392.7" y1="-585.13" x2="384.45" y2="-588.87" gradientTransform="translate(131.06 786.91) rotate(-38.93)" xlink:href="#ct"/><linearGradient id="dd" x1="398.05" y1="-619.55" x2="405.46" y2="-619.55" gradientTransform="matrix(0.8, -0.64, 0.64, 0.82, 123.4, 854.84)" gradientUnits="userSpaceOnUse"><stop offset="0" stop-color="#f3aa8c"/><stop offset="0.86" stop-color="#929497"/><stop offset="1" stop-color="#3f525c"/></linearGradient><linearGradient id="de" x1="190.15" y1="-538.74" x2="197.7" y2="-542.87" gradientTransform="translate(92.68 662.02) rotate(-24.46)" gradientUnits="userSpaceOnUse"><stop offset="0" stop-color="#b5a397"/><stop offset="1" stop-color="#c2c7cf"/></linearGradient><linearGradient id="df" x1="-0.99" y1="-31.59" x2="4.21" y2="-31.59" gradientTransform="translate(39.96 120.47) rotate(6.92)" gradientUnits="userSpaceOnUse"><stop offset="0" stop-color="#4f5764"/><stop offset="0.67" stop-color="#293942"/><stop offset="1" stop-color="#111c21"/></linearGradient><linearGradient id="dg" x1="433.58" y1="-586.01" x2="407.41" y2="-608.71" gradientTransform="translate(138.43 801.44) rotate(-40.32)" gradientUnits="userSpaceOnUse"><stop offset="0" stop-color="#bdbfc1"/><stop offset="1" stop-color="#909295"/></linearGradient><linearGradient id="dh" x1="-69.68" y1="328.64" x2="-74.53" y2="325.72" gradientTransform="translate(273.4 -194.58) rotate(24.34)" xlink:href="#aj"/><linearGradient id="di" x1="406.18" y1="-588.24" x2="389.13" y2="-603.04" gradientTransform="translate(131.06 786.91) rotate(-38.93)" gradientUnits="userSpaceOnUse"><stop offset="0" stop-color="#9fa1a3"/><stop offset="1" stop-color="#707376"/></linearGradient><linearGradient id="dj" x1="286.56" y1="-446.56" x2="302.9" y2="-446.72" gradientTransform="matrix(0.85, -0.52, 0.52, 0.85, 58.85, 637.8)" xlink:href="#am"/><linearGradient id="dk" x1="292.2" y1="-448.73" x2="299.29" y2="-448.73" gradientTransform="matrix(0.85, -0.52, 0.52, 0.85, 58.85, 637.8)" xlink:href="#z"/><linearGradient id="dl" x1="434.71" y1="-554.39" x2="442.88" y2="-554.39" gradientTransform="matrix(0.76, -0.63, 0.61, 0.73, 86.87, 788.73)" xlink:href="#z"/><clipPath id="dm"><polygon class="a" points="81.87 105.51 82.34 106.47 83.06 107.25 83.31 107.57 85.39 107.27 87.95 105.53 89.39 103.58 88.99 101.78 87.79 100.43 85.54 99.79 85.14 100.07 84.57 101.38 82.37 103 81.4 103.65 81.87 105.51"/></clipPath><linearGradient id="dn" x1="631.71" y1="-443.79" x2="630.57" y2="-443.79" gradientTransform="matrix(0.62, -0.77, 0.89, 0.72, 88.56, 908.51)" xlink:href="#aq"/></defs><title>fundation-01</title><ellipse class="d" cx="51.9" cy="50.85" rx="50.5" ry="48.84"/><polygon class="e" points="57.85 84.51 58.08 84.77 57.8 84.99 57.58 84.72 57.85 84.51"/><polygon class="e" points="80 45.65 80.22 45.91 79.95 46.13 79.73 45.86 80 45.65"/><polygon class="e" points="23.7 33.4 24.01 33.76 23.63 34.06 23.33 33.7 23.7 33.4"/><polygon class="e" points="60.56 31.5 60.87 31.86 60.49 32.16 60.19 31.8 60.56 31.5"/><polygon class="e" points="8.76 35.09 9.02 35.4 8.7 35.65 8.44 35.34 8.76 35.09"/><polygon class="e" points="39.27 88.26 39.49 88.53 39.22 88.74 39 88.48 39.27 88.26"/><polygon class="e" points="13.57 44.75 13.83 45.06 13.51 45.31 13.25 45.01 13.57 44.75"/><polygon class="e" points="88.83 25.35 89.14 25.71 88.76 26.01 88.46 25.64 88.83 25.35"/><polygon class="e" points="65.38 28.56 65.69 28.92 65.31 29.22 65.01 28.86 65.38 28.56"/><polygon class="e" points="21.08 52.39 21.39 52.75 21.01 53.05 20.71 52.69 21.08 52.39"/><polygon class="e" points="2.54 42.43 2.79 42.74 2.48 42.99 2.22 42.69 2.54 42.43"/><polygon class="e" points="53.05 29.97 53.36 30.34 52.98 30.63 52.67 30.27 53.05 29.97"/><polygon class="e" points="16.27 33.4 16.58 33.77 16.2 34.06 15.9 33.7 16.27 33.4"/><polygon class="e" points="14.36 23.65 14.67 24.01 14.29 24.31 13.99 23.94 14.36 23.65"/><polygon class="e" points="35.45 93.06 35.75 93.42 35.38 93.72 35.07 93.36 35.45 93.06"/><polygon class="e" points="18.96 82.53 19.22 82.84 18.9 83.09 18.64 82.78 18.96 82.53"/><polygon class="e" points="46.12 87.51 46.42 87.87 46.05 88.17 45.74 87.8 46.12 87.51"/><polygon class="e" points="30.31 85.79 30.61 86.15 30.24 86.45 29.93 86.08 30.31 85.79"/><polygon class="e" points="34.98 33.03 35.29 33.39 34.91 33.69 34.61 33.32 34.98 33.03"/><polygon class="e" points="27.46 80.81 27.76 81.18 27.39 81.47 27.08 81.11 27.46 80.81"/><polygon class="e" points="18.39 48.79 18.65 49.1 18.33 49.35 18.07 49.04 18.39 48.79"/><polygon class="e" points="61.17 39.28 61.48 39.64 61.1 39.94 60.8 39.57 61.17 39.28"/><polygon class="e" points="23.64 86.28 23.95 86.65 23.57 86.94 23.27 86.58 23.64 86.28"/><polygon class="e" points="5.87 45.65 6.18 46.02 5.8 46.31 5.5 45.95 5.87 45.65"/><polygon class="e" points="87.36 20.98 87.67 21.34 87.29 21.64 86.98 21.28 87.36 20.98"/><polygon class="e" points="7.13 62.25 7.43 62.62 7.06 62.91 6.75 62.55 7.13 62.25"/><polygon class="e" points="10.46 31.95 10.63 32.16 10.41 32.33 10.24 32.12 10.46 31.95"/><polygon class="e" points="26.63 87.57 26.93 87.93 26.56 88.23 26.25 87.87 26.63 87.57"/><polygon class="e" points="39.76 27.06 40.06 27.42 39.69 27.71 39.38 27.35 39.76 27.06"/><polygon class="e" points="45.92 33.05 46.23 33.41 45.85 33.7 45.54 33.34 45.92 33.05"/><polygon class="e" points="31.3 25.09 31.6 25.46 31.23 25.75 30.92 25.39 31.3 25.09"/><polygon class="e" points="79.4 28 79.71 28.36 79.33 28.66 79.02 28.3 79.4 28"/><polygon class="e" points="53.84 40.97 54.04 41.21 53.79 41.41 53.59 41.17 53.84 40.97"/><polygon class="e" points="70.64 48.57 70.84 48.81 70.59 49.01 70.39 48.76 70.64 48.57"/><polygon class="e" points="76.24 39.43 76.55 39.79 76.17 40.09 75.86 39.73 76.24 39.43"/><polygon class="e" points="72.9 33.74 73.21 34.11 72.83 34.4 72.52 34.04 72.9 33.74"/><polygon class="e" points="66.95 51.46 67.17 51.73 66.9 51.94 66.67 51.68 66.95 51.46"/><polygon class="e" points="48.32 91.79 48.54 92.06 48.27 92.27 48.04 92.01 48.32 91.79"/><polygon class="e" points="22.69 27.08 23 27.45 22.62 27.74 22.31 27.38 22.69 27.08"/><polygon class="e" points="37.22 86.08 37.44 86.35 37.17 86.56 36.95 86.3 37.22 86.08"/><polygon class="e" points="83.81 30.04 84.11 30.4 83.74 30.7 83.43 30.33 83.81 30.04"/><polygon class="e" points="99.64 52.86 99.86 53.13 99.58 53.34 99.36 53.08 99.64 52.86"/><polygon class="e" points="21.63 44 21.93 44.36 21.56 44.66 21.25 44.29 21.63 44"/><polygon class="e" points="14.42 51.39 14.72 51.76 14.35 52.05 14.04 51.69 14.42 51.39"/><polygon class="e" points="26.5 31.6 26.72 31.86 26.45 32.08 26.22 31.81 26.5 31.6"/><polygon class="e" points="4.7 38.6 5.01 38.96 4.63 39.26 4.33 38.9 4.7 38.6"/><polygon class="e" points="10.52 58.17 10.7 58.38 10.48 58.55 10.31 58.34 10.52 58.17"/><polygon class="e" points="70.42 53.55 70.73 53.92 70.35 54.21 70.05 53.85 70.42 53.55"/><polygon class="e" points="69.47 42.48 69.67 42.72 69.42 42.92 69.22 42.67 69.47 42.48"/><rect class="e" x="88.98" y="76.59" width="0.47" height="0.48" transform="translate(11.8 165.54) rotate(-89.63)"/><rect class="e" x="96.22" y="43.08" width="0.4" height="0.41" transform="translate(52.5 139.42) rotate(-89.63)"/><rect class="e" x="93.57" y="53.48" width="0.4" height="0.41" transform="translate(39.47 147.1) rotate(-89.63)"/><rect class="e" x="94.51" y="74.63" width="0.47" height="0.48" transform="translate(19.25 169.13) rotate(-89.63)"/><rect class="e" x="94.27" y="64" width="0.47" height="0.48" transform="translate(29.64 158.32) rotate(-89.63)"/><rect class="e" x="86.59" y="44.89" width="0.4" height="0.41" transform="translate(41.13 131.59) rotate(-89.63)"/><rect class="e" x="93.81" y="32.15" width="0.47" height="0.48" transform="translate(61.04 126.22) rotate(-89.63)"/><rect class="e" x="86.48" y="38.44" width="0.47" height="0.48" transform="translate(47.46 125.13) rotate(-89.63)"/><rect class="e" x="84.01" y="53.2" width="0.47" height="0.48" transform="translate(30.25 137.34) rotate(-89.63)"/><rect class="e" x="94.63" y="59.56" width="0.4" height="0.41" transform="translate(34.45 154.2) rotate(-89.63)"/><rect class="e" x="75.65" y="49.68" width="0.47" height="0.48" transform="translate(25.46 125.48) rotate(-89.63)"/><rect class="e" x="96.04" y="37.29" width="0.47" height="0.48" transform="translate(58.11 133.56) rotate(-89.63)"/><rect class="e" x="42.73" y="95.44" width="0.27" height="0.28" transform="translate(-52.99 137.82) rotate(-89.63)"/><rect class="e" x="89.19" y="49.12" width="0.47" height="0.48" transform="translate(39.48 138.47) rotate(-89.63)"/><rect class="e" x="84.51" y="57.31" width="0.4" height="0.41" transform="translate(26.64 141.84) rotate(-89.63)"/><rect class="e" x="80.4" y="83.48" width="0.47" height="0.48" transform="translate(-3.62 163.81) rotate(-89.63)"/><rect class="e" x="89.79" y="59.11" width="0.47" height="0.48" transform="translate(30.08 148.99) rotate(-89.63)"/><rect class="e" x="90.71" y="43.27" width="0.47" height="0.48" transform="translate(46.83 134.17) rotate(-89.63)"/><polygon class="e" points="13.64 63.06 13.9 63.37 13.58 63.62 13.32 63.31 13.64 63.06"/><polygon class="e" points="7.12 53.11 7.42 53.47 7.05 53.77 6.74 53.41 7.12 53.11"/><polygon class="e" points="23.27 76.76 23.53 77.07 23.21 77.32 22.95 77.01 23.27 76.76"/><polygon class="e" points="10.75 73.62 11.06 73.98 10.68 74.28 10.37 73.92 10.75 73.62"/><polygon class="e" points="18.15 71.12 18.46 71.49 18.08 71.78 17.77 71.42 18.15 71.12"/><polygon class="e" points="49.82 96.75 50.08 97.06 49.76 97.31 49.5 97 49.82 96.75"/><polygon class="e" points="68.55 94.09 68.85 94.46 68.47 94.75 68.17 94.39 68.55 94.09"/><polygon class="e" points="99.09 59.97 99.35 60.27 99.03 60.52 98.78 60.22 99.09 59.97"/><polygon class="e" points="86.81 64.15 87.12 64.51 86.74 64.81 86.43 64.45 86.81 64.15"/><polygon class="e" points="61.88 93.09 62.19 93.45 61.81 93.75 61.5 93.39 61.88 93.09"/><polygon class="e" points="9.58 66.57 9.89 66.93 9.51 67.23 9.21 66.86 9.58 66.57"/><g class="f"><polygon class="g" points="57.82 23.15 58.81 23.58 67.84 22.4 68.74 22.3 69.63 22.19 71.36 22.17 70.07 22.68 69.1 22.97 68.22 23.14 58.42 24.64 57.53 24.12 57.03 23.2 50.17 23.78 48.63 23.01 57.31 22.47 57.82 23.15"/><polygon class="h" points="65.59 17.87 68.27 19.02 71.36 22.17 69.63 22.19 69.19 22.25 67.84 22.4 59.97 23.44 56.33 18.27 65.59 17.87"/><polygon class="i" points="60.48 18.08 62.16 20.01 64.96 20.07 66.3 21.55 70.62 21.42 68.27 19.02 65.59 17.87 60.48 18.08"/><polygon class="j" points="64.68 20.07 65.96 21.59 66.3 21.55 64.96 20.07 64.68 20.07"/><polygon class="k" points="46.19 21.15 44.13 21.69 44.09 22.34 44.5 23.01 46.78 22.78 46.19 21.15"/><polygon class="l" points="45.82 21.35 45.84 21.52 44.24 21.9 44.25 21.79 45.82 21.35"/><polygon class="l" points="45.85 21.66 45.87 21.86 44.24 22.19 44.25 22 45.85 21.66"/><polygon class="l" points="45.9 21.99 46.06 22.2 44.34 22.46 44.24 22.3 45.9 21.99"/><polygon class="l" points="46.12 22.29 46.26 22.5 44.44 22.7 44.37 22.57 46.12 22.29"/><polygon class="l" points="46.31 22.57 46.44 22.76 44.56 22.9 44.5 22.81 46.31 22.57"/><polygon class="m" points="50.45 18.71 47.73 19.05 46.87 19.89 47.67 21.89 48.63 23.01 57.31 22.47 57.82 23.15 58.81 23.58 59.95 23.42 56.21 18.28 52.24 18.62 50.45 18.71"/><polygon class="n" points="47.41 20.37 46 20.73 46.12 21.92 46.98 23.08 48.8 22.83 47.41 20.37"/><polygon class="o" points="54.5 23.41 52.78 24.64 50.02 24.91 51.05 23.69 54.5 23.41"/><polygon class="p" points="52.24 18.62 50.64 16.26 47.57 15.47 48.55 17.1 49.27 17.57 49.64 18.31 49.05 19.09 52.24 18.62"/><polygon class="q" points="64.96 20.07 63.1 17.98 60.48 18.08 62.16 20.01 64.96 20.07"/><polygon class="r" points="65.59 17.87 66.3 21.55 68.27 19.02 65.59 17.87"/><polygon class="s" points="50.76 23.72 49.91 24.9 50.02 24.91 51.05 23.69 50.76 23.72"/><polygon class="t" points="47.57 15.47 47.39 15.5 48.23 17.07 49.11 17.66 49.38 18.28 48.85 19.09 49.05 19.09 49.64 18.31 49.27 17.57 48.55 17.1 47.57 15.47"/><polygon class="u" points="57.31 22.47 56.4 20.95 54.14 19.83 47.04 20.34 47.67 21.89 48.63 23.01 57.31 22.47"/><polygon class="v" points="60.48 18.08 62.17 20.01 61.67 20.01 60.04 18.11 60.48 18.08"/><polygon class="l" points="57.82 23.15 57.53 24.12 57.97 23.21 57.82 23.15"/><polygon class="w" points="58.79 23.59 58.42 24.64 58.95 23.57 58.79 23.59"/><polygon class="x" points="56.02 18.59 56.56 19.36 53.23 19.63 52.81 18.95 56.02 18.59"/><polygon class="y" points="56.33 18.27 60.04 23.42 59.95 23.42 56.21 18.28 56.33 18.27"/><polygon class="w" points="59.95 23.42 60.04 23.42 59.6 24.45 59.95 23.42"/><polygon class="z" points="54.09 20.28 56.81 21.63 56.81 21.63 56.4 20.95 54.14 19.83 47.04 20.34 47.2 20.73 54.09 20.28"/><polygon class="aa" points="54.05 21.11 48.85 18.79 44.21 19.28 49.13 22.23 54.49 21.89 54.05 21.11"/><polygon class="ab" points="54.49 21.89 48.82 19.25 44.59 19.48 44.21 19.28 48.85 18.79 54.05 21.11 54.49 21.89"/><polygon class="ac" points="56.43 19.18 56.56 19.36 53.23 19.63 53.14 19.48 56.43 19.18"/><polygon class="ad" points="55.62 17.93 55.96 18.47 52.68 18.76 52.46 18.25 55.62 17.93"/><polygon class="ae" points="55.84 18.28 55.96 18.47 52.68 18.76 52.61 18.61 55.84 18.28"/><polygon class="af" points="49.13 22.23 51.83 22.81 57.31 22.47 54.05 21.11 54.49 21.89 49.13 22.23"/><polygon class="ag" points="58.98 22 58.91 21.89 62.2 21.56 63.33 23 63.29 23 62.14 21.7 58.98 22"/><polygon class="ah" points="61.77 21.93 62.05 21.89 62.85 22.83 62.46 22.86 61.77 21.93"/><polygon class="ai" points="61.45 19.75 60.73 19.82 60.36 19.39 60.67 19.39 60.26 18.95 59.98 18.93 59.63 18.51 60.35 18.47 60.32 18.42 59.45 18.44 60.69 19.91 61.48 19.79 61.45 19.75"/><path class="aj" d="M58.45,20.37c-.31-.64-.21-1.18.44-1.26a1.21,1.21,0,0,1,.75.16l0,.31a.82.82,0,0,0-.54-.13c-.37,0-.43.41-.23.81,0,0,0,0,0,.06a.51.51,0,0,1,.46-.38,1,1,0,0,1,1.09.63.55.55,0,0,1-.47.85A1.5,1.5,0,0,1,58.45,20.37Zm1.53.24a.62.62,0,0,0-.65-.34.42.42,0,0,0-.37.33.78.78,0,0,0,.73.45C60,21,60.07,20.8,60,20.61Z"/></g><g class="ak"><g class="al"><polygon class="am" points="133.95 21.89 77.83 21.89 77.27 22.43 77.83 22.97 92.91 22.97 92.73 23.45 92.73 23.45 93.5 24.19 132.73 24.19 134.52 22.43 133.95 21.89"/><polygon class="am" points="107 34.2 71.97 34.2 71.09 33.35 71.09 33.35 71.97 32.49 107 32.49 107.88 33.35 107.88 33.35 107 34.2"/><path class="am" d="M74.2,16.11l.68-.65h76.82a.67.67,0,0,1,.68.65h0a.67.67,0,0,1-.68.65H74.88Z"/><polygon class="am" points="37.57 17.1 -24.75 17.1 -25.32 16.55 -25.32 16.55 -24.75 15.99 37.57 15.99 38.14 16.55 38.14 16.55 37.57 17.1"/><path class="am" d="M-17.1,30.87H65.84l.73-.71h0l-.73-.71H-17.1a.72.72,0,0,0-.73.71h0A.72.72,0,0,0-17.1,30.87Z"/><path class="am" d="M-13.79,26.85H37.08l.26-.26h0l-.26-.26H-13.79a.26.26,0,0,0-.26.26h0A.26.26,0,0,0-13.79,26.85Z"/><path class="am" d="M2.7,34.73H40.55l.68-.65h0l-.68-.65H2.7a.67.67,0,0,0-.68.65H2A.66.66,0,0,0,2.7,34.73Z"/><polygon class="am" points="8.75 32.87 43.13 32.87 43.74 32.29 43.74 32.29 43.13 31.7 8.75 31.7 8.15 32.29 8.15 32.29 8.75 32.87"/><polygon class="am" points="40.78 40.31 25.44 40.31 25.5 40.06 25.5 40.06 24.7 39.29 -12.15 39.29 -13.72 40.81 -13.21 41.32 40.78 41.32 41.31 40.81 40.78 40.31"/><polygon class="am" points="-17.1 49.79 30.81 49.79 31.33 49.28 31.33 49.28 30.81 48.78 -17.1 48.78 -17.63 49.28 -17.63 49.28 -17.1 49.79"/><polygon class="am" points="29.29 42.71 52.95 42.71 53.48 42.2 53.48 42.2 52.95 41.69 29.29 41.69 28.76 42.2 28.76 42.2 29.29 42.71"/><polygon class="am" points="48.72 36.29 80.66 36.29 81.03 35.94 81.03 35.94 80.66 35.58 48.72 35.58 48.35 35.94 48.35 35.94 48.72 36.29"/><polygon class="am" points="61.74 28.41 89.71 28.41 90.5 27.64 90.5 27.64 89.71 26.89 61.74 26.89 60.95 27.64 60.95 27.64 61.74 28.41"/><path class="am" d="M76.05,40.1h44.71a.48.48,0,0,0,.48-.47h0a.48.48,0,0,0-.48-.47H76.05l-.48.47h0Z"/><polygon class="am" points="102.91 45.31 63.77 45.31 63.46 45.02 63.46 45.02 63.77 44.7 102.91 44.7 103.22 45.02 103.22 45.02 102.91 45.31"/></g></g><g class="an"><path class="ao" d="M45.12,77.77l-.35.28c-.22.18-.6.48-1.1.84a25.27,25.27,0,0,1-4.54,2.63,21.62,21.62,0,0,1-3.58,1.24,18.93,18.93,0,0,1-4.47.57A17.49,17.49,0,0,1,26,82.61a16.06,16.06,0,0,1-5.05-2.54,14.72,14.72,0,0,1-5.83-10.71c0-.27,0-.55,0-.82v-.82c0-.13,0-.28,0-.41a4.15,4.15,0,0,1,0-.43c0-.28.06-.55.09-.84A15.52,15.52,0,0,1,16,62.71a15.11,15.11,0,0,1,1.62-3.13A16.69,16.69,0,0,1,20,56.85a21.51,21.51,0,0,1,6.15-4,27.84,27.84,0,0,1,7.23-2.06,33.82,33.82,0,0,1,3.79-.34,34.6,34.6,0,0,0,3.66-.26,17.51,17.51,0,0,0,1.76-.33,6.29,6.29,0,0,0,1.56-.61,2.18,2.18,0,0,0,.54-.47,1.41,1.41,0,0,0,.26-.58,3,3,0,0,0-.23-1.51c-.4-1.08-1-2.13-1.53-3.31L43,42.94c0-.06-.06-.14-.07-.2a1.45,1.45,0,0,0-.07-.17,3.2,3.2,0,0,0-.46-.64,6.1,6.1,0,0,0-1.35-1,17.67,17.67,0,0,0-3.33-1.41c-1.16-.38-2.35-.71-3.54-1s-2.38-.65-3.55-1c-.59-.18-1.18-.38-1.75-.63A11.53,11.53,0,0,1,27.18,36a5.81,5.81,0,0,1-.78-.58,3.13,3.13,0,0,1-.63-.8,2.06,2.06,0,0,1-.24-1,2.67,2.67,0,0,1,.22-1,4.23,4.23,0,0,1,.48-.82l.16-.2.18-.18a1,1,0,0,1,.19-.16l.19-.14a5.79,5.79,0,0,1,1.7-.8,14.64,14.64,0,0,1,3.55-.53,28.33,28.33,0,0,1,3.48.1,46.51,46.51,0,0,1,6.59,1.05,53.33,53.33,0,0,1,6.05,1.78c.48.17,1,.36,1.41.53a12.83,12.83,0,0,0,1.38.43,8.16,8.16,0,0,0,1.4.23,4.73,4.73,0,0,0,1.35-.06,1.74,1.74,0,0,0,.59-.23.75.75,0,0,0,.35-.41.81.81,0,0,0,0-.55,1.78,1.78,0,0,0-.29-.54,5.9,5.9,0,0,0-.88-.92,10.47,10.47,0,0,0-1-.75c-.35-.23-.71-.45-1.07-.65l-1.07-.6a8,8,0,0,1-1-.67,1.44,1.44,0,0,1-.22-.2A.76.76,0,0,1,49,28a.27.27,0,0,1,0-.21.39.39,0,0,1,.15-.13.81.81,0,0,1,.31-.07,6.14,6.14,0,0,1,1.15,0c.37,0,.73.07,1.09.13l2,.3c.66.1,1.28.18,1.88.26a12.19,12.19,0,0,0,1.72.11,1.91,1.91,0,0,0,.4-.06.35.35,0,0,0,.16-.09.13.13,0,0,0,0-.14.65.65,0,0,0-.21-.28c-.09-.09-.16-.18-.25-.27a12.68,12.68,0,0,1-.85-1.05,4.32,4.32,0,0,1-.54-1,1.82,1.82,0,0,1-.1-1,1.6,1.6,0,0,1,.29-.7,2.22,2.22,0,0,1,.38-.41l.26-.21.09-.07-.09.07-.26.21a2.21,2.21,0,0,0-.37.41,1.79,1.79,0,0,0-.28.7,1.89,1.89,0,0,0,.12.92,3.77,3.77,0,0,0,.56,1,10.16,10.16,0,0,0,.85,1c.09.09.16.17.25.27a.77.77,0,0,1,.22.33.2.2,0,0,1-.06.21.35.35,0,0,1-.19.1,1.37,1.37,0,0,1-.41.06,10.66,10.66,0,0,1-1.75-.1l-1.89-.24-2-.27-1.09-.11a5.86,5.86,0,0,0-1.12,0,1.28,1.28,0,0,0-.25.06s-.06,0-.06.06,0,0,0,.07a1.33,1.33,0,0,0,.15.2l.21.18a11.53,11.53,0,0,0,1,.64l1.07.58q.55.3,1.1.64c.37.23.72.48,1.07.75a6,6,0,0,1,1,1,2.31,2.31,0,0,1,.35.61,1.1,1.1,0,0,1,0,.75,1,1,0,0,1-.19.36,1.72,1.72,0,0,1-.29.27,2.76,2.76,0,0,1-.71.3,5.76,5.76,0,0,1-1.48.11A8.89,8.89,0,0,1,51,34.06a13.83,13.83,0,0,1-1.45-.4c-.48-.16-.94-.34-1.42-.51a53.17,53.17,0,0,0-6-1.72,45.49,45.49,0,0,0-6.52-1,30,30,0,0,0-3.39-.07,14.16,14.16,0,0,0-3.36.51,5.14,5.14,0,0,0-1.47.7l-.16.13-.15.13-.13.14a1.25,1.25,0,0,0-.12.14,3.51,3.51,0,0,0-.38.68,1.84,1.84,0,0,0-.16.71,1.54,1.54,0,0,0,.16.67,2.92,2.92,0,0,0,1.15,1.07,9.29,9.29,0,0,0,1.57.74c.56.21,1.12.4,1.7.58,1.16.36,2.35.65,3.54,1s2.39.64,3.6,1A19.29,19.29,0,0,1,41.5,40a7.05,7.05,0,0,1,1.6,1.19,3.58,3.58,0,0,1,.62.84,1.82,1.82,0,0,1,.12.24,2.31,2.31,0,0,1,.09.23c0,.13.1.27.16.4.24.54.51,1.07.81,1.61a16.93,16.93,0,0,1,.82,1.7,6.24,6.24,0,0,1,.29,1,3,3,0,0,1,0,1.09,2.44,2.44,0,0,1-.46,1.08,3,3,0,0,1-.84.77,6.67,6.67,0,0,1-1.89.81,15.28,15.28,0,0,1-1.91.41c-1.28.2-2.54.3-3.8.37A28.75,28.75,0,0,0,26.71,54,20,20,0,0,0,21,57.8a14.09,14.09,0,0,0-3.53,5.31,14.38,14.38,0,0,0-.72,3c0,.26-.06.51-.07.75a3.23,3.23,0,0,0,0,.37c0,.13,0,.24,0,.38v.75c0,.26,0,.5,0,.74A13.1,13.1,0,0,0,22,78.61a14.17,14.17,0,0,0,4.51,2.23,15.14,15.14,0,0,0,4.54.6,16.85,16.85,0,0,0,4-.54,19.11,19.11,0,0,0,3.26-1.15,23.92,23.92,0,0,0,4.19-2.46c.46-.33.78-.58,1-.78l.35-.28Z"/></g><g class="ak"><path class="ap" d="M74.29,92.84A22,22,0,0,0,78.47,90,14.12,14.12,0,0,1,81,92.84a78.59,78.59,0,0,0,8.21-6.18c-3.5-6.55-5.07-6.45-7.56-6.59C77.39,79.83,66.34,88,66.34,88S72.53,93.6,74.29,92.84Z"/><polygon class="aq" points="81.5 93.61 84.22 96.83 87.26 97.26 91.55 96.45 95.25 94.66 97.48 92.89 98.13 90.3 96.14 87.69 92.69 87.77 90.33 87.97 88.8 85.23 86.57 87.22 83.66 89.5 79.83 91.56 81.5 93.61"/><polygon class="ar" points="86.67 91.88 87.46 90.04 88.42 88.69 89.97 87.46 91.4 87.61 91.62 87.89 91.06 87.94 89.09 89.5 88.24 90.64 87.48 92.25 86.67 91.88"/><polygon class="as" points="92.57 93.17 93.12 93.96 93.87 94.58 94.12 94.84 95.94 94.32 98.02 92.46 99.05 90.56 98.46 88.99 97.23 87.93 95.13 87.61 94.82 87.91 94.47 89.15 92.71 90.87 91.91 91.56 92.57 93.17"/><g class="at"><polygon class="au" points="92.52 90.85 94.13 91.76 95.56 93.1 96.36 94.14 96.61 93.84 95.92 92.8 94.56 91.52 92.82 90.46 92.52 90.85"/><polygon class="av" points="93.56 89.36 95.32 90.23 96.98 91.38 98.05 92.54 98.39 92.2 97.1 90.91 95.58 89.84 93.85 88.99 93.56 89.36"/><polygon class="aw" points="94.34 88.23 96.19 88.85 98.01 89.77 99.23 90.78 99.51 90.4 98.05 89.29 96.41 88.44 94.56 87.81 94.34 88.23"/></g><path class="ax" d="M61.1,102.7c1.91-.28,5.35-2.41,5.35-2.41,2.16-.17,3,2.27,3,2.27,4.63-3,9.71-6.45,9.71-6.45-1.09-2.26-1.4-5.47-5.54-7.56-3.82-1.93-21.59,6.85-21.59,6.85S53.71,103.77,61.1,102.7Z"/><polygon class="ay" points="52.96 96.39 52.61 97.25 53.4 98.59 57.9 96.83 62.08 94.52 68.09 92.94 78.47 82.49 77.56 80.77 76.53 79.32 75.87 78.99 68.81 86.44 56.81 94.35 52.96 96.39"/><polygon class="az" points="51.17 95.47 50.77 96.18 52.11 97.78 52.78 97.69 57.73 96.04 70.06 87.89 76.58 81.07 77.17 79.16 76.11 77.69 75.4 78.45 68.47 85.78 56.65 93.57 51.17 95.47"/><polygon class="ba" points="48.54 94.09 51.64 96.32 57.25 94.58 68.85 87.06 72.19 83.98 74.46 81.04 75.59 79.11 74.92 77.81 68.02 73.33 49.05 84.14 46.28 88.54 48.54 94.09"/><polygon class="l" points="67.14 84.36 63.15 87.05 63.39 86.71 67.02 84.22 69.59 82.03 70.63 80.6 70.92 80.51 69.72 82.16 67.14 84.36"/><polygon class="l" points="67.14 86.41 61.14 90.19 61.3 89.86 67.02 86.27 70.81 83.06 73.13 79.79 73.42 79.69 70.94 83.18 67.14 86.41"/><polygon class="bb" points="40.49 87.12 41.81 89.63 44.1 91.85 46.98 93.78 50.01 95.91 55.15 93.95 60.1 92.23 61.27 89.77 65.77 83.13 67.69 81.62 71.64 80.26 73.76 80.27 75.07 80 76.06 79.08 74.95 75.02 71.19 66.83 68.31 64.42 66.61 64.76 61.24 68.44 60.19 74.65 42.86 84.49 40.49 87.12"/><polygon class="bc" points="67.16 70.7 66.5 68.92 65.45 67.12 64.56 66.31 64.48 65.8 65.65 66.75 66.89 68.71 67.72 70.53 67.16 70.7"/><polygon class="bd" points="66 71.05 66.55 72.56 67.77 75.58 71 74.05 71.13 72.53 70.48 70.4 69.59 69.36 66.62 70.28 66 71.05"/><polygon class="be" points="66.24 64.92 67.24 65.98 68.15 67.2 68.87 68.47 69.23 69.5 70.07 71.82 67.96 72.26 67.3 70.07 66.99 69.09 66.4 68 65.55 66.78 64.48 65.8 66.24 64.92"/><polygon class="bf" points="66.49 68.15 68.27 67.39 68.18 67.23 66.4 68 66.49 68.15"/><polygon class="bg" points="65.59 66.88 67.36 66.12 67.24 65.98 65.53 66.79 65.59 66.88"/><polygon class="bh" points="67.05 69.22 68.94 68.59 68.87 68.47 66.99 69.09 67.05 69.22"/><polygon class="bi" points="69.87 70 66.91 71 67.85 73.55 69.76 74.23 70.85 72.46 69.87 70"/><polygon class="bj" points="52.09 82.34 52.14 83.01 52.4 83.59 54.64 84.42 55.4 86.08 58.62 86.46 60.72 83.01 60.61 82.52 58.35 85.5 56.13 85.43 55.24 83.64 52.09 82.34"/><polygon class="bk" points="40.04 86.96 40.73 88.69 41.81 89.63 40.78 87.16 42.87 84.55 44.65 83.55 46.38 82.89 48.61 82.46 50.69 82.37 53.28 82.53 53.73 82.09 54.4 81.41 49.8 80.71 46.9 81.18 44.72 82.02 42.58 83.27 40.93 85.16 40.04 86.96"/><polygon class="bl" points="52.09 82.34 52.14 83.01 55.05 83.98 55.71 85.75 58.47 86.04 60.61 82.52 59.94 81.79 57.98 80.91 55.05 80.04 54.12 80.28 52.09 82.34"/><polygon class="bm" points="43.91 81.91 46.12 80.68 48.22 80.19 50.27 79.92 52.26 80.17 54.22 80.48 55.9 81.15 54.75 82.46 50.45 81.82 48.8 81.71 46.51 82.13 44.13 83 42.36 84.09 40.04 86.96 41.42 84.23 43.91 81.91"/><polygon class="bn" points="53.09 82.67 55.22 80.46 57.84 81.38 58.15 82.56 56.09 83.47 53.09 82.67"/><polygon class="bo" points="42.56 83.96 42.36 84.09 43.94 81.89 44.09 81.81 42.56 83.96"/><polygon class="bo" points="44.33 82.93 44.13 83 46.12 80.68 46.25 80.66 44.33 82.93"/><polygon class="bo" points="46.69 82.1 46.54 82.12 48.1 80.21 48.26 80.19 46.69 82.1"/><polygon class="bo" points="48.99 81.72 48.8 81.71 50.27 79.92 50.42 79.94 48.99 81.72"/><polygon class="bo" points="50.67 81.88 50.45 81.82 51.98 80.13 52.17 80.16 50.67 81.88"/><polygon class="bp" points="66.83 65.19 66.61 64.76 68.68 64.2 70.47 64.4 72.83 65.56 76.01 68.86 77.56 71.12 78.06 73.92 77.46 76.46 75.77 79.69 72.5 81.83 68.38 83.03 63.76 83.11 64.49 79.28 64.64 76.64 67.33 73.58 68.82 72.69 70.85 71.88 70.13 70.1 69.19 68.84 68.15 67.2 66.91 65.64 66.83 65.19"/><polygon class="bq" points="65.17 76.01 70.09 74.49 70.53 72.22 70.16 71.85 64.87 75.67 65.17 76.01"/><polygon class="br" points="65.72 73.55 70.16 71.85 69.73 74.12 64.87 75.67 65.72 73.55"/><path class="bs" d="M74.36,78.95H72.6l2.28-4.15,1.67,0ZM73,78.72h1.16l2-3.71H75Z"/><polygon class="bt" points="66.61 64.76 69.31 64.8 70.57 65.28 71.03 65.45 71.81 66 74.29 67.7 75.46 68.3 75.58 68.04 73.45 65.98 70.84 64.47 68.27 63.96 66.61 64.76"/><polygon class="bu" points="67.09 64.53 69.37 64.53 70.63 64.97 71.82 65.6 74.33 67.36 75.58 68.04 75.46 67.67 73.52 66 71.19 64.52 69.53 63.99 68.27 63.96 67.09 64.53"/><path class="bv" d="M78.06,73.92l-.94,2.22-1.7,3.1-3,2.06-3.88,1.39L67.38,83h1l4.1-1.19,3.28-2.16s1.7-3.24,1.7-3.3Z"/><polygon class="bw" points="66.22 62.32 66.4 64.36 66.83 65.19 67.02 66.15 66.94 66.93 67.38 67.78 66.84 69.65 64.56 71.28 61.67 74.56 60.64 76.07 53.67 79.96 49.23 80.9 45.32 81.89 42.69 83.37 40.93 85.28 40.26 86.51 40.21 84.83 38.39 83.59 38.74 82.69 38.13 80.75 39.16 81.59 43.97 79.42 60.05 67.78 63.23 64.66 66.22 62.32"/><polygon class="bx" points="65.68 63.33 65.94 64.76 67.02 66.15 66.83 65.19 66.4 64.36 66.22 62.32 65.68 63.33"/><polygon class="by" points="61.08 68.71 59.53 70.5 56.59 73.41 54.41 75.02 52.31 76.02 51.38 76.22 52.78 75.27 53.96 74.8 56.6 72.7 59.13 70.5 61.08 68.71"/><polygon class="bz" points="48.45 78.69 52.34 76.17 55.74 74.99 57.56 74.83 56.28 75.8 53.37 77.09 52.02 78.18 47.48 81.14 45.04 81.86 48.45 78.69"/><polygon class="ca" points="52.43 80.21 54.86 78.59 56.66 77 59.04 75.57 62.85 71.19 61.8 73.15 59.94 75.9 53.67 79.96 52.43 80.21"/><polygon class="cb" points="65.43 64.67 63.24 68.55 62.33 70.63 63.93 68.31 64.73 66.9 65.43 64.67"/><path class="cc" d="M47.75,37.4,38.46,42l-8,11L28.12,63.37,35,69.76,42.59,68,49,71.56l3.32-2.2L59,64l4.33-4.77.15-.17c.28-4-1.54-10-5.33-14.47a20.1,20.1,0,0,0-6.35-5.38Z"/><polygon class="cd" points="53.67 52.73 54.28 53.47 55.56 51.99 54.96 51.19 53.67 52.73"/><path class="ce" d="M38.71,32.39c-.6-.65-.12-1,.9-.71a12.74,12.74,0,0,1,3.32,1.73c2.59,2,3.36,4.9,2.23,8.59h0v0c-.07.24-1.45.06-3.08-.41s-2.89-1.05-2.82-1.29c0,0,0,0,0,0C40.09,37.63,40.68,34.5,38.71,32.39Z"/><path class="cf" d="M37.35,83.57l.93,1.08c.75.88,7.7-3.45,15.5-9.67S67.3,63,66.55,62.1L65.62,61Z"/><path class="cg" d="M65.64,61c.75.88-5,6.65-12.78,12.87S38.1,84.45,37.35,83.57s5-6.65,12.78-12.87S64.87,60.13,65.64,61Z"/><polygon class="ch" points="63.54 59.03 60.2 54.12 53.75 54.3 50.89 50.51 50.41 49.93 51.59 44.97 51.84 41.61 51.46 39.23 51.33 38.75 50.27 37.98 46.07 36.93 36.97 36.62 27.1 41.09 22.63 49.74 19.86 63.33 26.96 71.19 38.17 76.28 48.36 74.84 55.99 69.77 63.54 59.03"/><path class="ci" d="M36.58,81.11l1.35,1.59c.57.68,7-3.49,14.29-9.33S65,62.26,64.42,61.58L63.07,60l-2,2.16-2,2Z"/><path class="cj" d="M42.11,74.66c-3.77,3.44-6,5.89-5.63,6.34s3.28-1.21,7.48-4.13Z"/><path class="ck" d="M59.42,64.89,49.26,72l-2.78-1.55-4.23-2.37-3.76.82-4,1.28-2,7,2.35.72s3.19.37,4.3.44l2.09-.94L43,76.62l.81.3c-4.94,3.48-7.08,4.38-7.36,4l1.45,1.7c.57.68,7.11-3.35,14.41-9.18s12.82-11,12.25-11.72L63,60C63.11,60.06,59.41,64.8,59.42,64.89Z"/><path class="cl" d="M26.08,63l8.74-21,6.55-5.53c-4.3-2.17-10.75-.27-16,4.35A21.9,21.9,0,0,0,22.9,71.34C24.44,73.15,26.08,63,26.08,63Z"/><path class="cm" d="M11.38,53.3c-.53-.6-1-.33-.94.75a11.27,11.27,0,0,0,1.19,3.69c1.67,3,4.58,4.38,8.77,4h.21c.28,0,.57-1.52.4-3.25s-.76-3-1-3h-.21C16.74,55.74,13.41,55.6,11.38,53.3Z"/><path class="cn" d="M33.46,77.54l3.2,2.71c.32.27.31.26.57.18a9.15,9.15,0,0,0,1.62-.81c1.28-.74,4.36-2.77,4.36-2.77L43,76.65a23.31,23.31,0,0,1-4.74,1.43A14.32,14.32,0,0,1,33.46,77.54Z"/><path class="co" d="M44.09,44.06l1.25-1.78,2.61-1-.59,2.34,2.2-1.15,1.81.33-1,1.89v1.12a79.54,79.54,0,0,0,4.79,7.6c1.94,2.49,6.8,7.76,6.8,7.76L59.29,64l-6.64,5.2-3.38,2.07-6.83-4.2-3.08.71s-4.74-4.22-5.21-4.87A14.56,14.56,0,0,1,33,59.39a18.33,18.33,0,0,1,.54-2.63,51.93,51.93,0,0,1,2-4.82,8.9,8.9,0,0,1,1.32-1.76l5-6.88Z"/><path class="cp" d="M39.92,68.32s-5.36-4.73-5.77-5.4A15.44,15.44,0,0,1,33,59.39a16.42,16.42,0,0,1,.54-2.63s1.44-3.79,2-4.82,3-4,3-4l4-3.42,1.53-.47a20.87,20.87,0,0,1,1.59-1.55A17.86,17.86,0,0,1,48,41.34l-.59,2.34,2.2-1.15,1.81.33-1,1.89v1.12l.71,1.22.5-2.09.25-3.38-.38-2.37-.09-.31-2.66-1.45L44,38.41,39.9,41l-2.23,1.9-1.91,1.75-2.53,3.62L26.51,59.87l2,3.07,7,6.65Z"/><g class="cq"><polygon class="cr" points="54.62 64.08 55.35 64.09 55.18 62.7 55.27 62.73 55.81 64.5 55.03 64.63 54.83 65.75 53.17 66.19 53.18 66.85 50.49 66.11 52.34 66.18 52.49 65.63 54.3 65.23 54.62 64.08"/></g><path class="cs" d="M28.45,39l3.79-1.72,2.83-.44,5.11.64,1.19-1c-4.3-2.17-10.75-.27-16,4.35l-.41.37Z"/><path class="am" d="M53.4,56.53a3.19,3.19,0,0,1,1.12-.6l0,0a2.48,2.48,0,0,0-.65-2c-.81-1-2-1.32-2.67-.8s-.57,1.73.23,2.7a2.77,2.77,0,0,0,1.59,1Z"/><g class="ct"><g class="cu"><path class="cv" d="M54.11,55.13c.48.58.59,1.29.22,1.59s-1.07,0-1.56-.54-.59-1.29-.22-1.59S53.61,54.53,54.11,55.13Z"/><path class="am" d="M52.29,55.26c-.19-.23-.23-.5-.09-.61s.4,0,.59.21.23.5.09.61S52.48,55.49,52.29,55.26Z"/></g></g><path class="am" d="M46.38,62.37a4.7,4.7,0,0,1,.65-.44,3.24,3.24,0,0,0-.79-2c-1-1.19-2.51-1.59-3.41-.89S42,61.27,43,62.46a3.28,3.28,0,0,0,2.16,1.22A4.91,4.91,0,0,1,46.38,62.37Z"/><g class="cq"><g class="cw"><path class="cx" d="M46.5,61.29c.57.68.65,1.55.16,1.92a1.5,1.5,0,0,1-1.91-.55c-.57-.68-.65-1.55-.16-1.92S45.93,60.61,46.5,61.29Z"/><path class="am" d="M44.17,61.64c-.21-.26-.24-.58-.07-.71s.49,0,.71.21.24.58.07.71S44.38,61.9,44.17,61.64Z"/></g></g><path class="cr" d="M41.59,57.15a4.41,4.41,0,0,1,2.13-.63,2.46,2.46,0,0,0-2.59-.1A2.26,2.26,0,0,0,40,58.67,4.39,4.39,0,0,1,41.59,57.15Z"/><path class="cy" d="M50.1,51.72a3.09,3.09,0,0,1,1.48-1.08,2,2,0,0,0-2.19.58,1.86,1.86,0,0,0,.07,2.19A3.09,3.09,0,0,1,50.1,51.72Z"/><path class="cz" d="M53.86,61.82a38.22,38.22,0,0,1-4.1,2.5,2.62,2.62,0,0,0-.32-.38,1.22,1.22,0,0,0-.4-.27s.43.92.34,1.22a4,4,0,0,0,2.1-.63,8.81,8.81,0,0,1-1.26.23S53.17,62.93,53.86,61.82Z"/><path class="da" d="M60.5,62.53l.62-.67.72-.82S60.08,59.16,58,56.8c.12.2.25.4.37.58C59.63,59.49,60.51,61.36,60.5,62.53Z"/><path class="db" d="M44.24,67.13l-3.06-1.58-3-2.32-2.36-2.33-.93-2.61-.15-1.65.51-2.1.62-1.95,1-2.46s-.21.21-.46.53-.31.43-.44.61a7.49,7.49,0,0,0-.71,1.16l-.54,1.22-1.22,3.07A18.83,18.83,0,0,0,33,59.36a14.09,14.09,0,0,0,1.13,3.54c.53.8,5.21,4.87,5.21,4.87l3.08-.71,6.7,4.12,2.23-1.28,1.72-1.24-3.57.51Z"/><polygon class="da" points="41.9 47.06 44.08 46.66 47.44 46.59 45.88 44.99 44.44 43.88 43.77 43.72 41.39 46.92 41.17 47.34 41.9 47.06"/><path class="dc" d="M42,46.83a11.09,11.09,0,0,1,2.16-.77,17.77,17.77,0,0,1,2.82,0A25.17,25.17,0,0,0,45,44.22a6.31,6.31,0,0,0-2.25-1c-.37-.06-1.67-.16-1.67-.16s-2,2.13-2.38,2.56c-.68.7-1.82,4.52-1.82,4.52"/><g class="ct"><path class="dd" d="M51.32,54.57a15.6,15.6,0,0,1,1.42-1.24,6.68,6.68,0,0,1,1.79-.72L54,51.83l-.43.2-1.15.63s-1.19.87-1.75,1.39A17.09,17.09,0,0,0,49.17,56a4.28,4.28,0,0,0-.94.51,7.88,7.88,0,0,0-.73.67s-1.84-.2-5.29,3c-1.34,1.22-3.44,3.54-3.44,3.54L37,65.74l.79.68,2.38-2.67.32-.28.73.65s1.85,1.35,2.25,1.59a2.06,2.06,0,0,0,1.85-.36c.63-.4,1.79-1.25,1.79-1.25l2-2.07a2.07,2.07,0,0,0,.41-1,3.16,3.16,0,0,0-.26-1.14l-1-1.75a2.74,2.74,0,0,1,.65-1,.75.75,0,0,1,.25-.14h0l1-.4.19-.57a1.54,1.54,0,0,1,.22-.5A6.76,6.76,0,0,1,51.32,54.57Zm-3.17,5.1a2.22,2.22,0,0,1,.5,1.52,17.39,17.39,0,0,1-2.1,2.33l-1.76,1.21s-.6.28-.93.07A24.56,24.56,0,0,1,41.46,63a.65.65,0,0,1-.06-.7,10,10,0,0,1,1.82-2,16.84,16.84,0,0,1,3-1.79s.82-.4,1-.33A16.27,16.27,0,0,1,48.14,59.67Z"/><path class="de" d="M56.1,54.6a6.43,6.43,0,0,1-.37.78c-.29.77-2,2.51-3.08,2.43h-.88l1.2.8c.29-.14,1.1-.6,1.1-.6a12.23,12.23,0,0,0,1.1-.8,15.51,15.51,0,0,0,1.56-1.89Z"/></g><path class="df" d="M54.55,51a12.8,12.8,0,0,0-2.09,1,12.46,12.46,0,0,0-2.16,1.79,9.51,9.51,0,0,0-1.1,1.68,2.4,2.4,0,0,0-.9.4,8,8,0,0,0-.9.91s-1.67-.51-5.13,2.67a23.85,23.85,0,0,0-1.89,2.1c-.41.47-.87,1-1.6,1.76s-2,2.26-2,2.26l.73.67,2.81-3.13.32-.28s.37.3.73.65a15.82,15.82,0,0,0,1.91,1.36,2,2,0,0,0,2.19-.13c.5-.33,1.09-.71,1.79-1.25a10.57,10.57,0,0,0,1.79-1.75,1.63,1.63,0,0,0,.46-1.08,2.39,2.39,0,0,0-.37-1.11l-.9-1.89a2.74,2.74,0,0,1,.65-1,1.43,1.43,0,0,1,.84-.28s1.51,1.18,1.87,1.35a2.14,2.14,0,0,0,1.06.31,3.81,3.81,0,0,0,1.41-.57,12.23,12.23,0,0,0,1.1-.8A7.43,7.43,0,0,0,56.47,55a3.07,3.07,0,0,0-.16-1.28c-.1-.31-.76-1.66-.76-1.66l0-.6s-.15-.61-.32-.64A1.69,1.69,0,0,0,54.55,51ZM48.1,59.15c.25.51.73,1.31.6,1.75s-2,2-2,2l-1.57,1.08a1.4,1.4,0,0,1-1.35.07,13.75,13.75,0,0,1-2.13-1.73.51.51,0,0,1-.1-.6,10,10,0,0,1,1.82-2A14.44,14.44,0,0,1,46,57.93a2.44,2.44,0,0,1,1.13-.26A4.81,4.81,0,0,1,48.1,59.15Zm7.65-4.32c-.29.77-2,2.51-3.08,2.43a5.73,5.73,0,0,1-2.34-1.42c-.16-.26.18-.78.18-.78A4.36,4.36,0,0,1,51.26,54a7.53,7.53,0,0,1,1.42-1.18,4.88,4.88,0,0,1,1.59-.74c.47-.1.53.16.75.55C55.33,53.2,56,54.29,55.75,54.83Z"/><path class="cc" d="M47.75,37.4,38.46,42l-8,11L28.12,63.37,35,69.76,42.59,68,49,71.56l3.32-2.2L59,64l4.33-4.77.15-.17c.28-4-1.54-10-5.33-14.47a20.1,20.1,0,0,0-6.35-5.38Z"/><path class="dg" d="M35,68.81l7.48-1.72,6.7,4.12s2.28-1.38,4-2.51,4.52-3.49,6-4.83A57.89,57.89,0,0,0,63.52,59l.26,1.86A41.43,41.43,0,0,1,60,65.16a76,76,0,0,1-6.68,5.43c-2.25,1.56-4.39,3-4.39,3l-7.24-4.72-8.12,1.93Z"/><path class="dh" d="M22.16,62.93l-1.07,1,.06,1.55c-.13,2.24,1.19,5.17,3.69,7.64a11.85,11.85,0,0,0,7.48,3.72l.82.17s1.82-1,2.12-1.31c2.14-2,1-6.39-2.44-10.11S24.44,61,22.16,62.93Z"/><path class="di" d="M30.91,66.86c3.51,3.47,4.74,7.81,2.75,9.69s-6.45.61-10-2.86S19,65.88,21,64,27.4,63.4,30.91,66.86Z"/><path class="dj" d="M23.78,68.15l.68.67c-.85.81-.47,2.54.88,3.88s3.13,1.75,4,.92l.68.67c1.1-1,.59-3.25-1.12-5S24.88,67.12,23.78,68.15Z"/><path class="dk" d="M32.77,37.53A21.09,21.09,0,0,0,24,62.17c1.18-.34,3.77,1.31,3.77,1.31l.72-.53a2.3,2.3,0,0,0,.19-.18c.56-7.56,4-14.9,11.93-21.22a19,19,0,0,1,8-3.76h0l1.2.48,1.22.5.34.16a2.44,2.44,0,0,0-.93-1.65C46.29,34.92,38.8,33.69,32.77,37.53Z"/><path class="dl" d="M32.37,37.07C23.1,43,20.53,54.43,23.29,62.61a8.15,8.15,0,0,1,4.47.89c.4-7.83,4-15.82,12.22-22.36A21.28,21.28,0,0,1,45.65,38a13.68,13.68,0,0,1,2.86-.72,2.91,2.91,0,0,1,2.54.72c-.28-.94-1.47-1.31-2.14-1.58C44.5,34.59,37.61,33.75,32.37,37.07Z"/><path class="dm" d="M49,36.42c-4.41-1.86-11.21-2.77-16.35.47l-.78.51s5-1.85,9.15-1.62a18.49,18.49,0,0,1,6.77,1.61c.28-.06.54-.1.81-.13a3,3,0,0,1,2.53.74C50.79,37.07,49.61,36.71,49,36.42Z"/><path class="dn" d="M51.24,38.88,48.63,37.8l-.69.13-.87.21,3.28,1.45a21.82,21.82,0,0,1,6.8,5.5c3.85,4.5,5.68,10.6,5.41,14.66v.48l.79-.94.21-.27C63.83,55,61.88,48.88,58,44.36A22,22,0,0,0,51.24,38.88Z"/><path class="do" d="M58.76,92.16a.34.34,0,0,0-.21.45l.22.63c.16.45.9.65,1.78.37L66.87,92l5.32-4.33-.65-1.83L66.46,90Z"/><path class="dp" d="M66.59,85.71l-8,6.53,8.28-2.1S73,85.44,73,85.4,66.59,85.71,66.59,85.71Z"/><path class="dq" d="M43.28,91.76l2.29,1.32L50,94.16l4.16.37,4-1.31,6.18-3,1.31-1.46,1.6-2.07L63.87,82l-6.17.72-2.28,1L53.27,83l-3.45-.8-5,1.09-3.14,2.74-.41,3.24Z"/><path class="dr" d="M62.92,82.49l-2.6-.09-1.19,1.51-.56,2.71,1.32,2.83,1.94,2.12,2.67-1.45s1.76-1.22,1.82-1.29l.9-2.36-1.62-4.29Z"/><polygon class="ds" points="46.94 93.34 42.62 91.09 40.71 88.59 41.96 85.6 44.21 84.55 47 85.36 48.99 86.98 49.63 87.73 50.67 91.21 49.92 92.63 46.94 93.34"/><polygon class="dt" points="43.99 92.66 42.59 91.56 40.71 88.59 41.03 86.83 41.92 85.61 43.81 84.72 43.81 84.72 46.79 85.74 49.14 88 49.99 91.22 49.44 92.32 46.94 93.34 43.99 92.66"/><path class="du" d="M44.6,90.67c-1.32-.82-2.09-2-1.59-2.9a1.14,1.14,0,0,1,1-.6l.46.64a.81.81,0,0,0-.76.41c-.29.54.24,1.29,1,1.79l.13.09a1.31,1.31,0,0,1-.16-1.26c.32-.58,1.1-.77,2.09-.16a1.7,1.7,0,0,1,.88,2.14C47.17,91.78,45.88,91.46,44.6,90.67Zm1.92-1.39c-.56-.36-1-.2-1.18.14a1.06,1.06,0,0,0,.15,1c.51.28,1.2.45,1.47,0A.9.9,0,0,0,46.53,89.28Z"/><path class="dv" d="M78,56.22l.37.5L88.62,71.89l.37.5a1.23,1.23,0,0,1-.15,1.68L67.22,91.81a1.1,1.1,0,0,1-1.57-.26l-.37-.5L54.5,76.29l-.37-.5a1.23,1.23,0,0,1,.15-1.68L76.4,56A1.09,1.09,0,0,1,78,56.22Z"/><path class="dw" d="M73.85,75.21a2.36,2.36,0,0,1-3.16-.43,2.21,2.21,0,0,1,.37-3,2.37,2.37,0,0,1,3.17.33A2.34,2.34,0,0,1,73.85,75.21Z"/><path class="dx" d="M73.88,75.19a1.93,1.93,0,0,1-2.81-.36,2.21,2.21,0,0,1,.37-3,1.93,1.93,0,0,1,2.81.36A2.21,2.21,0,0,1,73.88,75.19Z"/><path class="dy" d="M54.9,75.71c-.28-.38-.46-.91-.09-1.22S71.2,61.08,77.58,55.88a1,1,0,0,0-1.19.09L54.28,74.12a1.23,1.23,0,0,0-.15,1.68l.37.5L65.28,91l.37.5a1.16,1.16,0,0,0,1.07.47Z"/><polygon class="dz" points="69.88 104.02 72.35 107.96 75.84 109.22 80.68 108.95 84.57 107.54 87.29 105.91 88.4 103.17 86.63 100.02 83.07 99.23 80.44 99.12 78.96 95.36 76.45 97.73 72.88 99.83 68.55 101.44 69.88 104.02"/><polygon class="ea" points="75.83 102.86 76.98 100.97 78.24 99.62 80.15 98.5 81.68 98.86 81.88 99.19 81.26 99.18 78.86 100.61 77.74 101.73 76.67 103.38 75.83 102.86"/><polygon class="eb" points="81.87 105.51 82.34 106.47 83.06 107.25 83.31 107.57 85.39 107.27 87.95 105.53 89.39 103.58 88.99 101.78 87.79 100.43 85.54 99.79 85.14 100.07 84.57 101.38 82.37 103 81.4 103.65 81.87 105.51"/><g class="ec"><polygon class="ed" points="84.66 100.37 86.58 101.36 88.4 102.69 89.55 103.99 89.93 103.61 88.53 102.16 86.89 100.94 84.98 99.96 84.66 100.37"/></g></g></svg>