<svg xmlns="http://www.w3.org/2000/svg" viewBox="0 0 100 100"><defs><style>.a{isolation:isolate;}.b{fill:#518e9b;}.c{fill:#c9cfd1;}.d{fill:#dbdbdb;}.ae,.d{mix-blend-mode:multiply;}.e{fill:#2e171f;}.f{fill:#231c37;}.g{fill:#2a2247;}.h{fill:#806ead;}.i{fill:#705e95;}.j{fill:#645588;}.k{fill:#7966a5;}.l{fill:#6d5f95;}.m{fill:#625788;}.n{fill:#8372b7;}.o{fill:#e6ab7f;}.p{fill:#eac382;}.q{fill:#655494;}.r{fill:#eebd9b;}.s{fill:#de9c70;}.t{fill:#dda27a;}.u{fill:#ce9572;}.v{fill:#eec1a0;}.w{fill:#ba805a;}.x{fill:#cb5e5b;}.y{fill:#703d3d;}.z{fill:#fff;}.aa{fill:#413b36;}.ab{fill:#622a3d;}.ac{fill:#f1f1f1;}.ad{fill:#7c3857;}.ae{fill:#d7cbbe;}.af{fill:#b8b8b8;}.ag{fill:#828282;}.ah{fill:#dc7979;}.ai{fill:#d14343;}.aj,.al{font-size:8.32px;}.aj{fill:#283f46;}.aj,.ak{font-family:LilitaOne, Lilita One;}.ak{font-size:13.92px;fill:#152226;}.am{fill:#8d58d7;}.an{fill:#6bbaad;}.ao{fill:#da6969;}</style></defs><title>contacto-01</title><g class="a"><circle class="b" cx="49.5" cy="47.28" r="45.62"/><circle class="c" cx="53.4" cy="51.19" r="41.72"/><path class="d" d="M79.42,100a93.75,93.75,0,0,0,1.34-15.69c.23-.09.46-.19.67-.29.39-3.18-1.55-7.93-3.28-11.68a15.82,15.82,0,0,0-1-1.86,11.57,11.57,0,0,0,3.8.26h0l.25-.05h0l.24-.07h0l.23-.09h0a2.42,2.42,0,0,0,1-.83l0,0,.12-.19,0-.07.09-.19,0-.1.07-.2,0-.11.06-.21,0-.13c0-.07,0-.15,0-.23l0-.14c0-.08,0-.17,0-.25s0-.1,0-.15,0-.2,0-.3,0-.09,0-.14,0-.31,0-.47c-.29-15.09-2.25-18.23-2.25-18.23-2.06-1.48-9-4.15-11-4.9a3.8,3.8,0,0,0-2.07-1.76h0l0-.17v0l0-.15v0l0-.18v-.06a12.18,12.18,0,0,0,1.34-.07h0l.23,0h0l.5-.08h0l.21,0h0l.2,0h0l.22-.06h0l.2-.06,0,0,.15-.05,0,0,.17-.07h0l.17-.08,0,0,.11-.06,0,0,.1-.07,0,0,.12-.09,0,0,.08-.08,0,0,.06-.07,0,0,.07-.11a26,26,0,0,0,1.57-4.79c1.12-3.22,0-7.72-.17-8.73,0-.21-.12-.61-.22-1.09v0c.94-7.47-3.3-8.76-6.74-9.4a7.53,7.53,0,0,0-4.37-.49l-.18,0a11.78,11.78,0,0,0-3.55.64h0A12.3,12.3,0,0,0,55,18.19l-.39.34a9.07,9.07,0,0,0-2.44,3.17,19,19,0,0,0-1.34,10.42c.48,2-.19,2.15-.72,2.92s-1.83,3.71,0,5,.27,2.73-.24,4.4-.38,3.71.63,3.78A3.54,3.54,0,0,0,52,47.56c-2,1.51-3.64,2.87-3.67,2.89-1.57,1.24-2.25,3.68-.78,8a51.4,51.4,0,0,0,2.79,6.41,1.67,1.67,0,0,0,0,.92h0l0,.13h0a1.8,1.8,0,0,0,.53.75h0l.17.12h0a1.78,1.78,0,0,0,.38.18,16,16,0,0,0,3.06,4.18,3,3,0,0,0,1.39.43l0,.05-.1.15-.11.16-.08.12c-1.71,2.54-4.44,6-4.67,10.83a7.91,7.91,0,0,0,1.38.81A85.7,85.7,0,0,0,54.43,100ZM72.8,22l.42,1.87L72.79,22Z"/><path class="e" d="M70.91,34.87a3.26,3.26,0,0,1-3.26,3.26H65.76a3.26,3.26,0,0,1-3.26-3.26h0a3.26,3.26,0,0,1,3.26-3.26h1.89a3.26,3.26,0,0,1,3.26,3.26Z"/><path class="f" d="M87.07,100c1.17-5.14,1.55-15.09,1.45-19.47-13.63,1.26-30.14,0-30.14,0A90.75,90.75,0,0,0,60.61,100Z"/><path class="g" d="M83.05,81.49A112,112,0,0,1,81.8,100h5.27c1.17-5.14,1.55-15.09,1.45-19.47-13.63,1.26-30.14,0-30.14,0s0,.46,0,1.27A193.42,193.42,0,0,0,83.05,81.49Z"/><path class="h" d="M76.7,39.86s9.64,3.57,12.19,5.41c-1.12,1-4.19,5.86-4.15,6.67.17,3.6,1.16,8.07-1.84,10-2.79,1.84,1,4.57,2.86,8.55s3.89,9,3.48,12.39c-2.55,1.23-7,1.94-11.85,2.13-.71,0-2.1-3.36-2.1-3.36s-1.44,3.4-2.14,3.39c-6.75-.16-13.42-1.28-16.21-3.39.31-6.33,4.71-10.52,6-13.28S61,57,59.92,55.24s-5.75-7.93-5.75-7.93,8.87-7.25,10.7-7.45S76.7,39.86,76.7,39.86Z"/><path class="i" d="M76.7,39.86s9.64,3.57,12.19,5.41c-1.12,1-4.19,5.86-4.15,6.67.17,3.6,1.16,8.07-1.84,10-2.79,1.84-2.59,6.2-.75,10.18s5,7,4.56,10.42a19.23,19.23,0,0,1-9.33,2.47c-.71,0-2.1-3.36-2.1-3.36s-1.44,3.4-2.14,3.39c-6.75-.16-13.42-1.28-16.21-3.39.31-6.33,4.71-10.52,6-13.28S61,57,59.92,55.24s-5.75-7.93-5.75-7.93,8.87-7.25,10.7-7.45S76.7,39.86,76.7,39.86Z"/><path class="j" d="M58.59,44.92C61,47,59,52.28,63.9,51.46c-.41,4.09,1.63,6.54,5.72,7.35-2-6.29-3.56-12.2-6.58-18.09-1.61,1-3.82,2.63-5.64,4A2.35,2.35,0,0,1,58.59,44.92Z"/><path class="j" d="M63,68.42c-.74,1.53-2.43,3.51-3.83,6a7.29,7.29,0,0,0,3.12.69c6.78-.75,12.52-7.41,19.14-4.91a10,10,0,0,1-.34-5.7,116.75,116.75,0,0,0-17.81,1.25A5.34,5.34,0,0,1,63,68.42Z"/><path class="k" d="M88.89,45.26c-2.55-1.83-12.19-5.41-12.19-5.41s-2,0-4.45-.07c5.35,1.61,10.89,3.72,15.33,7.08A11.42,11.42,0,0,1,88.89,45.26Z"/><path class="l" d="M88.89,45.26S91,48.6,91.28,64.61c.14,5.24-3.61,4.49-7,3.88S68,65.07,68,65.07s-.07-4.89,1.15-5.78c3.06.2,13.69,3.59,14.85,3.77s.64-10.29.71-11.25C84.8,50.43,87.45,45.26,88.89,45.26Z"/><path class="m" d="M84.7,59.95c-.09,1.81-.28,3.18-.71,3.11-.64-.1-4.22-1.19-7.79-2.18-2.24,1-3.49,3.32-5.43,4.79,2.49.54,6.2,1.33,9.21,2a9.7,9.7,0,0,1,5.57-4.32C84.93,62.36,85.27,60.93,84.7,59.95Z"/><path class="n" d="M87.2,46.64s-2.38,2.71-2.59,4.48,2.54,5.36,1.77,7.42S81.64,61.81,80.13,62,82.2,48.46,87.2,46.64Z"/><path class="i" d="M87.2,46.64S85,49.73,84.77,51.5s1.18,5,.41,7S81.64,61.81,80.13,62,82.2,48.46,87.2,46.64Z"/><path class="n" d="M82.28,64c.25,0,.42-.43.54-1.18-3.12-.87-11.09-3.3-13.67-3.47a2.08,2.08,0,0,0-.62,1C72.47,61,81.23,63.79,82.28,64Z"/><path class="n" d="M91.28,64.61c-.31-16-2.38-19.34-2.38-19.34-.44,0-1.14.66-1.7,1.38.48,1.13,2.11,5.48,2.37,18.85a4.69,4.69,0,0,1-.88,3.34C90.25,68.56,91.35,67.49,91.28,64.61Z"/><path class="o" d="M81.78,59.4a5,5,0,0,1,2.89-.85c.86.57,1.3,3.26,1,4.52-.17.48-.77.06-1.12,0a4.27,4.27,0,0,0-1.6.23C82.56,63.45,81.78,59.4,81.78,59.4Z"/><path class="o" d="M81.78,59.4a5,5,0,0,1,2.89-.85c.86.57,1.3,3.26,1,4.52-.17.48-.77.06-1.12,0a4.27,4.27,0,0,0-1.6.23C82.56,63.45,81.78,59.4,81.78,59.4Z"/><path class="p" d="M84.67,58.55a5,5,0,0,0-2.89.85s0,.21.11.52a4.71,4.71,0,0,1,2.59-.66c.75.5,1.18,2.61,1.07,4a.33.33,0,0,0,.11-.16C86,61.81,85.52,59.12,84.67,58.55Z"/><path class="n" d="M58.78,49.62c-.63-1-2.38-3.49-3.68-2.88-2.28,1.06-3.6,3.7-1.76,9s5.58,12.12,7.42,13.48,10.08-.2,14.71-2.38a43.43,43.43,0,0,1,7.9-2.93S83,59.63,82,59c-4.43,0-13.49,3.77-15.71,3.41C64.47,62.13,59.63,50.95,58.78,49.62Z"/><path class="k" d="M57.62,50.7c-.63-1-1.21-4.56-2.51-4-2.28,1.06-3.6,3.7-1.76,9s5.58,12.12,7.42,13.48,10.08-.2,14.71-2.38a43.43,43.43,0,0,1,7.9-2.93s0-3.16-.71-3.86c-3.59,0-11.59,2.21-15.42,3.33L65.36,64C63.59,64.5,58.47,52,57.62,50.7Z"/><path class="q" d="M61.49,58.71a7.6,7.6,0,0,0-5.15,3.91,43.74,43.74,0,0,0,2.6,4.45,8.16,8.16,0,0,1,5.25-3.88A27.16,27.16,0,0,1,61.49,58.71Z"/><path class="r" d="M68.76,59.77s-4.25-2-6.7-1.77a7,7,0,0,0-5.75,4.51c-.35,1,.59,3.56,4.17,1.82s3-1.84,4.07-1.8,2,.33,2.4,0a2.14,2.14,0,0,1,1.26-.28Z"/><path class="o" d="M68.52,60.83s-4.26-2.53-6.72-2.29a6.09,6.09,0,0,0-5.49,4c-.35,1,.59,3.56,4.17,1.82s3-1.84,4.07-1.8,2,.33,2.4,0a2.14,2.14,0,0,1,1.26-.28Z"/><path class="s" d="M60.34,62.71a8.18,8.18,0,0,0-1.64,1.48,3.48,3.48,0,0,0-.41.62l-.05.11h.25a3.26,3.26,0,0,1,.4-.57A7.93,7.93,0,0,1,60.51,63a17.36,17.36,0,0,1,1.87-1.07l.52-.25-.18-.35A18.55,18.55,0,0,0,60.34,62.71Z"/><path class="s" d="M62.07,60.06a17.12,17.12,0,0,0-3,1.77,9.18,9.18,0,0,0-1,.87c-.16.14-.28.31-.41.45s-.23.31-.33.44a3.46,3.46,0,0,0-.23.41,1.48,1.48,0,0,0-.14.33l0,.14.18.13.07-.2a1.36,1.36,0,0,1,.14-.31,3.22,3.22,0,0,1,.23-.38c.1-.13.19-.28.32-.41s.25-.29.41-.42a8.87,8.87,0,0,1,1-.81c.18-.13.36-.25.54-.37s.37-.22.54-.33c.36-.21.69-.39,1-.54s.74-.35.89-.42Z"/><path class="s" d="M61.49,59a15,15,0,0,0-3,1.8c-.19.14-.37.3-.54.46s-.33.33-.49.48-.28.34-.41.5l-.32.48c-.09.16-.15.31-.22.44a1.86,1.86,0,0,0-.13.36v0a2,2,0,0,0,.12.3l.09-.28a1.68,1.68,0,0,1,.13-.33c.07-.12.13-.27.22-.41l.32-.45c.13-.15.26-.31.41-.46s.31-.31.49-.45.35-.3.54-.43a11.63,11.63,0,0,1,1.13-.75c.37-.22.73-.41,1-.56s.67-.31.86-.38Z"/><path class="t" d="M66.72,39.7l6,6.18a13.16,13.16,0,0,0,2.48-2.72,12.92,12.92,0,0,0,1.37-3.56c-1.28-.18-1.36-.82-1.36-.82A6.17,6.17,0,0,1,75,36.63c.15-.94-9.73-5.65-9.73-5.65s2.34,4.51,2.47,7.68C67.69,39,67.26,39.37,66.72,39.7Z"/><path class="u" d="M75.09,38.37A5.43,5.43,0,0,1,75,36.63c.15-.94-9.73-5.65-9.73-5.65s2.34,4.51,2.47,7.68c-.06.34-.49.71-1,1l1.44,1.49A8.52,8.52,0,0,1,75.09,38.37Z"/><path class="o" d="M79.61,15.21s1.3,5.51,1.47,6.59,1.37,5.85.18,9.26a27.58,27.58,0,0,1-1.66,5.08c-.57,1.08-3.41,1.54-5.76,1.31s-7.25-1.1-9.5-8.13c0,0-2.33,2.83-3.08-2.52-.48-3.48,2.72-2.89,3.14-.61,1-2.9-.68-8.71,2.53-10.53C71.08,13.33,79.61,15.21,79.61,15.21Z"/><path class="v" d="M75.84,26s0,1.27.62,1.73.82.6.84.78-.06.52-.57.73c.66-.15,1-.49,1.1-.79s-.14-.45-.47-.52S76.28,27.35,75.84,26Z"/><path class="v" d="M81.09,21.8c-.18-1.08-1.47-6.59-1.47-6.59l-.58.11c.1.42,1.3,5.53,1.47,6.56s1.37,5.85.18,9.27A27.56,27.56,0,0,1,79,36.22a3.66,3.66,0,0,1-2.62,1.22c1.52-.16,2.84-.6,3.2-1.3a27.58,27.58,0,0,0,1.66-5.08C82.46,27.65,81.27,22.88,81.09,21.8Z"/><path class="w" d="M76,26.44l.09.17a3.91,3.91,0,0,0,.28.43,2.93,2.93,0,0,0,.49.52,1.71,1.71,0,0,0,.33.21l.18.07.1,0,.11,0a.5.5,0,0,1,.35.36.63.63,0,0,1-.1.46,1.3,1.3,0,0,1-.61.47,1.86,1.86,0,0,1-.51.12h-.2l.19-.05a2.44,2.44,0,0,0,.47-.2,1.57,1.57,0,0,0,.27-.19,1,1,0,0,0,.23-.27.45.45,0,0,0,.07-.32.31.31,0,0,0-.22-.22l-.09,0-.11,0-.21-.09a1.61,1.61,0,0,1-.35-.25,2.63,2.63,0,0,1-.47-.59A3.17,3.17,0,0,1,76,26.44Z"/><path class="x" d="M72.69,31.81s2.48,2.8,4.54,2.15,2-3.48,1.94-3.7C78.22,31,72.69,31.81,72.69,31.81Z"/><path class="y" d="M78.69,30.52a7.66,7.66,0,0,1-.8.27c-1.49.49-4.38,1-4.38,1s2.25,1.33,3.61.9A2.7,2.7,0,0,0,78.69,30.52Z"/><path class="z" d="M78.26,30.76l-.36,0c0,.06,0,.13-.17.19-1.17.38-3.19.81-4,1l.45.22a4.78,4.78,0,0,0,2.06.26,4.59,4.59,0,0,0,1.91-.77A1.74,1.74,0,0,0,78.26,30.76Z"/><path class="x" d="M76.93,30.89l.46-.54s1.66.2,2-.42c-.28.76-1,1.23-2.6,1.74a7.17,7.17,0,0,1-4.22.09,7.83,7.83,0,0,0,3.27-1.21A2.36,2.36,0,0,0,76.93,30.89Z"/><path class="aa" d="M75.78,21.81a1.31,1.31,0,0,1,.08-.22,2.1,2.1,0,0,1,.35-.51,3.07,3.07,0,0,1,.31-.28,2.24,2.24,0,0,1,.92-.4,3.35,3.35,0,0,1,.54,0h.15l.12,0,.23,0a3.2,3.2,0,0,1,.47.12,3.06,3.06,0,0,1,.78.37,2.39,2.39,0,0,1,.47.39,1.36,1.36,0,0,1,.15.18l-.79-.13-.76-.1-.42,0-.23,0h-.2c-.13,0-.26,0-.39,0l-.38.06-.36.1-.33.12-.5.24Z"/><path class="aa" d="M72.06,22.26l-.29,0a5.89,5.89,0,0,0-.72,0l-.46.06-.5.11a4.83,4.83,0,0,0-.51.17,4.74,4.74,0,0,0-.51.23l-.24.12-.25.15c-.14.09-.3.19-.44.3l-.4.33-.36.32c-.43.41-.73.73-.73.73a3.06,3.06,0,0,1,.35-1,3.91,3.91,0,0,1,.65-.9,3.68,3.68,0,0,1,.49-.43l.26-.17.3-.16a3.62,3.62,0,0,1,.62-.24A3.66,3.66,0,0,1,70,21.7a3.18,3.18,0,0,1,.6,0,3,3,0,0,1,.53.09,2.58,2.58,0,0,1,.73.3A1.46,1.46,0,0,1,72.06,22.26Z"/><path class="aa" d="M67.39,25.91a2.8,2.8,0,0,0,.88.05,2.37,2.37,0,0,0,.83-.24,2.49,2.49,0,0,0,.41-.27,2,2,0,0,1,.51-.28,3,3,0,0,1,.56-.13,2.4,2.4,0,0,1,.3,0l.27,0a1.75,1.75,0,0,1,.9.43,1.53,1.53,0,0,1,.39.57.71.71,0,0,1,.06.25,1.1,1.1,0,0,0-.14-.2,2,2,0,0,0-.47-.4,1.8,1.8,0,0,0-.36-.17,1.66,1.66,0,0,0-.42-.09h-.24l-.23,0a2.75,2.75,0,0,0-.48.1,1.86,1.86,0,0,0-.45.19,3.37,3.37,0,0,1-.48.26,2.28,2.28,0,0,1-1,.15,2.44,2.44,0,0,1-.65-.13Z"/><path class="aa" d="M80.54,23.64A1.78,1.78,0,0,1,80,24a1.38,1.38,0,0,1-.67.16.89.89,0,0,1-.18,0l-.16,0-.14,0-.14,0a2,2,0,0,0-.56,0h0a1.34,1.34,0,0,0-.67.43,1.89,1.89,0,0,0-.38.8,1.13,1.13,0,0,1,0-.48,1.39,1.39,0,0,1,.16-.48,1.33,1.33,0,0,1,.33-.4,1.45,1.45,0,0,1,.47-.25h0a1.84,1.84,0,0,1,.69,0l.17,0,.17.05.14.05.13,0A2.11,2.11,0,0,0,80.54,23.64Z"/><path class="ab" d="M80.08,17.14A5.38,5.38,0,0,0,77,15.21c-1.83-.25-1.5,1.23-4,1s-3.36-.76-4.88,0-2.39,2-2.49,4.29.25,3.22-.15,4.39-.63,2.81-1.21.88c-.31-.61-.54.36-.67.89s.79,2.27.79,2.27a15.29,15.29,0,0,0,2,4.54c-1.49,0-5.47.26-7.05-5.54S57.46,16.14,61.22,13.1s7.6-3.26,11.36-2.6S82,11.9,80.86,20.67C80.67,19.79,80.08,17.14,80.08,17.14Z"/><path class="o" d="M64.41,26.2c-.41-2.28-3.62-2.87-3.14.61.74,5.35,3.08,2.51,3.08,2.52s.08-.12.08-.11l.24-2.62C64.65,26.68,64.46,26.43,64.41,26.2Z"/><path class="ac" d="M67.61,37.44s1.81,6,5.18,8.26c2.52-1.91,2.31-6.35,2.27-7.51.82.41,4.34,1.31,2.15,9.82a25.16,25.16,0,0,0-4.43-1.91s-2.72,1.26-3.4,3c-2.42-1.91-4.17-7.67-4-8.76S67.61,37.44,67.61,37.44Z"/><path class="ab" d="M65.13,10.89s-5.1,1.82-6.91,5.94a20.13,20.13,0,0,0-1.42,11c.51,2.13-.2,2.28-.77,3.1s-1.94,3.93,0,5.3.29,2.89-.26,4.66-.4,3.94.66,4,4-2.83,4-1,.29,4.08,1.93,4.78a4.61,4.61,0,0,1,3,4.63c-.09,2.25,2,3.88,4.74,3.81-.89-.88,0-2.83,1.07-4.67a6.34,6.34,0,0,0-1.08-7.18c-2-2.18-3.51-3.41-2.71-4.94a2.84,2.84,0,0,0,.53-2.88c-.67-1.58-2.76-4.16-2.34-5.9s.73-3.1-.23-4.26-1.68-4.65-.69-6.2S65.13,10.89,65.13,10.89Z"/><path class="ad" d="M58.92,23.17l-.06.07a1,1,0,0,0-.14.24,5.07,5.07,0,0,0-.3,1,5.73,5.73,0,0,0-.36,1.57,5.15,5.15,0,0,0,.43,2l.18.57.13.62c0,.21.05.43.08.65s0,.44,0,.67,0,.45,0,.69a3.17,3.17,0,0,1-.2.71c-.18.46-.45.86-.64,1.3a4.13,4.13,0,0,0-.42,1.34,1.49,1.49,0,0,0,.55,1.2,4.76,4.76,0,0,0,1.16.93,6.48,6.48,0,0,1,1.32.92,2.09,2.09,0,0,1,.58,1.57c0,.54-.1,1-.14,1.55a3.21,3.21,0,0,0,.14,1.41,1.22,1.22,0,0,0,.4.5,2.55,2.55,0,0,0,.62.28,2.92,2.92,0,0,1,1.33.7,1.29,1.29,0,0,1,.28.73,3.66,3.66,0,0,1,0,.71,3.83,3.83,0,0,1-.12.67,3.84,3.84,0,0,0-.12.61,1.13,1.13,0,0,0,.09.54,1.43,1.43,0,0,0,.16.23,1.24,1.24,0,0,0,.19.18,9.18,9.18,0,0,0,1.94.78,1.43,1.43,0,0,1,.7.59,2.2,2.2,0,0,1,.23.73,3.3,3.3,0,0,1,0,1.06l0,.16,0,.11,0,.09,0-.09,0-.11,0-.16a3.48,3.48,0,0,0,0-1,2.12,2.12,0,0,0-.25-.69,1.3,1.3,0,0,0-.66-.51,8.13,8.13,0,0,1-2-.74,1.37,1.37,0,0,1-.25-.22,1.58,1.58,0,0,1-.19-.26,1.39,1.39,0,0,1-.13-.67,4.09,4.09,0,0,1,.11-.65,3.53,3.53,0,0,0,.09-.63,1.7,1.7,0,0,0-.23-1.19,2.77,2.77,0,0,0-1.19-.59A2.83,2.83,0,0,1,61.4,43a1.59,1.59,0,0,1-.53-.65,3.54,3.54,0,0,1-.18-1.59c0-.52.11-1,.12-1.53A1.69,1.69,0,0,0,60.34,38a6.24,6.24,0,0,0-1.23-.86,6,6,0,0,1-.66-.46,6.25,6.25,0,0,1-.57-.55,2.55,2.55,0,0,1-.48-.66,1.59,1.59,0,0,1-.14-.41,1.69,1.69,0,0,1,0-.42,4.45,4.45,0,0,1,.47-1.47c.21-.45.48-.86.65-1.27a2.92,2.92,0,0,0,.2-.61c0-.21,0-.46.05-.66s0-.44,0-.65,0-.42-.06-.63l-.11-.59-.16-.57a9.16,9.16,0,0,1-.3-1.09,3.93,3.93,0,0,1-.05-1,2.57,2.57,0,0,1,.18-.88c.1-.26.19-.49.25-.71a4.69,4.69,0,0,1,.35-1,1.06,1.06,0,0,1,.16-.23Z"/><path class="ad" d="M61.86,31.64v.26a2.12,2.12,0,0,1-.19.73c-.13.3-.33.64-.53,1L61,34c0,.11-.07.23-.1.33a1.78,1.78,0,0,0,0,.74,2.75,2.75,0,0,0,.93,1.39,5.55,5.55,0,0,1,1.46,1.4l.07.13a.49.49,0,0,1,0,.08l0,.06.08.25a2.28,2.28,0,0,1,.09.56,3,3,0,0,1,0,.58c0,.18-.12.38-.17.54a2.14,2.14,0,0,0-.15.48,1.46,1.46,0,0,0,0,.48,1.38,1.38,0,0,0,.15.45,2.36,2.36,0,0,0,.13.2l.17.21A6.76,6.76,0,0,0,65.42,43a1.63,1.63,0,0,1,.74.93,1.87,1.87,0,0,1,.06.58,3.75,3.75,0,0,1-.08.54,1.56,1.56,0,0,0,0,.91.94.94,0,0,0,.24.31,2.14,2.14,0,0,0,.37.24,3.88,3.88,0,0,1,1.55,1l.19.36c0,.13.08.26.12.39a3,3,0,0,1,.06.37,2,2,0,0,1,0,.35v.33l0,.3c0,.2,0,.37-.05.53a6.59,6.59,0,0,1-.14.73l-.07.26,0-.26c0-.17.06-.42.09-.74,0-.16,0-.34,0-.53s0-.2,0-.3l0-.32a1.84,1.84,0,0,0,0-.34,2.75,2.75,0,0,0-.08-.34L68.3,48l-.2-.35a1.64,1.64,0,0,0-.64-.45c-.26-.12-.55-.22-.85-.36a1.5,1.5,0,0,1-.8-.71,1.2,1.2,0,0,1-.09-.55,3.84,3.84,0,0,1,.07-.53,3.4,3.4,0,0,0,.07-.49,1.5,1.5,0,0,0-.05-.47,1.25,1.25,0,0,0-.58-.7,6.82,6.82,0,0,1-1.88-1.23l-.17-.22a2.66,2.66,0,0,1-.17-.26,1.78,1.78,0,0,1-.18-.59,1.83,1.83,0,0,1,0-.61A2.56,2.56,0,0,1,63,39.9,2.17,2.17,0,0,0,63,38a6,6,0,0,0-1.35-1.35,3,3,0,0,1-1-1.55,1.92,1.92,0,0,1,0-.82c0-.14.09-.25.13-.37L61,33.6c.23-.39.44-.71.59-1a2.25,2.25,0,0,0,.24-.69Z"/><path class="ae" d="M73.28,34.66a1,1,0,0,0-1.15.75s0,0,0,0c-7.59.67-9.25-5.45-9.31-5.71l-.38.1a8.59,8.59,0,0,0,6.4,5.85,11.35,11.35,0,0,0,3.32.16,1,1,0,1,0,1.14-1.19Z"/><path class="af" d="M68.83,34.87A8.59,8.59,0,0,1,62.43,29l.38-.1c.07.27,1.75,6.49,9.5,5.7l0,.39A11.42,11.42,0,0,1,68.83,34.87Z"/><path class="aa" d="M74,35a1,1,0,0,1-1.15.75h0a1,1,0,0,1-.75-1.15h0a1,1,0,0,1,1.15-.75h0A1,1,0,0,1,74,35Z"/><path class="af" d="M73.71,10.7s-7.94-.92-10.12,4.16S62.85,27,62.85,27l-.81.21a28.18,28.18,0,0,1,0-10.95C63.26,10.64,70.21,9,73.71,10.7Z"/><path class="ag" d="M73.5,10.74s-7.94-.92-10.12,4.16S62.64,27,62.64,27l-.81.21a28.19,28.19,0,0,1,0-10.95C63,10.67,70,9,73.5,10.74Z"/><path class="ah" d="M64.43,28.07a2.08,2.08,0,0,1-1.8,2.53l.36-.46a2.19,2.19,0,0,1-2-1.95l-.73-1c-.17-1.11,1-2,2-2.08h0a2.19,2.19,0,0,1,2,1.95Z"/><path class="ai" d="M63.72,28.58a1.65,1.65,0,0,1-1.42,2.07h0a2.19,2.19,0,0,1-2-1.95l-.16-1a1.65,1.65,0,0,1,1.42-2.07h0a2.19,2.19,0,0,1,2,1.95Z"/><text class="aj" transform="translate(11.12 28.74)">Contáctenos<tspan x="3.3" y="8.3">Disponible</tspan></text><text class="ak" transform="translate(25.37 48.91)">24<tspan class="al"><tspan x="-2.67" y="6.61">Horas</tspan></tspan></text><circle class="am" cx="28.32" cy="65.41" r="6.16"/><path class="z" d="M30.44,62.29l-.85,1.57c.53.26.3,1,.07,1.38l-.83,1.54c-.23.43-.67.93-1.19.7L26.8,69a2.07,2.07,0,0,0,2.62-1.21l1.45-2.69A2.06,2.06,0,0,0,30.44,62.29Z"/><path class="z" d="M29.51,63.62a.44.44,0,0,1-.6.18h0a.44.44,0,0,1-.18-.6l.69-1.28a.44.44,0,0,1,.6-.18h0a.44.44,0,0,1,.18.6Z"/><path class="z" d="M26.72,68.81a.44.44,0,0,1-.6.18h0a.44.44,0,0,1-.18-.6l.69-1.28a.44.44,0,0,1,.6-.18h0a.44.44,0,0,1,.18.6Z"/><circle class="an" cx="36.8" cy="71.36" r="6.16"/><path class="z" d="M40.39,73.73H33.22a.55.55,0,0,1-.55-.55V68.73a.55.55,0,0,1,.55-.55h7.17a.55.55,0,0,1,.55.55v4.45A.55.55,0,0,1,40.39,73.73Zm-7.17-5.16a.15.15,0,0,0-.15.15v4.45a.15.15,0,0,0,.15.15h7.17a.15.15,0,0,0,.15-.15V68.73a.15.15,0,0,0-.15-.15Z"/><path class="z" d="M40.61,68.23a.52.52,0,0,0-.23-.06H33.22a.53.53,0,0,0-.28.08l-.07,0v.24L36.32,72a.68.68,0,0,0,1,0l3.33-3.33ZM37,71.71a.28.28,0,0,1-.4,0l-3.14-3.14h6.67Z"/><circle class="ao" cx="19.42" cy="68.24" r="6.16"/><path class="z" d="M19.61,71.1a4,4,0,0,0,2.31-.7l.29.37a4.23,4.23,0,0,1-2.63.8,3.05,3.05,0,0,1-3.36-3.18v-.26A3,3,0,0,1,19.55,65c1.66,0,3.07.82,3.07,2.64v.2c0,1.58-.81,2-1.9,2h-.46l-.08-.45a1.18,1.18,0,0,1-1,.53c-.94,0-1.35-.71-1.35-1.54v-.17c0-.84.41-1.54,1.35-1.54a1.19,1.19,0,0,1,1,.53l.08-.45h.55l-.06.94v1.69c.85,0,1.32-.29,1.32-1.52v-.2c0-1.6-1.23-2.16-2.51-2.16h0a2.55,2.55,0,0,0-2.78,2.7v.26a2.55,2.55,0,0,0,2.82,2.7Zm-.29-4c-.59,0-.85.42-.85,1v.17c0,.59.26,1,.85,1a1,1,0,0,0,.81-.45V67.6A1,1,0,0,0,19.31,67.15Z"/></g></svg>