<svg xmlns="http://www.w3.org/2000/svg" viewBox="0 0 64 100"><defs><style>.a{fill:#eed3a0;}.a,.b,.c,.d,.e,.f,.g,.h,.i,.j,.k,.l,.m,.n,.o,.p,.q,.r,.s,.t,.u,.v,.w,.x,.y{fill-rule:evenodd;}.b{fill:#e6cd4a;}.c{fill:#d1bb44;}.d{fill:#edd75b;}.e{fill:#aac0e3;}.f{fill:#9eb3d4;}.g{fill:#4e4b3d;}.h{fill:#433f35;}.i{fill:#5a584c;}.j{fill:#504f41;}.k{fill:#394753;}.l{fill:#eccc94;}.m{fill:#ebc887;}.n{fill:#363636;}.o{fill:#3f3d3d;}.p{fill:#393634;}.q{fill:#c8aa79;}.r{fill:#464333;}.s{fill:#eccc8f;}.t{fill:#ecd34c;}.u{fill:#e0c848;}.v{fill:#a79537;}.w{fill:#56648b;}.x{fill:#965c43;}.y{fill:#8c553a;}</style></defs><title>254119-P4HR1Z-556-01</title><path class="a" d="M39.12,66.9s.12-1.17.14-1.34a6.07,6.07,0,0,0-.74-1.62c-.11,0-.14.31-.16.41a3.17,3.17,0,0,0,.24.64l0,.37L38,64.9l-.46-.76a4.15,4.15,0,0,0-.7-.61c-.11,0-.34-.14-.41-.07a18.24,18.24,0,0,0,.66,2c0,.11.83,1.39.95,1.57a6.15,6.15,0,0,0,.62.61Z"/><path class="b" d="M48.12,64.8l-1.33-1.17c-1.57,1.67-3.34,5.81-3.71,5.37l-4-2.34-.85.64s4,4.31,5.24,4.4S48.26,67,48.26,67Z"/><path class="c" d="M38.58,67l-.35.26s4,4.31,5.24,4.4c.39,0,1-.45,1.7-1.11L45.13,70s-1.49,1.32-2.07,1S38.58,67,38.58,67Z"/><polygon class="d" points="46.93 62.79 46.03 63.13 45.62 64.12 46.79 63.64 46.93 62.79"/><path class="a" d="M18.25,62.16s-.15-1.52.11-1.84a8.81,8.81,0,0,1,1.55-1s.87-.61,1-.4a22,22,0,0,1-1.81,3.24Z"/><path class="e" d="M9.69,64.13l5.78,2.06,2.76-4.37.89.22s-2.44,6.72-2.82,6.87S10.48,67.71,10,67.75s-1.34-.9-1.66-2S9.69,64.13,9.69,64.13Z"/><path class="f" d="M18.7,61.93l.42.1s-2.44,6.72-2.82,6.87a23.19,23.19,0,0,1-3.55-.63l-.43-.44L12.19,67s3.41,1.12,3.78,1.1S18.17,63.3,18.7,61.93Z"/><path class="g" d="M8.55,74.09l-1,1.71c.14,3,4.69,8.35,6.75,10.93A100.39,100.39,0,0,1,12.81,98l-.06,1.45h1.06l.14-.13a4.25,4.25,0,0,0,.64.13h2.24s.07-.23-.13-.26a6.75,6.75,0,0,1-1.62-.42,1.8,1.8,0,0,1-.51-.63h0c1.29-4.14,1.94-7.53,2.78-11.27.59-1.78-2.87-7.94-4-11.3C11.71,75,10.25,74.68,8.55,74.09Z"/><path class="h" d="M12.46,84.43c.69.88,1.34,1.67,1.84,2.3A100.39,100.39,0,0,1,12.81,98l-.06,1.45h.89l-.18-.25a7.81,7.81,0,0,1,0-1.15C13.5,97.87,14.91,87,14.91,87l1.26-.89-1.25-.16-2.26-5.71-.93.7Z"/><path class="i" d="M8.55,74.09s-1.62,1.66-1.34,3,3.71,8,3.52,8.54L6.67,98l-.06,1.45H7.67l.14-.13a4.25,4.25,0,0,0,.64.13h2.24s.07-.23-.13-.26a6.74,6.74,0,0,1-1.62-.42,1.8,1.8,0,0,1-.51-.63L13.83,86.8c.51-1.06-1.08-9.65-1.11-10.95S8.55,74.09,8.55,74.09Z"/><path class="j" d="M7.25,76.23a1.85,1.85,0,0,0,0,.85c.29,1.33,3.71,8,3.52,8.54L6.67,98l-.06,1.45h.83c-.17-.12-.56-.37-.57-.47a13.2,13.2,0,0,1,.44-1.49c.05-.13,4.06-11.44,4.06-11.44s.9-.45,1.1-.52-1.23-.58-1.3-.69-2.69-7.39-2.69-7.39a8.58,8.58,0,0,0,1.64-.27,18,18,0,0,0,2.4-1s-1.16.08-2.13.12C9.67,76.33,8,76.26,7.25,76.23Z"/><path class="k" d="M23.42,29.58a4.84,4.84,0,0,1,1.29.06l.73-.94,1.79.84L27,30.7a4.84,4.84,0,0,1,.87.95L29,31.5l.68,1.86-1,.65a4.84,4.84,0,0,1-.06,1.29l.94.73-.84,1.79-1.17-.25a4.84,4.84,0,0,1-.95.87l.15,1.18-1.86.68-.65-1A4.84,4.84,0,0,1,23,39.23l-.73.94-1.79-.84.25-1.17a4.84,4.84,0,0,1-.87-.95l-1.18.15L18,35.51l1-.65a4.84,4.84,0,0,1,.06-1.29l-.94-.73.84-1.79,1.17.25a4.84,4.84,0,0,1,.95-.87l-.15-1.18,1.86-.68.65,1Zm-.21,2.83a2.12,2.12,0,1,0,2.72,1.27A2.12,2.12,0,0,0,23.21,32.41Z"/><path class="k" d="M35,40.93a13,13,0,0,1,3.19,1.32l2.71-1.71,3.75,3.75L42.94,47a13,13,0,0,1,1.32,3.19l3.12.71v5.3l-3.12.71a13,13,0,0,1-1.32,3.19l1.71,2.71L40.9,66.56l-2.71-1.71A13,13,0,0,1,35,66.17l-.71,3.12H29l-.71-3.12a13,13,0,0,1-3.19-1.32l-2.71,1.71-3.75-3.75,1.71-2.71A13,13,0,0,1,19,56.91l-3.12-.71V50.9L19,50.19A13,13,0,0,1,20.34,47l-1.71-2.71,3.75-3.75,2.71,1.71a13,13,0,0,1,3.19-1.32L29,37.81h5.3L35,40.93Zm-3.12,6.94a5.69,5.69,0,1,0,5.69,5.69A5.69,5.69,0,0,0,31.88,47.87Z"/><path class="k" d="M50.74,25.27a8.67,8.67,0,0,1,2.31.1l1.31-1.69,3.21,1.5-.45,2.09A8.67,8.67,0,0,1,58.67,29l2.12-.27L62,32l-1.8,1.16a8.67,8.67,0,0,1-.1,2.31l1.69,1.31L60.3,40l-2.09-.45a8.67,8.67,0,0,1-1.7,1.56l.27,2.12-3.33,1.21-1.16-1.8a8.67,8.67,0,0,1-2.31-.1l-1.31,1.69-3.21-1.5.45-2.09a8.67,8.67,0,0,1-1.56-1.7l-2.12.27L41,35.89l1.8-1.16a8.67,8.67,0,0,1,.1-2.31l-1.69-1.31,1.5-3.21,2.09.45a8.67,8.67,0,0,1,1.7-1.56l-.27-2.12,3.33-1.21,1.16,1.8Zm-.37,5.06a3.8,3.8,0,1,0,4.87,2.27A3.8,3.8,0,0,0,50.37,30.34Z"/><path class="k" d="M35.17,25.35a4.89,4.89,0,0,1,1.3.06l.74-1L39,25.3l-.26,1.18a4.89,4.89,0,0,1,.88,1l1.2-.15.68,1.88-1,.65a4.89,4.89,0,0,1-.06,1.3l1,.74-.84,1.81-1.18-.26a4.9,4.9,0,0,1-1,.88l.15,1.2-1.88.68-.65-1a4.89,4.89,0,0,1-1.3-.06l-.74,1-1.81-.84L32.45,34a4.9,4.9,0,0,1-.88-1l-1.2.15-.68-1.88,1-.65a4.89,4.89,0,0,1,.06-1.3l-1-.74.84-1.81,1.18.26a4.9,4.9,0,0,1,1-.88L32.64,25l1.88-.68.65,1ZM35,28.21a2.14,2.14,0,1,0,2.75,1.28A2.14,2.14,0,0,0,35,28.21Z"/><path class="k" d="M13.13,7.34A10.78,10.78,0,0,1,16,7.47l1.63-2.1,4,1.86-.56,2.6A10.79,10.79,0,0,1,23,11.94l2.64-.34,1.51,4.14L24.9,17.19a10.79,10.79,0,0,1-.13,2.87l2.1,1.63-1.86,4-2.6-.56a10.78,10.78,0,0,1-2.12,1.94l.34,2.64L16.5,31.2,15.06,29a10.79,10.79,0,0,1-2.87-.13l-1.63,2.1-4-1.86.56-2.6a10.78,10.78,0,0,1-1.94-2.12l-2.64.34L1,20.56l2.24-1.44a10.79,10.79,0,0,1,.13-2.87L1.3,14.62l1.86-4,2.6.56A10.79,10.79,0,0,1,7.88,9.25L7.55,6.61l4.14-1.51,1.44,2.24Zm-.46,6.3a4.72,4.72,0,1,0,6.06,2.82A4.72,4.72,0,0,0,12.66,13.65Z"/><path class="k" d="M41,17a3.51,3.51,0,0,1,.93,0l.53-.69,1.3.61-.18.85a3.51,3.51,0,0,1,.63.69l.86-.11.49,1.35-.73.47a3.52,3.52,0,0,1,0,.93l.69.53L44.83,23,44,22.83a3.51,3.51,0,0,1-.69.63l.11.86-1.35.49-.47-.73a3.51,3.51,0,0,1-.93,0l-.53.69-1.3-.61.18-.85a3.51,3.51,0,0,1-.63-.69l-.86.11L37,21.34l.73-.47a3.52,3.52,0,0,1,0-.93l-.69-.53.61-1.3.85.18a3.51,3.51,0,0,1,.69-.63l-.11-.86,1.35-.49L41,17Zm-.15,2.05a1.54,1.54,0,1,0,2,.92A1.54,1.54,0,0,0,40.81,19.09Z"/><path class="k" d="M10,33a5.56,5.56,0,0,1,1.44-.36l.5-1.28,2.24.34.1,1.37a5.56,5.56,0,0,1,1.27.76l1.26-.55,1.35,1.82-.9,1a5.56,5.56,0,0,1,.36,1.44l1.28.5-.34,2.24-1.37.1a5.55,5.55,0,0,1-.76,1.27L17,42.9l-1.82,1.35-1-.9a5.56,5.56,0,0,1-1.44.36L12.21,45,10,44.65l-.1-1.37a5.56,5.56,0,0,1-1.27-.76l-1.26.55L6,41.25l.9-1a5.55,5.55,0,0,1-.36-1.44l-1.28-.5L5.6,36,7,35.93a5.56,5.56,0,0,1,.76-1.27l-.55-1.26L9,32.06l1,.9Zm.69,3.18a2.43,2.43,0,1,0,3.4.51A2.43,2.43,0,0,0,10.73,36.14Z"/><path class="k" d="M31,15a3.84,3.84,0,0,1,1,0l.58-.75,1.42.66-.2.93a3.83,3.83,0,0,1,.69.75l.94-.12L36,18l-.8.51a3.84,3.84,0,0,1,0,1l.75.58-.66,1.42-.93-.2a3.84,3.84,0,0,1-.75.69l.12.94-1.47.54-.51-.8a3.83,3.83,0,0,1-1,0l-.58.75-1.42-.66.2-.93a3.84,3.84,0,0,1-.69-.75l-.94.12-.54-1.47.8-.51a3.83,3.83,0,0,1,0-1l-.75-.58.66-1.42.93.2a3.84,3.84,0,0,1,.75-.69L29,14.7l1.47-.54L31,15Zm-.16,2.24a1.68,1.68,0,1,0,2.15,1A1.68,1.68,0,0,0,30.81,17.2Z"/><path class="k" d="M38,3.69a5.65,5.65,0,0,1,1.5.07l.85-1.1,2.09,1L42.18,5a5.65,5.65,0,0,1,1,1.11l1.38-.18.79,2.17-1.17.75a5.65,5.65,0,0,1-.07,1.5l1.1.85-1,2.09L42.9,13a5.66,5.66,0,0,1-1.11,1L42,15.4l-2.17.79L39,15a5.65,5.65,0,0,1-1.5-.07l-.85,1.1-2.09-1,.3-1.36a5.66,5.66,0,0,1-1-1.11l-1.38.18-.79-2.17,1.17-.75a5.66,5.66,0,0,1,.07-1.5l-1.1-.85,1-2.09,1.36.3a5.65,5.65,0,0,1,1.11-1L35.11,3.3l2.17-.79L38,3.69ZM37.79,7A2.48,2.48,0,1,0,41,8.47,2.48,2.48,0,0,0,37.79,7Z"/><path class="k" d="M53,8a6.45,6.45,0,0,1,1.72.08l1-1.26,2.39,1.11-.34,1.56a6.46,6.46,0,0,1,1.16,1.27l1.58-.2L61.4,13l-1.34.86A6.46,6.46,0,0,1,60,15.61l1.26,1L60.13,19l-1.56-.34A6.45,6.45,0,0,1,57.3,19.8l.2,1.58-2.48.9-.86-1.34a6.45,6.45,0,0,1-1.72-.08l-1,1.26L49.09,21l.34-1.56a6.45,6.45,0,0,1-1.16-1.27l-1.58.2-.9-2.48,1.34-.86a6.45,6.45,0,0,1,.08-1.72l-1.26-1L47.05,10l1.56.34a6.45,6.45,0,0,1,1.27-1.16l-.2-1.58,2.48-.9L53,8Zm-.28,3.77a2.83,2.83,0,1,0,3.62,1.69A2.83,2.83,0,0,0,52.73,11.78Z"/><path class="k" d="M26.92,2.76a3.64,3.64,0,0,1,1,0l.55-.71,1.35.63-.19.88a3.65,3.65,0,0,1,.66.71l.89-.11.51,1.4-.76.49a3.64,3.64,0,0,1,0,1l.71.55-.63,1.35-.88-.19a3.64,3.64,0,0,1-.71.66l.11.89-1.4.51-.49-.76a3.65,3.65,0,0,1-1,0l-.55.71L24.7,10.1l.19-.88a3.64,3.64,0,0,1-.66-.71l-.89.11-.51-1.4.76-.49a3.64,3.64,0,0,1,0-1l-.71-.55.63-1.35.88.19a3.65,3.65,0,0,1,.71-.66L25,2.51,26.43,2l.49.76Zm-.16,2.13a1.6,1.6,0,1,0,2,1A1.6,1.6,0,0,0,26.76,4.88Z"/><path class="l" d="M5.26,59.09a8.89,8.89,0,0,1,1.84,5l4.57-1a4,4,0,0,1-2.44-1.4,5,5,0,0,1-.58-2.34C7.73,59.12,6.18,59.32,5.26,59.09Z"/><path class="a" d="M9.24,55.31a2.08,2.08,0,0,1,.33,1.2,4.05,4.05,0,0,0,1.93.6c.09.59-.24.72-.3.9s.23,1.61.15,2.29-1.89,1.37-3,1.21a5.22,5.22,0,0,1-1.91-.71C3,58.06,3,54.19,6.88,53.92,7.54,53.88,9,55,9.24,55.31Z"/><path class="m" d="M11.5,57.12c.09.59-.24.72-.3.9v0c-.57.13-.56,0-1.06-.44l.51.22c.12.05.37-.12.51-.3Z"/><path class="e" d="M5.55,63.81C6,67.13,7,69,6.38,75.45c-.26,2.5,7.72.73,7.4,0-.17-6.87-.2-8.55-3.33-12.79C10,62,5.66,61.67,5.55,63.81Z"/><path class="f" d="M11.43,64.1l-.33.11a3.89,3.89,0,0,0-1,.6s.5,2.48.75,4.33.24,5.73-.45,6.63-3.32.41-4.07-.24c-.09,2.39,7.72.65,7.4,0C13.63,69.42,13.59,67.4,11.43,64.1Z"/><path class="n" d="M10.91,64a30.61,30.61,0,0,1,1.26,3.31,30.47,30.47,0,0,1,1.12,5.61l-.55,1.9-1.34-1.46c0-4.77.17-5-1.24-9.36Z"/><path class="e" d="M14.43,51.28l1.16.22c.08.42,1.31,8,.29,9.47-1.46,2.17-7.3,5-7.86,5.08-1.69.19-2.13-2.12-1.41-2.79,2.51-1.66,7.18-3,7.44-3.69C14.24,59.09,14,54.4,14.43,51.28Z"/><path class="f" d="M15.14,51.53l.51.1c.08.42,1.3,8,.29,9.47-1.46,2.16-7,4.62-7.53,4.69a1.47,1.47,0,0,1-1.83-1.23,3.15,3.15,0,0,0,2.28.52c1.32-.22,6.12-3.63,6.67-4.61C16,59.65,15.35,53.49,15.14,51.53Z"/><path class="o" d="M3.31,57.65a3.39,3.39,0,0,1,.2-1.54,1.92,1.92,0,0,1,0-1c.16-.49,2.29-1.61,3.2-1.88A2.74,2.74,0,0,0,8,52.34a2.32,2.32,0,0,1,.16,1.72c-.27,1-2.42,2.11-2.58,2.28s.78,1.72,1.1,2,.16.49-.17.38-.76-.68-1-.56c-1.44.63.39,2,1.16,2.54C5.65,61.07,3.55,59.32,3.31,57.65Z"/><path class="p" d="M8,52.34a2.32,2.32,0,0,1,.16,1.72c-.27,1-2.42,2.11-2.58,2.28s.78,1.72,1.1,2,.16.49-.17.38-.76-.68-1-.56c-1.29.57.05,1.76.9,2.36l-.16.24h0a11.1,11.1,0,0,1-1-.88c-.29-.32-.57-1.28-.32-1.59s1-.35,1-.34a3.3,3.3,0,0,0-.28-.39c-.18-.26-.58-.91-.58-.91a6.22,6.22,0,0,1-.64.46,4.56,4.56,0,0,1,.71-1.16c.39-.42,2.36-1.55,2.75-2.28A1.56,1.56,0,0,0,8,52.34Z"/><path class="q" d="M5.75,58.48a.58.58,0,0,0-.21,0,.32.32,0,0,0-.17.14c-.11.19.25.72.51.93s.63-.09.65-.26-.11-.17-.29-.23-.16-.12-.1-.29S5.94,58.49,5.75,58.48Z"/><path class="l" d="M5.9,60.06a.47.47,0,0,0,.37.09A2,2,0,0,0,6.67,60c0,.82,1.21,1.6,1.16,1.59s-1.28,0-1.34-.29A8.44,8.44,0,0,0,5.9,60.06Z"/><path class="a" d="M14.52,51.42s.33-1.25.39-1.37a9.2,9.2,0,0,1,1.58-.55,22.13,22.13,0,0,1,2.28.63c-.05.07.05.06-.14.13-.47.17-1.53.37-2,.49a.92.92,0,0,1-1,.46l0,.31Z"/><path class="a" d="M19.12,61s1.29-.16,1.34.06-1.37.62-1.37.62Z"/><path class="g" d="M52,74.07l1,1.71c-.14,3-4.63,8.9-6.69,11.48A90.9,90.9,0,0,0,47.72,98l.06,1.45H46.72l-.14-.13a4.25,4.25,0,0,1-.64.13H43.7s-.07-.23.13-.26a6.75,6.75,0,0,0,1.62-.42A1.8,1.8,0,0,0,46,98.1h0c-1.29-4.14-1.88-7-2.72-10.72-.59-1.78,2.81-8.49,3.91-11.84C48.82,74.95,50.27,74.66,52,74.07Z"/><path class="r" d="M43.69,99.32a.15.15,0,0,1,.14-.17,6.75,6.75,0,0,0,1.62-.42A1.8,1.8,0,0,0,46,98.1h0c-1.29-4.14-1.88-7-2.72-10.72-.52-1.57,2.06-7,3.43-10.52.68,0,1.5,0,1.6,0s.09.85.09.85a9.43,9.43,0,0,0-1.48.49c-.05.11-2.89,8.55-2.87,8.73s2.16,11,2.16,11l1,.13-.85.22a2.42,2.42,0,0,1-.51.72A7.24,7.24,0,0,1,43.69,99.32Z"/><path class="i" d="M52,74s1.62,1.66,1.34,3-3.4,8.62-3.22,9.18l3.76,11.73.06,1.45H52.86l-.14-.13a4.26,4.26,0,0,1-.64.13H49.84s-.07-.23.13-.26a6.75,6.75,0,0,0,1.62-.42,1.8,1.8,0,0,0,.51-.63L47,87.39c-.51-1.06.78-10.29.8-11.59S52,74,52,74Z"/><path class="j" d="M49.84,99.26a.14.14,0,0,1,.13-.13,6.75,6.75,0,0,0,1.62-.42,1.8,1.8,0,0,0,.51-.63L47,87.39c-.45-.94.5-8.25.74-10.84l2.65-.11a15.19,15.19,0,0,0,2.26,0,12.17,12.17,0,0,1-2.13,1.49,5.65,5.65,0,0,1-1.82.61S48,86.05,48,86.31s4.44,11.32,4.46,11.44.1.36.1.36l.7.13-.89.14a2.47,2.47,0,0,1-.75.55A8.59,8.59,0,0,1,49.84,99.26Z"/><path class="l" d="M50.12,59a8.89,8.89,0,0,0-.45,5.27c-1.56.09-2.2-.07-3.76,0A3.21,3.21,0,0,0,47,62.54a5,5,0,0,0-.07-2.41C47.74,59.66,49.29,59.44,50.12,59Z"/><path class="a" d="M45.27,56.4a2.08,2.08,0,0,0,0,1.25,4.05,4.05,0,0,1-1.7,1.1c-.25.27.4.68.53.78s.13,1.39.39,2,2.26,1,3.27.6a5.22,5.22,0,0,0,1.65-1.19c2.59-3.56,1.53-7.28-2.24-6.51C46.52,54.56,45.42,56.08,45.27,56.4Z"/><path class="s" d="M43.57,58.74c-.26.27.4.68.53.78l0,0,.22-.07c.12-.06.21-.35.21-.35s-.33.22-.46.14A4.93,4.93,0,0,1,43.57,58.74Z"/><path class="t" d="M51.1,63.61C51.51,66.93,51,69,53.39,75c.92,2.34-7.25,2.76-7.12,2-1.67-6.67-2.08-8.3-.2-13.21C46.33,63.06,50.42,61.57,51.1,63.61Z"/><path class="u" d="M53.41,75.69c-.65,1.77-7.26,2-7.14,1.36-1-4.12-1.58-6.31-1.41-8.55l.17-.12c.38-.29,5-2.85,5-2.85s.16.3-.33.78S48,68,47.77,68.11c0,0,.61,8.34,1,8.4a19.34,19.34,0,0,0,3.95-.63A6.19,6.19,0,0,1,53.41,75.69Z"/><path class="v" d="M46.08,76.28c-.2-.81-.38-1.55-.54-2.22L46,67.95l.73-.58h0s0,.77.09,2.18.65,5,.65,5l-1,2.15Z"/><path class="n" d="M46.06,64.35a37.54,37.54,0,0,0-.82,10.29l1,1.69.9-1.77c-.77-4.86-.62-5.69-.43-10.31Z"/><path class="w" d="M47.1,63.83l-.32.71-.66.06a4.21,4.21,0,0,1-.1-.66,5.3,5.3,0,0,1,.57-.38Z"/><path class="x" d="M51.61,57.07a3.39,3.39,0,0,0-.6-1.43,1.93,1.93,0,0,0-.26-1c-.29-.43-2.64-.94-3.58-1a2.74,2.74,0,0,1-1.51-.46,2.32,2.32,0,0,0,.3,1.7c.53.9,2.9,1.39,3.1,1.51s-.29,1.86-.54,2.17,0,.51.26.33.55-.86.84-.82c1.55.23.17,2.07-.44,2.76C50.27,61,51.83,58.74,51.61,57.07Z"/><path class="y" d="M45.65,53.2a2.32,2.32,0,0,0,.3,1.7c.53.9,2.9,1.39,3.1,1.51s-.29,1.86-.54,2.17,0,.51.26.33.55-.86.84-.82c1.37.2.46,1.66-.2,2.47l.18.24h0a14.26,14.26,0,0,0,1-1.73,1.17,1.17,0,0,0-.51-1.27.88.88,0,0,0-.92.2s.53-1.2.61-1.42-.64-.83-1.15-1.14l-1.47-.87a9,9,0,0,0,.47.79,3.16,3.16,0,0,1-1.31-1.08A5.91,5.91,0,0,1,45.65,53.2Z"/><path class="q" d="M49.48,58.52a.58.58,0,0,1,.21,0,.32.32,0,0,1,.2.09c.15.15-.05.76-.24,1s-.63.08-.7-.08.06-.19.22-.3.12-.16,0-.31S49.3,58.58,49.48,58.52Z"/><path class="l" d="M49.76,60.08a.48.48,0,0,1-.33.19,2,2,0,0,1-.44-.07c.22.79-.74,1.86-.69,1.84s1.23-.34,1.22-.64A8.43,8.43,0,0,1,49.76,60.08Z"/><path class="a" d="M34,68l-.57-.56-1.51-.78s-.1,0-.11.18.75.73.73.76A13.62,13.62,0,0,1,31,67.7a5.77,5.77,0,0,0-1.07,0c-.06.05,0,.31,0,.31a.28.28,0,0,0-.27.07c-.1.12-.09.39,0,.4a2.53,2.53,0,0,1,.35.14.52.52,0,0,0,0,.21c0,.06.39.18.39.18a.21.21,0,0,0,.07.2c.1.1,1.18,0,1.28.11a4.26,4.26,0,0,0,1.38.12,5.45,5.45,0,0,0,.69-.33Z"/><path class="t" d="M50.76,64a1.74,1.74,0,0,0-1.7-1.16C48.32,63,41.53,68,41.53,68H33.84l-.23,1.28,8.68,1s7.45-4.11,7.87-4.46S50.76,64,50.76,64Z"/><path class="u" d="M33.68,68.88l-.06.36,8.68,1s7.45-4.11,7.87-4.46a2.47,2.47,0,0,0,.49-1.19,4.47,4.47,0,0,1-1,1c-.32.11-7.3,4-7.43,4S35,69,33.68,68.88Z"/><polygon class="d" points="49.36 61.93 50.13 62.69 47.94 63.81 47.08 64.25 46.38 63.37 49.36 61.93"/></svg>