<svg xmlns="http://www.w3.org/2000/svg" viewBox="0 0 100 100"><defs><style>.a{fill:#1b2a49;}</style></defs><title>desarrollo-01</title><path class="a" d="M88.21,66a2,2,0,1,1-2-2,2,2,0,0,1,2,2Zm0,0"/><path class="a" d="M13.86,66a2,2,0,1,1-2-2,2,2,0,0,1,2,2Zm0,0"/><path class="a" d="M96.54,96.09H79.77l-.1-48a2,2,0,0,0-2-1.95h0a2,2,0,0,0-1.95,2l.1,48H70.19l-.05-21.36a2,2,0,0,0-2-1.95h0a2,2,0,0,0-1.95,2l0,21.35H61.54V70.24a10.72,10.72,0,0,0,9.88-10.55V40.76a21.21,21.21,0,0,0-1.86-8.69,16.17,16.17,0,0,1,10.21,4.49,15.14,15.14,0,0,1,4.7,10.93l0,11.12a2,2,0,0,0,2,1.95h0a2,2,0,0,0,1.95-2l0-11.11a19,19,0,0,0-5.89-13.73,20,20,0,0,0-7.54-4.58,10.33,10.33,0,0,0-7.12-17.82h0A10.37,10.37,0,0,0,63,12.54,2,2,0,1,0,64.85,16a6.43,6.43,0,1,1,3,12.13l-.25,0h-.31A22.23,22.23,0,0,0,56,20.07a11.46,11.46,0,1,0-14.74.3,22.2,22.2,0,0,0-10.41,7.78l-.93,0h-.54A6.43,6.43,0,1,1,32.43,16a2,2,0,0,0,1.87-3.43A10.33,10.33,0,0,0,22.58,29.48,19.46,19.46,0,0,0,10,47.53V58.61a2,2,0,0,0,3.91,0V47.53A15.74,15.74,0,0,1,28.54,32.09a21.2,21.2,0,0,0-1.85,8.67V59.69A10.73,10.73,0,0,0,36.89,70.27V96.09H31.57V74.74a2,2,0,0,0-3.91,0V96.09h-4.8v-48a2,2,0,1,0-3.91,0v48H3.46a2,2,0,0,0,0,3.91H96.54a2,2,0,1,0,0-3.91ZM40.88,11.46A7.55,7.55,0,1,1,48.43,19a7.56,7.56,0,0,1-7.55-7.55Zm18.71,28a2,2,0,0,0-2,2V96.09h-7V68.91a2,2,0,1,0-3.91,0V96.09h-6V41.42a2,2,0,1,0-3.91,0V66.35a6.8,6.8,0,0,1-6.3-6.66V40.76a17.35,17.35,0,0,1,2.84-9.52,18.81,18.81,0,0,1,31.24,0,17.35,17.35,0,0,1,2.83,9.49V59.69a6.79,6.79,0,0,1-6,6.62V41.42a2,2,0,0,0-2-2Zm0,0"/></svg>