<svg xmlns="http://www.w3.org/2000/svg" viewBox="0 0 100 100"><defs><style>.a{fill:#1b2a49;}</style></defs><title>entrega-01</title><path class="a" d="M18.12,78.94A1.93,1.93,0,1,1,16.18,77a1.93,1.93,0,0,1,1.93,1.93Zm0,0"/><path class="a" d="M89.69,19.77H78.31a10.59,10.59,0,0,0-6.77,2.44V16.39A13.79,13.79,0,0,0,57.77,2.61H44.86a1.93,1.93,0,0,0-1.93,1.93V9.86A13.79,13.79,0,0,0,56.7,23.64h11V43.24c-.51,0-1-.05-1.54-.05a23.88,23.88,0,0,0-14.05,4.53,1.93,1.93,0,0,0,2.26,3.14A20.14,20.14,0,0,1,69.19,47.3l.25,0A20.22,20.22,0,0,1,83.8,57.48a1.93,1.93,0,0,0,3.38-1.87A24.08,24.08,0,0,0,71.54,43.81V37.56H81A10.65,10.65,0,0,0,91.63,26.92V21.7a1.93,1.93,0,0,0-1.93-1.93Zm-22,0h-11A9.92,9.92,0,0,1,46.8,9.86V6.48h11a9.92,9.92,0,0,1,9.91,9.91Zm20.08,7.15A6.78,6.78,0,0,1,81,33.69H71.54V30.41a6.78,6.78,0,0,1,6.77-6.77h9.45Zm0,0"/><path class="a" d="M98.87,65.39a7.59,7.59,0,0,0-10-3.87h0L76.21,67.36a1.93,1.93,0,1,0,1.62,3.51l12.62-5.82a3.71,3.71,0,0,1,3,6.8L67.57,83.27A15,15,0,0,1,54.81,83l-9.47-4.7a18.85,18.85,0,0,0-16-.36l-.19.08L22,62l9.82-4.34a19.55,19.55,0,0,1,14.7-.47l19,7a3.43,3.43,0,0,1-2.28,6.47l-14.72-5a1.93,1.93,0,1,0-1.24,3.66l14.72,5a7.3,7.3,0,0,0,9.25-4.55,7.34,7.34,0,0,0-4.39-9.22l-19-7a23.4,23.4,0,0,0-17.6.56l-9.89,4.37a4.89,4.89,0,0,0-6.07-1.81L1.64,62.21A1.94,1.94,0,0,0,.48,64V98.07a1.93,1.93,0,0,0,2.81,1.73L27.94,87.34a4.9,4.9,0,0,0,2.69-5.78l.23-.1a15,15,0,0,1,12.76.29l9.47,4.7a18.85,18.85,0,0,0,16,.36L95,75.39a7.59,7.59,0,0,0,3.87-10Zm-72,17.86a1,1,0,0,1-.55.57l-.09,0L4.35,94.92V86.45l5.72-2.81a1.93,1.93,0,0,0-1.71-3.47l-4,2V65.25L15.9,60.19a1,1,0,0,1,1.36.53l9.1,20.61h0l.5,1.13a1,1,0,0,1,0,.79Zm0,0"/></svg>