<svg xmlns="http://www.w3.org/2000/svg" viewBox="0 0 100 100"><defs><style>.a{fill:#1b2a49;}</style></defs><title>planificacion-01</title><path class="a" d="M95.39,96.09H91.11V33.89a5.26,5.26,0,0,0-5.25-5.25H76.28A5.26,5.26,0,0,0,71,33.89v62.2H60.15v-34a5.26,5.26,0,0,0-5.25-5.25H45.33a5.26,5.26,0,0,0-5.25,5.25v34H29.2V78.48A5.26,5.26,0,0,0,24,73.22H14.38a5.26,5.26,0,0,0-5.25,5.25V96.09H4.61a2,2,0,0,0,0,3.91H95.39a2,2,0,0,0,0-3.91Zm-70.1,0H13V78.48a1.35,1.35,0,0,1,1.34-1.34H24a1.35,1.35,0,0,1,1.34,1.34Zm31,0H44v-34a1.35,1.35,0,0,1,1.34-1.34H54.9a1.35,1.35,0,0,1,1.34,1.34Zm31,0H74.94V33.89a1.35,1.35,0,0,1,1.34-1.34h9.57a1.35,1.35,0,0,1,1.34,1.34Zm0,0"/><path class="a" d="M91.1,2.05a1.95,1.95,0,0,0-2-2H77.14a2,2,0,0,0,0,3.91h7.3L65.13,23.21l-7.28-7.28a2,2,0,0,0-2.76,0L20,51a2,2,0,0,0,2.76,2.76L56.47,20.08l7.28,7.28a2,2,0,0,0,2.76,0L87.2,6.67v6.6a2,2,0,0,0,3.91,0V2.15s0-.06,0-.09Zm0,0"/><path class="a" d="M16.73,59.24a2,2,0,1,1-2-2,2,2,0,0,1,2,2Zm0,0"/></svg>