<svg xmlns="http://www.w3.org/2000/svg" viewBox="0 0 100 33.38"><defs><style>.a{fill:#4d463d;}.b{fill:#6d6559;}.c{fill:#caf4ff;}.d{fill:#527e85;}.e{fill:#564b44;}.f{fill:#cd9a45;}.g{fill:#dfab4a;}.h{fill:#2d4553;}.i{fill:#c78667;}.j{fill:#de9f7b;}.k{fill:#fff;}.l{fill:#eec058;}.m{fill:#304951;}.n{fill:#d37c67;}.o{fill:#c47651;}.ab,.p,.s,.v,.x{fill:none;}.p{stroke:#59595b;}.ab,.p,.s,.v{stroke-linecap:round;}.p,.s,.v,.x{stroke-miterlimit:10;}.ab,.p,.s{stroke-width:2.25px;}.q{fill:#273c3f;}.r{fill:#6b9da0;}.ab,.s{stroke:#7f7f80;}.t{fill:#96719b;}.u{fill:#cbcdce;}.v,.x{stroke:#304951;}.v{stroke-width:0.44px;}.w{fill:#b28bb4;}.x{stroke-width:0.38px;}.y{fill:#b6b8b9;}.z{fill:#e1e2e3;}.aa{fill:#375b6a;}.ab{stroke-linejoin:round;}</style></defs><title>contento</title><path class="a" d="M67.92,16.53H64.55l.25-.26a.21.21,0,0,1,.13-.06l1.3-.14-1-1.94.25-1.49h1.21l.56,3.43.46.12a.21.21,0,0,1,.15.15Z"/><polygon class="b" points="66.45 14.12 66.83 16.05 66.23 16.07 65.23 14.13 66.45 14.12"/><path class="b" d="M62.38,14.55h6.19a.39.39,0,0,0,.38-.35l.42-4.69a.31.31,0,0,0-.32-.35H62.86a.39.39,0,0,0-.38.35l-.42,4.69A.31.31,0,0,0,62.38,14.55Z"/><path class="a" d="M62.15,14.55h6.19a.39.39,0,0,0,.38-.35l.42-4.69a.31.31,0,0,0-.32-.35H62.62a.39.39,0,0,0-.38.35l-.42,4.69A.31.31,0,0,0,62.15,14.55Z"/><polygon class="c" points="68.53 14.31 61.99 14.31 62.43 9.41 68.97 9.41 68.53 14.31"/><path class="d" d="M95.13,25.09s-.32-2.78,1.75-3.77,1.67-2.31.4-1.17-1.67,1.17-1.67,1.17a3.5,3.5,0,0,1,1.67-2.78c1.59-.83,1.95-2.83,1.05-3.3s-.66.83-.74,1.49-1.51,1.81-1.51,1.81a3.43,3.43,0,0,0-.56-2.42,2.05,2.05,0,0,1,0-2.84c.72-.66.62-3.35-.57-3.36s-.33.64,0,1.67-1.31,1.81-.85,2.81c0,0-1.43-.07-1.56-1.12s-1.64-.9-1.16.65,2.72,1.31,2.72,1.31,1.11,1.21.94,2.12a1.67,1.67,0,0,0-1.77.46c-.7.84-.86-1.74-1.89-1.56s-.64,1.44.56,2.28,1.87-1.85,2.86,0a2.05,2.05,0,0,1-.69,2.84s-1.51-1.1-1.56,0S93.7,22.41,94,23a5.32,5.32,0,0,1,0,2.12Z"/><polygon class="e" points="92.67 31.52 92.19 24.29 97.63 24.29 97.15 31.52 92.67 31.52"/><path class="f" d="M76.51,20.15l4.71-.49s-1.72-7.93-2.84-8.31a4.13,4.13,0,0,1-1.67-1S76,18.48,76.51,20.15Z"/><path class="a" d="M76.08,5.25c0,1.56,1.32,1.45,2,1.6s.14.52.42.88a2.7,2.7,0,0,1,.29,1.21l1,.08a2.65,2.65,0,0,1,.24-.81A2.24,2.24,0,0,0,80,7s-.36-1.59-.4-2.08C79.46,3.64,76.09,2.66,76.08,5.25Z"/><path class="g" d="M79.22,7.4a4.59,4.59,0,0,0-1.51.31c-.51.27.31,1.08,1.15,1S79.22,7.4,79.22,7.4Z"/><path class="h" d="M81.4,31.52a7.42,7.42,0,0,0,0-.77,2.61,2.61,0,0,0-.15-.63c-.23-.24-.64,0-.64,0-.18.29-.21.51-.36.65s-.12.54-.12.74Z"/><path class="i" d="M75.62,31.42a1.48,1.48,0,0,0,.21-.27.5.5,0,0,1,.5-.21c.1.09.12.49.12.59h.13a2.3,2.3,0,0,0,.15-.83c0-.16-.16-.52-.21-.7a.58.58,0,0,1,0-.14A20,20,0,0,1,78,25.59a7.15,7.15,0,0,0,1-3,29,29,0,0,1,1.2-4.08S78.7,14.47,78.09,17a46.94,46.94,0,0,0-.8,6.23c-.1.62-1,4.94-1.58,6.76a3.85,3.85,0,0,1-.81,1.19h0a.73.73,0,0,0-.26.14l-.09.1Z"/><path class="j" d="M82.77,17.8a10.93,10.93,0,0,1-.51,4.26c-.14.8.26,2-.15,3.25-.27.86-.88,4.49-.88,4.49a2.7,2.7,0,0,1-.2,1.13.39.39,0,0,1-.55,0c-.2-.43.09-.36.14-1.89.09-2.71.37-5.94.32-7.17s-.46-3.57-.46-3.57Z"/><path class="i" d="M76,28.93c.54-2.06,1.2-5.19,1.29-5.71.06-.33.11-1.4.24-2.7,0-1.49.21-4.88,1-6.81l2,0c-.08,1.53,1.41,3.19-.4,5A26.26,26.26,0,0,0,79,22.61a7.15,7.15,0,0,1-1,3,17.81,17.81,0,0,0-1.24,3.34Z"/><path class="h" d="M75.62,31.52c.11,0,.32-.23.47-.34a.38.38,0,0,1,.22-.1.78.78,0,0,1,.14.45h.13a2.3,2.3,0,0,0,.15-.83,3.62,3.62,0,0,1-.16-.67c-.4-.23-.74.54-1.26,1-.26.22-.42.18-.42.18h0a1.4,1.4,0,0,0-.32.1.51.51,0,0,0-.25.25Z"/><path class="j" d="M82.66,20.43h0c-.13.65-.3,1.09-.4,1.64-.14.8.26,2-.15,3.25-.19.61-.56,2.62-.75,3.74h-.75v0c0-2.71.37-5.94.32-7.17,0-.52-.11-1.25-.2-1.92a9.3,9.3,0,0,0-.63-2.45c-.17-.1-1.53-3.77-1.53-3.77l2.94.14a4.3,4.3,0,0,1,1.26,4v.07A10,10,0,0,1,82.66,20.43Z"/><path class="h" d="M78.57,13.71a23.37,23.37,0,0,0-1.83,10.58s.13.41,1.07,0,1.14.21,1.92.57,2.07-.84,2.84-.44S84.15,24,84.15,24s.12-8.38-3.12-10.71Z"/><path class="g" d="M77.34,7.86a4.45,4.45,0,0,0-1.92,1.72,6.12,6.12,0,0,1-2.09,1.94l-2.91.15-.29.58a23.7,23.7,0,0,0,3.66.71c.56-.09,3-2.39,3-2.39Z"/><path class="k" d="M77.19,8a3.3,3.3,0,0,1,1.47-.11c.56.1,1.19-.27,2,.35a3,3,0,0,1,1.07,2.94c0,.33,0,2.35.48,2.77a6.23,6.23,0,0,1-3.83.25L77.82,12S75.6,11.49,77.19,8Z"/><path class="j" d="M68.87,12.26l.09.09a1.31,1.31,0,0,0,.72.2,1.92,1.92,0,0,0,.49-.12h0c.28-.1.54-.26.47-.42a.56.56,0,0,0-.45-.3,1.92,1.92,0,0,0-1-.08s0,.12.17.14a.34.34,0,0,1,.25.13s-.52.26-.69.22S68.64,12.17,68.87,12.26Z"/><path class="i" d="M69.53,11.83c.19.05.29.2.45.15a.45.45,0,0,1-.37-.08Z"/><path class="i" d="M68.87,12.26a.06.06,0,0,1,.06-.07,1.4,1.4,0,0,1,.26,0,.66.66,0,0,0,.24-.08.4.4,0,0,1-.16.09C69.16,12.26,68.92,12.17,68.87,12.26Z"/><path class="i" d="M69.05,12.38s0-.08.09-.05a.76.76,0,0,0,.37,0l.1,0a.24.24,0,0,1-.14.08C69.36,12.4,69.07,12.29,69.05,12.38Z"/><path class="i" d="M69.33,12.51s-.06-.06,0-.09a1.29,1.29,0,0,1,.25,0l.14,0a.27.27,0,0,1-.16.05C69.49,12.44,69.28,12.44,69.33,12.51Z"/><path class="i" d="M70.19,12.43c.28-.1.54-.26.47-.42a.56.56,0,0,0-.45-.3s.16.09.18.16.13.1.14.22S70.38,12.37,70.19,12.43Z"/><path class="l" d="M77.84,7.68a3.61,3.61,0,0,0-1.28.65c-.43.43-.81,2.3-.39,4,.63,2.61-.49,6.89.34,7.78C76.51,20.15,76.12,9.45,77.84,7.68Z"/><path class="a" d="M76.43,6.62a2.3,2.3,0,0,1,.39,1.44,5.94,5.94,0,0,0,.18,2.5c.26.35.41.37.41.37a1.82,1.82,0,0,1-.25-1.1c0-.79.64-1.88.53-2.68S76.43,6.62,76.43,6.62Z"/><path class="j" d="M78.26,4.21s-1.79-.43-2,.83.23,2.5,1.16,2.38C78.54,7.28,79.67,4.77,78.26,4.21Z"/><ellipse class="m" cx="77.14" cy="5.71" rx="0.09" ry="0.14" transform="translate(-0.12 1.88) rotate(-1.39)"/><ellipse class="n" cx="77.38" cy="6.04" rx="0.17" ry="0.13" transform="matrix(0.98, -0.19, 0.19, 0.98, 0.29, 15.07)"/><path class="m" d="M77.28,5.68s-.06-.18-.12-.18-.16.13-.16.13l-.13-.08.12,0s.09-.15.18-.13S77.28,5.68,77.28,5.68Z"/><ellipse class="m" cx="76.41" cy="5.66" rx="0.09" ry="0.14" transform="translate(-0.12 1.87) rotate(-1.4)"/><path class="m" d="M76.54,5.64s-.06-.18-.12-.18-.16.13-.16.13l-.13-.08.12,0s.09-.15.18-.13S76.54,5.64,76.54,5.64Z"/><path class="a" d="M77.34,5.27h0a.24.24,0,0,0-.22-.08,0,0,0,0,1,0-.07.31.31,0,0,1,.29.11,0,0,0,0,1,0,.05Z"/><path class="a" d="M76.52,5.15h0a.24.24,0,0,0-.24,0,0,0,0,0,1,0-.06.31.31,0,0,1,.31,0,0,0,0,0,1,0,.05Z"/><path class="o" d="M76.56,5.88s-.31,0-.27.14.23.23.23.23S76.64,6,76.56,5.88Z"/><path class="k" d="M76.51,6.56s.53,0,.63.09-.05.25-.34.18A.53.53,0,0,1,76.51,6.56Z"/><path class="a" d="M77.62,4.9A2,2,0,0,1,78.11,6s.26-.38.44-.09-.39.8-.39.8.08.79.35.77.58-1.8.38-2.3S78.41,4.47,77.62,4.9Z"/><path class="i" d="M78.11,6.47c-.1.37-.56,1-1.11.91,0,0,.54-.19.9.66,0,0-.06.37.25.38s.93-.54,1-.68-.23.09-.51-.43a1.64,1.64,0,0,1-.27-.78C78.22,6.64,78.11,6.47,78.11,6.47Z"/><path class="a" d="M76.78,4.55s.64,1.15,1.61,1.22c.8.06.66,1,.66,1a3.64,3.64,0,0,0-.2-2.23,1.35,1.35,0,0,0-2-.6s-1.18,0-.93,1.42A1.8,1.8,0,0,0,76.78,4.55Z"/><path class="l" d="M79.22,7.4s-1,2.67.14,4.74c1.47,2.6,2.83,9.43,2.83,9.43a4.79,4.79,0,0,0,2-2.07s.1-.52-1.34-3.75a21.15,21.15,0,0,1-.94-4.85,4.87,4.87,0,0,0-.71-2.59,2.46,2.46,0,0,0-1.32-.49S79.53,7.35,79.22,7.4Z"/><path class="g" d="M81.16,8.31c-1,0-1.8,4.66-1.8,4.66l-3,3.09,0,.48h.85a32,32,0,0,0,3.57-2.74,10.69,10.69,0,0,0,.9-3.87A5.25,5.25,0,0,0,81.16,8.31Z"/><path class="j" d="M77.14,16.53s0-.22-.63-.37a2.87,2.87,0,0,0-1.14,0l-.3.33Z"/><path class="a" d="M19,16.53H15.67l.25-.26a.21.21,0,0,1,.13-.06l1.3-.14-1-1.94.25-1.49h1.21l.56,3.43.46.12a.21.21,0,0,1,.15.15Z"/><polygon class="b" points="17.57 14.12 17.95 16.05 17.35 16.07 16.35 14.13 17.57 14.12"/><path class="b" d="M13.51,14.55h6.19a.39.39,0,0,0,.38-.35l.42-4.69a.31.31,0,0,0-.32-.35H14a.39.39,0,0,0-.38.35l-.42,4.69A.31.31,0,0,0,13.51,14.55Z"/><path class="a" d="M13.27,14.55h6.19a.39.39,0,0,0,.38-.35l.42-4.69a.31.31,0,0,0-.32-.35H13.74a.39.39,0,0,0-.38.35l-.42,4.69A.31.31,0,0,0,13.27,14.55Z"/><polygon class="c" points="19.65 14.31 13.11 14.31 13.55 9.41 20.09 9.41 19.65 14.31"/><path class="a" d="M15.81,16.23v.3H9.93v-.1a.15.15,0,0,1,.13-.15l2.1-.2h3.5A.15.15,0,0,1,15.81,16.23Z"/><path class="b" d="M15.81,16.23v.3H13.27v-.1a.15.15,0,0,1,.13-.15l2.1-.2h.16A.15.15,0,0,1,15.81,16.23Z"/><path class="p" d="M45.94,15.35l-2.58,8.56a.6.6,0,0,1-.58.43H40a.6.6,0,0,0-.6.6v5.82a.6.6,0,0,0,.6.6H35.5a.6.6,0,0,1-.6-.6V24.94a.6.6,0,0,1,.6-.6h2.75a.6.6,0,0,0,.58-.43l2.5-8.3a1.46,1.46,0,0,1,1.4-1h2.64A.6.6,0,0,1,45.94,15.35Z"/><path class="q" d="M40.5,20.21H44a.64.64,0,0,0,.62-.46l1.18-3.91a.41.41,0,0,0-.39-.53H41.91a.64.64,0,0,0-.62.46l-1.18,3.91A.41.41,0,0,0,40.5,20.21Z"/><path class="r" d="M40.5,20.21h3a.64.64,0,0,0,.62-.46l1.18-3.91a.41.41,0,0,0-.39-.53h-3a.65.65,0,0,0-.62.46l-1.18,3.91A.41.41,0,0,0,40.5,20.21Z"/><path class="r" d="M36.32,22.62H41.2a1.3,1.3,0,0,1,1.3,1.3V24a0,0,0,0,1,0,0H35a0,0,0,0,1,0,0v-.08A1.3,1.3,0,0,1,36.32,22.62Z"/><rect class="q" x="34.68" y="23.49" width="8.15" height="0.8" rx="0.38" ry="0.38"/><path class="s" d="M42.72,14.57h2.64a.6.6,0,0,1,.58.78l-2.58,8.56a.6.6,0,0,1-.58.43H40a.6.6,0,0,0-.6.6v5.82a.6.6,0,0,0,.6.6h3.55"/><path class="t" d="M36.87,12.59c-1,.3-1.25,1.29-2,3.68l-3.31-.35-.3.68a34.53,34.53,0,0,0,4.06,1c.68,0,1.35-1.84,1.65-2.63A5.13,5.13,0,0,0,36.87,12.59Z"/><path class="i" d="M30.33,16.16v.17h1.2l.16-.28a2.09,2.09,0,0,0-1,0,.89.89,0,0,0-.24.12A.06.06,0,0,0,30.33,16.16Z"/><path class="j" d="M31.82,16.21a.38.38,0,0,1-.35.18,1.47,1.47,0,0,0-.35,0s0-.07.07-.09.3-.12.3-.2l-.32,0a.89.89,0,0,0-.23,0c-.07,0-.09.15-.17.23s-.13,0-.13,0a1,1,0,0,1,.1-.25l.08-.06a.25.25,0,0,0-.18.1.91.91,0,0,0-.06.18s-.06.09-.11.07l.06-.29a2.26,2.26,0,0,1-.1.27s-.07,0-.05-.22a.41.41,0,0,0,0,.18s-.06,0-.07,0,0-.2.12-.2.08-.16.2-.1a1.56,1.56,0,0,1,.29-.12.77.77,0,0,1,.23,0S32,15.85,31.82,16.21Z"/><path class="t" d="M37.55,12.2s3.33-.52,4.1,0a1.48,1.48,0,0,1-.43,2.32C40.44,14.8,37.55,12.2,37.55,12.2Z"/><path class="q" d="M38.78,31.52v-.34c0-.31-.26-1-.26-1.19s-.81.15-.81.15a1.17,1.17,0,0,1-.3.7,1.07,1.07,0,0,0-.22.69Z"/><path class="q" d="M34.47,31.52a4.63,4.63,0,0,0-.25-1.5s-.72-.36-.88.22-.91.69-1.29.73-.32.39-.32.55Z"/><path class="q" d="M41.33,20.12,37.74,20s-3.84.28-5.7,1.48c-.75.48,1.05,8.81,1.05,8.81h1.37L34,23.32s3.93-.12,5.09-.63A7,7,0,0,0,41.33,20.12Z"/><path class="h" d="M37.52,30.26s-.51-8.9,0-9.3,5.26-1,5.26-1,0,2.42-1.29,3.17A7.8,7.8,0,0,1,39.3,24l-.61,6.24Z"/><path class="u" d="M36.62,12.64A33.26,33.26,0,0,0,37.74,20c.88.89,5,.21,5,.21.1-1.09.41-6.39-1.36-7.54a5.67,5.67,0,0,0-2.62-.43A4.35,4.35,0,0,0,36.62,12.64Z"/><path class="k" d="M38,12.2a1.23,1.23,0,0,0,0,1l.07-.3.49.45.36-.37.25.3s.46-.49.35-.94S38.41,11.77,38,12.2Z"/><path class="m" d="M36.79,9.25a1.26,1.26,0,0,0,.09,1.41c.52.82.42-1.33.42-1.33Z"/><path class="j" d="M39.2,10.4c.07,1.56-1.6,1.82-2,1.26a2.63,2.63,0,0,1-.34-.88c0-.08,0-.17,0-.25-.09-.57-.05-1.16.26-1.32C38.17,8.62,39.14,8.84,39.2,10.4Z"/><ellipse class="m" cx="37.76" cy="10.32" rx="0.09" ry="0.16" transform="translate(-0.99 4.79) rotate(-7.16)"/><ellipse class="m" cx="37.03" cy="10.32" rx="0.09" ry="0.16" transform="translate(-1 4.69) rotate(-7.16)"/><path class="o" d="M37.31,10.44s-.14.35-.3.32,0,.32.41.14A.49.49,0,0,0,37.31,10.44Z"/><ellipse class="n" cx="38.16" cy="10.57" rx="0.16" ry="0.13" transform="translate(-0.93 16.88) rotate(-24.65)"/><path class="n" d="M37,10.67a.14.14,0,0,1-.17.1c0-.08,0-.17,0-.25h.08A.15.15,0,0,1,37,10.67Z"/><path class="v" d="M37.66,9.75a.44.44,0,0,1,.31,0"/><path class="m" d="M38.56,8.48a1.89,1.89,0,0,0-1.86.46c-.24.26-.06.53.24.63a5.25,5.25,0,0,0,1.59-.11l.43,1.1,0,.58,0,.18c0-.06.19-.23.22-.27a1,1,0,0,0,.22-.41A2.28,2.28,0,0,0,39.27,9,1.19,1.19,0,0,0,38.56,8.48Z"/><path class="j" d="M38.87,10.4s.22-.33.47-.17S39.27,11,39,11,38.87,10.4,38.87,10.4Z"/><path class="k" d="M37.27,11.17a2.49,2.49,0,0,0,.49-.1c.13-.06.05.17-.22.23S37.27,11.17,37.27,11.17Z"/><path class="v" d="M37.13,9.75a.44.44,0,0,0-.31,0"/><path class="k" d="M39.2,15.09H40l.23,1.11s-.62.23-.81,0A3,3,0,0,1,39.2,15.09Z"/><path class="i" d="M37.72,11.92l.54.91.28.39a2.35,2.35,0,0,0,.82-.88A1.43,1.43,0,0,1,39.07,11a.15.15,0,0,1-.19-.09A1.21,1.21,0,0,1,37.72,11.92Z"/><path class="w" d="M40,12.2a6.19,6.19,0,0,0,0,3.28c.5,1.75,2.15,5.45,2,7a1.47,1.47,0,0,0,1-.69c.48-.68-.14-7.15-.6-8.18S40,12.2,40,12.2Z"/><path class="w" d="M37.72,12.31s-1,2.65,0,7.66l-.39,0s-1.26-5-.73-7.37A3.35,3.35,0,0,1,37.72,12.31Z"/><path class="k" d="M38.53,13.32l.09-.63a1.23,1.23,0,0,0,.54-.63s.64,0,0,1.19l-.25-.3Z"/><path class="k" d="M37.94,12.31a1,1,0,0,0,.34.38l.25.63L38,12.77Z"/><path class="t" d="M39.85,14.66a4.77,4.77,0,0,1,1.68-2c1-.45-1.14-1-1.44-.63A3.88,3.88,0,0,0,39.85,14.66Z"/><path class="k" d="M38.53,13.32a12,12,0,0,1,.54,2.77,21.88,21.88,0,0,1,.07,2.8,6.12,6.12,0,0,1-.82-2.73A8,8,0,0,1,38.53,13.32Z"/><path class="t" d="M37.31,14.57S36.73,13,37,12.49s.86-.29.86-.29A7.88,7.88,0,0,0,37.31,14.57Z"/><path class="t" d="M41.88,12.91c-.73-.16-2.32,3.35-2.1,4.12s.84,1.08,1.25.44a12.71,12.71,0,0,0,1.35-3.27A1.65,1.65,0,0,0,41.88,12.91Z"/><path class="t" d="M40,16.38s.85.73.62,1.44c0,0-.75.25-5.22-1.43v-.53A10.92,10.92,0,0,1,40,16.38Z"/><path class="j" d="M35.94,16.16c0,.21-.45.19-.45.19s-.24,0-.37,0,0,.16-.06.16-.1-.25-.1-.25-.13.27-.18.25,0-.29,0-.29-.15,0-.16,0a1,1,0,0,1-.06.16c0,.06-.07.11-.1.09s0-.36,0-.36h-.11s-.1.24-.2.1a.54.54,0,0,1,.2-.37,1.8,1.8,0,0,1,.64-.19,2.24,2.24,0,0,1,.75.08C35.75,15.87,36,15.95,35.94,16.16Z"/><path class="i" d="M35,16.3s0-.16.05-.19a1.6,1.6,0,0,1,.23-.05,1.14,1.14,0,0,0-.29,0c-.11,0-.07.35-.07.35Z"/><path class="i" d="M34.92,16a.32.32,0,0,0-.14.07.58.58,0,0,0,0,.2s-.15,0-.16,0a1,1,0,0,1-.06.16.9.9,0,0,1,.09-.35C34.68,16,34.89,16,34.92,16Z"/><path class="i" d="M34.58,16s-.17.1-.19.21h-.11A.35.35,0,0,1,34.58,16Z"/><path class="i" d="M35.94,16.16c0,.21-.45.19-.45.19s-.24,0-.37,0,0-.09,0-.13.18,0,.21,0a.45.45,0,0,0,.24,0C35.68,16.16,35.82,16.33,35.94,16.16Z"/><ellipse class="x" cx="37.76" cy="10.34" rx="0.21" ry="0.24"/><ellipse class="x" cx="37.03" cy="10.35" rx="0.21" ry="0.24"/><path class="x" d="M37.24,10.35s.06-.13.31,0"/><path class="x" d="M38,10.34a2.84,2.84,0,0,1,1-.08"/><path class="p" d="M8,18v13a.27.27,0,0,0,.27.27h7a.27.27,0,0,0,.27-.27V18a.27.27,0,0,1,.27-.27H77.29a.27.27,0,0,1,.27.27v13a.27.27,0,0,1-.27.27h-7a.27.27,0,0,1-.27-.27V18a.27.27,0,0,0-.27-.27H8.23A.27.27,0,0,0,8,18Z"/><path class="s" d="M77.29,17.76a.27.27,0,0,1,.27.27v13a.27.27,0,0,1-.27.27h-7a.27.27,0,0,1-.27-.27V18a.27.27,0,0,0-.27-.27H8.23A.27.27,0,0,0,8,18v13a.27.27,0,0,0,.27.27"/><path class="u" d="M7.3,16.9h63.2a0,0,0,0,1,0,0v.68a0,0,0,0,1,0,0H7.94a.64.64,0,0,1-.64-.64v0a0,0,0,0,1,0,0Z"/><path class="y" d="M70.49,16.73h7.72a0,0,0,0,1,0,0v0a.8.8,0,0,1-.8.8H70.49a0,0,0,0,1,0,0v-.85A0,0,0,0,1,70.49,16.73Z"/><path class="k" d="M71.5,16.53H6.91a.13.13,0,0,0-.13.13V17a.13.13,0,0,0,.13.13H71.5Z"/><path class="z" d="M78.58,16.53H70.2a.13.13,0,0,0-.13.13V17a.13.13,0,0,0,.13.13h8.38a.15.15,0,0,0,.15-.15v-.34A.15.15,0,0,0,78.58,16.53Z"/><path class="i" d="M8.49,8.69a3,3,0,0,1-1.07.07h-.1c.27.39.11.42.11.42-.3-.49-.77-.34-.85-.83a.3.3,0,0,1,.05-.24A.36.36,0,0,1,7,8a4.1,4.1,0,0,0,.95,0c.24,0,.16.08.16.08h.06c.16,0,.27-.08.22,0s-.5.25-.5.25c.68,0,.75-.17.71,0s-.64.27-.66.27C8.35,8.66,8.56,8.59,8.49,8.69Z"/><path class="i" d="M4.42,12.64l-2.09-4A28,28,0,0,1,7,8.58V8.2s-5-.83-5.61-.22,1.55,5.29,2.27,6,1.07.74,1.07.74Z"/><path class="j" d="M3.41,10S4.52,8.5,5.5,9.31s1.41,2.07.62,2.58C5.15,12.51,2.68,11.3,3.41,10Z"/><path class="i" d="M6.24,11.77s-.41.25,0,1L5,13.58a1.59,1.59,0,0,0-.32-1.65A2.1,2.1,0,0,1,6.24,11.77Z"/><polygon class="i" points="17.53 26.41 18.6 27.9 18.27 28.39 16.83 26.85 17.53 26.41"/><path class="h" d="M20.51,27.79a1.4,1.4,0,0,0-.28.19h0a3.31,3.31,0,0,1-1.41-.15s-.37-.39-.37-.39a1.5,1.5,0,0,0-.54.84c.13.11.77.79.81.83l.06.06a2.85,2.85,0,0,0,.68.34l.08-.1a.78.78,0,0,1-.26-.39.38.38,0,0,1,.22-.11c.18,0,.49-.07.56-.15l.81-1A.51.51,0,0,0,20.51,27.79Z"/><path class="a" d="M6.45,19.37s-1,2.46,1.08,3.53c1.16.6,4.53.42,4.53.42A20.76,20.76,0,0,0,17,27.63a3.44,3.44,0,0,0,1-.83s-3.58-4.51-4.52-5.45-4.08-1.43-4.08-1.43l-.44-1.77Z"/><polygon class="j" points="19.76 25.62 21.3 26.62 21.16 27.2 19.27 26.29 19.76 25.62"/><path class="h" d="M23,25.82a1.4,1.4,0,0,0-.19.27h0a3.31,3.31,0,0,1-1.37.37s-.49-.23-.49-.23a1.5,1.5,0,0,0-.2,1c.16.06,1,.45,1.05.48l.08,0a2.85,2.85,0,0,0,.76.07l0-.12a.78.78,0,0,1-.38-.27s0-.08.16-.18.43-.24.47-.34l.39-1.23A.51.51,0,0,0,23,25.82Z"/><path class="b" d="M6.79,19.42a2.79,2.79,0,0,0,2.38,3.36c3,.54,4.7.78,4.7.78a23,23,0,0,0,5.63,3.18,3.44,3.44,0,0,0,.79-1S15.94,22,14.85,21.21,10,19.92,10,19.92l-.87-1.77Z"/><path class="l" d="M6.37,19.64A3.53,3.53,0,0,0,9.31,18.5a30.92,30.92,0,0,1,0-3.63c.22-1-2.17-2.9-3.47-2.45s-1.78.93-1.54,2S6.23,17.69,6.37,19.64Z"/><path class="h" d="M5.45,12.3s1.86-.35,2.47.47,1,5.68.8,9.35c0,0-2.68,1.17-4,.45l1-3.47s-1.47-3.27-1.82-4.43A1.75,1.75,0,0,1,5.45,12.3Z"/><path class="aa" d="M5.53,8.89a1.37,1.37,0,0,1,.82,1.9A2.59,2.59,0,0,0,6,13.2a2.11,2.11,0,0,1-1,2.74.86.86,0,0,1-1-.34c-.41-.56.34-2.08-.4-2.95s-1.32-3,.78-3.55A.94.94,0,0,1,5.53,8.89Z"/><path class="j" d="M6.66,12.39a3,3,0,0,0,1.45,1.42l-1-6.64-.33-5H6.29a49.28,49.28,0,0,0-.07,4.93C6.39,7.67,6.66,12.39,6.66,12.39Z"/><path class="j" d="M6.57.5c-.12,0-.26.76-.31,1l0,.1c-.31-.35-.38-.21-.38-.21.41.41.16.83.61,1a.3.3,0,0,0,.24,0,.36.36,0,0,0,.21-.32,4.1,4.1,0,0,1,.17-.93c.07-.23,0-.18,0-.18l0-.06c.07-.15.14-.25,0-.22s-.35.44-.35.44C6.91.5,7.08.46,7,.47s-.4.56-.41.58C6.57.64,6.69.45,6.57.5Z"/><path class="p" d="M1.75,15.35l2.58,8.56a.6.6,0,0,0,.58.43H7.66a.6.6,0,0,1,.6.6v5.82a.6.6,0,0,1-.6.6h4.54a.6.6,0,0,0,.6-.6V24.94a.6.6,0,0,0-.6-.6H9.45a.6.6,0,0,1-.58-.43l-2.5-8.3a1.46,1.46,0,0,0-1.4-1H2.33A.6.6,0,0,0,1.75,15.35Z"/><path class="r" d="M7.19,20.21H3.68a.64.64,0,0,1-.62-.46L1.88,15.84a.41.41,0,0,1,.39-.53H5.79a.64.64,0,0,1,.62.46l1.18,3.91A.41.41,0,0,1,7.19,20.21Z"/><path class="q" d="M6.71,20.21h-3a.64.64,0,0,1-.62-.46L1.88,15.84a.41.41,0,0,1,.39-.53h3a.65.65,0,0,1,.62.46L7.1,19.68A.41.41,0,0,1,6.71,20.21Z"/><path class="r" d="M5.19,22.62h7.48a0,0,0,0,1,0,0v.08a1.3,1.3,0,0,1-1.3,1.3H6.49a1.3,1.3,0,0,1-1.3-1.3v-.08a0,0,0,0,1,0,0Z" transform="translate(17.86 46.62) rotate(180)"/><rect class="q" x="4.86" y="23.49" width="8.15" height="0.8" rx="0.38" ry="0.38" transform="translate(17.86 47.79) rotate(180)"/><path class="ab" d="M4.11,31.36h8.09a.6.6,0,0,0,.6-.6V24.94a.6.6,0,0,0-.6-.6H9.45a.6.6,0,0,1-.58-.43l-2.5-8.3a1.46,1.46,0,0,0-1.4-1H2.33"/><path class="a" d="M33.69,16.53v-.45l2.1.2a.15.15,0,0,1,.13.15v.1Z"/><path class="b" d="M33.69,16.08h-3.5a.15.15,0,0,0-.15.15v.3h3.65Z"/><path class="z" d="M67.45,10.8a3.76,3.76,0,0,0-.62.2L68,13.89a20,20,0,0,1,2.7-.31v-.3Z"/><path class="k" d="M69.88,11.84A3.76,3.76,0,0,0,67,10.71l1.43,2.65a5.75,5.75,0,0,1,2.44,0Z"/><path class="k" d="M67,11.07l1.16,2.58a10.77,10.77,0,0,1,2.49-.18,11,11,0,0,0-2.37,0Z"/><path class="i" d="M59.15,15.5l.72.58a1.93,1.93,0,0,1,1,.45H59.15a3.77,3.77,0,0,0-.19-.45l0,.06-.49-.26Z"/><path class="d" d="M56.48,9.73l.79,3.56,2,2.17a.65.65,0,0,1-.72.62l-2.39-1.41L54.9,10.54Z"/><path class="j" d="M59.28,6.11c-.3-.75-2,0-2.05.56S57.31,8.84,58.5,9,59.55,6.79,59.28,6.11Z"/><path class="i" d="M58.78,7.87s.38.95-.06,1.15S57.36,7.84,58.78,7.87Z"/><path class="j" d="M58.74,8.63a3.23,3.23,0,0,0-.43,1.23s-.63-.23-1.66-.72a2,2,0,0,0,.81-.74l.06-.12A1,1,0,0,1,58.74,8.63Z"/><path class="aa" d="M59.39,6A1.65,1.65,0,0,0,58,5.58a1.35,1.35,0,0,0-1.12,1.76,2,2,0,0,0,.05.22c0,.4.22.74.51.81a1.09,1.09,0,0,0,1.33-.51c-.1-.16-.07-.66.11-.65a.17.17,0,0,1,.18.16,2.34,2.34,0,0,0,.16-1.09C59.41,6.32,59.39,6,59.39,6Z"/><path class="aa" d="M59.22,6.81s.33-.12.17-.32a.37.37,0,0,0,.18-.31.36.36,0,0,0-.09-.25.28.28,0,0,0,0-.37.31.31,0,0,0-.37-.08S59,5,58.65,5.3a.32.32,0,0,0-.53,0s-.35-.36-.57,0c0,0-.57-.28-.57.34,0,0-.59.16-.17.58a.32.32,0,0,0-.15.49.35.35,0,0,0,.15.55s-.22.3.17.48C57,7.78,58.47,6.55,59.22,6.81Z"/><path class="k" d="M56.48,8.81,57,8.37s1.26.06,1.39.84Z"/><path class="q" d="M53.24,31.52a1.94,1.94,0,0,1,0-1s0-.43.15-.52c.59-.39.59.08.59.08.1-.54.54-.17.54-.17s-.06.67.15.75,1,.21.91.75c0,.07,0,.1,0,.13Z"/><path class="a" d="M52.33,15.31s-1.38,3.08,1.09,4.42l1.91,3.45a62.26,62.26,0,0,0-2.06,6.95,2.68,2.68,0,0,0,1.38.07s1.87-5.21,2.56-6.54-.75-6.47-.75-6.47L56,15.88Z"/><path class="q" d="M58.23,31.52a1.94,1.94,0,0,1,0-1s0-.43.15-.52c.59-.39.59.08.59.08.1-.54.54-.17.54-.17s-.06.67.15.75,1,.21.91.75c0,.07,0,.1,0,.13Z"/><path class="b" d="M53.34,16.37s-1,2.62,1.61,3.37L58.68,23l-.41,7.17a2.21,2.21,0,0,0,1.37.16s.9-5.27,1.2-7.64c.19-1.5-4.51-5.28-4.51-5.28l1.24-1.55Z"/><path class="r" d="M54.72,9.28c1.14-1.12,4-.23,4.82.59,1.65,1.7-1.66,3.54-2.24,7.89a8.59,8.59,0,0,1-3.28.78c-2.1,0-2.29-.78-2.29-.78S51.39,12.54,54.72,9.28Z"/><path class="i" d="M61.16,13.75h0l0,0Z"/><path class="j" d="M66.47,12.1a3.42,3.42,0,0,1,.46-.29c.23-.12.23-.07.49,0a.74.74,0,0,1,.36.16s0,.1-.13.1-.3-.06-.38.05.59.3.59.3l.13-.16a.38.38,0,0,1,.1.26c0,.13-.24.21-.31.4s-1.42-.17-1.42-.17Z"/><path class="d" d="M59.62,9.92a1.8,1.8,0,0,0-.75,2.2,17.4,17.4,0,0,0,4.31,1.22c1.3,0,3.63-.28,3.63-.28a.85.85,0,0,0-.35-1l-3.26-.31Z"/><path class="p" d="M46.65,15.35l2.58,8.56a.6.6,0,0,0,.58.43h2.75a.6.6,0,0,1,.6.6v5.82a.6.6,0,0,1-.6.6h4.54a.6.6,0,0,0,.6-.6V24.94a.6.6,0,0,0-.6-.6H54.35a.6.6,0,0,1-.58-.43l-2.5-8.3a1.46,1.46,0,0,0-1.4-1H47.23A.6.6,0,0,0,46.65,15.35Z"/><path class="r" d="M52.09,20.21H48.58a.64.64,0,0,1-.62-.46l-1.18-3.91a.41.41,0,0,1,.39-.53h3.51a.64.64,0,0,1,.62.46l1.18,3.91A.41.41,0,0,1,52.09,20.21Z"/><path class="q" d="M51.61,20.21h-3a.64.64,0,0,1-.62-.46l-1.18-3.91a.41.41,0,0,1,.39-.53h3a.65.65,0,0,1,.62.46L52,19.68A.41.41,0,0,1,51.61,20.21Z"/><path class="r" d="M50.09,22.62h7.48a0,0,0,0,1,0,0v.08a1.3,1.3,0,0,1-1.3,1.3H51.39a1.3,1.3,0,0,1-1.3-1.3v-.08A0,0,0,0,1,50.09,22.62Z" transform="translate(107.66 46.62) rotate(180)"/><rect class="q" x="49.75" y="23.49" width="8.15" height="0.8" rx="0.38" ry="0.38" transform="translate(107.66 47.79) rotate(180)"/><path class="ab" d="M49,31.36h8.09a.6.6,0,0,0,.6-.6V24.94a.6.6,0,0,0-.6-.6H54.35a.6.6,0,0,1-.58-.43l-2.5-8.3a1.46,1.46,0,0,0-1.4-1H47.23"/><path class="b" d="M33.13,14.55H26.94a.39.39,0,0,1-.38-.35l-.42-4.69a.31.31,0,0,1,.32-.35h6.19a.39.39,0,0,1,.38.35l.42,4.69A.31.31,0,0,1,33.13,14.55Z"/><path class="a" d="M32.89,14.55H26.7a.39.39,0,0,1-.38-.35L25.9,9.52a.31.31,0,0,1,.32-.35h6.19a.39.39,0,0,1,.38.35l.42,4.69A.31.31,0,0,1,32.89,14.55Z"/><path class="a" d="M27.36,16.53h3.37l-.25-.26a.21.21,0,0,0-.13-.06L29,16.06l1-1.94-.25-1.49H28.58L28,16.07l-.46.12a.21.21,0,0,0-.15.15Z"/><path class="b" d="M28,16.53l.6-3.72a.2.2,0,0,1,.2-.17h.76a.2.2,0,0,1,.19.26l-1.13,3.63Z"/><path class="a" d="M64.69,16.23v.3H58.81v-.1a.15.15,0,0,1,.13-.15l2.1-.2h3.5A.15.15,0,0,1,64.69,16.23Z"/><path class="b" d="M64.69,16.23v.3H62.15v-.1a.15.15,0,0,1,.13-.15l2.1-.2h.16A.15.15,0,0,1,64.69,16.23Z"/></svg>