<svg xmlns="http://www.w3.org/2000/svg" viewBox="0 0 100 100"><defs><style>.a{fill:#527e85;}.b{fill:#564b44;}.c{fill:#b54f4f;}.d{fill:#dfab4a;}.e{fill:#c78667;}.f{fill:#2d4553;}.g{fill:#de9f7b;}.h{fill:#6b9da0;}.i{fill:#eec058;}.j{fill:#c96361;}.k{fill:#fff;}.l{fill:#304951;}.m{fill:#d37c67;}.n{fill:#c47651;}</style></defs><title>experiencia</title><path class="a" d="M38.94,76.65S40,67,32.85,63.54s-5.81-8-1.38-4.07,5.81,4.07,5.81,4.07-.28-6.77-5.81-9.66S24.7,44,27.81,42.39s2.28,2.88,2.56,5.18,5.26,6.3,5.26,6.3-.83-4.81,1.94-8.42,2.49-7.59,0-9.89-2.14-11.66,2-11.68,1.14,2.22,0,5.8,4.55,6.31,2.95,9.79c0,0,5-.23,5.42-3.91s5.71-3.12,4,2.27-9.46,4.55-9.46,4.55-3.85,4.21-3.28,7.37c0,0,3.72-1.31,6.16,1.61s3-6,6.58-5.43,2.21,5-1.94,7.94-6.49-6.44-9.93,0a7.14,7.14,0,0,0,2.4,9.87s5.24-3.83,5.42,0-4,3.59-5,5.51,0,7.39,0,7.39Z"/><polygon class="b" points="47.52 99.02 49.18 73.88 30.25 73.88 31.91 99.02 47.52 99.02"/><path class="c" d="M60.8,3.28a15.56,15.56,0,0,1,1,9c-.85,5.44-5.42,11-5.42,11s-3.77-.58-5.36-3,.63-8.14-.39-11.45S60.8,3.28,60.8,3.28Z"/><path class="d" d="M61.33,16.58c3.06.05,4.46,1.19,5.52,3.79.77,1.88,3.93,10.28,3.93,10.28s.91-.24,1.14.56c.8,2.75.94,6.33-4.42,5.05C62.49,35.06,61.33,16.58,61.33,16.58Z"/><path class="e" d="M70.86,29.05c1,.06.39,3.29-.44,3.19S70,29,70.86,29.05Z"/><path class="e" d="M57.23,52.73l11.2-6.22c1.4,12.76-6.18,20.45-6.81,23.44-.32,1.51-5.87,21.88-5.64,22.89A11.77,11.77,0,0,0,58.82,97h0a2.53,2.53,0,0,1,.92.49,2,2,0,0,1,.33.36H56.31a5.16,5.16,0,0,1-.73-1,1.75,1.75,0,0,0-1.74-.74c-.35.31-.41,1.72-.42,2.05H53a8,8,0,0,1-.53-2.89c.14-.55.56-1.81.72-2.42.84-3.25,1.53-4.1,2.06-13,.29-4.88,0-8.56,2-11C57.24,68.85,58.17,63.48,57.23,52.73Z"/><path class="f" d="M56.31,98.2c-.38,0-1.11-.79-1.63-1.19a1.31,1.31,0,0,0-.76-.36,2.7,2.7,0,0,0-.5,1.55H53a8,8,0,0,1-.53-2.89A12.59,12.59,0,0,0,53,93c1.39-.79,2.58,1.88,4.37,3.39.9.76,1.46.63,1.46.63h0a4.87,4.87,0,0,1,1.11.34,1.77,1.77,0,0,1,.86.86Z"/><path class="a" d="M66.19,36.26S77.11,52,56.4,90.68l-2-1.22s-.54-15.77,1.67-20.52S59.4,38.46,59.4,38.46Z"/><path class="g" d="M68.14,97.84a5.16,5.16,0,0,1-.73-1,1.75,1.75,0,0,0-1.74-.74c-.35.31-.41,1.72-.42,2.05H64.8a8,8,0,0,1-.53-2.89c.14-.55.54-1.81.72-2.42a2,2,0,0,0,.1-.49,69.68,69.68,0,0,0-5.14-14.83c-2.34-4.52-3.1-6.32-3.57-10.37s-4.65-5.85-4.65-13.94c0-5.71,5.68-14.34,7.82-5.58S62,67.19,62.33,69.34s3.57,17.19,5.49,23.49A13.4,13.4,0,0,0,70.65,97h0a2.53,2.53,0,0,1,.92.49,2,2,0,0,1,.33.36Z"/><path class="f" d="M68.14,98.2c-.38,0-1.11-.79-1.63-1.19a1.31,1.31,0,0,0-.76-.36,2.7,2.7,0,0,0-.5,1.55H64.8a8,8,0,0,1-.53-2.89A12.59,12.59,0,0,0,64.82,93c1.39-.79,2.58,1.88,4.37,3.39.9.76,1.46.63,1.46.63h0a4.87,4.87,0,0,1,1.11.34,1.77,1.77,0,0,1,.86.86Z"/><path class="h" d="M66.19,36.26s.56,12.82-3.25,17.16l4.2,36.42-2.91.85S42,48.28,56,36.73Z"/><path class="i" d="M61.33,16.58s-1.68-.07-4.93,0c-2.85.06-5.16-.54-6.78,1.5-2.43,3.06,1.52,8.71,3.6,11.64a17.44,17.44,0,0,1,2.74,7s5.49,1.6,10.23-.48l.35-6.74S69.76,22.5,61.33,16.58Z"/><path class="d" d="M57.52,17.85l2.89,2.09A4.73,4.73,0,0,0,58,16.13,1.42,1.42,0,0,1,57.52,17.85Z"/><path class="c" d="M66.2,29.5v1.61h-.36a.11.11,0,0,1-.11-.11V29.62a.11.11,0,0,1,.11-.11h.36m.75-.75H65.85a.86.86,0,0,0-.86.86V31a.86.86,0,0,0,.86.86H67V28.75Z"/><rect class="j" x="66.52" y="28.12" width="4.1" height="4.5" rx="0.55" ry="0.55"/><path class="g" d="M63.08,30.82s.8-1.14,1.28-1.21a2.44,2.44,0,0,0,.62-.14v.67s1.48-.43,1.53,0-.29.54-.25,1a1.55,1.55,0,0,1-.74,1.35,11.55,11.55,0,0,1-2.27.14Z"/><path class="d" d="M50.24,17.44c3.6,1.73,2.17,16.44,2.17,16.44a73.38,73.38,0,0,1,10.7-3.39,2.13,2.13,0,0,1,.62,2.25S55,41.07,49.59,39.52s-2.9-14.11-2.07-17A14.57,14.57,0,0,1,50.24,17.44Z"/><path class="g" d="M70.16,30.11l.37.15a3.57,3.57,0,0,0-.72.31c-.07.09-.36.39-.36.39a.23.23,0,0,0,.37.07,1.37,1.37,0,0,1,.68-.22s-.38.22-.41.37a4.9,4.9,0,0,1-.18.49s.11.18.27,0l.05,0c.06-.09.13-.19.18-.2s.43-.16.5-.33-.13-.24-.13-.24a.34.34,0,0,0,.27-.24.32.32,0,0,0-.18-.33s.28-.14.21-.34-.32-.25-.32-.25a.36.36,0,0,0,.2-.3.48.48,0,0,0-.11-.3,1.18,1.18,0,0,0-.41,0,4.21,4.21,0,0,0-1,.53s.1.36.32.18a.7.7,0,0,1,.75-.1l-.59.11-.63.39s.15.31.3.23Z"/><path class="k" d="M68.92,27.3a2.66,2.66,0,0,1-.85-2,5.9,5.9,0,0,1,.48-2.17,5.74,5.74,0,0,0-.2-4,4.15,4.15,0,0,1,.91,4.23,8.8,8.8,0,0,0-.61,2A3.4,3.4,0,0,0,68.92,27.3Z"/><path class="g" d="M53,3.59s6.06-2,7.28,2.24,0,8.73-3.28,8.62C53,14.32,48.3,6,53,3.59Z"/><ellipse class="l" cx="57.35" cy="8.45" rx="0.31" ry="0.5" transform="translate(-0.43 3.75) rotate(-3.73)"/><ellipse class="m" cx="56.64" cy="9.65" rx="0.47" ry="0.58" transform="matrix(0.1, -0.99, 0.99, 0.1, 41.11, 64.97)"/><path class="l" d="M56.87,8.4s.14-.63.37-.64.6.4.6.4l.41-.3L57.85,8s-.34-.48-.65-.38S56.87,8.4,56.87,8.4Z"/><ellipse class="l" cx="59.88" cy="8.06" rx="0.31" ry="0.5" transform="matrix(1, -0.06, 0.06, 1, -0.4, 3.91)"/><path class="l" d="M59.4,8s.14-.63.37-.64.6.4.6.4l.41-.3-.39.15s-.34-.48-.65-.38S59.4,8,59.4,8Z"/><path class="c" d="M56.53,7a.13.13,0,0,0,.1-.06.84.84,0,0,1,.75-.35.13.13,0,0,0,0-.25,1.08,1.08,0,0,0-1,.46.13.13,0,0,0,0,.17Z"/><path class="c" d="M59.33,6.32l.07,0a.83.83,0,0,1,.82-.1.13.13,0,0,0,.1-.23,1.08,1.08,0,0,0-1.08.14.13.13,0,0,0,.09.22Z"/><path class="n" d="M59.42,8.86s1.08,0,1,.39a2.55,2.55,0,0,1-.73.88S59.18,9.34,59.42,8.86Z"/><path class="c" d="M55.42,5.79a6.91,6.91,0,0,0-1.32,4.06s-1-1.25-1.55-.16,1.6,2.67,1.6,2.67,0,2.75-1,2.79-3.42-5.24-2.86-7A3.49,3.49,0,0,1,55.42,5.79Z"/><path class="e" d="M54.23,11.39c.47,1.25,2.25,3.42,4.14,2.8,0,0-.91,1.75-.12,2.43,0,0,0,2.7-4.15.63l-.53-5.63A.41.41,0,0,0,54.23,11.39Z"/><path class="k" d="M59.4,11.39a11.53,11.53,0,0,1-1.4.31S59.19,12.18,59.4,11.39Z"/><path class="c" d="M60.8,3.28c-2.22-3-5.62-2.42-8.39-1.88s-3.77,5-2.87,10.44S48.3,18,48.23,20.62a5.89,5.89,0,0,1,3.53-3.45c1.48-.43,4.49-1.52,3.28-6.35-1.37-5.47,3.2-3,4.57-7.06L61.39,8S61.55,4.28,60.8,3.28Z"/><path class="d" d="M54,16.13a8.89,8.89,0,0,0,3.53,1.73L56.4,20.62s-3.51-2.8-3.57-3.58S54,16.13,54,16.13Z"/></svg>