<svg xmlns="http://www.w3.org/2000/svg" viewBox="0 0 100 41"><defs><style>.a,.d,.w{fill:none;stroke-linecap:round;stroke-width:2.25px;}.a{stroke:#59595b;}.a,.d{stroke-miterlimit:10;}.b{fill:#273c3f;}.c{fill:#6b9da0;}.d,.w{stroke:#7f7f80;}.e{fill:#b54f4f;}.f{fill:#375b6a;}.g{fill:#c78667;}.h{fill:#de9f7b;}.i{fill:#4d463d;}.j{fill:#6d6559;}.k{fill:#304951;}.l{fill:#d37c67;}.m{fill:#c47651;}.n{fill:#fff;}.o{fill:#c96361;}.p{fill:#cbcdce;}.q{fill:#b6b8b9;}.r{fill:#e1e2e3;}.s{fill:#caf4ff;}.t{fill:#2d4553;}.u{fill:#b28bb4;}.v{fill:#96719b;}.w{stroke-linejoin:round;}</style></defs><title>flujo-01</title><path class="a" d="M89.84,18.75l-3.2,10.62a.75.75,0,0,1-.72.53H82.52a.75.75,0,0,0-.75.75v7.21a.75.75,0,0,0,.75.75H76.89a.75.75,0,0,1-.75-.75V30.64a.75.75,0,0,1,.75-.75H80.3a.75.75,0,0,0,.72-.53l3.1-10.29a1.81,1.81,0,0,1,1.74-1.29h3.27A.75.75,0,0,1,89.84,18.75Z"/><path class="b" d="M83.1,24.78h4.35a.8.8,0,0,0,.76-.57l1.46-4.85a.51.51,0,0,0-.49-.65H84.84a.8.8,0,0,0-.76.57l-1.46,4.85A.51.51,0,0,0,83.1,24.78Z"/><path class="c" d="M83.1,24.78h3.76a.8.8,0,0,0,.76-.57l1.46-4.85a.51.51,0,0,0-.49-.65H84.84a.8.8,0,0,0-.77.57l-1.46,4.85A.51.51,0,0,0,83.1,24.78Z"/><path class="c" d="M78,27.77h5.87a1.7,1.7,0,0,1,1.7,1.7v0a0,0,0,0,1,0,0H76.3a0,0,0,0,1,0,0v0A1.7,1.7,0,0,1,78,27.77Z"/><rect class="b" x="75.88" y="28.85" width="10.11" height="0.99" rx="0.5" ry="0.5"/><path class="d" d="M85.85,17.78h3.27a.75.75,0,0,1,.72,1l-3.2,10.62a.75.75,0,0,1-.72.53H82.52a.75.75,0,0,0-.75.75v7.21a.75.75,0,0,0,.75.75h4.4"/><path class="e" d="M83.67,14.61c-.73-.35-2.59-.11-2.63.42a1.32,1.32,0,0,0,1.76,1.06C83.69,15.66,84.26,14.89,83.67,14.61Z"/><path class="f" d="M83.67,11A1.43,1.43,0,0,1,85,10.6c.88.17.16,1.76.39,2.21s.81.61.57,1.15-.58,1,0,1.48.29.95-.56.42-.64-1.27-.75-1.63-.36.36-.68-.83A10.16,10.16,0,0,1,83.67,11Z"/><path class="g" d="M79.5,20.35c.47-1.23.93-2.65.93-2.65l.34-2.42c-1.19-.08-1.56,1.43-1.82,2.25s-.79,2.31-1,2.83Z"/><path class="h" d="M74.41,34.8a.72.72,0,0,1,0-.17c.1-.4.32-1.34.68-2.45h-1c-.24,1-.48,1.94-.69,2.6a4.78,4.78,0,0,1-1,1.48h0a.9.9,0,0,0-.33.17.72.72,0,0,0-.12.13h1.35a1.84,1.84,0,0,0,.26-.34.63.63,0,0,1,.62-.26c.13.11.15.61.15.73h.16a2.85,2.85,0,0,0,.19-1C74.62,35.47,74.48,35,74.41,34.8Z"/><path class="g" d="M79.46,36.91a15.65,15.65,0,0,1-.73-4.64v-.09H77.34c.56,2.14,1.16,4.51,1.11,4.71a4.2,4.2,0,0,1-1,1.48h0a.9.9,0,0,0-.33.17.72.72,0,0,0-.12.13h1.35a1.84,1.84,0,0,0,.26-.34.63.63,0,0,1,.62-.26c.13.11.15.61.15.73h.16a2.85,2.85,0,0,0,.19-1C79.67,37.58,79.52,37.13,79.46,36.91Z"/><path class="i" d="M82.75,27.77a5.78,5.78,0,0,0,.86.1c2.44-.18,2.07-1.45,1.86-2.27a17.52,17.52,0,0,0-1.09-3.21,4.5,4.5,0,0,1-1.07.17,15.13,15.13,0,0,1-1.75,0l-.44,0-.43,0a14.9,14.9,0,0,0-.84,3.33l0,.21c-.17,1-.81,2.17-.24,2.23A5.4,5.4,0,0,0,82.75,27.77Z"/><path class="j" d="M82.88,23.84a19.18,19.18,0,0,0-6.38,0c-.5.27-1.09,2.31-1.13,2.56-.11.66-1.07,4.45-1.74,7a1.56,1.56,0,0,0,1.22.26,22.67,22.67,0,0,1,1.37-4.33,9.43,9.43,0,0,0,1.19-3.11c2.33.14,6,2,6,2A5.92,5.92,0,0,0,82.88,23.84Z"/><path class="i" d="M78.24,36.17a1.46,1.46,0,0,0,1-.43,16.88,16.88,0,0,1-.54-3.47c-.1-1.74,0-3.05-.72-3.93A12.81,12.81,0,0,0,82.32,28l-1.06-2.6c-2.34-.47-3.3.55-3.94.56-1,0-1.11,1.75-.88,2.81C76.53,29.16,77.75,34.06,78.24,36.17Z"/><path class="j" d="M81.84,23.77a12.72,12.72,0,0,0-5.34.07c-.5.27.58,2.08,1.12,2,2.33.14,3.73,2.53,6.63,2.38a2,2,0,0,0,1.65-2.44,7.15,7.15,0,0,0-1.53-3.41l-3.69.08C80.65,23.38,81.84,23.77,81.84,23.77Z"/><path class="b" d="M80.78,15.27a18.47,18.47,0,0,0,2,.07,2.79,2.79,0,0,1,2.33.63c.73.89.1,2.46-.41,3.63a8.47,8.47,0,0,0-.19,2.9,8.42,8.42,0,0,1-3.86.34L80,20.52A4.23,4.23,0,0,1,80.78,15.27Z"/><path class="f" d="M81.6,10.6s-.87.05-1.13,1.31a1,1,0,0,0,1,1.24L82.23,11Z"/><path class="h" d="M82.18,14.76c-.79.07-1.27-.67-1.36-1.63,0-.1,0-.21,0-.32a4,4,0,0,1,.11-.93c.35-1.48,2.45-.88,2.45-.88C85,11.73,83.55,14.65,82.18,14.76Z"/><ellipse class="k" cx="81.94" cy="12.75" rx="0.17" ry="0.11" transform="matrix(0.02, -1, 1, 0.02, 67.88, 94.47)"/><ellipse class="l" cx="82.22" cy="13.12" rx="0.2" ry="0.16" transform="translate(-1.04 12.78) rotate(-8.83)"/><path class="l" d="M81,13a.17.17,0,0,1-.18.11c0-.1,0-.21,0-.32h0A.18.18,0,0,1,81,13Z"/><path class="k" d="M82.13,12.69s-.06-.21-.14-.21-.2.15-.2.15l-.14-.1.14,0s.11-.17.22-.14S82.13,12.69,82.13,12.69Z"/><ellipse class="k" cx="81.07" cy="12.63" rx="0.17" ry="0.11" transform="translate(67.15 93.49) rotate(-89.09)"/><path class="k" d="M81.25,12.6s-.06-.21-.14-.21-.2.15-.2.15l-.14-.1.14,0s.11-.17.22-.14S81.25,12.6,81.25,12.6Z"/><path class="f" d="M82.22,12.2l0,0a.29.29,0,0,0-.26-.11,0,0,0,0,1,0-.09.37.37,0,0,1,.34.14,0,0,0,0,1,0,.06Z"/><path class="f" d="M81.25,12h0a.28.28,0,0,0-.28,0,0,0,0,0,1,0-.08.37.37,0,0,1,.37,0,0,0,0,0,1,0,.06Z"/><path class="m" d="M81.37,12.89s-.37,0-.33.15.26.29.26.29S81.46,13,81.37,12.89Z"/><path class="g" d="M83.08,13.67c-.14.44-.71,1.21-1.36,1a.84.84,0,0,1-.05.9s.21.54,1.65-.26c0,0-.39,0-.28-.83a1.71,1.71,0,0,1,.28-.77A.14.14,0,0,1,83.08,13.67Z"/><path class="f" d="M84.26,13.53a3.77,3.77,0,0,1-1.19.79c-.1-.4.12-.55.12-.55.23,0,.53-.54.43-.72s-.29-.14-.4,0a1.07,1.07,0,0,1-.41-.75c0-.17.28-.66-.29-.87a2.74,2.74,0,0,0-1.38,0s-.21-.53.46-.79,2.5-.19,2.88.94A2.47,2.47,0,0,1,84.26,13.53Z"/><path class="f" d="M81.61,11s.55,2.25,1.56,2.22,1,.3,1,.3S83.73,10.39,81.61,11Z"/><path class="n" d="M81.25,13.67l.52.13S81.4,14,81.25,13.67Z"/><path class="h" d="M83,19.94l.6,1.32A11,11,0,0,0,85.4,17.9c.43-1.54-.33-1.93-.33-1.93-.58-.21-1,.62-1.56,2.3C83.19,19.2,83,19.94,83,19.94Z"/><path class="g" d="M76.08,19.19a19.9,19.9,0,0,1,3.31.28c1,.26,1,1.13.27,1.33s-3.44-1.05-3.44-1.05Z"/><path class="h" d="M83.61,21.26s0-1.08-.5-1.29-4.2-.79-4.2-.79l-.35.4S82.17,21.66,83.61,21.26Z"/><path class="h" d="M79.4,19.58c0,.26-.56.23-.56.23s-.3,0-.46.05c0,0,0,.19-.07.2s-.12-.31-.12-.31-.16.33-.22.31-.05-.36-.05-.36-.19,0-.2.05a1.21,1.21,0,0,1-.08.19c0,.08-.08.14-.12.12s0-.45,0-.45h-.13s-.12.3-.25.12a.67.67,0,0,1,.25-.46,2.24,2.24,0,0,1,.79-.23,2.77,2.77,0,0,1,.93.1C79.17,19.23,79.43,19.33,79.4,19.58Z"/><path class="g" d="M78.19,19.77s0-.2.06-.24a2,2,0,0,1,.29-.06,1.42,1.42,0,0,0-.36,0c-.13,0-.09.43-.09.43Z"/><path class="g" d="M78.14,19.38a.39.39,0,0,0-.17.09.72.72,0,0,0-.05.25s-.19,0-.2.05a1.21,1.21,0,0,1-.08.19,1.12,1.12,0,0,1,.11-.43C77.84,19.4,78.1,19.38,78.14,19.38Z"/><path class="g" d="M77.72,19.37s-.21.13-.24.26h-.13A.43.43,0,0,1,77.72,19.37Z"/><path class="g" d="M79.4,19.58c0,.26-.56.23-.56.23s-.3,0-.46.05,0-.11,0-.17.22,0,.27,0a.55.55,0,0,0,.3,0C79.08,19.58,79.25,19.8,79.4,19.58Z"/><path class="g" d="M74.56,19.51v.21h1.49l.19-.35a2.59,2.59,0,0,0-1.29,0,1.1,1.1,0,0,0-.3.15A.07.07,0,0,0,74.56,19.51Z"/><path class="h" d="M76.42,19.57a.47.47,0,0,1-.44.22,1.83,1.83,0,0,0-.43,0s-.06-.08.09-.12.37-.15.38-.25l-.4-.06a1.1,1.1,0,0,0-.28.06c-.09,0-.11.19-.21.28s-.16.05-.16.05a1.28,1.28,0,0,1,.12-.31l.1-.08a.32.32,0,0,0-.22.12,1.13,1.13,0,0,0-.08.22s-.08.11-.14.08l.08-.36a2.81,2.81,0,0,1-.12.33c0,.05-.09,0-.06-.27a.51.51,0,0,0,0,.22s-.08.05-.09,0,0-.25.15-.25c0,0,.1-.2.25-.13a1.94,1.94,0,0,1,.36-.15,1,1,0,0,1,.28,0S76.7,19.12,76.42,19.57Z"/><path class="e" d="M81.11,15.3a2.5,2.5,0,0,0-1.4,2.07c-.25,1.65.22,1.82.22,1.82s0-.49.25-.3.18.29.38.26a.2.2,0,0,1,.24.14s.16.14,0-.68-.09-2.14.37-2.41S81.11,15.3,81.11,15.3Z"/><path class="o" d="M83.67,14.61s-1.54,1-2.27.56-.29.39-.29.39-.55.56-.13,1a1.68,1.68,0,0,0,2.21,0,5.81,5.81,0,0,1,1.58-.86,2.13,2.13,0,0,0-.61-.44C83.8,15.11,84.44,14.59,83.67,14.61Z"/><path class="b" d="M79.73,38.81a3.33,3.33,0,0,0,0-1.5c-.2-.63.14-.82-.14-.91s-.68.25-.86.63c0,0,.07-.75-.43-.75s-.11.7-.16.93a2,2,0,0,1-.75,1c-.27.09-.52.16-.48.59Z"/><path class="b" d="M74.69,36.76a3.33,3.33,0,0,0,0-1.5c-.2-.63.14-.82-.14-.91s-.68.25-.86.63c0,0,.07-.75-.43-.75s-.11.7-.16.93a2,2,0,0,1-.75,1c-.27.09-.52.16-.48.59Z"/><path class="b" d="M8,6.34a4.46,4.46,0,0,0-1.8-.14c-.79.16-.56,1.15-.56,1.15l1.76-.06.89.06Z"/><path class="b" d="M10.48,7.45c.9,1.24,1.69,6.26,1.69,6.26L15,11.41l.66.38s-2.21,3.45-3.45,4.09S9.8,13.44,9.8,13.44Z"/><path class="b" d="M5.7,38.81v-.35c0-.4.37-1.12.37-1.39s1,.22,1,.22a1.28,1.28,0,0,0,.35.77,1,1,0,0,1,.25.74Z"/><path class="b" d="M12.71,38.81l-.18-.08-.08.08h-.68a2.4,2.4,0,0,1-.09-1.45c.24-.6,1-.44,1-.44a3.47,3.47,0,0,0,.8.83c.29.13,1.41.58,1.54.87,0,.09,0,.15,0,.19Z"/><path class="c" d="M10.43,16.57c.39,5.58,1.44,12.9,2.58,20.6,0,0-.22.36-1.49.17L7.61,21a.11.11,0,0,0-.22,0c0,1.23-.44,5-.23,16.36a1.56,1.56,0,0,1-1.38,0s-2.52-16.8-1.94-20Z"/><path class="n" d="M10.78,11c0,.1,0,.2,0,.3,0,.26,0,.53,0,.8,0,.1,0,.2,0,.3,0,.29,0,.59,0,.88v.31c0,.27,0,.54,0,.8,0,.1,0,.21,0,.31,0,.29,0,.57,0,.83,0,.11,0,.21,0,.31s0,.44,0,.63,0,.21,0,.31l0,.57c0,.14,0,.25,0,.34V18A4.65,4.65,0,0,1,8,19.11c-3.13.5-4.2-.63-4.2-.63s0-.17,0-.46c0-.1,0-.21,0-.33l-.07-.77,0-.31c0-.25,0-.52-.07-.81l0-.31-.07-.85,0-.31c0-.24,0-.48-.06-.72s0-.2,0-.31a41.17,41.17,0,0,1-.23-4.7,3.25,3.25,0,0,1,2.37-1.9,4.83,4.83,0,0,1,1.07-.17c.51,0,1,0,1.43,0a3.43,3.43,0,0,1,2.47.85l.05.06a.75.75,0,0,1,.11.26,3.33,3.33,0,0,1,.07.39c0,.09,0,.19,0,.3s0,.46.05.72c0,.1,0,.2,0,.3s0,.44,0,.67v.3C10.78,10.61,10.78,10.83,10.78,11Z"/><path class="h" d="M15.52,10.18a5.2,5.2,0,0,1-.36.66c-.15.2-.41.8.09,1.07s1.55-.45,1.55-.45a.75.75,0,0,0,.22-.72c.16-.15.06-.5.06-.5l.18-.33c-.38-.19-.34.21-.77.56a2.63,2.63,0,0,1-.53.2h0a2.82,2.82,0,0,1-.35.11h0a3.44,3.44,0,0,0,0-.52C15.62,10.09,15.52,10.18,15.52,10.18Z"/><path class="g" d="M16.85,11.22s0-.29-.06-.3a.28.28,0,0,0-.15.14.55.55,0,0,1-.22.41c-.21.16-.1-.85-.1-.85.09.22.44,0,.49-.18s.12-.24.19-.27.1.07.1.07a.16.16,0,0,0-.11,0,.79.79,0,0,0-.23.32c0,.09,0-.09.11-.05a.2.2,0,0,1,.11.12s-.08-.07-.14,0a.57.57,0,0,0-.07.21S17,10.82,16.85,11.22Z"/><path class="g" d="M15.62,10.79a.28.28,0,0,1,.08.4c-.16.23,0,.36,0,.36s.43-.49.28-.87h0A2.82,2.82,0,0,1,15.62,10.79Z"/><path class="p" d="M6.24,6.57S5.58,6.77,6,7s1.16.77,1.9.44S8.64,6.35,6.24,6.57Z"/><path class="k" d="M8.39,6.53s1,.14.89,3.75.25,10,.25,10l1.25-1.08-.14-4.16s.58-6-.16-7.62A2.72,2.72,0,0,0,8.39,6.53Z"/><path class="b" d="M7.74,6.3a3.1,3.1,0,0,1,2.37,1.63l-.49.77.58,1.57-.92,2.33s.18-5.4-1.54-6Z"/><path class="h" d="M9.28,4.53c0,.1-.06.2-.09.3A3.48,3.48,0,0,1,9,5.21a2.5,2.5,0,0,1-.38.67,1.39,1.39,0,0,1-1.79-.16,1.75,1.75,0,0,1-.52-1.64C6.62,2.16,7.83,2,9.12,2.86,9.49,3.11,9.46,3.84,9.28,4.53Z"/><path class="i" d="M9.41,3.34a2.42,2.42,0,0,0-2-.71s-.5,1-.67,1.48c0,0-.5.07-.25,1.12,0,0-.6-.18-.4-1.84C6.27,2,7.16,2.22,7.16,2.22a1.26,1.26,0,0,1,1.35-.45C9.52,1.94,9.92,2.87,9.41,3.34Z"/><ellipse class="k" cx="8.04" cy="3.97" rx="0.2" ry="0.11" transform="translate(2.37 10.91) rotate(-77.06)"/><ellipse class="k" cx="8.98" cy="4.27" rx="0.2" ry="0.11" transform="translate(2.81 12.07) rotate(-77.06)"/><path class="j" d="M9,5.21a2.5,2.5,0,0,1-.38.67,1.39,1.39,0,0,1-1.79-.16,3.46,3.46,0,0,1-.12-1.6L6.81,4a1,1,0,0,0,.68.8A10.2,10.2,0,0,0,9,5.21Z"/><path class="m" d="M8.66,4.37s.13.45.33.43,0,.39-.53.12A.61.61,0,0,1,8.66,4.37Z"/><ellipse class="l" cx="7.62" cy="4.28" rx="0.16" ry="0.2" transform="translate(0.07 8.68) rotate(-59.57)"/><path class="l" d="M9,4.69a.18.18,0,0,0,.2.15c0-.1.06-.2.09-.3l-.1,0A.18.18,0,0,0,9,4.69Z"/><path class="i" d="M7.94,3.37l0,0a0,0,0,0,1,0-.06.58.58,0,0,1,.43,0,0,0,0,0,1,0,.08.5.5,0,0,0-.36,0Z"/><path class="i" d="M9.31,3.86a0,0,0,0,1,0,0c0-.07-.12-.12-.17-.13a0,0,0,0,1,0-.08h0c.1,0,.26.1.24.23a0,0,0,0,1-.05,0Z"/><path class="h" d="M6.75,4.12s-.23-.43-.56-.27,0,.93.31,1S6.75,4.12,6.75,4.12Z"/><path class="n" d="M8.6,5.33l-.7-.08s-.11.38.24.45S8.6,5.33,8.6,5.33Z"/><path class="g" d="M8,6.14A1.11,1.11,0,0,0,8,7,1.42,1.42,0,0,1,6.24,6.9a2.89,2.89,0,0,0,0-2.13l.31,0S6.8,6.14,8,6.14Z"/><path class="k" d="M5.86,6.63a16.36,16.36,0,0,1,1.06,5.8c-.1,2.89-.75,7.89-.75,7.89l-2.64-.57-.15-5.63V8A3.61,3.61,0,0,1,5.86,6.63Z"/><path class="g" d="M3.27,21.28a2.7,2.7,0,0,1,.22.41,2.09,2.09,0,0,1,0,.55s0,0-.07,0,0-.26-.14-.33S3.27,21.28,3.27,21.28Z"/><path class="h" d="M2.34,20.82s.7-.08.86.11c0,0,.12.58.18.76a2,2,0,0,1-.08,1C3,23.05,3,23,2.93,23s.17-.25.19-.36a1.5,1.5,0,0,0-.06-.29.41.41,0,0,1-.16.34c-.14.08-.25.17-.32.12s.2-.26.17-.35,0-.24,0-.24,0,.17-.08.21-.31.24-.35.18.16-.25.16-.34a2,2,0,0,0,0-.2.74.74,0,0,1-.11.17s-.28.15-.29.1.19-.19.21-.38-.06-.53,0-.69A.72.72,0,0,0,2.34,20.82Z"/><path class="b" d="M3.45,7.93a6,6,0,0,1,.8,2.58c0,.48-.94,4.39-.94,4.39s.22,5-.12,6.09c0,0-.72,0-.89-.18a22.81,22.81,0,0,1-.65-6.15C1.82,11.7,2.75,8.59,3.45,7.93Z"/><path class="b" d="M6.24,6.2A1.84,1.84,0,0,0,4.84,7.93l.91.75L5.54,10,6.9,12.88a13.24,13.24,0,0,0-.72-5.32S6,6.4,6.24,6.2Z"/><path class="a" d="M37.17,18.75,34,29.36a.75.75,0,0,1-.72.53H29.85a.75.75,0,0,0-.75.75v7.21a.75.75,0,0,0,.75.75H24.22a.75.75,0,0,1-.75-.75V30.64a.75.75,0,0,1,.75-.75h3.41a.75.75,0,0,0,.72-.53l3.1-10.29a1.81,1.81,0,0,1,1.74-1.29h3.27A.75.75,0,0,1,37.17,18.75Z"/><path class="b" d="M30.43,24.78h4.35a.8.8,0,0,0,.76-.57L37,19.36a.51.51,0,0,0-.49-.65H32.16a.8.8,0,0,0-.76.57l-1.46,4.85A.51.51,0,0,0,30.43,24.78Z"/><path class="c" d="M30.43,24.78h3.76a.8.8,0,0,0,.76-.57l1.46-4.85a.51.51,0,0,0-.49-.65H32.17a.8.8,0,0,0-.77.57l-1.46,4.85A.51.51,0,0,0,30.43,24.78Z"/><path class="c" d="M25.33,27.77H31.2a1.7,1.7,0,0,1,1.7,1.7v0a0,0,0,0,1,0,0H23.62a0,0,0,0,1,0,0v0A1.7,1.7,0,0,1,25.33,27.77Z"/><rect class="b" x="23.21" y="28.85" width="10.11" height="0.99" rx="0.5" ry="0.5"/><path class="d" d="M33.18,17.78h3.27a.75.75,0,0,1,.72,1L34,29.36a.75.75,0,0,1-.72.53H29.85a.75.75,0,0,0-.75.75v7.21a.75.75,0,0,0,.75.75h4.4"/><path class="e" d="M27.85,14.8c-1.18.37-1.84,1.63-3.22,3.23A35,35,0,0,1,23,14l-.64.15s.81,6.22,1.65,6.21,3.59-1.59,4-2.58A6.36,6.36,0,0,0,27.85,14.8Z"/><path class="b" d="M28.28,38.81v-.42c0-.39-.33-1.22-.32-1.48s-1,.18-1,.18a1.45,1.45,0,0,1-.37.86,1.32,1.32,0,0,0-.27.85Z"/><path class="b" d="M22.94,38.81a5.74,5.74,0,0,0-.32-1.86s-.9-.45-1.1.27-1.13.86-1.6.91-.39.49-.39.69Z"/><path class="i" d="M31.45,24.67,27,24.48s-4.76.35-7.07,1.83c-.93.6,1.3,10.92,1.3,10.92h1.7l-.61-8.61s4.87-.14,6.31-.79S31.45,24.67,31.45,24.67Z"/><path class="j" d="M26.72,37.24s-.64-11,0-11.53,6.52-1.29,6.52-1.29,0,3-1.6,3.93a9.67,9.67,0,0,1-2.68,1.15l-.76,7.74Z"/><path class="o" d="M33.2,24.74c.19-2.06,1-7.94.92-8.23-.18-.92-1.6-2.15-3.49-2.24H30a3.22,3.22,0,0,0-2.9,1.23,4.75,4.75,0,0,0-.49,2A31.66,31.66,0,0,0,27,24.48C28.09,25.59,33.2,24.74,33.2,24.74Z"/><path class="g" d="M29.34,13.17a5.52,5.52,0,0,0,.49,2s.25-.49,1.4-.64a3.5,3.5,0,0,1-.08-2.1s-.42,0-.5-.13C30.65,12.32,30.67,13.05,29.34,13.17Z"/><path class="e" d="M30.46,15.58l-.18-.4c-.81.06-1-.33-1-.33l-.25.33a1.19,1.19,0,0,1,.49-1,.61.61,0,0,0,.13.38l.19.41.35-.36c.42.08,1-.47,1-.47l.31.27C31.52,15,30.46,15.58,30.46,15.58Z"/><path class="o" d="M30.28,15.18c-.8.25-1-.33-1-.33.12-.28.27-.25.27-.25l.24.67.37-.41Z"/><path class="e" d="M29.87,15.1s-.15.48-.32,1.23-.35,1.74-.47,2.75c-.06.5-.11,1-.14,1.49l0,.69c0,.22,0,.42,0,.62,0,.38,0,.7,0,.92v0c0-.22,0-.54,0-.92,0-.19,0-.4,0-.62l0-.69c0-.48.06-1,.12-1.49.1-1,.26-2,.42-2.77s.3-1.24.3-1.24Z"/><path class="e" d="M30.07,17.46l1.16.19L31,19.15,29.82,19A10.14,10.14,0,0,1,30.07,17.46Z"/><path class="h" d="M30.24,20.39c0,.26-.56.23-.56.23s-.3,0-.46.05c0,0,0,.19-.07.2s-.12-.31-.12-.31-.16.33-.22.31-.05-.36-.05-.36-.19,0-.2.05a1.21,1.21,0,0,1-.08.19c0,.08-.08.14-.12.12s0-.45,0-.45H28.2s-.12.3-.25.12a.67.67,0,0,1,.25-.46,2.24,2.24,0,0,1,.79-.23,2.77,2.77,0,0,1,.93.1C30,20,30.27,20.13,30.24,20.39Z"/><path class="g" d="M29,20.57s0-.2.06-.24a2,2,0,0,1,.29-.06,1.42,1.42,0,0,0-.36,0c-.13,0-.09.43-.09.43Z"/><path class="g" d="M29,20.18a.39.39,0,0,0-.17.09.72.72,0,0,0-.05.25s-.19,0-.2.05a1.21,1.21,0,0,1-.08.19,1.12,1.12,0,0,1,.11-.43C28.68,20.2,28.94,20.18,29,20.18Z"/><path class="g" d="M28.57,20.18s-.21.13-.24.26H28.2A.43.43,0,0,1,28.57,20.18Z"/><path class="g" d="M30.24,20.39c0,.26-.56.23-.56.23s-.3,0-.46.05,0-.11,0-.17.22,0,.27,0a.55.55,0,0,0,.3,0C29.92,20.39,30.1,20.61,30.24,20.39Z"/><path class="h" d="M31.41,12.2c-.79,1.77-2.78,1.14-2.92.29a3.25,3.25,0,0,1,.11-1.17c0-.1.05-.21.08-.31.21-.69.58-1.32,1-1.33C31.25,9.66,32.2,10.43,31.41,12.2Z"/><path class="f" d="M29.2,9.94a2.42,2.42,0,0,1,2.06.46S31.15,11.53,31,12c0,0,.39.32-.38,1.09,0,0,.6.17,1.31-1.35.62-1.31-.26-1.57-.26-1.57s-.16-.72-1.35-1.09C29.38,8.8,28.87,9.32,29.2,9.94Z"/><ellipse class="k" cx="30.03" cy="11.2" rx="0.2" ry="0.11" transform="translate(9.58 35.88) rotate(-70.81)"/><ellipse class="k" cx="29.08" cy="10.95" rx="0.2" ry="0.11" transform="translate(9.17 34.81) rotate(-70.8)"/><path class="m" d="M29.29,11.21s-.35.32-.51.19-.17.35.38.38A.61.61,0,0,0,29.29,11.21Z"/><path class="n" d="M28.81,12.1s.76.18.82.3-.08.2-.37.12A.56.56,0,0,1,28.81,12.1Z"/><ellipse class="l" cx="30.22" cy="11.69" rx="0.16" ry="0.2" transform="translate(17.64 41.55) rotate(-88.3)"/><path class="l" d="M28.85,11.3a.18.18,0,0,1-.25,0c0-.1.05-.21.08-.31l.09,0A.18.18,0,0,1,28.85,11.3Z"/><path class="f" d="M30.44,10.75h0a0,0,0,0,0,0-.06.58.58,0,0,0-.36-.22,0,0,0,0,0,0,.09.5.5,0,0,1,.3.19Z"/><path class="f" d="M29,10.43a0,0,0,0,0,.05,0c0-.07.17,0,.22,0a0,0,0,0,0,0-.08h0c-.1,0-.27-.05-.32.07a0,0,0,0,0,0,.06Z"/><path class="h" d="M31,12s.42-.24.62.07-.49.79-.78.66S31,12,31,12Z"/><path class="f" d="M29.65,9.08a.58.58,0,0,0-.41,1l.07-.14.28.26V10l.78.39-.08-.23a2.48,2.48,0,0,0,1,.28C31.66,10.38,30.56,9.11,29.65,9.08Z"/><path class="e" d="M33.47,15.46c-1.31-.07-.61,1.78.5,3.53L29.73,20l.08.53s6.17.17,6.95-.37c.42-.29-1.09-2.47-2.09-3.67C33.81,15.53,33.47,15.46,33.47,15.46Z"/><path class="h" d="M22.47,12.93a5.2,5.2,0,0,0,.36.66c.15.2.41.8-.09,1.07s-1.55-.45-1.55-.45a.75.75,0,0,1-.22-.72c-.16-.15-.06-.5-.06-.5l-.18-.33c.38-.19.34.21.77.56a2.63,2.63,0,0,0,.53.2h0a2.82,2.82,0,0,0,.35.11h0a3.45,3.45,0,0,1,0-.52C22.37,12.84,22.47,12.93,22.47,12.93Z"/><path class="g" d="M21.14,14s0-.29.06-.3a.28.28,0,0,1,.15.14.55.55,0,0,0,.22.41c.21.16.1-.85.1-.85-.09.22-.44,0-.49-.18s-.12-.24-.19-.27-.1.07-.1.07A.16.16,0,0,1,21,13a.79.79,0,0,1,.23.32c0,.09,0-.09-.11-.05a.2.2,0,0,0-.11.12s.08-.07.14,0a.57.57,0,0,1,.07.21S21,13.57,21.14,14Z"/><path class="g" d="M22.38,13.53a.28.28,0,0,0-.08.4c.16.23,0,.36,0,.36s-.43-.49-.28-.87h0A2.82,2.82,0,0,0,22.38,13.53Z"/><path class="a" d="M10.35,22.08V38.26a.34.34,0,0,0,.34.34h8.64a.34.34,0,0,0,.34-.34V22.08a.34.34,0,0,1,.34-.34H96.33a.34.34,0,0,1,.34.34V38.26a.34.34,0,0,1-.34.34H87.7a.34.34,0,0,1-.34-.34V22.08a.34.34,0,0,0-.34-.34H10.69A.34.34,0,0,0,10.35,22.08Z"/><path class="d" d="M96.33,21.74a.34.34,0,0,1,.34.34V38.26a.34.34,0,0,1-.34.34H87.7a.34.34,0,0,1-.34-.34V22.08a.34.34,0,0,0-.34-.34H10.69a.34.34,0,0,0-.34.34V38.26a.34.34,0,0,0,.34.34"/><path class="p" d="M9.53,20.67H87.91a0,0,0,0,1,0,0v.84a0,0,0,0,1,0,0H10.37a.84.84,0,0,1-.84-.84v0A0,0,0,0,1,9.53,20.67Z"/><path class="q" d="M87.91,20.46h9.58a0,0,0,0,1,0,0v.21a.84.84,0,0,1-.84.84H87.91a0,0,0,0,1,0,0V20.46A0,0,0,0,1,87.91,20.46Z"/><path class="n" d="M89.16,20.22H9.06a.16.16,0,0,0-.16.16v.47a.16.16,0,0,0,.16.16h80.1Z"/><path class="r" d="M97.94,20.22H87.55a.16.16,0,0,0-.16.16v.47a.16.16,0,0,0,.16.16H97.94a.18.18,0,0,0,.18-.18V20.4A.18.18,0,0,0,97.94,20.22Z"/><path class="i" d="M75.83,20.22v-.55l2.6.25a.18.18,0,0,1,.17.18v.12Z"/><path class="j" d="M75.83,19.66H71.48a.18.18,0,0,0-.18.18v.37h4.53Z"/><path class="j" d="M76.68,17.76H69a.48.48,0,0,1-.47-.43L68,11.52a.39.39,0,0,1,.39-.43h7.68a.48.48,0,0,1,.47.43l.52,5.82A.39.39,0,0,1,76.68,17.76Z"/><path class="i" d="M76.38,17.76H68.71a.48.48,0,0,1-.47-.43l-.52-5.82a.39.39,0,0,1,.39-.43h7.68a.48.48,0,0,1,.47.43l.52,5.82A.39.39,0,0,1,76.38,17.76Z"/><path class="i" d="M69.52,20.22H73.7l-.31-.32a.26.26,0,0,0-.16-.08l-1.62-.17,1.24-2.41-.31-1.84H71l-.69,4.25-.58.15a.26.26,0,0,0-.19.18Z"/><path class="j" d="M70.26,20.22,71,15.6a.25.25,0,0,1,.25-.21h.95a.25.25,0,0,1,.24.33L71,20.22Z"/><path class="i" d="M61.57,20.22H57.39l.31-.32a.26.26,0,0,1,.16-.08l1.62-.17-1.24-2.41.31-1.84h1.5l.69,4.25.58.15a.26.26,0,0,1,.19.18Z"/><polygon class="j" points="59.76 17.22 60.23 19.63 59.48 19.64 58.24 17.23 59.76 17.22"/><path class="j" d="M54.71,17.76h7.68a.48.48,0,0,0,.47-.43l.52-5.82a.39.39,0,0,0-.39-.43H55.3a.48.48,0,0,0-.47.43l-.52,5.82A.39.39,0,0,0,54.71,17.76Z"/><path class="i" d="M54.42,17.76h7.68a.48.48,0,0,0,.47-.43l.52-5.82a.39.39,0,0,0-.39-.43H55a.48.48,0,0,0-.47.43L54,17.33A.39.39,0,0,0,54.42,17.76Z"/><polygon class="s" points="62.33 17.46 54.22 17.46 54.77 11.39 62.87 11.39 62.33 17.46"/><path class="g" d="M45.72,28l1.06-2.6c2.34-.47,3.3.55,3.94.56,1,0,1.11,1.75.88,2.81-.11.54-2.09,7.8-2,8.16a4.2,4.2,0,0,0,1,1.48h0a.9.9,0,0,1,.33.17.72.72,0,0,1,.12.13H49.7a1.84,1.84,0,0,1-.26-.34.63.63,0,0,0-.62-.26c-.13.11-.15.61-.15.73h-.16a2.85,2.85,0,0,1-.19-1c0-.2.2-.64.26-.86a15.65,15.65,0,0,0,.73-4.64c.1-1.74,0-3.05.72-3.93A12.81,12.81,0,0,1,45.72,28Z"/><path class="t" d="M49.7,38.81c-.14,0-.4-.28-.58-.43a.47.47,0,0,0-.27-.13,1,1,0,0,0-.18.55h-.16a2.85,2.85,0,0,1-.19-1,4.49,4.49,0,0,0,.2-.83c.5-.28.92.67,1.56,1.21.32.27.52.22.52.22h0a1.74,1.74,0,0,1,.39.12.63.63,0,0,1,.31.31Z"/><path class="h" d="M46.76,28l1.06-2.6c2.34-.47,3.3.55,3.94.56,1,0,1.11,1.75.88,2.81-.11.54-.17,7.8-.09,8.16a4.2,4.2,0,0,0,1,1.48h0a.9.9,0,0,1,.33.17.72.72,0,0,1,.12.13H52.66a1.84,1.84,0,0,1-.26-.34.63.63,0,0,0-.62-.26c-.13.11-.15.61-.15.73h-.16a2.85,2.85,0,0,1-.19-1c0-.2.2-.64.26-.86.3-1.16-.34-3.5-.6-4.64-.21-1-.59-3.05.13-3.93A12.81,12.81,0,0,1,46.76,28Z"/><path class="t" d="M52.66,38.81c-.14,0-.4-.28-.58-.43a.47.47,0,0,0-.27-.13,1,1,0,0,0-.18.55h-.16a2.85,2.85,0,0,1-.19-1,4.49,4.49,0,0,0,.2-.83c.5-.28.92.67,1.56,1.21.32.27.52.22.52.22h0a1.74,1.74,0,0,1,.39.12.63.63,0,0,1,.31.31Z"/><path class="t" d="M43.69,22.87s-2,2.51-1.56,4.31,8.34,1.35,8.34,1.35a5,5,0,0,0,1.48-2.58s-2.73-1.08-4.46-1.58a4.6,4.6,0,0,0-.14-1.67C47.09,21.66,43.69,22.87,43.69,22.87Z"/><path class="u" d="M42.08,26.71s6.1,1.71,7.49-1.66c0,0-.87-1.36-.13-1.67,3.85-1.62,3.76-6.12,2.12-6.57s-4.88-.84-5.38.41S38.93,25.06,42.08,26.71Z"/><path class="v" d="M51.86,17c-1.25-.15-.67,3.52,0,4.39,0,0,1.64-.27,3.89-.49s2.62-.08,2.84-.93-2-1.15-3.13-1.65A16.81,16.81,0,0,0,51.86,17Z"/><path class="i" d="M45.42,18.69a2.2,2.2,0,0,1,.42-2c.76-.84,2.66-.45,3.28-1.35s.46-2.27,2.78-2,1.58,2.82,2.23,3.73.26,1-.7.79c0,0,.52.08.52-.13v-.21s-.17.44-1.31,0-1.73-.7-2.51-.1-.15,1.46-.32,2.1a.83.83,0,0,1-.8.62s.64-.37.37-.89a2.64,2.64,0,0,1-.2-1.25s-.82.09-.7.81-.12,1-1.26,1.13a1.52,1.52,0,0,1-1.53-.55s.18.66.63.8A1.34,1.34,0,0,1,45.42,18.69Z"/><path class="a" d="M36.52,18.75l3.2,10.62a.75.75,0,0,0,.72.53h3.41a.75.75,0,0,1,.75.75v7.21a.75.75,0,0,1-.75.75h5.63a.75.75,0,0,0,.75-.75V30.64a.75.75,0,0,0-.75-.75H46.06a.75.75,0,0,1-.72-.53l-3.1-10.29a1.81,1.81,0,0,0-1.74-1.29H37.24A.75.75,0,0,0,36.52,18.75Z"/><path class="c" d="M43.26,24.78H38.91a.8.8,0,0,1-.76-.57l-1.46-4.85a.51.51,0,0,1,.49-.65h4.35a.8.8,0,0,1,.76.57l1.46,4.85A.51.51,0,0,1,43.26,24.78Z"/><path class="b" d="M42.67,24.78H38.91a.8.8,0,0,1-.76-.57l-1.46-4.85a.51.51,0,0,1,.49-.65h3.76a.8.8,0,0,1,.77.57l1.46,4.85A.51.51,0,0,1,42.67,24.78Z"/><path class="c" d="M40.79,27.77h9.28a0,0,0,0,1,0,0v0a1.7,1.7,0,0,1-1.7,1.7H42.49a1.7,1.7,0,0,1-1.7-1.7v0a0,0,0,0,1,0,0Z" transform="translate(90.85 57.25) rotate(180)"/><rect class="b" x="40.37" y="28.85" width="10.11" height="0.99" rx="0.5" ry="0.5" transform="translate(90.85 58.69) rotate(180)"/><path class="w" d="M39.44,38.6h10a.75.75,0,0,0,.75-.75V30.64a.75.75,0,0,0-.75-.75H46.06a.75.75,0,0,1-.72-.53l-3.1-10.29a1.81,1.81,0,0,0-1.74-1.29H37.24"/><path class="i" d="M26.46,20.22v-.55l2.6.25a.18.18,0,0,1,.17.18v.12Z"/><path class="j" d="M26.46,19.66H22.12a.18.18,0,0,0-.18.18v.37h4.53Z"/><path class="j" d="M25.34,17.76H17.66a.48.48,0,0,1-.47-.43l-.52-5.82a.39.39,0,0,1,.39-.43h7.68a.48.48,0,0,1,.47.43l.52,5.82A.39.39,0,0,1,25.34,17.76Z"/><path class="i" d="M25,17.76H17.37a.48.48,0,0,1-.47-.43l-.52-5.82a.39.39,0,0,1,.39-.43h7.68a.48.48,0,0,1,.47.43l.52,5.82A.39.39,0,0,1,25,17.76Z"/><path class="i" d="M18.18,20.22h4.18L22,19.89a.26.26,0,0,0-.16-.08l-1.62-.17,1.24-2.41-.31-1.84H19.7L19,19.64l-.58.15a.26.26,0,0,0-.19.18Z"/><path class="j" d="M18.92,20.22l.75-4.62a.25.25,0,0,1,.25-.21h.95a.25.25,0,0,1,.24.33l-1.4,4.5Z"/></svg>